G04 Layer_Color=8388736*
%FSLAX44Y44*%
%MOMM*%
%TF.FileFunction,Soldermask,Top*%
%TF.Part,Single*%
G01*
G75*
%TA.AperFunction,SMDPad,CuDef*%
%ADD52R,1.8500X3.6300*%
%ADD53R,3.1200X1.4700*%
%ADD54R,2.7400X1.4700*%
%ADD55R,1.0000X1.1500*%
%ADD56R,1.8000X1.4000*%
%ADD57R,1.4000X1.8000*%
%ADD58R,0.8500X1.2000*%
%ADD59R,1.1500X1.0000*%
%ADD60R,0.5600X1.4600*%
%ADD61R,1.2000X0.8500*%
%ADD62O,1.6000X1.1000*%
%ADD63R,1.4000X0.5000*%
%ADD64R,0.5000X1.4000*%
%ADD65R,2.3500X1.6500*%
%ADD66R,0.9500X1.1500*%
%ADD67R,3.6300X1.8500*%
%ADD68R,1.4700X2.7400*%
%ADD69R,1.4600X0.5600*%
%ADD70R,1.2000X0.8000*%
%ADD71R,1.8500X3.6300*%
%ADD72R,3.0000X0.9500*%
%ADD73R,1.1500X0.9500*%
%TA.AperFunction,ComponentPad*%
%ADD74C,2.2000*%
%ADD75C,1.8000*%
%TA.AperFunction,ViaPad*%
%ADD76C,5.7000*%
D52*
X307850Y358700D02*
D03*
Y646600D02*
D03*
X626950Y640850D02*
D03*
Y322950D02*
D03*
X495200Y640850D02*
D03*
Y292950D02*
D03*
D53*
X362650Y397650D02*
D03*
Y427650D02*
D03*
Y457650D02*
D03*
Y487650D02*
D03*
Y517650D02*
D03*
Y547650D02*
D03*
Y577650D02*
D03*
Y607650D02*
D03*
X408850Y397650D02*
D03*
Y427650D02*
D03*
Y457650D02*
D03*
Y487650D02*
D03*
Y517650D02*
D03*
Y547650D02*
D03*
Y577650D02*
D03*
Y607650D02*
D03*
D54*
X673950Y601900D02*
D03*
Y571900D02*
D03*
Y541900D02*
D03*
Y511900D02*
D03*
Y481900D02*
D03*
Y451900D02*
D03*
Y421900D02*
D03*
Y391900D02*
D03*
Y361900D02*
D03*
X579950Y601900D02*
D03*
Y571900D02*
D03*
Y541900D02*
D03*
Y511900D02*
D03*
Y481900D02*
D03*
Y451900D02*
D03*
Y421900D02*
D03*
Y391900D02*
D03*
Y361900D02*
D03*
X1224450Y393150D02*
D03*
Y423150D02*
D03*
Y453150D02*
D03*
Y483150D02*
D03*
X542200Y601900D02*
D03*
Y571900D02*
D03*
Y541900D02*
D03*
Y511900D02*
D03*
Y481900D02*
D03*
Y451900D02*
D03*
Y421900D02*
D03*
Y391900D02*
D03*
Y361900D02*
D03*
Y331900D02*
D03*
X448200Y601900D02*
D03*
Y571900D02*
D03*
Y541900D02*
D03*
Y511900D02*
D03*
Y481900D02*
D03*
Y451900D02*
D03*
Y421900D02*
D03*
Y391900D02*
D03*
Y361900D02*
D03*
Y331900D02*
D03*
D55*
X356500Y277250D02*
D03*
X370000D02*
D03*
X755000Y272250D02*
D03*
X768500D02*
D03*
Y305750D02*
D03*
X755000D02*
D03*
X909750Y375750D02*
D03*
X896250D02*
D03*
X628500Y271750D02*
D03*
X615000D02*
D03*
X1203000Y553250D02*
D03*
X1189500D02*
D03*
Y590750D02*
D03*
X1203000D02*
D03*
X1189500Y571750D02*
D03*
X1203000D02*
D03*
X1195000Y663250D02*
D03*
X1181500D02*
D03*
X1195250Y697000D02*
D03*
X1181750D02*
D03*
X1067000Y335250D02*
D03*
X1080500D02*
D03*
X1067750Y316250D02*
D03*
X1081250D02*
D03*
X1098750Y317250D02*
D03*
X1112250D02*
D03*
X1098500Y335250D02*
D03*
X1112000D02*
D03*
X1067750Y295000D02*
D03*
X1081250D02*
D03*
X1067750Y276000D02*
D03*
X1081250D02*
D03*
X1131500Y276750D02*
D03*
X1145000D02*
D03*
X1131500Y294750D02*
D03*
X1145000D02*
D03*
X1147000Y527500D02*
D03*
X1133500D02*
D03*
X1130750Y588250D02*
D03*
X1144250D02*
D03*
D56*
X726750Y302250D02*
D03*
Y273250D02*
D03*
X841250Y327000D02*
D03*
Y356000D02*
D03*
X652500Y269500D02*
D03*
Y298500D02*
D03*
X1045500Y518250D02*
D03*
Y547250D02*
D03*
X759000Y432750D02*
D03*
Y461750D02*
D03*
X945500Y518500D02*
D03*
Y547500D02*
D03*
X849750Y519250D02*
D03*
Y548250D02*
D03*
X757500Y521750D02*
D03*
Y550750D02*
D03*
X847000Y587250D02*
D03*
Y616250D02*
D03*
X755250Y588250D02*
D03*
Y617250D02*
D03*
X906500Y667000D02*
D03*
Y696000D02*
D03*
X819750Y667500D02*
D03*
Y696500D02*
D03*
X917250Y740000D02*
D03*
Y769000D02*
D03*
X817500Y738500D02*
D03*
Y767500D02*
D03*
X721000Y738500D02*
D03*
Y767500D02*
D03*
X716500Y666000D02*
D03*
Y695000D02*
D03*
X961500Y339250D02*
D03*
Y368250D02*
D03*
X880000Y280750D02*
D03*
Y309750D02*
D03*
X403500Y278750D02*
D03*
Y307750D02*
D03*
D57*
X790250Y274250D02*
D03*
X819250D02*
D03*
X1077750Y586250D02*
D03*
X1048750D02*
D03*
D58*
X573750Y271250D02*
D03*
X591750D02*
D03*
X582750Y295250D02*
D03*
X690250Y300750D02*
D03*
X699250Y276750D02*
D03*
X681250D02*
D03*
X352250Y311250D02*
D03*
X370250D02*
D03*
X361250Y335250D02*
D03*
D59*
X1097750Y535250D02*
D03*
Y548750D02*
D03*
X785750Y450500D02*
D03*
Y464000D02*
D03*
X969000Y536000D02*
D03*
Y549500D02*
D03*
X876750Y535000D02*
D03*
Y548500D02*
D03*
X782750Y538750D02*
D03*
Y552250D02*
D03*
X936250Y607250D02*
D03*
Y620750D02*
D03*
X874250Y603000D02*
D03*
Y616500D02*
D03*
X780000Y606000D02*
D03*
Y619500D02*
D03*
X931500Y683000D02*
D03*
Y696500D02*
D03*
X843250Y698000D02*
D03*
Y684500D02*
D03*
X941750Y756500D02*
D03*
Y770000D02*
D03*
X841000Y755000D02*
D03*
Y768500D02*
D03*
X749500Y756250D02*
D03*
Y769750D02*
D03*
X747750Y683750D02*
D03*
Y697250D02*
D03*
X1104000Y424250D02*
D03*
Y410750D02*
D03*
D60*
X648750Y767750D02*
D03*
X642250D02*
D03*
X635750D02*
D03*
X629250D02*
D03*
X622750D02*
D03*
X616250D02*
D03*
X609750D02*
D03*
X648750Y709750D02*
D03*
X642250D02*
D03*
X635750D02*
D03*
X629250D02*
D03*
X622750D02*
D03*
X616250D02*
D03*
X609750D02*
D03*
D61*
X735250Y444500D02*
D03*
Y462500D02*
D03*
X711250Y453500D02*
D03*
X995750Y539000D02*
D03*
X1019750Y548000D02*
D03*
Y530000D02*
D03*
X922000D02*
D03*
Y548000D02*
D03*
X898000Y539000D02*
D03*
X803250Y540750D02*
D03*
X827250Y549750D02*
D03*
Y531750D02*
D03*
X731750Y533500D02*
D03*
Y551500D02*
D03*
X707750Y542500D02*
D03*
X893500Y608250D02*
D03*
X917500Y617250D02*
D03*
Y599250D02*
D03*
X707750Y608250D02*
D03*
X731750Y617250D02*
D03*
Y599250D02*
D03*
X884750Y678250D02*
D03*
Y696250D02*
D03*
X860750Y687250D02*
D03*
X773500Y688000D02*
D03*
X797500Y697000D02*
D03*
Y679000D02*
D03*
X893750Y750500D02*
D03*
Y768500D02*
D03*
X869750Y759500D02*
D03*
X769750Y758500D02*
D03*
X793750Y767500D02*
D03*
Y749500D02*
D03*
X695500Y750250D02*
D03*
Y768250D02*
D03*
X671500Y759250D02*
D03*
X668500Y687750D02*
D03*
X692500Y696750D02*
D03*
Y678750D02*
D03*
X828750Y299000D02*
D03*
X852750Y308000D02*
D03*
Y290000D02*
D03*
X915500Y342750D02*
D03*
Y324750D02*
D03*
X939500Y333750D02*
D03*
X927500Y279500D02*
D03*
X903500Y270500D02*
D03*
Y288500D02*
D03*
X889750Y344500D02*
D03*
X865750Y335500D02*
D03*
Y353500D02*
D03*
X823500Y599250D02*
D03*
Y617250D02*
D03*
X799500Y608250D02*
D03*
D62*
X1219000Y613000D02*
D03*
Y628000D02*
D03*
X1196000Y613000D02*
D03*
Y628000D02*
D03*
D63*
X1077000Y390750D02*
D03*
Y395750D02*
D03*
Y400750D02*
D03*
Y405750D02*
D03*
Y410750D02*
D03*
Y415750D02*
D03*
Y420750D02*
D03*
Y425750D02*
D03*
Y430750D02*
D03*
Y435750D02*
D03*
Y440750D02*
D03*
Y445750D02*
D03*
Y450750D02*
D03*
Y455750D02*
D03*
Y460750D02*
D03*
Y465750D02*
D03*
X962500D02*
D03*
Y460750D02*
D03*
Y455750D02*
D03*
Y450750D02*
D03*
Y445750D02*
D03*
Y440750D02*
D03*
Y435750D02*
D03*
Y430750D02*
D03*
Y425750D02*
D03*
Y420750D02*
D03*
Y415750D02*
D03*
Y410750D02*
D03*
Y405750D02*
D03*
Y400750D02*
D03*
Y395750D02*
D03*
Y390750D02*
D03*
D64*
X1057250Y485500D02*
D03*
X1052250D02*
D03*
X1047250D02*
D03*
X1042250D02*
D03*
X1037250D02*
D03*
X1032250D02*
D03*
X1027250D02*
D03*
X1022250D02*
D03*
X1017250D02*
D03*
X1012250D02*
D03*
X1007250D02*
D03*
X1002250D02*
D03*
X997250D02*
D03*
X992250D02*
D03*
X987250D02*
D03*
X982250D02*
D03*
Y371000D02*
D03*
X987250D02*
D03*
X992250D02*
D03*
X997250D02*
D03*
X1002250D02*
D03*
X1007250D02*
D03*
X1012250D02*
D03*
X1017250D02*
D03*
X1022250D02*
D03*
X1027250D02*
D03*
X1032250D02*
D03*
X1037250D02*
D03*
X1042250D02*
D03*
X1047250D02*
D03*
X1052250D02*
D03*
X1057250D02*
D03*
D65*
X1133500Y423250D02*
D03*
Y386250D02*
D03*
D66*
X1230750Y663250D02*
D03*
X1216250D02*
D03*
X1231000Y697000D02*
D03*
X1216500D02*
D03*
D67*
X522000Y781050D02*
D03*
X359300D02*
D03*
D68*
X395650Y749050D02*
D03*
X425650D02*
D03*
X455650D02*
D03*
X485650D02*
D03*
D69*
X1013250Y277250D02*
D03*
Y283750D02*
D03*
Y290250D02*
D03*
Y296750D02*
D03*
Y303250D02*
D03*
Y309750D02*
D03*
Y316250D02*
D03*
X955250Y277250D02*
D03*
Y283750D02*
D03*
Y290250D02*
D03*
Y296750D02*
D03*
Y303250D02*
D03*
Y309750D02*
D03*
Y316250D02*
D03*
X774000Y342500D02*
D03*
Y349000D02*
D03*
Y355500D02*
D03*
Y362000D02*
D03*
Y368500D02*
D03*
Y375000D02*
D03*
Y381500D02*
D03*
X716000Y342500D02*
D03*
Y349000D02*
D03*
Y355500D02*
D03*
Y362000D02*
D03*
Y368500D02*
D03*
Y375000D02*
D03*
Y381500D02*
D03*
D70*
X1131500Y344500D02*
D03*
Y363500D02*
D03*
X1158500D02*
D03*
Y354000D02*
D03*
Y344500D02*
D03*
X1106000Y464500D02*
D03*
Y483500D02*
D03*
X1133000D02*
D03*
Y474000D02*
D03*
Y464500D02*
D03*
X1132250Y566250D02*
D03*
Y556750D02*
D03*
Y547250D02*
D03*
X1159250D02*
D03*
Y566250D02*
D03*
D71*
X1192450Y519500D02*
D03*
Y356800D02*
D03*
D72*
X926750Y404751D02*
D03*
Y417251D02*
D03*
Y429751D02*
D03*
Y442251D02*
D03*
Y454751D02*
D03*
X885750Y404751D02*
D03*
Y417251D02*
D03*
Y429751D02*
D03*
Y442251D02*
D03*
Y454751D02*
D03*
D73*
X591750Y767750D02*
D03*
Y753250D02*
D03*
X795250Y381500D02*
D03*
Y367000D02*
D03*
D74*
X1112600Y672650D02*
D03*
X1011000D02*
D03*
D75*
X1112600Y774250D02*
D03*
X1011000D02*
D03*
D76*
X1203250Y300250D02*
D03*
Y753250D02*
D03*
X300000Y300250D02*
D03*
X300000Y753250D02*
D03*
%TF.MD5,2b871de818bb83c2d3acd42d3d86a288*%
M02*
