G04 Layer_Physical_Order=2*
G04 Layer_Color=36540*
%FSLAX44Y44*%
%MOMM*%
G71*
G01*
G75*
%ADD32C,0.4000*%
%ADD33C,0.2500*%
%ADD34C,0.2000*%
%ADD37C,2.0000*%
%ADD38C,0.4500*%
%ADD39C,0.9000*%
%ADD40C,0.6000*%
%ADD42C,3.0000*%
%ADD43C,0.6000*%
G36*
X559832Y332895D02*
X561485Y331790D01*
X563436Y331402D01*
X572221D01*
X573606Y329402D01*
X573430Y328516D01*
X573818Y326565D01*
X574923Y324911D01*
X576577Y323806D01*
X578528Y323418D01*
X580479Y323806D01*
X582133Y324911D01*
X582848Y325981D01*
X583494Y326488D01*
X584799Y327104D01*
X585600Y326944D01*
X586388Y326729D01*
X589904Y326479D01*
X590086Y326502D01*
X590266Y326466D01*
X599298D01*
X599413Y326489D01*
X599529Y326471D01*
X601804Y326574D01*
X603250Y325192D01*
Y316664D01*
X602250Y316250D01*
X581515D01*
X580078Y317210D01*
X578127Y317598D01*
X570862D01*
X522855Y365605D01*
X521201Y366710D01*
X519250Y367098D01*
X518348Y366918D01*
X516348Y368297D01*
Y372686D01*
X516133Y373765D01*
X517977Y374750D01*
X559832Y332895D01*
D02*
G37*
G36*
X603250Y620000D02*
Y592894D01*
X602924Y592406D01*
X602691Y591235D01*
X602691Y591235D01*
Y586265D01*
X602691Y586265D01*
X602924Y585094D01*
X603250Y584606D01*
Y337460D01*
X602607Y336817D01*
X599182Y336662D01*
X590447D01*
X589009Y336764D01*
X586913Y338861D01*
X586383Y340912D01*
X587488Y342566D01*
X587876Y344517D01*
X587488Y346468D01*
X586383Y348122D01*
X584729Y349227D01*
X582778Y349615D01*
X580827Y349227D01*
X579174Y348122D01*
X578069Y346468D01*
X577681Y344517D01*
X577860Y343614D01*
X576482Y341614D01*
X575215D01*
X575134Y341598D01*
X565548D01*
X521650Y385495D01*
X522090Y387884D01*
X522855Y388395D01*
X523960Y390049D01*
X524348Y392000D01*
X523960Y393951D01*
X522855Y395605D01*
X521201Y396710D01*
X519250Y397098D01*
X517299Y396710D01*
X515645Y395605D01*
X515134Y394840D01*
X512746Y394400D01*
X509348Y397798D01*
Y403000D01*
X508960Y404951D01*
X507855Y406605D01*
X506201Y407710D01*
X504250Y408098D01*
X502299Y407710D01*
X500645Y406605D01*
X499540Y404951D01*
X499152Y403000D01*
Y395686D01*
X499540Y393735D01*
X500645Y392081D01*
X503548Y389179D01*
X502563Y387336D01*
X502500Y387348D01*
X500549Y386960D01*
X498895Y385855D01*
X497790Y384201D01*
X497402Y382250D01*
X497790Y380299D01*
X498895Y378645D01*
X500549Y377540D01*
X502500Y377152D01*
X504277Y377505D01*
X504750Y377125D01*
X505620Y375916D01*
X505476Y375701D01*
X505088Y373750D01*
X505476Y371799D01*
X506152Y370788D01*
Y358686D01*
X506540Y356735D01*
X507645Y355081D01*
X544629Y318098D01*
X543864Y316250D01*
X389000D01*
X382750Y619500D01*
X384500Y621250D01*
X510772D01*
X511251Y620548D01*
X511658Y619250D01*
X510790Y617951D01*
X510402Y616000D01*
X510790Y614049D01*
X511895Y612395D01*
X513549Y611290D01*
X515500Y610902D01*
X517451Y611290D01*
X519105Y612395D01*
X520210Y614049D01*
X520598Y616000D01*
X520210Y617951D01*
X519342Y619250D01*
X519748Y620548D01*
X520228Y621250D01*
X521737D01*
X522799Y620540D01*
X524750Y620152D01*
X526701Y620540D01*
X527763Y621250D01*
X602000D01*
X603250Y620000D01*
D02*
G37*
%LPC*%
G36*
X504500Y486348D02*
X502549Y485960D01*
X500895Y484855D01*
X499790Y483201D01*
X499402Y481250D01*
X499790Y479299D01*
X500895Y477645D01*
X502549Y476540D01*
X504500Y476152D01*
X506451Y476540D01*
X508105Y477645D01*
X509210Y479299D01*
X509598Y481250D01*
X509210Y483201D01*
X508105Y484855D01*
X506451Y485960D01*
X504500Y486348D01*
D02*
G37*
G36*
X519500Y487098D02*
X517549Y486710D01*
X515895Y485605D01*
X514790Y483951D01*
X514402Y482000D01*
X514790Y480049D01*
X515895Y478395D01*
X517549Y477290D01*
X519500Y476902D01*
X521451Y477290D01*
X523105Y478395D01*
X524210Y480049D01*
X524598Y482000D01*
X524210Y483951D01*
X523105Y485605D01*
X521451Y486710D01*
X519500Y487098D01*
D02*
G37*
G36*
X509750Y472348D02*
X507799Y471960D01*
X506145Y470855D01*
X505040Y469201D01*
X504652Y467250D01*
X505040Y465299D01*
X505902Y464009D01*
X505304Y462637D01*
X504911Y462167D01*
X504000Y462348D01*
X502049Y461960D01*
X500395Y460855D01*
X499290Y459201D01*
X498902Y457250D01*
X499290Y455299D01*
X500395Y453645D01*
X502049Y452540D01*
X504000Y452152D01*
X505951Y452540D01*
X507605Y453645D01*
X508710Y455299D01*
X509098Y457250D01*
X508710Y459201D01*
X507848Y460491D01*
X508446Y461863D01*
X508839Y462333D01*
X509750Y462152D01*
X511701Y462540D01*
X513355Y463645D01*
X514460Y465299D01*
X514848Y467250D01*
X514460Y469201D01*
X513355Y470855D01*
X511701Y471960D01*
X509750Y472348D01*
D02*
G37*
G36*
X519750Y427098D02*
X517799Y426710D01*
X516145Y425605D01*
X515040Y423951D01*
X514652Y422000D01*
X515040Y420049D01*
X516145Y418395D01*
X517799Y417290D01*
X519750Y416902D01*
X521701Y417290D01*
X523355Y418395D01*
X524460Y420049D01*
X524848Y422000D01*
X524460Y423951D01*
X523355Y425605D01*
X521701Y426710D01*
X519750Y427098D01*
D02*
G37*
G36*
X519775Y459620D02*
X517825Y459232D01*
X516171Y458127D01*
X515065Y456473D01*
X514677Y454522D01*
X515065Y452571D01*
X516171Y450917D01*
X517825Y449812D01*
X519775Y449424D01*
X521726Y449812D01*
X523380Y450917D01*
X524485Y452571D01*
X524873Y454522D01*
X524485Y456473D01*
X523380Y458127D01*
X521726Y459232D01*
X519775Y459620D01*
D02*
G37*
G36*
X513250Y498348D02*
X511299Y497960D01*
X509645Y496855D01*
X508540Y495201D01*
X508152Y493250D01*
X508540Y491299D01*
X509645Y489645D01*
X511299Y488540D01*
X513250Y488152D01*
X515201Y488540D01*
X516855Y489645D01*
X517960Y491299D01*
X518348Y493250D01*
X517960Y495201D01*
X516855Y496855D01*
X515201Y497960D01*
X513250Y498348D01*
D02*
G37*
G36*
X519250Y576848D02*
X517299Y576460D01*
X515645Y575355D01*
X514540Y573701D01*
X514152Y571750D01*
X514540Y569799D01*
X515645Y568145D01*
X517299Y567040D01*
X519250Y566652D01*
X521201Y567040D01*
X522855Y568145D01*
X523960Y569799D01*
X524348Y571750D01*
X523960Y573701D01*
X522855Y575355D01*
X521201Y576460D01*
X519250Y576848D01*
D02*
G37*
G36*
X509750Y593848D02*
X507799Y593460D01*
X506145Y592355D01*
X505040Y590701D01*
X504652Y588750D01*
X505040Y586799D01*
X506145Y585145D01*
X507799Y584040D01*
X509750Y583652D01*
X511701Y584040D01*
X513355Y585145D01*
X514460Y586799D01*
X514848Y588750D01*
X514460Y590701D01*
X513355Y592355D01*
X511701Y593460D01*
X509750Y593848D01*
D02*
G37*
G36*
X519250Y602848D02*
X517299Y602460D01*
X515645Y601355D01*
X514540Y599701D01*
X514152Y597750D01*
X514540Y595799D01*
X515645Y594145D01*
X517299Y593040D01*
X519250Y592652D01*
X521201Y593040D01*
X522855Y594145D01*
X523960Y595799D01*
X524348Y597750D01*
X523960Y599701D01*
X522855Y601355D01*
X521201Y602460D01*
X519250Y602848D01*
D02*
G37*
G36*
X503750Y510348D02*
X501799Y509960D01*
X500145Y508855D01*
X499040Y507201D01*
X498652Y505250D01*
X499040Y503299D01*
X500145Y501645D01*
X501799Y500540D01*
X503750Y500152D01*
X505701Y500540D01*
X507355Y501645D01*
X508460Y503299D01*
X508848Y505250D01*
X508460Y507201D01*
X507355Y508855D01*
X505701Y509960D01*
X503750Y510348D01*
D02*
G37*
G36*
X519500Y517098D02*
X517549Y516710D01*
X515895Y515605D01*
X514790Y513951D01*
X514402Y512000D01*
X514790Y510049D01*
X515895Y508395D01*
X517549Y507290D01*
X519500Y506902D01*
X521451Y507290D01*
X523105Y508395D01*
X524210Y510049D01*
X524598Y512000D01*
X524210Y513951D01*
X523105Y515605D01*
X521451Y516710D01*
X519500Y517098D01*
D02*
G37*
G36*
X519250Y546848D02*
X517299Y546460D01*
X515645Y545355D01*
X514540Y543701D01*
X514152Y541750D01*
X514540Y539799D01*
X515645Y538145D01*
X517299Y537040D01*
X519250Y536652D01*
X521201Y537040D01*
X522855Y538145D01*
X523960Y539799D01*
X524348Y541750D01*
X523960Y543701D01*
X522855Y545355D01*
X521201Y546460D01*
X519250Y546848D01*
D02*
G37*
%LPD*%
D32*
X777418Y603000D02*
X788889Y591529D01*
X794688D01*
X797159Y594000D01*
X857500D01*
X699351Y603000D02*
X777418D01*
X767316Y592250D02*
X771538Y588029D01*
X698101Y592250D02*
X701350Y589000D01*
X707150D01*
X710399Y592250D01*
X767316D01*
X695100Y598750D02*
X699351Y603000D01*
X620649Y592250D02*
X698101D01*
X617250Y598750D02*
X695100D01*
X620149Y591750D02*
X620649Y592250D01*
X611750Y588750D02*
X614750Y591750D01*
X620149D01*
X536250Y295500D02*
X560500Y271250D01*
X536250Y295500D02*
Y304250D01*
X857500Y594000D02*
X864250Y587250D01*
X848000Y726577D02*
X848541Y726035D01*
X848000Y726577D02*
Y740250D01*
X851500Y743750D01*
X878000D01*
X888500Y733250D01*
Y729500D02*
Y733250D01*
D33*
X902339Y639750D02*
X918339D01*
X900089Y637500D02*
X902339Y639750D01*
X918339D02*
X919839Y641250D01*
X823339Y637500D02*
X900089D01*
X819339Y641500D02*
X823339Y637500D01*
X746479Y641500D02*
X819339D01*
X726286Y661694D02*
X746479Y641500D01*
X873000Y728250D02*
X876500Y724750D01*
X752250Y664972D02*
Y669528D01*
X752037Y664759D02*
X752250Y664972D01*
X752037Y664713D02*
Y664759D01*
Y664713D02*
X754250Y662500D01*
X695062Y724036D02*
X698284Y727257D01*
X979048Y660032D02*
X979468D01*
X984000Y655500D01*
X549500Y727500D02*
Y732250D01*
X1237000Y548660D02*
X1240000Y545660D01*
X747536Y491524D02*
Y495714D01*
X703250Y622000D02*
Y634911D01*
X900250Y375661D02*
X910500Y385911D01*
X900250Y360411D02*
Y375661D01*
X1190513Y722500D02*
X1215987D01*
X1222487Y729000D01*
X1234000D01*
X732000Y511250D02*
X747536Y495714D01*
X1054551Y570778D02*
Y620860D01*
X1171161Y618250D02*
X1222500D01*
X834000Y420661D02*
Y425480D01*
X1185013Y717000D02*
X1190513Y722500D01*
X1156911Y723000D02*
X1162089D01*
X1168089Y717000D02*
X1185013D01*
X1150911D02*
X1156911Y723000D01*
X1162089D02*
X1168089Y717000D01*
X1237000Y548660D02*
Y603750D01*
X1240000Y541152D02*
Y545660D01*
X1028000Y324500D02*
X1028626D01*
X699284Y524776D02*
X699636D01*
X712661Y511750D01*
X731250D01*
X1237750Y504250D02*
Y519563D01*
X1241310Y523123D01*
Y539843D01*
X1240000Y541152D02*
X1241310Y539843D01*
X1143250Y717000D02*
X1150911D01*
X675033Y649032D02*
X693000Y631065D01*
Y622000D02*
Y631065D01*
X642500Y695661D02*
X703250Y634911D01*
X829750Y416411D02*
X834000Y420661D01*
X829750Y367500D02*
Y416411D01*
X814540Y352290D02*
X829750Y367500D01*
X834000Y425480D02*
X838041Y429521D01*
X910500Y385911D02*
Y429477D01*
X1028626Y324500D02*
X1057250Y353124D01*
Y357500D01*
X987387Y349017D02*
X987404Y349000D01*
X987404D02*
X987404D01*
X987404D02*
X991250Y345154D01*
X994911Y336000D02*
X1000089D01*
X1090803Y421020D02*
X1097250Y414573D01*
X1054661Y363750D02*
X1056047D01*
X1034661Y343750D02*
X1054661Y363750D01*
X1007839Y343750D02*
X1034661D01*
X780661Y719500D02*
X850845D01*
X726286Y661694D02*
Y670282D01*
X764000Y411500D02*
X783250Y430750D01*
X789339D01*
X793000Y434411D01*
Y439589D01*
X793000Y439589D02*
X793000Y439589D01*
X793000Y439589D02*
Y443728D01*
X836522Y487250D01*
X862089D01*
X863953Y491750D02*
X872429Y483274D01*
X938707D01*
X943207Y487774D01*
X948385D01*
X1117216Y642782D02*
X1120716Y639282D01*
X1125894D01*
X1129555Y642943D01*
X1150438Y606250D02*
X1154968Y610779D01*
X1163691D01*
X1171161Y618250D01*
X1075750Y625750D02*
X1089500Y612000D01*
X1222500Y618250D02*
X1237000Y603750D01*
X1164250Y527500D02*
Y587336D01*
Y527500D02*
X1164750Y527000D01*
X1111471Y592029D02*
X1159557D01*
X1164250Y587336D01*
X1145750Y606250D02*
X1150438D01*
X1221500Y532305D02*
Y537589D01*
X1220810Y531615D02*
X1221500Y532305D01*
X1220250Y538839D02*
X1221500Y537589D01*
X1220810Y526437D02*
X1221500Y525747D01*
Y484216D02*
Y525747D01*
X1220810Y526437D02*
Y531615D01*
X1219000Y595411D02*
Y600589D01*
Y595411D02*
X1220250Y594161D01*
Y538839D02*
Y594161D01*
X1218250Y478902D02*
Y480966D01*
X1222000Y387000D02*
X1231250Y377750D01*
X1183568Y612818D02*
X1213000D01*
X1169029Y598279D02*
X1183568Y612818D01*
X1097303Y621280D02*
X1116970D01*
X1153279Y598279D02*
X1169029D01*
X1140000Y598250D02*
X1153250D01*
X1218250Y480966D02*
X1221500Y484216D01*
X1218152Y466314D02*
X1218339D01*
X1214000Y462161D02*
X1218152Y466314D01*
X1214000Y458284D02*
Y462161D01*
X1153250Y598250D02*
X1153279Y598279D01*
X1116970Y621280D02*
X1140000Y598250D01*
X1218339Y466314D02*
X1219750Y467725D01*
Y477402D01*
X1218250Y478902D02*
X1219750Y477402D01*
X1214000Y458284D02*
X1222000Y450284D01*
Y387000D02*
Y450284D01*
X1000089Y336000D02*
X1007839Y343750D01*
X997500Y342250D02*
Y361500D01*
X991250Y339661D02*
Y345154D01*
Y339661D02*
X994911Y336000D01*
X1102750Y404089D02*
Y454500D01*
X1105250Y598250D02*
X1111471Y592029D01*
X1096411Y598250D02*
X1105250D01*
X1000250Y457750D02*
X1003228Y454772D01*
X1004638D01*
X1008750Y450660D01*
Y444000D02*
Y450660D01*
X866364Y473614D02*
X910500Y429477D01*
X996089Y465250D02*
X1000250Y461089D01*
Y457750D02*
Y461089D01*
X1013823Y478500D02*
X1023800Y468523D01*
X1009572Y469750D02*
X1015550Y463773D01*
X1069500Y636589D02*
X1075693Y642782D01*
X1117216D01*
X944500Y649250D02*
X1056839D01*
X1069500Y636589D01*
X936500Y641250D02*
X944500Y649250D01*
X919839Y641250D02*
X936500D01*
X984000Y655500D02*
X1103941D01*
X980250Y635750D02*
X1044432D01*
X1050213Y641531D01*
X1055390D01*
X1059051Y637870D01*
X1088911Y605750D02*
X1096411Y598250D01*
X1086911Y605750D02*
X1088911D01*
X1069500Y623161D02*
X1086911Y605750D01*
X1083000Y472500D02*
X1084750D01*
X1102750Y454500D01*
X1057140Y564528D02*
X1065000Y572388D01*
X1015500Y428250D02*
Y432411D01*
X985000Y416250D02*
X993250Y408000D01*
X1097250Y404953D02*
Y414573D01*
X1056047Y363750D02*
X1097250Y404953D01*
X1057250Y357500D02*
X1083000Y383250D01*
Y384339D01*
X1102750Y404089D01*
X997500Y361500D02*
X1031250Y395250D01*
Y405161D01*
X1036500Y410411D01*
Y417250D01*
X1049500Y430250D01*
X1050750Y564528D02*
X1057140D01*
X1008750Y444000D02*
X1012250Y440500D01*
Y435661D02*
Y440500D01*
Y435661D02*
X1015500Y432411D01*
X1023000Y426278D02*
X1026222Y429500D01*
X1030307D01*
X1033550Y432743D01*
X862089Y487250D02*
X884089Y465250D01*
X948385Y487774D02*
X966408Y469750D01*
X884089Y465250D02*
X996089D01*
X966408Y469750D02*
X1009572D01*
X946272Y496250D02*
X964022Y478500D01*
X1013823D01*
X978278Y483000D02*
X1022250D01*
X970778Y490500D02*
X978278Y483000D01*
X970778Y490500D02*
Y494783D01*
X974269Y498274D01*
X1062726Y492774D02*
X1083000Y472500D01*
X988048Y501826D02*
X1050750Y564528D01*
X988048Y500496D02*
Y501826D01*
X984826Y497275D02*
X988048Y500496D01*
X979825Y497275D02*
X984826D01*
X978826Y498274D02*
X979825Y497275D01*
X974269Y498274D02*
X978826D01*
X976548Y492774D02*
X1062726D01*
X1022250Y483000D02*
X1033550Y471700D01*
Y432743D02*
Y471700D01*
X1023000Y416250D02*
Y426278D01*
X1014750Y408000D02*
X1023000Y416250D01*
X993250Y408000D02*
X1014750D01*
X900250Y360411D02*
X905500Y355161D01*
Y352750D02*
Y355161D01*
X566500Y723000D02*
X620722D01*
X671065Y734286D02*
X679565Y725785D01*
X620722Y723000D02*
X625972Y717750D01*
X561000Y714250D02*
X561500Y713750D01*
X561000Y714250D02*
Y725278D01*
X564222Y728500D01*
X685589Y744750D02*
X686000Y745161D01*
X691839D01*
X669505Y734286D02*
X671065D01*
X666283Y737508D02*
Y739068D01*
Y737508D02*
X669505Y734286D01*
X683000Y751000D02*
X684339Y749661D01*
X691536Y724036D02*
X694312D01*
X691250Y723750D02*
X691536Y724036D01*
X680961Y744750D02*
X685589D01*
X694312Y724036D02*
X695062D01*
X690964D02*
X691250Y723750D01*
X690506Y724036D02*
X690964D01*
X674061Y745286D02*
X677283Y742064D01*
X666428Y745286D02*
X674061D01*
X674461Y751250D02*
X680961Y744750D01*
X549500Y732250D02*
X565589Y748339D01*
X643531Y741559D02*
X648722Y746750D01*
X658600D01*
X666283Y739068D01*
X651000Y729112D02*
Y741250D01*
X625972Y717750D02*
X633274D01*
X642500Y695661D02*
Y720612D01*
X651000Y729112D01*
X633274Y717750D02*
X643531Y728008D01*
Y741559D01*
X644994Y755750D02*
X662328D01*
X666828Y751250D01*
X674461D01*
X565589Y748339D02*
X583697D01*
X587608Y752250D01*
X641494D02*
X644994Y755750D01*
X587608Y752250D02*
X641494D01*
X660464Y751250D02*
X666428Y745286D01*
X646858Y751250D02*
X660464D01*
X643358Y747750D02*
X646858Y751250D01*
X589472Y747750D02*
X643358D01*
X586250Y744528D02*
X589472Y747750D01*
X586250Y738500D02*
Y744528D01*
X576250Y728500D02*
X586250Y738500D01*
X564222Y728500D02*
X576250D01*
X751000Y670778D02*
X752250Y669528D01*
X751000Y670778D02*
Y730500D01*
X775161Y725000D02*
X780661Y719500D01*
X766750Y725000D02*
X775161D01*
X828218Y646532D02*
X828290D01*
X828000Y646750D02*
X828218Y646532D01*
X971483Y349017D02*
X987387D01*
X926750Y393750D02*
X971483Y349017D01*
X745750Y411750D02*
X753500D01*
X780500Y438750D01*
Y439589D01*
X832661Y491750D01*
X863953D01*
X776000Y440614D02*
Y441453D01*
X830797Y496250D01*
X743161Y418000D02*
X748339D01*
X750089Y416250D01*
X751636D01*
X776000Y440614D01*
X830797Y496250D02*
X946272D01*
X731000Y411250D02*
X736411D01*
X743161Y418000D01*
X684339Y749661D02*
X693703D01*
X677283Y737258D02*
Y742064D01*
X681755Y732786D02*
X682561D01*
X677283Y737258D02*
X681755Y732786D01*
X699756Y726036D02*
X704312D01*
X698284Y727257D02*
X698534D01*
X699756Y726036D01*
X691839Y745161D02*
X702034Y734966D01*
X1103941Y655500D02*
X1107941Y651500D01*
X1117336D01*
X1075750Y625750D02*
Y634000D01*
X1069500Y623161D02*
Y636589D01*
X1065000Y572388D02*
Y634725D01*
X1064526Y635199D02*
X1065000Y634725D01*
X1059051Y635199D02*
X1064526D01*
X1059051D02*
Y637870D01*
X1054161Y621250D02*
X1054551Y620860D01*
X1129555Y642943D02*
Y646443D01*
X1132894Y649782D01*
X1134394Y648282D01*
X1232310D01*
X1117336Y651500D02*
X1123305Y645531D01*
X1123055Y632031D02*
X1123774Y632750D01*
X1040250Y748000D02*
X1148250D01*
X1163375Y763125D01*
Y767125D01*
X814540Y352290D02*
Y353517D01*
X687283Y727258D02*
X690506Y724036D01*
X687283Y727258D02*
Y728064D01*
X682561Y732786D02*
X687283Y728064D01*
X679565Y725785D02*
X681783D01*
X707534Y729258D02*
Y735830D01*
X704312Y726036D02*
X707534Y729258D01*
X693703Y749661D02*
X707534Y735830D01*
X702034Y731536D02*
Y734966D01*
X751000Y730500D02*
X753250Y732750D01*
X669283Y727286D02*
X726286Y670282D01*
X850845Y719500D02*
X854791Y723447D01*
Y725630D01*
X857411Y728250D01*
X873000D01*
X925295Y291455D02*
X940000Y276750D01*
X925295Y291455D02*
Y313515D01*
D34*
X905250Y718250D02*
X913500Y726500D01*
X891485Y718250D02*
X905250D01*
X872735Y737000D02*
X891485Y718250D01*
X753537Y489039D02*
Y495724D01*
X710500Y446002D02*
X753537Y489039D01*
X710500Y430500D02*
Y446002D01*
X651000Y648765D02*
Y657750D01*
X606750Y611485D02*
X611265Y616000D01*
X606750Y592235D02*
Y611485D01*
X618235Y616000D02*
X651000Y648765D01*
X611265Y616000D02*
X618235D01*
X605750Y591235D02*
X606750Y592235D01*
X605750Y586265D02*
Y591235D01*
Y586265D02*
X609265Y582750D01*
X685000D01*
X686750Y584500D01*
X694500D01*
X822500Y391500D02*
Y418500D01*
X794000Y422985D02*
X795965Y421020D01*
X811250Y445500D02*
X846750Y481000D01*
X855500Y735500D02*
X857000Y737000D01*
X872735D01*
X795965Y421020D02*
X796774D01*
X805000Y409750D02*
Y412794D01*
X796774Y421020D02*
X805000Y412794D01*
X807250Y376250D02*
X822500Y391500D01*
X794000Y422985D02*
Y429401D01*
X797250Y432651D01*
X803289Y437711D02*
X822500Y418500D01*
X803289Y437711D02*
Y439521D01*
X805775Y445521D02*
X805796Y445500D01*
X811250D01*
X797250Y432651D02*
Y441968D01*
X800804Y445521D01*
X805775D01*
X851750Y473500D02*
X866250D01*
X866364Y473614D01*
X846750Y481000D02*
X859500D01*
X1219000Y600589D02*
Y606818D01*
X1213000Y612818D02*
X1219000Y606818D01*
X731260Y518000D02*
X753537Y495724D01*
X726250Y518000D02*
X731260D01*
D37*
X1112600Y672650D02*
D03*
D38*
X888500Y729500D02*
D03*
X848541Y726035D02*
D03*
X854250Y736750D02*
D03*
X754250Y662500D02*
D03*
X979048Y660032D02*
D03*
X549500Y727500D02*
D03*
X913500Y726500D02*
D03*
X693000Y622000D02*
D03*
X703250D02*
D03*
X985000Y416250D02*
D03*
X926750Y393750D02*
D03*
X864250Y587250D02*
D03*
X675033Y649032D02*
D03*
X771538Y588029D02*
D03*
X1040250Y748000D02*
D03*
X651000Y657750D02*
D03*
X1206000Y439000D02*
D03*
X1049500Y430250D02*
D03*
X1090803Y421020D02*
D03*
X953500Y736500D02*
D03*
X876500Y724750D02*
D03*
X1089500Y612000D02*
D03*
X1097303Y621280D02*
D03*
X925295Y313515D02*
D03*
X997500Y342250D02*
D03*
X1023800Y468523D02*
D03*
X1015550Y463773D02*
D03*
X980250Y635750D02*
D03*
X1015500Y428250D02*
D03*
X976548Y492774D02*
D03*
X905500Y352750D02*
D03*
X561500Y713750D02*
D03*
X566500Y723000D02*
D03*
X683000Y751000D02*
D03*
X651000Y741250D02*
D03*
X766750Y725000D02*
D03*
X1075750Y634000D02*
D03*
X1123305Y645531D02*
D03*
X1123055Y632031D02*
D03*
X681783Y725785D02*
D03*
X702034Y731536D02*
D03*
X753250Y732750D02*
D03*
X669283Y727286D02*
D03*
X940000Y276750D02*
D03*
D39*
X828290Y646532D02*
D03*
X1164750Y764250D02*
D03*
D40*
X925500Y577750D02*
D03*
X595250Y377000D02*
D03*
X582250Y376750D02*
D03*
X568250Y377000D02*
D03*
X596000Y407000D02*
D03*
X582250Y407250D02*
D03*
X568750Y407000D02*
D03*
X593750Y497000D02*
D03*
X581750Y497250D02*
D03*
X570500D02*
D03*
X471750Y419000D02*
D03*
X481000Y414250D02*
D03*
X471750Y406750D02*
D03*
X481000Y399250D02*
D03*
X472000Y392000D02*
D03*
X483500Y502500D02*
D03*
X470000D02*
D03*
X482750Y522000D02*
D03*
X470000D02*
D03*
X484500Y543000D02*
D03*
X470500Y543750D02*
D03*
X483250Y569750D02*
D03*
X469750D02*
D03*
X483500Y591250D02*
D03*
X472250D02*
D03*
X483250Y612000D02*
D03*
X471500D02*
D03*
X510250Y373750D02*
D03*
X510500Y727250D02*
D03*
X944500Y649250D02*
D03*
X1152750Y476250D02*
D03*
X628250Y376000D02*
D03*
X631750Y385000D02*
D03*
X1225250Y598000D02*
D03*
X747536Y491524D02*
D03*
X699284Y524776D02*
D03*
X739036Y519025D02*
D03*
X675000Y328750D02*
D03*
X519250Y362000D02*
D03*
X1234000Y729000D02*
D03*
X868500Y518750D02*
D03*
X1156250Y661750D02*
D03*
X1237750Y504250D02*
D03*
X560500Y271250D02*
D03*
X764000Y411500D02*
D03*
X745750Y411750D02*
D03*
X731000Y411250D02*
D03*
X710500Y430500D02*
D03*
X1054551Y570778D02*
D03*
X504250Y403000D02*
D03*
X782250Y291000D02*
D03*
X1028000Y324500D02*
D03*
X620500Y426000D02*
D03*
X625750Y501500D02*
D03*
X610250Y547750D02*
D03*
X615750Y574500D02*
D03*
X1208750Y526500D02*
D03*
X1143250Y717000D02*
D03*
X405000Y363500D02*
D03*
X422750Y358250D02*
D03*
X405500Y348500D02*
D03*
X423000Y343500D02*
D03*
X482750Y345000D02*
D03*
X482500Y364250D02*
D03*
X472750Y332750D02*
D03*
X473250Y355250D02*
D03*
X694500Y584500D02*
D03*
X611750Y588750D02*
D03*
X617250Y598750D02*
D03*
X838041Y429521D02*
D03*
X851750Y473500D02*
D03*
X805000Y409750D02*
D03*
X636750Y425250D02*
D03*
X1057250Y357500D02*
D03*
X807250Y376250D02*
D03*
X803289Y439521D02*
D03*
X859500Y481000D02*
D03*
X1164750Y527000D02*
D03*
X1159557Y592029D02*
D03*
X1145750Y606250D02*
D03*
X1157250Y579250D02*
D03*
X1232310Y648282D02*
D03*
X1231250Y377750D02*
D03*
X726250Y518000D02*
D03*
X536250Y304250D02*
D03*
X1054161Y621250D02*
D03*
X824750Y321500D02*
D03*
X814540Y353517D02*
D03*
D42*
X963966Y782000D02*
X1029716Y716250D01*
X1055716D01*
X1092000Y693250D02*
X1112600Y672650D01*
X1055716Y716250D02*
X1078716Y693250D01*
X1092000D01*
X485500Y782000D02*
X963966D01*
X430750Y727250D02*
X485500Y782000D01*
X430750Y597750D02*
Y727250D01*
D43*
X919000Y571250D02*
X925500Y577750D01*
X582048Y336516D02*
X586750Y331814D01*
X575215Y336516D02*
X582048D01*
X575199Y336500D02*
X575215Y336516D01*
X563436Y336500D02*
X575199D01*
X504250Y395686D02*
X563436Y336500D01*
X510186Y373750D02*
X511250Y372686D01*
X510186Y373750D02*
X510250D01*
X510500Y727250D02*
X531250Y748000D01*
X556411D01*
X1152750Y476250D02*
X1156750Y480250D01*
X627750Y376000D02*
X628250D01*
X631750Y385000D02*
X632250D01*
X683484Y333766D02*
X689847D01*
X519250Y362000D02*
X568750Y312500D01*
X578127D01*
X587500Y303127D01*
Y293750D02*
Y303127D01*
X579500Y290436D02*
Y299814D01*
X574814Y304500D02*
X579500Y299814D01*
X565436Y304500D02*
X574814D01*
X511250Y358686D02*
X565436Y304500D01*
X511250Y358686D02*
Y372686D01*
X587500Y293750D02*
X590250Y291000D01*
X579500Y290436D02*
X586936Y283000D01*
X625250D01*
X590250Y291000D02*
X782250D01*
X590266Y331564D02*
X599298D01*
X604814Y331814D02*
X617250Y344250D01*
Y381814D01*
X628436Y393000D01*
X628750D01*
X631125Y395375D02*
X633189D01*
X628750Y393000D02*
X631125Y395375D01*
X879750Y326750D02*
X884686D01*
X886436Y325000D01*
X893064D01*
X894814Y326750D01*
X895186D01*
X1092186Y277750D02*
X1092436Y277500D01*
X1133750D01*
X1225250Y598000D02*
X1229500Y593750D01*
Y542814D02*
Y593750D01*
Y483377D02*
Y520686D01*
X627750Y376000D02*
X675000Y328750D01*
X632250Y385000D02*
X683484Y333766D01*
X633189Y395375D02*
X667814Y360750D01*
X668000D01*
X675250Y353500D01*
X700000D01*
X688564Y376250D02*
X728297Y336517D01*
X739913Y328517D02*
X740896Y329500D01*
X743227Y320517D02*
X744210Y321500D01*
X703096Y320517D02*
X743227D01*
X724983Y328517D02*
X739913D01*
X700000Y353500D02*
X724983Y328517D01*
X689847Y333766D02*
X703096Y320517D01*
X728297Y336517D02*
X736600D01*
X740396Y340314D01*
X759314D01*
X839314Y337500D02*
X852907Y323907D01*
X866625Y324939D02*
X882686Y341000D01*
X1099064Y293500D02*
X1106814Y285750D01*
X1130686D01*
X1236250Y456186D02*
X1239250Y453186D01*
Y363123D02*
X1247250Y371123D01*
Y384377D01*
X1239250Y392377D02*
X1247250Y384377D01*
X1239250Y392377D02*
Y453186D01*
Y374436D02*
Y381064D01*
X1149750Y293500D02*
X1160877D01*
X1170250Y302873D01*
Y314000D01*
X1133750Y277500D02*
X1149750Y293500D01*
X1130686Y285750D02*
X1146436Y301500D01*
X1157564D01*
X1162250Y306186D01*
Y317314D01*
X866564Y325000D02*
X866625Y324939D01*
Y324939D02*
Y324939D01*
X1234564Y385750D02*
X1239250Y381064D01*
X1234564Y369750D02*
X1239250Y374436D01*
X1232089Y385750D02*
X1234564D01*
X1226000Y369750D02*
X1234564D01*
X1239250Y290288D02*
Y363123D01*
X1170250Y314000D02*
X1226000Y369750D01*
X1162250Y317314D02*
X1215750Y370814D01*
X1228250Y389589D02*
X1232089Y385750D01*
X1067127Y293500D02*
X1099064D01*
X882686Y341000D02*
X894623D01*
X898873Y336750D01*
X740896Y329500D02*
X774991D01*
X744210Y321500D02*
X771677D01*
X774991Y329500D02*
X780225Y324266D01*
X786852D01*
X788289Y325703D01*
Y326580D01*
X777911Y315266D02*
X799603D01*
X771677Y321500D02*
X777911Y315266D01*
X799603D02*
X805837Y321500D01*
X759314Y340314D02*
X759766Y340766D01*
X669750Y376250D02*
X688564D01*
X620500Y425500D02*
X669750Y376250D01*
X620500Y425500D02*
Y426000D01*
X625750Y501500D02*
X663250D01*
X695250Y533500D01*
X610250Y547750D02*
X645936D01*
X647936Y549750D01*
X698186D01*
X703686Y544250D01*
X803564D01*
X807064Y547750D01*
X847000D01*
X868500Y526250D01*
Y518750D02*
Y526250D01*
X653436Y563750D02*
X659436Y557750D01*
X699186D01*
X702686Y561250D01*
X709314D01*
X711875Y558689D01*
X711875D01*
X637750Y573936D02*
X647936Y563750D01*
X653436D01*
X615750Y574500D02*
X616314Y573936D01*
X637750D01*
X586750Y331814D02*
X590266Y331564D01*
X599298D02*
X604814Y331814D01*
X1246250Y543741D02*
Y548249D01*
X1243250Y551249D02*
X1246250Y548249D01*
X1229500Y520686D02*
X1229839Y521026D01*
X1230374D01*
X1235060Y525712D01*
Y537254D01*
X1229500Y542814D02*
X1235060Y537254D01*
X1246250Y488814D02*
Y519225D01*
X1247560Y520535D01*
Y542431D01*
X1246250Y543741D02*
X1247560Y542431D01*
X504250Y395686D02*
Y403000D01*
X1176871Y356768D02*
X1198000Y377897D01*
X1174518Y356768D02*
X1176871D01*
X879249Y349000D02*
X897936D01*
X837750Y345500D02*
X875749D01*
X837503Y345747D02*
X837750Y345500D01*
X1063814Y301500D02*
X1119250D01*
X1174518Y356768D01*
X986627Y293750D02*
X1017661D01*
X897936Y349000D02*
X902186Y344750D01*
X875749Y345500D02*
X879249Y349000D01*
X636750Y425250D02*
X644064D01*
X685064Y384250D02*
X691877D01*
X644064Y425250D02*
X685064Y384250D01*
X795225Y359767D02*
X801853D01*
X1017661Y293750D02*
X1021036Y290375D01*
X1062691Y277750D02*
X1092186D01*
X905814Y326750D02*
X923374D01*
X933500Y316624D01*
X1053005Y256750D02*
X1058436D01*
X953500Y736500D02*
Y740000D01*
X1243250Y551249D02*
Y606339D01*
X1233500Y616089D02*
X1243250Y606339D01*
X1156750Y480250D02*
Y578750D01*
X1157250Y579250D01*
X1233500Y616089D02*
Y631794D01*
X1156250Y661750D02*
X1233156D01*
X1233500Y631794D02*
X1247750Y646044D01*
X1233156Y661750D02*
X1236188Y664782D01*
X1245033D01*
X1247750Y646044D02*
Y662066D01*
X1245033Y664782D02*
X1247750Y662066D01*
X1234135Y461957D02*
X1234135D01*
X1236250Y456186D02*
Y459843D01*
X1234135Y461957D02*
X1236250Y459843D01*
X1226000Y479877D02*
X1229500Y483377D01*
X1205250Y458195D02*
Y523000D01*
X1208750Y526500D01*
X1234000Y476564D02*
X1246250Y488814D01*
X1224500Y463636D02*
X1226000Y465136D01*
Y479877D01*
X1205250Y458195D02*
X1215750Y447695D01*
Y370814D02*
Y447695D01*
X1228250Y389589D02*
Y456529D01*
X1224500Y460279D02*
X1228250Y456529D01*
X1224500Y460279D02*
Y463636D01*
X1234000Y462093D02*
X1234135Y461957D01*
X1234000Y462093D02*
Y476564D01*
X1206000Y399314D02*
Y439000D01*
X1198000Y377897D02*
Y391314D01*
X1206000Y399314D01*
X895186Y326750D02*
X897186Y328750D01*
X903814D01*
X905814Y326750D01*
X898873Y336750D02*
X927873D01*
X902186Y344750D02*
X931186D01*
X933500Y312936D02*
Y316624D01*
X931186Y344750D02*
X938686Y337250D01*
X943439D01*
X957546Y323143D01*
Y322831D02*
Y323143D01*
Y322831D02*
X986627Y293750D01*
X927873Y336750D02*
X935373Y329250D01*
X940125D01*
X949546Y319829D01*
Y318768D02*
Y319829D01*
X933500Y312936D02*
X938186Y308250D01*
X938278D01*
X938543Y308515D01*
X948485D01*
X724436Y571250D02*
X919000D01*
X711875Y558689D02*
X724436Y571250D01*
X836000Y329500D02*
X856500Y309000D01*
X866564D01*
X871250Y313686D01*
Y318250D01*
X879750Y326750D01*
X852907Y323907D02*
X858843D01*
X859936Y325000D01*
X866564D01*
X570411Y762000D02*
X931500D01*
X556411Y748000D02*
X570411Y762000D01*
X931500D02*
X953500Y740000D01*
X695250Y533500D02*
X724561D01*
X739036Y519025D01*
X793208Y357750D02*
X795225Y359767D01*
X691877Y384250D02*
X718377Y357750D01*
X793208D01*
X1033661Y289500D02*
X1051814D01*
X1063814Y301500D01*
X1021036Y290375D02*
X1032786D01*
X1033661Y289500D01*
X949546Y318768D02*
X985314Y283000D01*
X1029473Y282375D02*
X1030348Y281500D01*
X1055127D01*
X1067127Y293500D01*
X985314Y283000D02*
X1017097D01*
X1018965Y281132D01*
X1023107D01*
X1024350Y282375D01*
X1029473D01*
X948485Y308515D02*
X984000Y273000D01*
X1057941D01*
X1062691Y277750D01*
X1051005Y258750D02*
X1053005Y256750D01*
X1207962Y259000D02*
X1239250Y290288D01*
X1058436Y256750D02*
X1058936Y256250D01*
X1065564D01*
X1068314Y259000D01*
X1207962D01*
X788289Y326580D02*
X792975Y331266D01*
X801853Y359767D02*
X806540Y355080D01*
Y350204D02*
Y355080D01*
X805837Y321500D02*
X824750D01*
X792975Y331266D02*
X799850D01*
X801616Y329500D01*
X836000D01*
X759766Y340766D02*
X801663D01*
X804930Y337500D01*
X839314D01*
X806540Y350204D02*
X811226Y345517D01*
X820854D01*
X821083Y345747D01*
X837503D01*
X625250Y283000D02*
X650000Y258250D01*
X935003D01*
X935503Y258750D01*
X1051005D01*
M02*
