G04 Layer_Color=128*
%FSLAX44Y44*%
%MOMM*%
G71*
G01*
G75*
%ADD10R,1.6500X3.4300*%
%ADD11R,2.5400X1.2700*%
%ADD12R,0.9500X0.7500*%
%ADD13R,1.2600X0.3600*%
%ADD14R,1.6000X1.2000*%
%ADD15R,1.0000X0.6500*%
%ADD16R,0.8000X0.9500*%
%ADD22R,0.7500X0.9500*%
%ADD24R,0.9500X0.8000*%
%ADD28R,0.6500X1.0000*%
%ADD29R,0.3600X1.2600*%
%ADD30R,1.2000X1.6000*%
%ADD31R,2.9200X1.2700*%
%ADD44R,0.8400X1.0000*%
%ADD45R,0.4000X0.3250*%
%ADD46R,0.3250X0.4000*%
D10*
X495300Y292900D02*
D03*
Y640800D02*
D03*
X626950Y322900D02*
D03*
Y640800D02*
D03*
X307850Y646550D02*
D03*
Y358650D02*
D03*
D11*
X542300Y331850D02*
D03*
Y361850D02*
D03*
Y391850D02*
D03*
Y421850D02*
D03*
Y451850D02*
D03*
Y481850D02*
D03*
Y511850D02*
D03*
Y541850D02*
D03*
Y571850D02*
D03*
Y601850D02*
D03*
X448300Y331850D02*
D03*
Y361850D02*
D03*
Y391850D02*
D03*
Y421850D02*
D03*
Y451850D02*
D03*
Y481850D02*
D03*
Y511850D02*
D03*
Y541850D02*
D03*
Y571850D02*
D03*
Y601850D02*
D03*
X673950Y361850D02*
D03*
Y391850D02*
D03*
Y421850D02*
D03*
Y451850D02*
D03*
Y481850D02*
D03*
Y511850D02*
D03*
Y541850D02*
D03*
Y571850D02*
D03*
Y601850D02*
D03*
X579950Y361850D02*
D03*
Y391850D02*
D03*
Y421850D02*
D03*
Y451850D02*
D03*
Y481850D02*
D03*
Y511850D02*
D03*
Y541850D02*
D03*
Y571850D02*
D03*
Y601850D02*
D03*
D12*
X1066750Y385750D02*
D03*
Y371250D02*
D03*
X1047750Y385750D02*
D03*
Y371250D02*
D03*
X1013500Y312750D02*
D03*
Y327250D02*
D03*
X1105000Y488500D02*
D03*
Y474000D02*
D03*
X1130750Y359000D02*
D03*
Y344500D02*
D03*
X989250Y471500D02*
D03*
Y486000D02*
D03*
X1139250Y659000D02*
D03*
Y673500D02*
D03*
D13*
X829250Y352000D02*
D03*
Y358500D02*
D03*
Y365000D02*
D03*
Y371500D02*
D03*
Y378000D02*
D03*
Y384500D02*
D03*
Y391000D02*
D03*
X887250Y352000D02*
D03*
Y358500D02*
D03*
Y365000D02*
D03*
Y371500D02*
D03*
Y378000D02*
D03*
Y384500D02*
D03*
Y391000D02*
D03*
X1069250Y580750D02*
D03*
Y587250D02*
D03*
Y593750D02*
D03*
Y600250D02*
D03*
Y606750D02*
D03*
Y613250D02*
D03*
Y619750D02*
D03*
X1127250Y580750D02*
D03*
Y587250D02*
D03*
Y593750D02*
D03*
Y600250D02*
D03*
Y606750D02*
D03*
Y613250D02*
D03*
Y619750D02*
D03*
X838000Y657500D02*
D03*
Y664000D02*
D03*
Y670500D02*
D03*
Y677000D02*
D03*
Y683500D02*
D03*
Y690000D02*
D03*
Y696500D02*
D03*
X896000Y657500D02*
D03*
Y664000D02*
D03*
Y670500D02*
D03*
Y677000D02*
D03*
Y683500D02*
D03*
Y690000D02*
D03*
Y696500D02*
D03*
D14*
X760000Y378750D02*
D03*
Y349750D02*
D03*
X867750Y461000D02*
D03*
Y432000D02*
D03*
X759000Y461750D02*
D03*
Y432750D02*
D03*
X1079500Y528500D02*
D03*
Y499500D02*
D03*
X849750Y548250D02*
D03*
Y519250D02*
D03*
X757500Y550750D02*
D03*
Y521750D02*
D03*
X1188250Y406250D02*
D03*
Y435250D02*
D03*
X1189250Y471250D02*
D03*
Y500250D02*
D03*
X1188750Y536500D02*
D03*
Y565500D02*
D03*
X1188500Y601500D02*
D03*
Y630500D02*
D03*
X1036000Y618250D02*
D03*
Y647250D02*
D03*
X942750Y616250D02*
D03*
Y587250D02*
D03*
X846750Y616500D02*
D03*
Y587500D02*
D03*
X755250Y617000D02*
D03*
Y588000D02*
D03*
X768750Y696000D02*
D03*
Y667000D02*
D03*
X1112250Y706500D02*
D03*
Y735500D02*
D03*
X1186750Y666500D02*
D03*
Y695500D02*
D03*
X1081000Y768000D02*
D03*
Y739000D02*
D03*
X873000Y767750D02*
D03*
Y738750D02*
D03*
X770000Y767750D02*
D03*
Y738750D02*
D03*
X971500Y767000D02*
D03*
Y738000D02*
D03*
X403500Y278750D02*
D03*
Y307750D02*
D03*
X1048250Y313250D02*
D03*
Y342250D02*
D03*
X442000Y685000D02*
D03*
Y656000D02*
D03*
X475500Y768000D02*
D03*
Y739000D02*
D03*
X567000Y768250D02*
D03*
Y739250D02*
D03*
X726500Y269500D02*
D03*
Y298500D02*
D03*
X652500Y269500D02*
D03*
Y298500D02*
D03*
D15*
X836500Y462000D02*
D03*
Y444000D02*
D03*
X812500Y453000D02*
D03*
X711250Y453250D02*
D03*
X735250Y444250D02*
D03*
Y462250D02*
D03*
X1052750Y530250D02*
D03*
Y512250D02*
D03*
X1028750Y521250D02*
D03*
X961000Y521500D02*
D03*
X985000Y512500D02*
D03*
Y530500D02*
D03*
X922000Y548000D02*
D03*
Y530000D02*
D03*
X898000Y539000D02*
D03*
X803250Y540750D02*
D03*
X827250Y531750D02*
D03*
Y549750D02*
D03*
X731750Y551500D02*
D03*
Y533500D02*
D03*
X707750Y542500D02*
D03*
X1211750Y426750D02*
D03*
X1235750Y417750D02*
D03*
Y435750D02*
D03*
X1211750Y482250D02*
D03*
Y500250D02*
D03*
X1235750Y491250D02*
D03*
X1236250Y557000D02*
D03*
X1212250Y566000D02*
D03*
Y548000D02*
D03*
X1213250Y612750D02*
D03*
Y630750D02*
D03*
X1237250Y621750D02*
D03*
X988500Y623250D02*
D03*
X1012500Y614250D02*
D03*
Y632250D02*
D03*
X917500Y617250D02*
D03*
Y599250D02*
D03*
X893500Y608250D02*
D03*
X799250D02*
D03*
X823250Y599250D02*
D03*
Y617250D02*
D03*
X732000Y617500D02*
D03*
Y599500D02*
D03*
X708000Y608500D02*
D03*
X745750Y696500D02*
D03*
Y678500D02*
D03*
X721750Y687500D02*
D03*
X1073750Y701500D02*
D03*
Y683500D02*
D03*
X1049750Y692500D02*
D03*
X1236000Y687250D02*
D03*
X1212000Y696250D02*
D03*
Y678250D02*
D03*
X924000Y687250D02*
D03*
X948000Y678250D02*
D03*
Y696250D02*
D03*
X1030750Y759000D02*
D03*
X1054750Y750000D02*
D03*
Y768000D02*
D03*
X822750Y758750D02*
D03*
X846750Y749750D02*
D03*
Y767750D02*
D03*
X746500D02*
D03*
Y749750D02*
D03*
X722500Y758750D02*
D03*
X948000Y767750D02*
D03*
Y749750D02*
D03*
X924000Y758750D02*
D03*
X391250Y703000D02*
D03*
X415250Y694000D02*
D03*
Y712000D02*
D03*
X348750Y694250D02*
D03*
Y712250D02*
D03*
X372750Y703250D02*
D03*
X711500Y370250D02*
D03*
X735500Y361250D02*
D03*
Y379250D02*
D03*
X451750Y768000D02*
D03*
Y750000D02*
D03*
X427750Y759000D02*
D03*
X518750Y759250D02*
D03*
X542750Y750250D02*
D03*
Y768250D02*
D03*
X639250Y768000D02*
D03*
Y750000D02*
D03*
X615250Y759000D02*
D03*
X523000Y702750D02*
D03*
X547000Y693750D02*
D03*
Y711750D02*
D03*
D16*
X615000Y271750D02*
D03*
X628500D02*
D03*
X1063250Y649250D02*
D03*
X1076750D02*
D03*
X1150000Y732250D02*
D03*
X1136500D02*
D03*
X993500Y750250D02*
D03*
X1007000D02*
D03*
X436250Y709500D02*
D03*
X449750D02*
D03*
X316500Y681500D02*
D03*
X303000D02*
D03*
X356500Y277250D02*
D03*
X370000D02*
D03*
X903250Y270750D02*
D03*
X916750D02*
D03*
X915500Y324750D02*
D03*
X929000D02*
D03*
X1136500Y765750D02*
D03*
X1150000D02*
D03*
X755000Y268250D02*
D03*
X768500D02*
D03*
D22*
X869500Y332750D02*
D03*
X855000D02*
D03*
X1115500Y559500D02*
D03*
X1130000D02*
D03*
X930500Y657500D02*
D03*
X916000D02*
D03*
X1078000Y420750D02*
D03*
X1063500D02*
D03*
X1063500Y460250D02*
D03*
X1078000D02*
D03*
X1063500Y441250D02*
D03*
X1078000D02*
D03*
X967750Y303250D02*
D03*
X953250D02*
D03*
X967500Y320250D02*
D03*
X953000D02*
D03*
X1012500Y295000D02*
D03*
X1027000D02*
D03*
X967750Y286250D02*
D03*
X953250D02*
D03*
X1149250Y354250D02*
D03*
X1163750D02*
D03*
X1123500Y483250D02*
D03*
X1138000D02*
D03*
X673750Y691000D02*
D03*
X659250D02*
D03*
D24*
X968500Y616000D02*
D03*
Y629500D02*
D03*
X900250Y462750D02*
D03*
Y449250D02*
D03*
X790250Y463750D02*
D03*
Y450250D02*
D03*
X1110250Y529250D02*
D03*
Y515750D02*
D03*
X1005000Y518500D02*
D03*
Y532000D02*
D03*
X967000Y565750D02*
D03*
Y579250D02*
D03*
X876750Y535000D02*
D03*
Y548500D02*
D03*
X782750Y552250D02*
D03*
Y538750D02*
D03*
X1163500Y433250D02*
D03*
Y446750D02*
D03*
X1166000Y488750D02*
D03*
Y502250D02*
D03*
X1165750Y554000D02*
D03*
Y567500D02*
D03*
X1159250Y619000D02*
D03*
Y632500D02*
D03*
X874250Y616500D02*
D03*
Y603000D02*
D03*
X780000Y618250D02*
D03*
Y604750D02*
D03*
X792750Y695000D02*
D03*
Y681500D02*
D03*
X1028750Y702750D02*
D03*
Y689250D02*
D03*
X1156000Y687750D02*
D03*
Y674250D02*
D03*
X900250Y769250D02*
D03*
Y755750D02*
D03*
X799250Y769250D02*
D03*
Y755750D02*
D03*
X784000Y367250D02*
D03*
Y380750D02*
D03*
X499500Y756000D02*
D03*
Y769500D02*
D03*
X593000D02*
D03*
Y756000D02*
D03*
X620500Y705250D02*
D03*
Y691750D02*
D03*
X552250Y649000D02*
D03*
Y635500D02*
D03*
D28*
X690000Y293750D02*
D03*
X681000Y269750D02*
D03*
X699000D02*
D03*
X361250Y335250D02*
D03*
X352250Y311250D02*
D03*
X370250D02*
D03*
X591750Y271250D02*
D03*
X573750D02*
D03*
X582750Y295250D02*
D03*
D29*
X659750Y767000D02*
D03*
X666250D02*
D03*
X672750D02*
D03*
X679250D02*
D03*
X685750D02*
D03*
X692250D02*
D03*
X698750D02*
D03*
X659750Y709000D02*
D03*
X666250D02*
D03*
X672750D02*
D03*
X679250D02*
D03*
X685750D02*
D03*
X692250D02*
D03*
X698750D02*
D03*
D30*
X1000750Y574000D02*
D03*
X1029750D02*
D03*
X909250Y506250D02*
D03*
X938250D02*
D03*
X971000Y695750D02*
D03*
X1000000D02*
D03*
X328250Y704750D02*
D03*
X299250D02*
D03*
X366750Y749500D02*
D03*
X395750D02*
D03*
X377250Y777250D02*
D03*
X406250D02*
D03*
X1083000Y325750D02*
D03*
X1112000D02*
D03*
X1052250Y285500D02*
D03*
X1081250D02*
D03*
X1116000Y285250D02*
D03*
X1145000D02*
D03*
X600000Y696000D02*
D03*
X571000D02*
D03*
X475000Y698250D02*
D03*
X504000D02*
D03*
D31*
X362650Y607600D02*
D03*
Y577600D02*
D03*
Y547600D02*
D03*
Y517600D02*
D03*
Y487600D02*
D03*
Y457600D02*
D03*
Y427600D02*
D03*
Y397600D02*
D03*
X408850Y607600D02*
D03*
Y577600D02*
D03*
Y547600D02*
D03*
Y517600D02*
D03*
Y487600D02*
D03*
Y457600D02*
D03*
Y427600D02*
D03*
Y397600D02*
D03*
D44*
X1126550Y386250D02*
D03*
X1139950D02*
D03*
X1133450Y423250D02*
D03*
X1120050D02*
D03*
D45*
X1087500Y672625D02*
D03*
Y663875D02*
D03*
D46*
X1130875Y466500D02*
D03*
X1139625D02*
D03*
X1157125Y338000D02*
D03*
X1165875D02*
D03*
M02*
