M48
;Layer_Color=9474304
;FILE_FORMAT=4:4
METRIC,LZ
;TYPE=PLATED
T1F00S00C0.3000
T2F00S00C0.4000
T3F00S00C1.6000
T4F00S00C3.5000
%
T01
X00862542Y00279014
X00866542Y00292264
X0086475Y00301
X0088975Y00333
X009055Y0035275
X009065Y00363
X0090425Y003885
X009175
X0092675Y0039375
X0094675Y00389
X0098525Y0038625
X0101375Y00392
X010358Y00389269
X0101225Y003545
X009975Y0034225
X00984798Y00342767
X00942Y0034525
X00941546Y00316515
Y00301265
X009415Y0029025
X0094Y0027675
X00932Y002655
X0095375Y00267
X00931Y002975
X00925295Y00313515
X0112625Y0032575
X011335Y003325
X0112175Y003715
X0117375Y003775
X01173557Y00364768
X01188308Y00388269
X0122375Y00351
X01206Y00439
X0121325Y004705
X0124125Y004685
X01240061Y00657532
X011435Y0067325
X01141806Y00639031
X0114425Y006265
X01123055Y00632031
X01123305Y00645531
X01097303Y0062128
X010895Y00612
X01089053Y00596279
X0109925Y0059175
X01099Y006045
X0107575Y00634
X010585Y0067975
X010435Y006795
X009935Y0067775
X0099225Y0066675
X00979Y006605
X0098025Y0063575
X009625Y0067825
X009535Y007365
X0094175Y0073425
X009325Y007285
X009135Y007265
X0090275
X008915Y0072975
X008765Y0072475
X00863Y00725
X00848541Y00726035
X0085425Y0073675
X0083475Y0073525
X0080125Y007275
X008025Y006675
X0080675Y0065025
X0079525Y006505
X0081725Y0065325
X0082829Y00646532
X00858Y00676
Y00698
X008725Y00662
X00873043Y00590279
X0086425Y0058725
X0088925Y005955
X00906Y0058425
X0082325Y00587
X00802Y0058575
X0084925Y004215
X0084075Y0040475
X0098075Y004065
X0098525Y0039725
X00985Y0041625
X00994Y0042925
X0100275Y0042525
X0101125Y0041925
X010155Y0042825
X010185Y0043825
X0102005Y00448022
X0102775Y0045475
X010415Y0045375
X01052Y004535
X0104125Y00467
X010238Y00468523
X0101555Y00463773
X00994Y004585
X0098375Y0045875
X00991048Y00448272
X01002049Y00448522
X0100425Y004385
X0102805Y00435021
X010285Y00424
X0103025Y00413
X0101375Y004025
X010495Y0043025
X01092553Y00430771
X01091089Y0044
X0109275Y004505
X0111125Y0045
X0112025Y0043925
X01090803Y0042102
X010085Y0050575
X00998Y00504
X00982548Y00502775
X00976548Y00492774
X009685Y00485
X00961797Y00489774
X00945796Y00481524
X00937046Y00472523
X00991Y0078325
X0104025Y00748
X0105175Y0073625
X01063Y0073675
X010935Y0072325
X01087Y0071325
X0078325Y0072575
X0076675Y00725
X00755787Y00725035
X00752287Y00738536
X007365Y00737
X00739786Y00727286
X0072775Y0072475
X007145Y00725
X00692784Y00729536
X006945Y00739
X00684033Y00738286
X00683Y00751
X00671783Y00739786
X00669283Y00727286
X00681783Y00725785
X00659032Y00735286
X00651Y0074125
X00651032Y00721035
X00638031Y00730286
X0062825Y0072325
X00586Y007295
X0059175Y0074225
X005665Y00723
X005615Y0071375
X005495Y007275
X00651Y0065775
X006435Y0064975
X00675033Y00649032
X0068225Y0066475
X00732536Y00665283
X0074675Y0066725
X00753Y0065825
X00740286Y00656532
X0077775Y00651
X00784538Y00666283
X00791789Y00598529
X007815Y0058675
X00771538Y00588029
X0070325Y00622
X00693
X00789Y0073875
T02
X00343Y0027775
X0034275Y0034075
X0038275Y0033525
X0036275Y003805
X00405Y003635
X004055Y003485
X00423Y003435
X0042275Y0035825
X00422Y0030775
X004355Y0031025
X0047275Y0033275
X0048275Y00345
X004825Y0036425
X0047325Y0035525
X00472Y00392
X005025Y0038225
X0051025Y0037375
X0051925Y00362
Y00392
X0056825Y00377
X0058225Y0037675
X0059525Y00377
X0062825Y00376
X0063175Y00385
X00582778Y00344517
X00578528Y00328516
X005715Y002965
X0055225Y0029025
X005605Y0027125
X005415Y0026925
X0060425Y003
X0061075Y003155
X0067575Y00305
X00675Y0032875
X00686534Y00325766
X0070275Y0033825
X00733286Y00344517
X007435Y00312
Y0027225
X0078225Y00291
X0078Y0030575
X00783038Y00332766
X00787538Y00348767
X00798539Y00351767
X0081454Y00353517
X0081375Y003675
X0080725Y0037625
X0085775Y0038925
X0086875
X0086325Y00317
X009005Y0032075
X0082475Y003215
X0082579Y00308765
X00796289Y00323266
X01028Y003245
X01027Y0030975
X0104Y00299
X0106225Y0026425
X0109575Y002855
X011595Y0028525
X0115425Y003095
X01175Y00345
X011125Y003785
X01097Y00381
X01087Y003745
X0109225Y0036075
X01078Y0035425
X0106725Y0034725
X0105725Y003575
X011025Y00395
X01206Y00388
X0123125Y0037775
X0123775Y0050425
X0122706Y00529026
X0121525Y00535
X0120875Y005265
X0122525Y00598
X0123231Y00648282
X0124225Y0070075
X01234Y00729
X011595Y0071675
X0114325Y00717
X0115625Y0066175
X01157557Y00604529
X0114575Y0060625
X01159557Y00592029
X0115725Y0057925
X0117375Y00612
X011705Y00539
X0116475Y00527
X0113925Y00515
X010965Y0052375
X01054551Y00570778
X01043801
X01025Y0055825
X00971Y00524107
X008835Y0051875
X008685
X008595Y00481
X0085175Y004735
X0084925Y0045275
X00838041Y00429521
X008395Y00416
X0082775Y0042325
X008165Y0040975
X00805
X00794289Y0041502
X00803Y0042625
X00803289Y00439521
X007985Y0052675
X0080025Y0055225
X0082075Y0051725
X0089225Y005515
X009255Y0057775
X00916545Y00587529
X0089125Y0062025
X00895Y00646
X0090625
X00874
X0085575Y006475
X0084475Y0064725
X009445Y0064925
X01052801Y00635281
X01054161Y0062125
X0115275Y0047625
X0116325Y0076725
X011725Y0077325
X011795Y00781
X0089775Y0073925
X007885Y0052175
X00776Y00521
X00774288Y00497774
X00747536Y00491524
X00731536
X0072625Y00518
X0071525
X00699284Y00524776
X00703534Y00500774
X00739036Y00519025
X00706Y0055325
X006945Y005845
X0070425Y00596
X0072775Y0057925
X0065125Y0057175
Y0054175
X006445Y0053525
X006215Y0052
X0062575Y005015
X0059375Y00497
X0058175Y0049725
X005705
X0051325Y0049325
X005195Y00482
X005045Y0048125
X0050975Y0046725
X00504Y0045725
X00519775Y00454522
X0051975Y00422
X0050425Y00403
X00481Y0039925
Y0041425
X0047175Y00419
Y0040675
X0056875Y00407
X0058225Y0040725
X00596Y00407
X006205Y00426
X0063675Y0042525
X00641Y0043775
X006515Y0045175
X007105Y004305
X00731Y0041125
X0074575Y0041175
X00764Y004115
X0077775Y0040925
X0078675Y00437
X0061025Y0054775
X0061575Y005745
X0061175Y0058875
X0061725Y0059875
X0061275Y00609
X0052475Y0062525
X005155Y00616
X0051925Y0059775
X0050975Y0058875
X0051925Y0057175
Y0054175
X005195Y00512
X0050375Y0050525
X004835Y005025
X0047
Y00522
X0048275
X004845Y00543
X004705Y0054375
X0046975Y0056975
X0048325
X004835Y0059125
X0047225
X004715Y00612
X0048325
X00467Y007205
X005105Y0072725
X00501Y007395
X0041075Y00745
X0041077Y00761037
X00423Y007725
X005435Y0068025
X003865Y0069025
X0033625Y00722
X003375Y0060225
X00337Y005775
X0033775Y0056175
X00338Y0053175
X0033825Y004715
X0031925Y0046325
X00306265Y00474523
X0029775Y0048
X0031575Y004905
X003065Y005
X0029125Y0051075
X00337Y0044525
X0033775Y0042775
T03
X01011Y0067265
X011126
Y0077425
X01011
T04
X003Y0030025
X0120325Y0030025
Y0075325
X003Y0075325
M30
