G04 Layer_Color=255*
%FSLAX44Y44*%
%MOMM*%
%TF.FileFunction,Pads,Bot*%
%TF.Part,Single*%
G01*
G75*
%TA.AperFunction,SMDPad,CuDef*%
%ADD10R,1.6500X3.4300*%
%ADD11R,2.9200X1.2700*%
%ADD12R,2.5400X1.2700*%
%ADD13R,0.8000X0.9500*%
%ADD14R,1.6000X1.2000*%
%ADD15R,1.2000X1.6000*%
%ADD16R,0.6500X1.0000*%
%ADD17R,0.9500X0.8000*%
%ADD18R,0.3600X1.2600*%
%ADD19R,1.0000X0.6500*%
%ADD24R,0.7500X0.9500*%
%ADD27R,1.2600X0.3600*%
%ADD31R,0.9500X0.7500*%
%TA.AperFunction,ComponentPad*%
%ADD36C,2.0000*%
%ADD37C,1.6000*%
%TA.AperFunction,ViaPad*%
%ADD38C,5.5000*%
%TA.AperFunction,SMDPad,CuDef*%
%ADD43R,0.3250X0.4000*%
%ADD44R,0.4000X0.3250*%
%ADD45R,0.8400X1.0000*%
D10*
X307850Y358650D02*
D03*
Y646550D02*
D03*
X626950Y640800D02*
D03*
Y322900D02*
D03*
X495300Y640800D02*
D03*
Y292900D02*
D03*
D11*
X408850Y397600D02*
D03*
Y427600D02*
D03*
Y457600D02*
D03*
Y487600D02*
D03*
Y517600D02*
D03*
Y547600D02*
D03*
Y577600D02*
D03*
Y607600D02*
D03*
X362650Y397600D02*
D03*
Y427600D02*
D03*
Y457600D02*
D03*
Y487600D02*
D03*
Y517600D02*
D03*
Y547600D02*
D03*
Y577600D02*
D03*
Y607600D02*
D03*
D12*
X579950Y601850D02*
D03*
Y571850D02*
D03*
Y541850D02*
D03*
Y511850D02*
D03*
Y481850D02*
D03*
Y451850D02*
D03*
Y421850D02*
D03*
Y391850D02*
D03*
Y361850D02*
D03*
X673950Y601850D02*
D03*
Y571850D02*
D03*
Y541850D02*
D03*
Y511850D02*
D03*
Y481850D02*
D03*
Y451850D02*
D03*
Y421850D02*
D03*
Y391850D02*
D03*
Y361850D02*
D03*
X448300Y601850D02*
D03*
Y571850D02*
D03*
Y541850D02*
D03*
Y511850D02*
D03*
Y481850D02*
D03*
Y451850D02*
D03*
Y421850D02*
D03*
Y391850D02*
D03*
Y361850D02*
D03*
Y331850D02*
D03*
X542300Y601850D02*
D03*
Y571850D02*
D03*
Y541850D02*
D03*
Y511850D02*
D03*
Y481850D02*
D03*
Y451850D02*
D03*
Y421850D02*
D03*
Y391850D02*
D03*
Y361850D02*
D03*
Y331850D02*
D03*
D13*
X768500Y268250D02*
D03*
X755000D02*
D03*
X1150000Y765750D02*
D03*
X1136500D02*
D03*
X929000Y324750D02*
D03*
X915500D02*
D03*
X916750Y270750D02*
D03*
X903250D02*
D03*
X370000Y277250D02*
D03*
X356500D02*
D03*
X303000Y681500D02*
D03*
X316500D02*
D03*
X449750Y709500D02*
D03*
X436250D02*
D03*
X1007000Y750250D02*
D03*
X993500D02*
D03*
X1136500Y732250D02*
D03*
X1150000D02*
D03*
X1076750Y649250D02*
D03*
X1063250D02*
D03*
X628500Y271750D02*
D03*
X615000D02*
D03*
D14*
X567000Y739250D02*
D03*
Y768250D02*
D03*
X475500Y739000D02*
D03*
Y768000D02*
D03*
X442000Y656000D02*
D03*
Y685000D02*
D03*
X652500Y298500D02*
D03*
Y269500D02*
D03*
X726500Y298500D02*
D03*
Y269500D02*
D03*
X1048250Y342250D02*
D03*
Y313250D02*
D03*
X403500Y307750D02*
D03*
Y278750D02*
D03*
X971500Y738000D02*
D03*
Y767000D02*
D03*
X770000Y738750D02*
D03*
Y767750D02*
D03*
X873000Y738750D02*
D03*
Y767750D02*
D03*
X1081000Y739000D02*
D03*
Y768000D02*
D03*
X1186750Y695500D02*
D03*
Y666500D02*
D03*
X1112250Y735500D02*
D03*
Y706500D02*
D03*
X768750Y667000D02*
D03*
Y696000D02*
D03*
X755250Y588000D02*
D03*
Y617000D02*
D03*
X846750Y587500D02*
D03*
Y616500D02*
D03*
X942750Y587250D02*
D03*
Y616250D02*
D03*
X1036000Y647250D02*
D03*
Y618250D02*
D03*
X1188500Y630500D02*
D03*
Y601500D02*
D03*
X1188750Y565500D02*
D03*
Y536500D02*
D03*
X1189250Y500250D02*
D03*
Y471250D02*
D03*
X1188250Y435250D02*
D03*
Y406250D02*
D03*
X757500Y521750D02*
D03*
Y550750D02*
D03*
X849750Y519250D02*
D03*
Y548250D02*
D03*
X1079500Y499500D02*
D03*
Y528500D02*
D03*
X759000Y432750D02*
D03*
Y461750D02*
D03*
X867750Y432000D02*
D03*
Y461000D02*
D03*
X760000Y349750D02*
D03*
Y378750D02*
D03*
D15*
X504000Y698250D02*
D03*
X475000D02*
D03*
X571000Y696000D02*
D03*
X600000D02*
D03*
X1145000Y285250D02*
D03*
X1116000D02*
D03*
X1081250Y285500D02*
D03*
X1052250D02*
D03*
X1112000Y325750D02*
D03*
X1083000D02*
D03*
X406250Y777250D02*
D03*
X377250D02*
D03*
X395750Y749500D02*
D03*
X366750D02*
D03*
X299250Y704750D02*
D03*
X328250D02*
D03*
X1000000Y695750D02*
D03*
X971000D02*
D03*
X938250Y506250D02*
D03*
X909250D02*
D03*
X1029750Y574000D02*
D03*
X1000750D02*
D03*
D16*
X582750Y295250D02*
D03*
X573750Y271250D02*
D03*
X591750D02*
D03*
X370250Y311250D02*
D03*
X352250D02*
D03*
X361250Y335250D02*
D03*
X699000Y269750D02*
D03*
X681000D02*
D03*
X690000Y293750D02*
D03*
D17*
X552250Y635500D02*
D03*
Y649000D02*
D03*
X620500Y691750D02*
D03*
Y705250D02*
D03*
X593000Y756000D02*
D03*
Y769500D02*
D03*
X499500D02*
D03*
Y756000D02*
D03*
X784000Y380750D02*
D03*
Y367250D02*
D03*
X799250Y755750D02*
D03*
Y769250D02*
D03*
X900250Y755750D02*
D03*
Y769250D02*
D03*
X1156000Y674250D02*
D03*
Y687750D02*
D03*
X1028750Y689250D02*
D03*
Y702750D02*
D03*
X792750Y681500D02*
D03*
Y695000D02*
D03*
X780000Y604750D02*
D03*
Y618250D02*
D03*
X874250Y603000D02*
D03*
Y616500D02*
D03*
X1159250Y632500D02*
D03*
Y619000D02*
D03*
X1165750Y567500D02*
D03*
Y554000D02*
D03*
X1166000Y502250D02*
D03*
Y488750D02*
D03*
X1163500Y446750D02*
D03*
Y433250D02*
D03*
X782750Y538750D02*
D03*
Y552250D02*
D03*
X876750Y548500D02*
D03*
Y535000D02*
D03*
X967000Y579250D02*
D03*
Y565750D02*
D03*
X1005000Y532000D02*
D03*
Y518500D02*
D03*
X1110250Y515750D02*
D03*
Y529250D02*
D03*
X790250Y450250D02*
D03*
Y463750D02*
D03*
X900250Y449250D02*
D03*
Y462750D02*
D03*
X968500Y629500D02*
D03*
Y616000D02*
D03*
D18*
X698750Y709000D02*
D03*
X692250D02*
D03*
X685750D02*
D03*
X679250D02*
D03*
X672750D02*
D03*
X666250D02*
D03*
X659750D02*
D03*
X698750Y767000D02*
D03*
X692250D02*
D03*
X685750D02*
D03*
X679250D02*
D03*
X672750D02*
D03*
X666250D02*
D03*
X659750D02*
D03*
D19*
X547000Y711750D02*
D03*
Y693750D02*
D03*
X523000Y702750D02*
D03*
X615250Y759000D02*
D03*
X639250Y750000D02*
D03*
Y768000D02*
D03*
X542750Y768250D02*
D03*
Y750250D02*
D03*
X518750Y759250D02*
D03*
X427750Y759000D02*
D03*
X451750Y750000D02*
D03*
Y768000D02*
D03*
X735500Y379250D02*
D03*
Y361250D02*
D03*
X711500Y370250D02*
D03*
X372750Y703250D02*
D03*
X348750Y712250D02*
D03*
Y694250D02*
D03*
X415250Y712000D02*
D03*
Y694000D02*
D03*
X391250Y703000D02*
D03*
X924000Y758750D02*
D03*
X948000Y749750D02*
D03*
Y767750D02*
D03*
X722500Y758750D02*
D03*
X746500Y749750D02*
D03*
Y767750D02*
D03*
X846750D02*
D03*
Y749750D02*
D03*
X822750Y758750D02*
D03*
X1054750Y768000D02*
D03*
Y750000D02*
D03*
X1030750Y759000D02*
D03*
X948000Y696250D02*
D03*
Y678250D02*
D03*
X924000Y687250D02*
D03*
X1212000Y678250D02*
D03*
Y696250D02*
D03*
X1236000Y687250D02*
D03*
X1049750Y692500D02*
D03*
X1073750Y683500D02*
D03*
Y701500D02*
D03*
X721750Y687500D02*
D03*
X745750Y678500D02*
D03*
Y696500D02*
D03*
X708000Y608500D02*
D03*
X732000Y599500D02*
D03*
Y617500D02*
D03*
X823250Y617250D02*
D03*
Y599250D02*
D03*
X799250Y608250D02*
D03*
X893500D02*
D03*
X917500Y599250D02*
D03*
Y617250D02*
D03*
X1012500Y632250D02*
D03*
Y614250D02*
D03*
X988500Y623250D02*
D03*
X1237250Y621750D02*
D03*
X1213250Y630750D02*
D03*
Y612750D02*
D03*
X1212250Y548000D02*
D03*
Y566000D02*
D03*
X1236250Y557000D02*
D03*
X1235750Y491250D02*
D03*
X1211750Y500250D02*
D03*
Y482250D02*
D03*
X1235750Y435750D02*
D03*
Y417750D02*
D03*
X1211750Y426750D02*
D03*
X707750Y542500D02*
D03*
X731750Y533500D02*
D03*
Y551500D02*
D03*
X827250Y549750D02*
D03*
Y531750D02*
D03*
X803250Y540750D02*
D03*
X898000Y539000D02*
D03*
X922000Y530000D02*
D03*
Y548000D02*
D03*
X985000Y530500D02*
D03*
Y512500D02*
D03*
X961000Y521500D02*
D03*
X1028750Y521250D02*
D03*
X1052750Y512250D02*
D03*
Y530250D02*
D03*
X735250Y462250D02*
D03*
Y444250D02*
D03*
X711250Y453250D02*
D03*
X812500Y453000D02*
D03*
X836500Y444000D02*
D03*
Y462000D02*
D03*
D24*
X659250Y691000D02*
D03*
X673750D02*
D03*
X1138000Y483250D02*
D03*
X1123500D02*
D03*
X1163750Y354250D02*
D03*
X1149250D02*
D03*
X953250Y286250D02*
D03*
X967750D02*
D03*
X1027000Y295000D02*
D03*
X1012500D02*
D03*
X953000Y320250D02*
D03*
X967500D02*
D03*
X953250Y303250D02*
D03*
X967750D02*
D03*
X1078000Y441250D02*
D03*
X1063500D02*
D03*
X1078000Y460250D02*
D03*
X1063500D02*
D03*
X1063500Y420750D02*
D03*
X1078000D02*
D03*
X916000Y657500D02*
D03*
X930500D02*
D03*
X1130000Y559500D02*
D03*
X1115500D02*
D03*
X855000Y332750D02*
D03*
X869500D02*
D03*
D27*
X896000Y696500D02*
D03*
Y690000D02*
D03*
Y683500D02*
D03*
Y677000D02*
D03*
Y670500D02*
D03*
Y664000D02*
D03*
Y657500D02*
D03*
X838000Y696500D02*
D03*
Y690000D02*
D03*
Y683500D02*
D03*
Y677000D02*
D03*
Y670500D02*
D03*
Y664000D02*
D03*
Y657500D02*
D03*
X1127250Y619750D02*
D03*
Y613250D02*
D03*
Y606750D02*
D03*
Y600250D02*
D03*
Y593750D02*
D03*
Y587250D02*
D03*
Y580750D02*
D03*
X1069250Y619750D02*
D03*
Y613250D02*
D03*
Y606750D02*
D03*
Y600250D02*
D03*
Y593750D02*
D03*
Y587250D02*
D03*
Y580750D02*
D03*
X887250Y391000D02*
D03*
Y384500D02*
D03*
Y378000D02*
D03*
Y371500D02*
D03*
Y365000D02*
D03*
Y358500D02*
D03*
Y352000D02*
D03*
X829250Y391000D02*
D03*
Y384500D02*
D03*
Y378000D02*
D03*
Y371500D02*
D03*
Y365000D02*
D03*
Y358500D02*
D03*
Y352000D02*
D03*
D31*
X1131750Y673500D02*
D03*
Y659000D02*
D03*
X983250Y486250D02*
D03*
Y471750D02*
D03*
X1130750Y344500D02*
D03*
Y359000D02*
D03*
X1105000Y474000D02*
D03*
Y488500D02*
D03*
X1013500Y327250D02*
D03*
Y312750D02*
D03*
X1047750Y371250D02*
D03*
Y385750D02*
D03*
X1066750Y371250D02*
D03*
Y385750D02*
D03*
D36*
X1112600Y672650D02*
D03*
X1011000D02*
D03*
D37*
X1112600Y774250D02*
D03*
X1011000D02*
D03*
D38*
X1203250Y300250D02*
D03*
Y753250D02*
D03*
X300000Y300250D02*
D03*
X300000Y753250D02*
D03*
D43*
X1165875Y338000D02*
D03*
X1157125D02*
D03*
X1139625Y466500D02*
D03*
X1130875D02*
D03*
D44*
X1095000Y663875D02*
D03*
Y672625D02*
D03*
D45*
X1120050Y423250D02*
D03*
X1133450D02*
D03*
X1139950Y386250D02*
D03*
X1126550D02*
D03*
%TF.MD5,2f0b6e9863e07783c081b19a351ca4f3*%
M02*
