M48
;Layer_Color=9474304
;FILE_FORMAT=4:3
METRIC,LZ
;TYPE=PLATED
T1F00S00C0.300
T2F00S00C0.400
T3F00S00C0.600
T4F00S00C1.600
T5F00S00C3.500
%
T01
X0086254Y0027901
X0086654Y0029226
X0086475Y00301
X0088975Y00333
X009055Y0035275
X009065Y00363
X0090425Y003885
X009175
X0092675Y0039375
X00942Y0034525
X0094155Y0031652
Y0030126
X009415Y0029025
X0094Y0027675
X00932Y002655
X0095375Y00267
X00931Y002975
X009253Y0031352
X0089075Y00266
X009848Y0034277
X009975Y0034225
X0101225Y003545
X0101375Y00392
X010358Y0038927
X0098525Y0038625
X0112175Y003715
X0112625Y0032575
X011335Y003325
X0117356Y0036477
X0118831Y0038827
X01206Y00439
X0121325Y004705
X0124125Y004685
X0124006Y0065753
X0123775Y0076425
X010935Y0072325
X01087Y0071325
X01063Y0073675
X0105175Y0073625
X0104025Y00748
X010435Y006795
X010585Y0067975
X0107575Y00634
X010973Y0062128
X010895Y00612
X0108905Y0059628
X01099Y006045
X0112305Y0063203
X011233Y0064553
X0114181Y0063903
X0114425Y006265
X0098025Y0063575
X0097905Y0066003
X009923Y0066553
X0098675Y006775
X009625Y0067825
X009515Y0072625
X009535Y007365
X0094175Y0073425
X009325Y007285
X009135Y007265
X008885Y007295
X008765Y0072475
X0084854Y0072604
X0085425Y0073675
X0083475Y0073525
X0080125Y007275
X008025Y006675
X0079525Y006505
X0081725Y0065325
X0087179Y0066203
X00858Y00676
Y00698
X0086425Y0058725
X0087304Y0059028
X0088925Y005955
X00906Y0058425
X0082325Y00587
X00802Y0058575
X00809Y004855
X0084925Y004215
X0084075Y0040475
X0098075Y004065
X0098525Y0039725
X00985Y0041625
X00994Y0042925
X0100275Y0042525
X0101125Y0041925
X010155Y0042825
X010185Y0043825
X0102005Y0044802
X0102775Y0045475
X010415Y0045375
X01052Y004535
X0104125Y00467
X010238Y0046852
X0101555Y0046377
X00994Y004585
X0098375Y0045875
X0099105Y0044827
X0100205Y0044852
X0100425Y004385
X0102805Y0043502
X010285Y00424
X0103025Y00413
X0101375Y004025
X010495Y0043025
X0109255Y0043077
X0109109Y0044
X0109275Y004505
X0111125Y0045
X0112025Y0043925
X010908Y0042102
X010085Y0050575
X00998Y00504
X0098255Y0050277
X0097655Y0049277
X009685Y00485
X009618Y0048977
X009458Y0048152
X0093705Y0047252
X0098175Y0061175
X00991Y0078325
X0078325Y0072575
X0076675Y00725
X0075325Y0073275
X0074729Y0073854
X007365Y00737
X007375Y0072775
X0072775Y0072475
X007145Y00725
X0070203Y0073154
X0069278Y0072954
X0068178Y0072579
X0066928Y0072729
X0067178Y0073979
X0068403Y0073829
X00683Y00751
X0065903Y0073529
X00651Y0074125
X0065103Y0072104
X0063803Y0073029
X0062825Y0072325
X00586Y007295
X0059175Y0074225
X005665Y00723
X005615Y0071375
X005495Y007275
X00651Y0065775
X006435Y0064975
X0067503Y0064903
X0068225Y0066475
X0073254Y0066528
X0074675Y0066725
X0075425Y006625
X0075829Y0065378
X0074029Y0065653
X0078454Y0066628
X0079179Y0059853
X0079225Y0058
X007815Y0058675
X0077154Y0058803
X0070325Y00622
X00693
T02
X00343Y0027775
X0034275Y0034075
X0038275Y0033525
X0036275Y003805
X00405Y003635
X004055Y003485
X00423Y003435
X0042275Y0035825
X00422Y0030775
X004355Y0031025
X0047275Y0033275
X0048275Y00345
X004825Y0036425
X0047325Y0035525
X00472Y00392
X005025Y0038225
X0051025Y0037375
X0051925Y00362
Y00392
X0056825Y00377
X0058225Y0037675
X0059525Y00377
X0062825Y00376
X0063175Y00385
X00648Y0033175
X00675Y0032875
X0068653Y0032577
X0070275Y0033825
X0073329Y0034452
X007435Y00312
Y0027225
X0078225Y00291
X0078Y0030575
X0078304Y0033277
X0078754Y0034877
X0067575Y00305
X0061075Y003155
X0060425Y003
X005715Y002965
X0055225Y0029025
X005605Y0027125
X005415Y0026925
X0053625Y0030425
X0057853Y0032852
X0058278Y0034452
X0079854Y0035177
X0081454Y0035352
X0081375Y003675
X0080725Y0037625
X0085775Y0038925
X0086875
X0086325Y00317
X009005Y0032075
X0082475Y003215
X0082579Y0030877
X0079629Y0032327
X0094675Y00389
X0105725Y003575
X0106725Y0034725
X01078Y0035425
X0109225Y0036075
X01087Y003745
X01097Y00381
X011125Y003785
X011025Y00395
X0109575Y002855
X0106225Y0026425
X0104Y00299
X01027Y0030975
X01028Y003245
X0115425Y003095
X011595Y0028525
X01175Y00345
X01206Y00388
X0123125Y0037775
X0123775Y0050425
X0122706Y0052903
X0121525Y00535
X0120875Y005265
X0122525Y00598
X0123231Y0064828
X0124225Y0070075
X01234Y00729
X011595Y0071675
X0114325Y00717
X0115625Y0066175
X0115756Y0060453
X0114575Y0060625
X0115956Y0059203
X0115725Y0057925
X0117375Y00612
X011705Y00539
X0116475Y00527
X0113925Y00515
X010965Y0052375
X0105455Y0057078
X010438
X01025Y0055825
X00971Y0052411
X008835Y0051875
X008685
X008595Y00481
X0085175Y004735
X0084925Y0045275
X0083804Y0042952
X008395Y00416
X0082775Y0042325
X008165Y0040975
X00805
X0079429Y0041502
X00803Y0042625
X0080329Y0043952
X007985Y0052675
X0080025Y0055225
X0082075Y0051725
X0089225Y005515
X009255Y0057775
X0091654Y0058753
X0089125Y0062025
X00895Y00646
X0091025
X009445Y0064925
X0089804Y0073954
X0105416Y0062125
X0115275Y0047625
X01145Y00452
X0117381Y0077854
X0118156Y0078629
X0075725Y0072375
X0072775Y0057925
X006945Y005845
X0070425Y00596
X00706Y0055325
X0069928Y0052478
X0071525Y00518
X0072625
X0073904Y0051903
X0073154Y0049152
X0074754
X0077429Y0049777
X00776Y00521
X007885Y0052175
X0078675Y00437
X0077775Y0040925
X00764Y004115
X0074575Y0041175
X00731Y0041125
X007105Y004305
X00641Y0043775
X0063675Y0042525
X006205Y00426
X00596Y00407
X0058225Y0040725
X0056875Y00407
X0051975Y00422
X0051978Y0045452
X00504Y0045725
X0050975Y0046725
X005045Y0048125
X005195Y00482
X0051325Y0049325
X0050375Y0050525
X005195Y00512
X0051925Y0054175
Y0057175
Y0059775
X0050975Y0058875
X004835Y0059125
X0047225
X004715Y00612
X0048325
X005155Y00616
X0052475Y0062525
X00571Y006525
X005435Y0068025
X005105Y0072725
X00501Y007395
X00467Y007205
X0041075Y00745
X0041077Y0076104
X00423Y007725
X0046975Y0056975
X0048325
X004845Y00543
X004705Y0054375
X0047Y00522
X0048275
X004835Y005025
X0047
X0047175Y00419
Y0040675
X00481Y0041425
Y0039925
X0050425Y00403
X005705Y0049725
X0058175
X0059375Y00497
X0062575Y005015
X006215Y0052
X006445Y0053525
X0065125Y0054175
Y0057175
X0061575Y005745
X0061175Y0058875
X0061725Y0059875
X0061025Y0054775
X006515Y0045175
X0070353Y0050077
X0033825Y004715
X0031925Y0046325
X0030626Y0047452
X0029775Y0048
X0031575Y004905
X003065Y005
X0029125Y0051075
X00338Y0053175
X0033775Y0056175
X00337Y005775
Y0044525
X0033775Y0042775
X0033625Y00722
X003865Y0069025
T03
X005185Y003025
X01175Y0037925
X0116475Y0076425
X0090179Y0072729
X00874Y006475
X0082829Y0064653
X0080675Y0065025
X0077775Y00651
X0079325Y0073775
T04
X01011Y0067265
Y0077425
X011126
Y0067265
T05
X003Y0030025
X0120325Y0030025
Y0075325
X003Y0075325
M30
