G04 Layer_Physical_Order=1*
G04 Layer_Color=255*
%FSLAX44Y44*%
%MOMM*%
%TF.FileFunction,Copper,L1,Top,Signal*%
%TF.Part,Single*%
G01*
G75*
%TA.AperFunction,SMDPad,CuDef*%
%ADD10R,1.6500X3.4300*%
%ADD11R,2.9200X1.2700*%
%ADD12R,2.5400X1.2700*%
%ADD13R,0.8000X0.9500*%
%ADD14R,1.6000X1.2000*%
%ADD15R,1.2000X1.6000*%
%ADD16R,0.6500X1.0000*%
%ADD17R,0.9500X0.8000*%
%ADD18R,0.3600X1.2600*%
%ADD19R,1.0000X0.6500*%
%ADD20O,1.4000X0.9000*%
%ADD21R,1.2000X0.3000*%
%ADD22R,0.3000X1.2000*%
%ADD23R,2.1500X1.4500*%
%ADD24R,0.7500X0.9500*%
%ADD25R,3.4300X1.6500*%
%ADD26R,1.2700X2.5400*%
%ADD27R,1.2600X0.3600*%
%ADD28R,1.0000X0.6000*%
%ADD29R,1.6500X3.4300*%
%ADD30R,2.8000X0.7500*%
%ADD31R,0.9500X0.7500*%
%TA.AperFunction,Conductor*%
%ADD32C,0.2500*%
%ADD33C,0.4000*%
%ADD34C,0.2000*%
%ADD35C,0.6000*%
%TA.AperFunction,ComponentPad*%
%ADD36C,2.0000*%
%ADD37C,1.6000*%
%TA.AperFunction,ViaPad*%
%ADD38C,5.5000*%
%ADD39C,0.4500*%
%ADD40C,0.6000*%
%ADD41C,0.5400*%
G36*
X603152Y613152D02*
X602500Y612500D01*
Y407640D01*
X600500Y407443D01*
X600239Y408756D01*
X599244Y410244D01*
X597756Y411239D01*
X597250Y411339D01*
Y407000D01*
Y402660D01*
X597756Y402761D01*
X599244Y403756D01*
X600239Y405244D01*
X600500Y406557D01*
X602500Y406360D01*
Y353000D01*
X595715D01*
X594150Y354050D01*
X594150Y355000D01*
Y360650D01*
X579950D01*
X565750D01*
X565750Y354577D01*
X564041Y353347D01*
X562500Y353803D01*
Y373906D01*
X564500Y374512D01*
X565006Y373756D01*
X566494Y372761D01*
X567000Y372660D01*
Y377000D01*
Y381339D01*
X566494Y381239D01*
X565006Y380244D01*
X564500Y379487D01*
X562500Y380094D01*
Y405103D01*
X564500Y405300D01*
X564511Y405244D01*
X565506Y403756D01*
X566994Y402761D01*
X567500Y402660D01*
Y407000D01*
Y411339D01*
X566994Y411239D01*
X565506Y410244D01*
X564511Y408756D01*
X564500Y408700D01*
X562500Y408897D01*
Y614750D01*
X562750Y615000D01*
X602387D01*
X603152Y613152D01*
D02*
G37*
G36*
X492750Y322500D02*
X463486D01*
X462400Y324050D01*
X462400Y324500D01*
Y330650D01*
X448200D01*
X434000D01*
Y324500D01*
X434000Y324050D01*
X432914Y322500D01*
X391500D01*
X391445Y388341D01*
X393443Y389800D01*
X407600D01*
Y397650D01*
Y405500D01*
X393430D01*
X392750Y405500D01*
X391429Y406953D01*
X391419Y418351D01*
X393418Y419800D01*
X407600D01*
Y427650D01*
Y435500D01*
X393405D01*
X392750Y435500D01*
X391404Y436942D01*
X391394Y448362D01*
X393393Y449800D01*
X407600D01*
Y457650D01*
Y465500D01*
X393380D01*
X392750Y465500D01*
X391379Y466932D01*
X391369Y478372D01*
X393368Y479800D01*
X407600D01*
Y487650D01*
Y495500D01*
X393355D01*
X392750Y495500D01*
X391353Y496922D01*
X391344Y508382D01*
X393343Y509800D01*
X407600D01*
Y517650D01*
Y525500D01*
X393329D01*
X392750Y525500D01*
X391328Y526896D01*
X391319Y538427D01*
X393317Y539800D01*
X407600D01*
Y547650D01*
Y555500D01*
X393304D01*
X392750Y555500D01*
X391303Y556835D01*
X391293Y568488D01*
X393292Y569800D01*
X407600D01*
Y577650D01*
Y585500D01*
X393279D01*
X392750Y585500D01*
X391278Y586774D01*
X391268Y598549D01*
X393267Y599800D01*
X407600D01*
Y607650D01*
Y615500D01*
X393254D01*
X392750Y615500D01*
X391357Y616629D01*
X391297Y618567D01*
X392703Y620000D01*
X492750D01*
Y322500D01*
D02*
G37*
%LPC*%
G36*
X594750Y405750D02*
X591660D01*
X591761Y405244D01*
X592756Y403756D01*
X594244Y402761D01*
X594750Y402660D01*
Y405750D01*
D02*
G37*
G36*
X581000Y406000D02*
X577910D01*
X578011Y405494D01*
X579006Y404006D01*
X580494Y403011D01*
X581000Y402910D01*
Y406000D01*
D02*
G37*
G36*
X573089Y405750D02*
X570000D01*
Y402660D01*
X570506Y402761D01*
X571994Y403756D01*
X572989Y405244D01*
X573089Y405750D01*
D02*
G37*
G36*
X570000Y411339D02*
Y408250D01*
X573089D01*
X572989Y408756D01*
X571994Y410244D01*
X570506Y411239D01*
X570000Y411339D01*
D02*
G37*
G36*
X594750D02*
X594244Y411239D01*
X592756Y410244D01*
X591761Y408756D01*
X591660Y408250D01*
X594750D01*
Y411339D01*
D02*
G37*
G36*
X581000Y411590D02*
X580494Y411489D01*
X579006Y410494D01*
X578011Y409006D01*
X577910Y408500D01*
X581000D01*
Y411590D01*
D02*
G37*
G36*
X586590Y406000D02*
X583500D01*
Y402910D01*
X584006Y403011D01*
X585494Y404006D01*
X586489Y405494D01*
X586590Y406000D01*
D02*
G37*
G36*
X578700Y399750D02*
X565750D01*
Y393150D01*
X578700D01*
Y399750D01*
D02*
G37*
G36*
X594150D02*
X581200D01*
Y393150D01*
X594150D01*
Y399750D01*
D02*
G37*
G36*
X583500Y411590D02*
Y408500D01*
X586590D01*
X586489Y409006D01*
X585494Y410494D01*
X584006Y411489D01*
X583500Y411590D01*
D02*
G37*
G36*
X578700Y450650D02*
X565750D01*
Y444050D01*
X578700D01*
Y450650D01*
D02*
G37*
G36*
X594150D02*
X581200D01*
Y444050D01*
X594150D01*
Y450650D01*
D02*
G37*
G36*
Y429750D02*
X581200D01*
Y423150D01*
X594150D01*
Y429750D01*
D02*
G37*
G36*
Y459750D02*
X581200D01*
Y453150D01*
X594150D01*
Y459750D01*
D02*
G37*
G36*
X578700D02*
X565750D01*
Y453150D01*
X578700D01*
Y459750D01*
D02*
G37*
G36*
Y420650D02*
X565750D01*
Y414050D01*
X578700D01*
Y420650D01*
D02*
G37*
G36*
X594150D02*
X581200D01*
Y414050D01*
X594150D01*
Y420650D01*
D02*
G37*
G36*
X578700Y429750D02*
X565750D01*
Y423150D01*
X578700D01*
Y429750D01*
D02*
G37*
G36*
X594150Y390650D02*
X581200D01*
Y384050D01*
X594150D01*
Y390650D01*
D02*
G37*
G36*
X594000Y375750D02*
X590910D01*
X591011Y375244D01*
X592006Y373756D01*
X593494Y372761D01*
X594000Y372660D01*
Y375750D01*
D02*
G37*
G36*
X599590D02*
X596500D01*
Y372660D01*
X597006Y372761D01*
X598494Y373756D01*
X599489Y375244D01*
X599590Y375750D01*
D02*
G37*
G36*
X581000Y381090D02*
X580494Y380989D01*
X579006Y379994D01*
X578011Y378506D01*
X577910Y378000D01*
X581000D01*
Y381090D01*
D02*
G37*
G36*
Y375500D02*
X577910D01*
X578011Y374994D01*
X579006Y373506D01*
X580494Y372511D01*
X581000Y372411D01*
Y375500D01*
D02*
G37*
G36*
X586590D02*
X583500D01*
Y372411D01*
X584006Y372511D01*
X585494Y373506D01*
X586489Y374994D01*
X586590Y375500D01*
D02*
G37*
G36*
X572589Y375750D02*
X569500D01*
Y372660D01*
X570006Y372761D01*
X571494Y373756D01*
X572489Y375244D01*
X572589Y375750D01*
D02*
G37*
G36*
X583500Y381090D02*
Y378000D01*
X586590D01*
X586489Y378506D01*
X585494Y379994D01*
X584006Y380989D01*
X583500Y381090D01*
D02*
G37*
G36*
X578700Y390650D02*
X565750D01*
Y384050D01*
X578700D01*
Y390650D01*
D02*
G37*
G36*
X569500Y381339D02*
Y378250D01*
X572589D01*
X572489Y378756D01*
X571494Y380244D01*
X570006Y381239D01*
X569500Y381339D01*
D02*
G37*
G36*
X594000D02*
X593494Y381239D01*
X592006Y380244D01*
X591011Y378756D01*
X590910Y378250D01*
X594000D01*
Y381339D01*
D02*
G37*
G36*
X596500D02*
Y378250D01*
X599590D01*
X599489Y378756D01*
X598494Y380244D01*
X597006Y381239D01*
X596500Y381339D01*
D02*
G37*
G36*
X578700Y369750D02*
X565750D01*
Y363150D01*
X578700D01*
Y369750D01*
D02*
G37*
G36*
X594150D02*
X581200D01*
Y363150D01*
X594150D01*
Y369750D01*
D02*
G37*
G36*
X578700Y579750D02*
X565750D01*
Y573150D01*
X578700D01*
Y579750D01*
D02*
G37*
G36*
X594150D02*
X581200D01*
Y573150D01*
X594150D01*
Y579750D01*
D02*
G37*
G36*
Y570650D02*
X581200D01*
Y564050D01*
X594150D01*
Y570650D01*
D02*
G37*
G36*
Y549750D02*
X581200D01*
Y543150D01*
X594150D01*
Y549750D01*
D02*
G37*
G36*
X578700D02*
X565750D01*
Y543150D01*
X578700D01*
Y549750D01*
D02*
G37*
G36*
X578700Y570650D02*
X565750D01*
Y564050D01*
X578700D01*
Y570650D01*
D02*
G37*
G36*
X594150Y609750D02*
X581200D01*
Y603150D01*
X594150D01*
Y609750D01*
D02*
G37*
G36*
X578700D02*
X565750D01*
Y603150D01*
X578700D01*
Y609750D01*
D02*
G37*
G36*
Y600650D02*
X565750D01*
Y594050D01*
X578700D01*
Y600650D01*
D02*
G37*
G36*
X594150D02*
X581200D01*
Y594050D01*
X594150D01*
Y600650D01*
D02*
G37*
G36*
X592500Y501339D02*
X591994Y501239D01*
X590506Y500244D01*
X589511Y498756D01*
X589411Y498250D01*
X592500D01*
Y501339D01*
D02*
G37*
G36*
X595000D02*
Y498250D01*
X598089D01*
X597989Y498756D01*
X596994Y500244D01*
X595506Y501239D01*
X595000Y501339D01*
D02*
G37*
G36*
X569250Y501590D02*
X568744Y501489D01*
X567256Y500494D01*
X566261Y499006D01*
X566161Y498500D01*
X569250D01*
Y501590D01*
D02*
G37*
G36*
X571750D02*
Y498500D01*
X574840D01*
X574739Y499006D01*
X573744Y500494D01*
X572256Y501489D01*
X571750Y501590D01*
D02*
G37*
G36*
X580500D02*
X579994Y501489D01*
X578506Y500494D01*
X577511Y499006D01*
X577411Y498500D01*
X580500D01*
Y501590D01*
D02*
G37*
G36*
X583000D02*
Y498500D01*
X586090D01*
X585989Y499006D01*
X584994Y500494D01*
X583506Y501489D01*
X583000Y501590D01*
D02*
G37*
G36*
X586090Y496000D02*
X583000D01*
Y492910D01*
X583506Y493011D01*
X584994Y494006D01*
X585989Y495494D01*
X586090Y496000D01*
D02*
G37*
G36*
X578700Y489750D02*
X565750D01*
Y483150D01*
X578700D01*
Y489750D01*
D02*
G37*
G36*
Y480650D02*
X565750D01*
Y474050D01*
X578700D01*
Y480650D01*
D02*
G37*
G36*
X594150D02*
X581200D01*
Y474050D01*
X594150D01*
Y480650D01*
D02*
G37*
G36*
Y489750D02*
X581200D01*
Y483150D01*
X594150D01*
Y489750D01*
D02*
G37*
G36*
X569250Y496000D02*
X566161D01*
X566261Y495494D01*
X567256Y494006D01*
X568744Y493011D01*
X569250Y492910D01*
Y496000D01*
D02*
G37*
G36*
X574840D02*
X571750D01*
Y492910D01*
X572256Y493011D01*
X573744Y494006D01*
X574739Y495494D01*
X574840Y496000D01*
D02*
G37*
G36*
X580500D02*
X577411D01*
X577511Y495494D01*
X578506Y494006D01*
X579994Y493011D01*
X580500Y492910D01*
Y496000D01*
D02*
G37*
G36*
X592500Y495750D02*
X589411D01*
X589511Y495244D01*
X590506Y493756D01*
X591994Y492761D01*
X592500Y492660D01*
Y495750D01*
D02*
G37*
G36*
X598089D02*
X595000D01*
Y492660D01*
X595506Y492761D01*
X596994Y493756D01*
X597989Y495244D01*
X598089Y495750D01*
D02*
G37*
G36*
X578700Y540650D02*
X565750D01*
Y534050D01*
X578700D01*
Y540650D01*
D02*
G37*
G36*
X594150D02*
X581200D01*
Y534050D01*
X594150D01*
Y540650D01*
D02*
G37*
G36*
X578700Y510650D02*
X565750D01*
Y504050D01*
X578700D01*
Y510650D01*
D02*
G37*
G36*
X594150D02*
X581200D01*
Y504050D01*
X594150D01*
Y510650D01*
D02*
G37*
G36*
X578700Y519750D02*
X565750D01*
Y513150D01*
X578700D01*
Y519750D01*
D02*
G37*
G36*
X594150D02*
X581200D01*
Y513150D01*
X594150D01*
Y519750D01*
D02*
G37*
G36*
X482250Y403590D02*
Y400500D01*
X485340D01*
X485239Y401006D01*
X484244Y402494D01*
X482756Y403489D01*
X482250Y403590D01*
D02*
G37*
G36*
X470500Y405500D02*
X467411D01*
X467511Y404994D01*
X468506Y403506D01*
X469994Y402511D01*
X470500Y402411D01*
Y405500D01*
D02*
G37*
G36*
X476090D02*
X473000D01*
Y402411D01*
X473506Y402511D01*
X474994Y403506D01*
X475989Y404994D01*
X476090Y405500D01*
D02*
G37*
G36*
X470500Y411090D02*
X469994Y410989D01*
X468506Y409994D01*
X467511Y408506D01*
X467411Y408000D01*
X470500D01*
Y411090D01*
D02*
G37*
G36*
X473000D02*
Y408000D01*
X476090D01*
X475989Y408506D01*
X474994Y409994D01*
X473506Y410989D01*
X473000Y411090D01*
D02*
G37*
G36*
X446950Y399750D02*
X434000D01*
Y393150D01*
X446950D01*
Y399750D01*
D02*
G37*
G36*
X462400D02*
X449450D01*
Y393150D01*
X462400D01*
Y399750D01*
D02*
G37*
G36*
X470750Y390750D02*
X467660D01*
X467761Y390244D01*
X468756Y388756D01*
X470244Y387761D01*
X470750Y387660D01*
Y390750D01*
D02*
G37*
G36*
X476339D02*
X473250D01*
Y387660D01*
X473756Y387761D01*
X475244Y388756D01*
X476239Y390244D01*
X476339Y390750D01*
D02*
G37*
G36*
X424950Y396400D02*
X410100D01*
Y389800D01*
X424950D01*
Y396400D01*
D02*
G37*
G36*
X485340Y398000D02*
X482250D01*
Y394911D01*
X482756Y395011D01*
X484244Y396006D01*
X485239Y397494D01*
X485340Y398000D01*
D02*
G37*
G36*
X410100Y405500D02*
Y398900D01*
X424950D01*
Y405500D01*
X410100D01*
D02*
G37*
G36*
X479750Y403590D02*
X479244Y403489D01*
X477756Y402494D01*
X476761Y401006D01*
X476660Y400500D01*
X479750D01*
Y403590D01*
D02*
G37*
G36*
X470750Y396339D02*
X470244Y396239D01*
X468756Y395244D01*
X467761Y393756D01*
X467660Y393250D01*
X470750D01*
Y396339D01*
D02*
G37*
G36*
X473250D02*
Y393250D01*
X476339D01*
X476239Y393756D01*
X475244Y395244D01*
X473756Y396239D01*
X473250Y396339D01*
D02*
G37*
G36*
X479750Y398000D02*
X476660D01*
X476761Y397494D01*
X477756Y396006D01*
X479244Y395011D01*
X479750Y394911D01*
Y398000D01*
D02*
G37*
G36*
X462400Y450650D02*
X449450D01*
Y444050D01*
X462400D01*
Y450650D01*
D02*
G37*
G36*
X410100Y435500D02*
Y428900D01*
X424950D01*
Y435500D01*
X410100D01*
D02*
G37*
G36*
X446950Y450650D02*
X434000D01*
Y444050D01*
X446950D01*
Y450650D01*
D02*
G37*
G36*
X424950Y456400D02*
X410100D01*
Y449800D01*
X424950D01*
Y456400D01*
D02*
G37*
G36*
X410100Y465500D02*
Y458900D01*
X424950D01*
Y465500D01*
X410100D01*
D02*
G37*
G36*
X446950Y480650D02*
X434000D01*
Y474050D01*
X446950D01*
Y480650D01*
D02*
G37*
G36*
Y459750D02*
X434000D01*
Y453150D01*
X446950D01*
Y459750D01*
D02*
G37*
G36*
X462400D02*
X449450D01*
Y453150D01*
X462400D01*
Y459750D01*
D02*
G37*
G36*
Y420650D02*
X449450D01*
Y414050D01*
X462400D01*
Y420650D01*
D02*
G37*
G36*
X473000Y423340D02*
Y419000D01*
Y414660D01*
X473506Y414761D01*
X474623Y415507D01*
X476022Y414889D01*
X476465Y414516D01*
X476412Y414250D01*
X476761Y412494D01*
X477756Y411006D01*
X479244Y410011D01*
X479750Y409911D01*
Y414250D01*
Y418590D01*
X479244Y418489D01*
X478127Y417743D01*
X476727Y418361D01*
X476285Y418734D01*
X476338Y419000D01*
X475989Y420756D01*
X474994Y422244D01*
X473506Y423239D01*
X473000Y423340D01*
D02*
G37*
G36*
X485340Y413000D02*
X482250D01*
Y409911D01*
X482756Y410011D01*
X484244Y411006D01*
X485239Y412494D01*
X485340Y413000D01*
D02*
G37*
G36*
X446950Y420650D02*
X434000D01*
Y414050D01*
X446950D01*
Y420650D01*
D02*
G37*
G36*
X470500Y417750D02*
X467411D01*
X467511Y417244D01*
X468506Y415756D01*
X469994Y414761D01*
X470500Y414660D01*
Y417750D01*
D02*
G37*
G36*
X446950Y429750D02*
X434000D01*
Y423150D01*
X446950D01*
Y429750D01*
D02*
G37*
G36*
X462400D02*
X449450D01*
Y423150D01*
X462400D01*
Y429750D01*
D02*
G37*
G36*
X482250Y418590D02*
Y415500D01*
X485340D01*
X485239Y416006D01*
X484244Y417494D01*
X482756Y418489D01*
X482250Y418590D01*
D02*
G37*
G36*
X424950Y426400D02*
X410100D01*
Y419800D01*
X424950D01*
Y426400D01*
D02*
G37*
G36*
X470500Y423340D02*
X469994Y423239D01*
X468506Y422244D01*
X467511Y420756D01*
X467411Y420250D01*
X470500D01*
Y423340D01*
D02*
G37*
G36*
X404250Y352840D02*
X403744Y352739D01*
X402256Y351744D01*
X401261Y350256D01*
X401161Y349750D01*
X404250D01*
Y352840D01*
D02*
G37*
G36*
X406750D02*
Y349750D01*
X409840D01*
X409739Y350256D01*
X408744Y351744D01*
X407256Y352739D01*
X406750Y352840D01*
D02*
G37*
G36*
X472000Y354000D02*
X468910D01*
X469011Y353494D01*
X470006Y352006D01*
X471494Y351011D01*
X472000Y350910D01*
Y354000D01*
D02*
G37*
G36*
X424250Y347840D02*
Y344750D01*
X427340D01*
X427239Y345256D01*
X426244Y346744D01*
X424756Y347739D01*
X424250Y347840D01*
D02*
G37*
G36*
X481500Y349339D02*
X480994Y349239D01*
X479506Y348244D01*
X478511Y346756D01*
X478410Y346250D01*
X481500D01*
Y349339D01*
D02*
G37*
G36*
X484000D02*
Y346250D01*
X487090D01*
X486989Y346756D01*
X485994Y348244D01*
X484506Y349239D01*
X484000Y349339D01*
D02*
G37*
G36*
X477589Y354000D02*
X474500D01*
Y350910D01*
X475006Y351011D01*
X476494Y352006D01*
X477489Y353494D01*
X477589Y354000D01*
D02*
G37*
G36*
X462400Y360650D02*
X449450D01*
Y354050D01*
X462400D01*
Y360650D01*
D02*
G37*
G36*
X472000Y359590D02*
X471494Y359489D01*
X470006Y358494D01*
X469011Y357006D01*
X468910Y356500D01*
X472000D01*
Y359590D01*
D02*
G37*
G36*
X474500D02*
Y356500D01*
X477589D01*
X477489Y357006D01*
X476494Y358494D01*
X475006Y359489D01*
X474500Y359590D01*
D02*
G37*
G36*
X421500Y357000D02*
X418410D01*
X418511Y356494D01*
X419506Y355006D01*
X420994Y354011D01*
X421500Y353910D01*
Y357000D01*
D02*
G37*
G36*
X427090D02*
X424000D01*
Y353910D01*
X424506Y354011D01*
X425994Y355006D01*
X426989Y356494D01*
X427090Y357000D01*
D02*
G37*
G36*
X446950Y360650D02*
X434000D01*
Y354050D01*
X446950D01*
Y360650D01*
D02*
G37*
G36*
X462400Y339750D02*
X449450D01*
Y333150D01*
X462400D01*
Y339750D01*
D02*
G37*
G36*
X471500Y337090D02*
X470994Y336989D01*
X469506Y335994D01*
X468511Y334506D01*
X468410Y334000D01*
X471500D01*
Y337090D01*
D02*
G37*
G36*
X474000D02*
Y334000D01*
X477090D01*
X476989Y334506D01*
X475994Y335994D01*
X474506Y336989D01*
X474000Y337090D01*
D02*
G37*
G36*
X471500Y331500D02*
X468410D01*
X468511Y330994D01*
X469506Y329506D01*
X470994Y328511D01*
X471500Y328410D01*
Y331500D01*
D02*
G37*
G36*
X477090D02*
X474000D01*
Y328410D01*
X474506Y328511D01*
X475994Y329506D01*
X476989Y330994D01*
X477090Y331500D01*
D02*
G37*
G36*
X446950Y339750D02*
X434000D01*
Y333150D01*
X446950D01*
Y339750D01*
D02*
G37*
G36*
X421750Y342250D02*
X418661D01*
X418761Y341744D01*
X419756Y340256D01*
X421244Y339261D01*
X421750Y339160D01*
Y342250D01*
D02*
G37*
G36*
X404250Y347250D02*
X401161D01*
X401261Y346744D01*
X402256Y345256D01*
X403744Y344261D01*
X404250Y344160D01*
Y347250D01*
D02*
G37*
G36*
X409840D02*
X406750D01*
Y344160D01*
X407256Y344261D01*
X408744Y345256D01*
X409739Y346744D01*
X409840Y347250D01*
D02*
G37*
G36*
X421750Y347840D02*
X421244Y347739D01*
X419756Y346744D01*
X418761Y345256D01*
X418661Y344750D01*
X421750D01*
Y347840D01*
D02*
G37*
G36*
X427340Y342250D02*
X424250D01*
Y339160D01*
X424756Y339261D01*
X426244Y340256D01*
X427239Y341744D01*
X427340Y342250D01*
D02*
G37*
G36*
X481500Y343750D02*
X478410D01*
X478511Y343244D01*
X479506Y341756D01*
X480994Y340761D01*
X481500Y340661D01*
Y343750D01*
D02*
G37*
G36*
X487090D02*
X484000D01*
Y340661D01*
X484506Y340761D01*
X485994Y341756D01*
X486989Y343244D01*
X487090Y343750D01*
D02*
G37*
G36*
X403750Y362250D02*
X400661D01*
X400761Y361744D01*
X401756Y360256D01*
X403244Y359261D01*
X403750Y359160D01*
Y362250D01*
D02*
G37*
G36*
X446950Y390650D02*
X434000D01*
Y384050D01*
X446950D01*
Y390650D01*
D02*
G37*
G36*
X462400D02*
X449450D01*
Y384050D01*
X462400D01*
Y390650D01*
D02*
G37*
G36*
X481250Y363000D02*
X478161D01*
X478261Y362494D01*
X479256Y361006D01*
X480744Y360011D01*
X481250Y359911D01*
Y363000D01*
D02*
G37*
G36*
X486839D02*
X483750D01*
Y359911D01*
X484256Y360011D01*
X485744Y361006D01*
X486739Y362494D01*
X486839Y363000D01*
D02*
G37*
G36*
X446950Y369750D02*
X434000D01*
Y363150D01*
X446950D01*
Y369750D01*
D02*
G37*
G36*
X409339Y362250D02*
X406250D01*
Y359160D01*
X406756Y359261D01*
X408244Y360256D01*
X409239Y361744D01*
X409339Y362250D01*
D02*
G37*
G36*
X421500Y362589D02*
X420994Y362489D01*
X419506Y361494D01*
X418511Y360006D01*
X418410Y359500D01*
X421500D01*
Y362589D01*
D02*
G37*
G36*
X424000D02*
Y359500D01*
X427090D01*
X426989Y360006D01*
X425994Y361494D01*
X424506Y362489D01*
X424000Y362589D01*
D02*
G37*
G36*
X406250Y367840D02*
Y364750D01*
X409339D01*
X409239Y365256D01*
X408244Y366744D01*
X406756Y367739D01*
X406250Y367840D01*
D02*
G37*
G36*
X481250Y368590D02*
X480744Y368489D01*
X479256Y367494D01*
X478261Y366006D01*
X478161Y365500D01*
X481250D01*
Y368590D01*
D02*
G37*
G36*
X483750D02*
Y365500D01*
X486839D01*
X486739Y366006D01*
X485744Y367494D01*
X484256Y368489D01*
X483750Y368590D01*
D02*
G37*
G36*
X462400Y369750D02*
X449450D01*
Y363150D01*
X462400D01*
Y369750D01*
D02*
G37*
G36*
X403750Y367840D02*
X403244Y367739D01*
X401756Y366744D01*
X400761Y365256D01*
X400661Y364750D01*
X403750D01*
Y367840D01*
D02*
G37*
G36*
X462400Y480650D02*
X449450D01*
Y474050D01*
X462400D01*
Y480650D01*
D02*
G37*
G36*
X487589Y568500D02*
X484500D01*
Y565410D01*
X485006Y565511D01*
X486494Y566506D01*
X487489Y567994D01*
X487589Y568500D01*
D02*
G37*
G36*
X424950Y576400D02*
X410100D01*
Y569800D01*
X424950D01*
Y576400D01*
D02*
G37*
G36*
X468500Y574090D02*
X467994Y573989D01*
X466506Y572994D01*
X465511Y571506D01*
X465410Y571000D01*
X468500D01*
Y574090D01*
D02*
G37*
G36*
Y568500D02*
X465410D01*
X465511Y567994D01*
X466506Y566506D01*
X467994Y565511D01*
X468500Y565410D01*
Y568500D01*
D02*
G37*
G36*
X474090D02*
X471000D01*
Y565410D01*
X471506Y565511D01*
X472994Y566506D01*
X473989Y567994D01*
X474090Y568500D01*
D02*
G37*
G36*
X482000D02*
X478910D01*
X479011Y567994D01*
X480006Y566506D01*
X481494Y565511D01*
X482000Y565410D01*
Y568500D01*
D02*
G37*
G36*
X471000Y574090D02*
Y571000D01*
X474090D01*
X473989Y571506D01*
X472994Y572994D01*
X471506Y573989D01*
X471000Y574090D01*
D02*
G37*
G36*
X462400Y579750D02*
X449450D01*
Y573150D01*
X462400D01*
Y579750D01*
D02*
G37*
G36*
X482000Y574090D02*
X481494Y573989D01*
X480006Y572994D01*
X479011Y571506D01*
X478910Y571000D01*
X482000D01*
Y574090D01*
D02*
G37*
G36*
X484500D02*
Y571000D01*
X487589D01*
X487489Y571506D01*
X486494Y572994D01*
X485006Y573989D01*
X484500Y574090D01*
D02*
G37*
G36*
X446950Y579750D02*
X434000D01*
Y573150D01*
X446950D01*
Y579750D01*
D02*
G37*
G36*
X462400Y549750D02*
X449450D01*
Y543150D01*
X462400D01*
Y549750D01*
D02*
G37*
G36*
X483250Y547340D02*
X482744Y547239D01*
X481256Y546244D01*
X480261Y544756D01*
X480160Y544250D01*
X483250D01*
Y547340D01*
D02*
G37*
G36*
X424950Y546400D02*
X410100D01*
Y539800D01*
X424950D01*
Y546400D01*
D02*
G37*
G36*
X446950Y549750D02*
X434000D01*
Y543150D01*
X446950D01*
Y549750D01*
D02*
G37*
G36*
X485750Y547340D02*
Y544250D01*
X488839D01*
X488739Y544756D01*
X487744Y546244D01*
X486256Y547239D01*
X485750Y547340D01*
D02*
G37*
G36*
X446950Y570650D02*
X434000D01*
Y564050D01*
X446950D01*
Y570650D01*
D02*
G37*
G36*
X462400D02*
X449450D01*
Y564050D01*
X462400D01*
Y570650D01*
D02*
G37*
G36*
X469250Y548089D02*
X468744Y547989D01*
X467256Y546994D01*
X466261Y545506D01*
X466161Y545000D01*
X469250D01*
Y548089D01*
D02*
G37*
G36*
X471750D02*
Y545000D01*
X474840D01*
X474739Y545506D01*
X473744Y546994D01*
X472256Y547989D01*
X471750Y548089D01*
D02*
G37*
G36*
X410100Y555500D02*
Y548900D01*
X424950D01*
Y555500D01*
X410100D01*
D02*
G37*
G36*
X470250Y610750D02*
X467160D01*
X467261Y610244D01*
X468256Y608756D01*
X469744Y607761D01*
X470250Y607660D01*
Y610750D01*
D02*
G37*
G36*
X475840D02*
X472750D01*
Y607660D01*
X473256Y607761D01*
X474744Y608756D01*
X475739Y610244D01*
X475840Y610750D01*
D02*
G37*
G36*
X446950Y609750D02*
X434000D01*
Y603150D01*
X446950D01*
Y609750D01*
D02*
G37*
G36*
X462400D02*
X449450D01*
Y603150D01*
X462400D01*
Y609750D01*
D02*
G37*
G36*
X482000Y610750D02*
X478910D01*
X479011Y610244D01*
X480006Y608756D01*
X481494Y607761D01*
X482000Y607660D01*
Y610750D01*
D02*
G37*
G36*
X472750Y616339D02*
Y613250D01*
X475840D01*
X475739Y613756D01*
X474744Y615244D01*
X473256Y616239D01*
X472750Y616339D01*
D02*
G37*
G36*
X482000D02*
X481494Y616239D01*
X480006Y615244D01*
X479011Y613756D01*
X478910Y613250D01*
X482000D01*
Y616339D01*
D02*
G37*
G36*
X484500D02*
Y613250D01*
X487589D01*
X487489Y613756D01*
X486494Y615244D01*
X485006Y616239D01*
X484500Y616339D01*
D02*
G37*
G36*
X487589Y610750D02*
X484500D01*
Y607660D01*
X485006Y607761D01*
X486494Y608756D01*
X487489Y610244D01*
X487589Y610750D01*
D02*
G37*
G36*
X410100Y615500D02*
Y608900D01*
X424950D01*
Y615500D01*
X410100D01*
D02*
G37*
G36*
X470250Y616339D02*
X469744Y616239D01*
X468256Y615244D01*
X467261Y613756D01*
X467160Y613250D01*
X470250D01*
Y616339D01*
D02*
G37*
G36*
X424950Y606400D02*
X410100D01*
Y599800D01*
X424950D01*
Y606400D01*
D02*
G37*
G36*
X482250Y590000D02*
X479160D01*
X479261Y589494D01*
X480256Y588006D01*
X481744Y587011D01*
X482250Y586911D01*
Y590000D01*
D02*
G37*
G36*
X487840D02*
X484750D01*
Y586911D01*
X485256Y587011D01*
X486744Y588006D01*
X487739Y589494D01*
X487840Y590000D01*
D02*
G37*
G36*
X471000Y595589D02*
X470494Y595489D01*
X469006Y594494D01*
X468011Y593006D01*
X467910Y592500D01*
X471000D01*
Y595589D01*
D02*
G37*
G36*
X410100Y585500D02*
Y578900D01*
X424950D01*
Y585500D01*
X410100D01*
D02*
G37*
G36*
X471000Y590000D02*
X467910D01*
X468011Y589494D01*
X469006Y588006D01*
X470494Y587011D01*
X471000Y586911D01*
Y590000D01*
D02*
G37*
G36*
X476590D02*
X473500D01*
Y586911D01*
X474006Y587011D01*
X475494Y588006D01*
X476489Y589494D01*
X476590Y590000D01*
D02*
G37*
G36*
X473500Y595589D02*
Y592500D01*
X476590D01*
X476489Y593006D01*
X475494Y594494D01*
X474006Y595489D01*
X473500Y595589D01*
D02*
G37*
G36*
X462400Y600650D02*
X449450D01*
Y594050D01*
X462400D01*
Y600650D01*
D02*
G37*
G36*
X482250Y595589D02*
X481744Y595489D01*
X480256Y594494D01*
X479261Y593006D01*
X479160Y592500D01*
X482250D01*
Y595589D01*
D02*
G37*
G36*
X484750D02*
Y592500D01*
X487840D01*
X487739Y593006D01*
X486744Y594494D01*
X485256Y595489D01*
X484750Y595589D01*
D02*
G37*
G36*
X446950Y600650D02*
X434000D01*
Y594050D01*
X446950D01*
Y600650D01*
D02*
G37*
G36*
X487840Y501250D02*
X484750D01*
Y498161D01*
X485256Y498261D01*
X486744Y499256D01*
X487739Y500744D01*
X487840Y501250D01*
D02*
G37*
G36*
X468750D02*
X465661D01*
X465761Y500744D01*
X466756Y499256D01*
X468244Y498261D01*
X468750Y498161D01*
Y501250D01*
D02*
G37*
G36*
X474339D02*
X471250D01*
Y498161D01*
X471756Y498261D01*
X473244Y499256D01*
X474239Y500744D01*
X474339Y501250D01*
D02*
G37*
G36*
X482250D02*
X479160D01*
X479261Y500744D01*
X480256Y499256D01*
X481744Y498261D01*
X482250Y498161D01*
Y501250D01*
D02*
G37*
G36*
X468750Y506839D02*
X468244Y506739D01*
X466756Y505744D01*
X465761Y504256D01*
X465661Y503750D01*
X468750D01*
Y506839D01*
D02*
G37*
G36*
X471250D02*
Y503750D01*
X474339D01*
X474239Y504256D01*
X473244Y505744D01*
X471756Y506739D01*
X471250Y506839D01*
D02*
G37*
G36*
X482250D02*
X481744Y506739D01*
X480256Y505744D01*
X479261Y504256D01*
X479160Y503750D01*
X482250D01*
Y506839D01*
D02*
G37*
G36*
X446950Y489750D02*
X434000D01*
Y483150D01*
X446950D01*
Y489750D01*
D02*
G37*
G36*
X462400D02*
X449450D01*
Y483150D01*
X462400D01*
Y489750D01*
D02*
G37*
G36*
X424950Y486400D02*
X410100D01*
Y479800D01*
X424950D01*
Y486400D01*
D02*
G37*
G36*
X410100Y495500D02*
Y488900D01*
X424950D01*
Y495500D01*
X410100D01*
D02*
G37*
G36*
X481500Y526339D02*
X480994Y526239D01*
X479506Y525244D01*
X478511Y523756D01*
X478410Y523250D01*
X481500D01*
Y526339D01*
D02*
G37*
G36*
X484000D02*
Y523250D01*
X487090D01*
X486989Y523756D01*
X485994Y525244D01*
X484506Y526239D01*
X484000Y526339D01*
D02*
G37*
G36*
X446950Y540650D02*
X434000D01*
Y534050D01*
X446950D01*
Y540650D01*
D02*
G37*
G36*
X410100Y525500D02*
Y518900D01*
X424950D01*
Y525500D01*
X410100D01*
D02*
G37*
G36*
X468750Y526339D02*
X468244Y526239D01*
X466756Y525244D01*
X465761Y523756D01*
X465661Y523250D01*
X468750D01*
Y526339D01*
D02*
G37*
G36*
X471250D02*
Y523250D01*
X474339D01*
X474239Y523756D01*
X473244Y525244D01*
X471756Y526239D01*
X471250Y526339D01*
D02*
G37*
G36*
X462400Y540650D02*
X449450D01*
Y534050D01*
X462400D01*
Y540650D01*
D02*
G37*
G36*
X488839Y541750D02*
X485750D01*
Y538661D01*
X486256Y538761D01*
X487744Y539756D01*
X488739Y541244D01*
X488839Y541750D01*
D02*
G37*
G36*
X469250Y542500D02*
X466161D01*
X466261Y541994D01*
X467256Y540506D01*
X468744Y539511D01*
X469250Y539411D01*
Y542500D01*
D02*
G37*
G36*
X474840D02*
X471750D01*
Y539411D01*
X472256Y539511D01*
X473744Y540506D01*
X474739Y541994D01*
X474840Y542500D01*
D02*
G37*
G36*
X483250Y541750D02*
X480160D01*
X480261Y541244D01*
X481256Y539756D01*
X482744Y538761D01*
X483250Y538661D01*
Y541750D01*
D02*
G37*
G36*
X487090Y520750D02*
X484000D01*
Y517660D01*
X484506Y517761D01*
X485994Y518756D01*
X486989Y520244D01*
X487090Y520750D01*
D02*
G37*
G36*
X424950Y516400D02*
X410100D01*
Y509800D01*
X424950D01*
Y516400D01*
D02*
G37*
G36*
X484750Y506839D02*
Y503750D01*
X487840D01*
X487739Y504256D01*
X486744Y505744D01*
X485256Y506739D01*
X484750Y506839D01*
D02*
G37*
G36*
X446950Y510650D02*
X434000D01*
Y504050D01*
X446950D01*
Y510650D01*
D02*
G37*
G36*
X462400D02*
X449450D01*
Y504050D01*
X462400D01*
Y510650D01*
D02*
G37*
G36*
X446950Y519750D02*
X434000D01*
Y513150D01*
X446950D01*
Y519750D01*
D02*
G37*
G36*
X468750Y520750D02*
X465661D01*
X465761Y520244D01*
X466756Y518756D01*
X468244Y517761D01*
X468750Y517660D01*
Y520750D01*
D02*
G37*
G36*
X474339D02*
X471250D01*
Y517660D01*
X471756Y517761D01*
X473244Y518756D01*
X474239Y520244D01*
X474339Y520750D01*
D02*
G37*
G36*
X481500D02*
X478410D01*
X478511Y520244D01*
X479506Y518756D01*
X480994Y517761D01*
X481500Y517660D01*
Y520750D01*
D02*
G37*
G36*
X462400Y519750D02*
X449450D01*
Y513150D01*
X462400D01*
Y519750D01*
D02*
G37*
%LPD*%
D10*
X307850Y358700D02*
D03*
Y646600D02*
D03*
X626950Y640850D02*
D03*
Y322950D02*
D03*
X495200Y640850D02*
D03*
Y292950D02*
D03*
D11*
X362650Y397650D02*
D03*
Y427650D02*
D03*
Y457650D02*
D03*
Y487650D02*
D03*
Y517650D02*
D03*
Y547650D02*
D03*
Y577650D02*
D03*
Y607650D02*
D03*
X408850Y397650D02*
D03*
Y427650D02*
D03*
Y457650D02*
D03*
Y487650D02*
D03*
Y517650D02*
D03*
Y547650D02*
D03*
Y577650D02*
D03*
Y607650D02*
D03*
D12*
X673950Y601900D02*
D03*
Y571900D02*
D03*
Y541900D02*
D03*
Y511900D02*
D03*
Y481900D02*
D03*
Y451900D02*
D03*
Y421900D02*
D03*
Y391900D02*
D03*
Y361900D02*
D03*
X579950Y601900D02*
D03*
Y571900D02*
D03*
Y541900D02*
D03*
Y511900D02*
D03*
Y481900D02*
D03*
Y451900D02*
D03*
Y421900D02*
D03*
Y391900D02*
D03*
Y361900D02*
D03*
X1224450Y393150D02*
D03*
Y423150D02*
D03*
Y453150D02*
D03*
Y483150D02*
D03*
X542200Y601900D02*
D03*
Y571900D02*
D03*
Y541900D02*
D03*
Y511900D02*
D03*
Y481900D02*
D03*
Y451900D02*
D03*
Y421900D02*
D03*
Y391900D02*
D03*
Y361900D02*
D03*
Y331900D02*
D03*
X448200Y601900D02*
D03*
Y571900D02*
D03*
Y541900D02*
D03*
Y511900D02*
D03*
Y481900D02*
D03*
Y451900D02*
D03*
Y421900D02*
D03*
Y391900D02*
D03*
Y361900D02*
D03*
Y331900D02*
D03*
D13*
X356500Y277250D02*
D03*
X370000D02*
D03*
X755000Y272250D02*
D03*
X768500D02*
D03*
Y305750D02*
D03*
X755000D02*
D03*
X909750Y375750D02*
D03*
X896250D02*
D03*
X628500Y271750D02*
D03*
X615000D02*
D03*
X1203000Y553250D02*
D03*
X1189500D02*
D03*
Y590750D02*
D03*
X1203000D02*
D03*
X1189500Y571750D02*
D03*
X1203000D02*
D03*
X1195000Y663250D02*
D03*
X1181500D02*
D03*
X1195250Y697000D02*
D03*
X1181750D02*
D03*
X1067000Y335250D02*
D03*
X1080500D02*
D03*
X1067750Y316250D02*
D03*
X1081250D02*
D03*
X1098750Y317250D02*
D03*
X1112250D02*
D03*
X1098500Y335250D02*
D03*
X1112000D02*
D03*
X1067750Y295000D02*
D03*
X1081250D02*
D03*
X1067750Y276000D02*
D03*
X1081250D02*
D03*
X1131500Y276750D02*
D03*
X1145000D02*
D03*
X1131500Y294750D02*
D03*
X1145000D02*
D03*
X1147000Y527500D02*
D03*
X1133500D02*
D03*
X1130750Y588250D02*
D03*
X1144250D02*
D03*
D14*
X726750Y302250D02*
D03*
Y273250D02*
D03*
X841250Y327000D02*
D03*
Y356000D02*
D03*
X652500Y269500D02*
D03*
Y298500D02*
D03*
X1045500Y518250D02*
D03*
Y547250D02*
D03*
X759000Y432750D02*
D03*
Y461750D02*
D03*
X945500Y518500D02*
D03*
Y547500D02*
D03*
X849750Y519250D02*
D03*
Y548250D02*
D03*
X757500Y521750D02*
D03*
Y550750D02*
D03*
X847000Y587250D02*
D03*
Y616250D02*
D03*
X755250Y588250D02*
D03*
Y617250D02*
D03*
X906500Y667000D02*
D03*
Y696000D02*
D03*
X819750Y667500D02*
D03*
Y696500D02*
D03*
X917250Y740000D02*
D03*
Y769000D02*
D03*
X817500Y738500D02*
D03*
Y767500D02*
D03*
X721000Y738500D02*
D03*
Y767500D02*
D03*
X716500Y666000D02*
D03*
Y695000D02*
D03*
X961500Y339250D02*
D03*
Y368250D02*
D03*
X880000Y280750D02*
D03*
Y309750D02*
D03*
X403500Y278750D02*
D03*
Y307750D02*
D03*
D15*
X790250Y274250D02*
D03*
X819250D02*
D03*
X1077750Y586250D02*
D03*
X1048750D02*
D03*
D16*
X573750Y271250D02*
D03*
X591750D02*
D03*
X582750Y295250D02*
D03*
X690250Y300750D02*
D03*
X699250Y276750D02*
D03*
X681250D02*
D03*
X352250Y311250D02*
D03*
X370250D02*
D03*
X361250Y335250D02*
D03*
D17*
X1097750Y535250D02*
D03*
Y548750D02*
D03*
X785750Y450500D02*
D03*
Y464000D02*
D03*
X969000Y536000D02*
D03*
Y549500D02*
D03*
X876750Y535000D02*
D03*
Y548500D02*
D03*
X782750Y538750D02*
D03*
Y552250D02*
D03*
X936250Y607250D02*
D03*
Y620750D02*
D03*
X874250Y603000D02*
D03*
Y616500D02*
D03*
X780000Y606000D02*
D03*
Y619500D02*
D03*
X931500Y683000D02*
D03*
Y696500D02*
D03*
X843250Y698000D02*
D03*
Y684500D02*
D03*
X941750Y756500D02*
D03*
Y770000D02*
D03*
X841000Y755000D02*
D03*
Y768500D02*
D03*
X749500Y756250D02*
D03*
Y769750D02*
D03*
X747750Y683750D02*
D03*
Y697250D02*
D03*
X1104000Y424250D02*
D03*
Y410750D02*
D03*
D18*
X648750Y767750D02*
D03*
X642250D02*
D03*
X635750D02*
D03*
X629250D02*
D03*
X622750D02*
D03*
X616250D02*
D03*
X609750D02*
D03*
X648750Y709750D02*
D03*
X642250D02*
D03*
X635750D02*
D03*
X629250D02*
D03*
X622750D02*
D03*
X616250D02*
D03*
X609750D02*
D03*
D19*
X735250Y444500D02*
D03*
Y462500D02*
D03*
X711250Y453500D02*
D03*
X995750Y539000D02*
D03*
X1019750Y548000D02*
D03*
Y530000D02*
D03*
X922000D02*
D03*
Y548000D02*
D03*
X898000Y539000D02*
D03*
X803250Y540750D02*
D03*
X827250Y549750D02*
D03*
Y531750D02*
D03*
X731750Y533500D02*
D03*
Y551500D02*
D03*
X707750Y542500D02*
D03*
X893500Y608250D02*
D03*
X917500Y617250D02*
D03*
Y599250D02*
D03*
X707750Y608250D02*
D03*
X731750Y617250D02*
D03*
Y599250D02*
D03*
X884750Y678250D02*
D03*
Y696250D02*
D03*
X860750Y687250D02*
D03*
X773500Y688000D02*
D03*
X797500Y697000D02*
D03*
Y679000D02*
D03*
X893750Y750500D02*
D03*
Y768500D02*
D03*
X869750Y759500D02*
D03*
X769750Y758500D02*
D03*
X793750Y767500D02*
D03*
Y749500D02*
D03*
X695500Y750250D02*
D03*
Y768250D02*
D03*
X671500Y759250D02*
D03*
X668500Y687750D02*
D03*
X692500Y696750D02*
D03*
Y678750D02*
D03*
X828750Y299000D02*
D03*
X852750Y308000D02*
D03*
Y290000D02*
D03*
X915500Y342750D02*
D03*
Y324750D02*
D03*
X939500Y333750D02*
D03*
X927500Y279500D02*
D03*
X903500Y270500D02*
D03*
Y288500D02*
D03*
X889750Y344500D02*
D03*
X865750Y335500D02*
D03*
Y353500D02*
D03*
X823500Y599250D02*
D03*
Y617250D02*
D03*
X799500Y608250D02*
D03*
D20*
X1219000Y613000D02*
D03*
Y628000D02*
D03*
X1196000Y613000D02*
D03*
Y628000D02*
D03*
D21*
X1077000Y390750D02*
D03*
Y395750D02*
D03*
Y400750D02*
D03*
Y405750D02*
D03*
Y410750D02*
D03*
Y415750D02*
D03*
Y420750D02*
D03*
Y425750D02*
D03*
Y430750D02*
D03*
Y435750D02*
D03*
Y440750D02*
D03*
Y445750D02*
D03*
Y450750D02*
D03*
Y455750D02*
D03*
Y460750D02*
D03*
Y465750D02*
D03*
X962500D02*
D03*
Y460750D02*
D03*
Y455750D02*
D03*
Y450750D02*
D03*
Y445750D02*
D03*
Y440750D02*
D03*
Y435750D02*
D03*
Y430750D02*
D03*
Y425750D02*
D03*
Y420750D02*
D03*
Y415750D02*
D03*
Y410750D02*
D03*
Y405750D02*
D03*
Y400750D02*
D03*
Y395750D02*
D03*
Y390750D02*
D03*
D22*
X1057250Y485500D02*
D03*
X1052250D02*
D03*
X1047250D02*
D03*
X1042250D02*
D03*
X1037250D02*
D03*
X1032250D02*
D03*
X1027250D02*
D03*
X1022250D02*
D03*
X1017250D02*
D03*
X1012250D02*
D03*
X1007250D02*
D03*
X1002250D02*
D03*
X997250D02*
D03*
X992250D02*
D03*
X987250D02*
D03*
X982250D02*
D03*
Y371000D02*
D03*
X987250D02*
D03*
X992250D02*
D03*
X997250D02*
D03*
X1002250D02*
D03*
X1007250D02*
D03*
X1012250D02*
D03*
X1017250D02*
D03*
X1022250D02*
D03*
X1027250D02*
D03*
X1032250D02*
D03*
X1037250D02*
D03*
X1042250D02*
D03*
X1047250D02*
D03*
X1052250D02*
D03*
X1057250D02*
D03*
D23*
X1133500Y423250D02*
D03*
Y386250D02*
D03*
D24*
X1230750Y663250D02*
D03*
X1216250D02*
D03*
X1231000Y697000D02*
D03*
X1216500D02*
D03*
D25*
X522000Y781050D02*
D03*
X359300D02*
D03*
D26*
X395650Y749050D02*
D03*
X425650D02*
D03*
X455650D02*
D03*
X485650D02*
D03*
D27*
X1013250Y277250D02*
D03*
Y283750D02*
D03*
Y290250D02*
D03*
Y296750D02*
D03*
Y303250D02*
D03*
Y309750D02*
D03*
Y316250D02*
D03*
X955250Y277250D02*
D03*
Y283750D02*
D03*
Y290250D02*
D03*
Y296750D02*
D03*
Y303250D02*
D03*
Y309750D02*
D03*
Y316250D02*
D03*
X774000Y342500D02*
D03*
Y349000D02*
D03*
Y355500D02*
D03*
Y362000D02*
D03*
Y368500D02*
D03*
Y375000D02*
D03*
Y381500D02*
D03*
X716000Y342500D02*
D03*
Y349000D02*
D03*
Y355500D02*
D03*
Y362000D02*
D03*
Y368500D02*
D03*
Y375000D02*
D03*
Y381500D02*
D03*
D28*
X1131500Y344500D02*
D03*
Y363500D02*
D03*
X1158500D02*
D03*
Y354000D02*
D03*
Y344500D02*
D03*
X1106000Y464500D02*
D03*
Y483500D02*
D03*
X1133000D02*
D03*
Y474000D02*
D03*
Y464500D02*
D03*
X1132250Y566250D02*
D03*
Y556750D02*
D03*
Y547250D02*
D03*
X1159250D02*
D03*
Y566250D02*
D03*
D29*
X1192450Y519500D02*
D03*
Y356800D02*
D03*
D30*
X926750Y404751D02*
D03*
Y417251D02*
D03*
Y429751D02*
D03*
Y442251D02*
D03*
Y454751D02*
D03*
X885750Y404751D02*
D03*
Y417251D02*
D03*
Y429751D02*
D03*
Y442251D02*
D03*
Y454751D02*
D03*
D31*
X591750Y767750D02*
D03*
Y753250D02*
D03*
X795250Y381500D02*
D03*
Y367000D02*
D03*
D32*
X1024000Y679500D02*
X1043500D01*
X1017000Y686500D02*
X1024000Y679500D01*
X1006112Y686500D02*
X1017000D01*
X1003612Y684000D02*
X1006112Y686500D01*
X990911Y684000D02*
X1003612D01*
X622750Y717750D02*
X628250Y723250D01*
X638031Y724219D02*
Y730286D01*
X630636Y736750D02*
X644089D01*
X609750Y757636D02*
X630636Y736750D01*
X632500Y741250D02*
X651000D01*
X622750Y751000D02*
X632500Y741250D01*
X644089Y736750D02*
X653553Y727286D01*
X562750Y719250D02*
X566500Y723000D01*
X559222Y719250D02*
X562750D01*
X558222Y718250D02*
X559222Y719250D01*
X473589Y718250D02*
X558222D01*
X469589Y714250D02*
X473589Y718250D01*
X464411Y714250D02*
X469589D01*
X451150Y727511D02*
X464411Y714250D01*
X451150Y727511D02*
Y733100D01*
X382804Y731886D02*
X404940Y709750D01*
X471453D01*
X475453Y713750D02*
X561500D01*
X471453Y709750D02*
X475453Y713750D01*
X387954Y733100D02*
X451150D01*
X384668Y736386D02*
X387954Y733100D01*
X333386Y736386D02*
X384668D01*
X274250Y677250D02*
X333386Y736386D01*
X335250Y731886D02*
X382804D01*
X280500Y677136D02*
X334000Y730636D01*
X280500Y555364D02*
Y677136D01*
Y555364D02*
X329250Y506614D01*
Y482089D02*
Y506614D01*
X273750Y426589D02*
X329250Y482089D01*
X273750Y317487D02*
Y426589D01*
X269250Y312987D02*
X273750Y317487D01*
X269250Y287513D02*
Y312987D01*
X269000Y323750D02*
Y428203D01*
X314250Y473453D01*
Y476500D01*
X269250Y287513D02*
X298263Y258500D01*
X705175D01*
X709425Y262750D01*
X871846Y254000D02*
X891250Y273404D01*
X557500Y263000D02*
X578346D01*
X552250Y268250D02*
X557500Y263000D01*
X578346D02*
X582596Y267250D01*
X615000D01*
X296399Y254000D02*
X871846D01*
X264750Y285649D02*
X296399Y254000D01*
X264750Y314851D02*
X269250Y319351D01*
Y323500D01*
X264750Y285649D02*
Y314851D01*
X615000Y267250D02*
Y271750D01*
X709425Y262750D02*
X839925D01*
X856542Y279367D01*
Y281792D01*
X858250Y283500D01*
X859250D01*
X861000Y285250D01*
X867500Y290000D02*
X889346D01*
X866542Y290958D02*
X867500Y290000D01*
X866542Y290958D02*
Y292264D01*
X861000Y285404D02*
Y297250D01*
X552250Y268250D02*
Y290250D01*
X861000Y285250D02*
Y285404D01*
X861000Y285404D01*
Y297250D02*
X864750Y301000D01*
X891250Y273404D02*
Y288096D01*
X889346Y290000D02*
X891250Y288096D01*
X274250Y555250D02*
X324750Y504750D01*
Y487000D02*
Y504750D01*
X314250Y476500D02*
X324750Y487000D01*
X274250Y555250D02*
Y677250D01*
X410770Y757980D02*
X419700Y749050D01*
X410770Y757980D02*
Y761037D01*
X406700Y749050D02*
X410750Y745000D01*
X419700Y749050D02*
X425650D01*
X269000Y323750D02*
X269250Y323500D01*
X381500Y277250D02*
X399000Y294750D01*
X409096D01*
X902000Y363000D02*
X906500D01*
X896250Y368750D02*
X902000Y363000D01*
X896250Y368750D02*
Y375750D01*
X829500Y365250D02*
X890000D01*
X898750Y356500D01*
Y330750D02*
Y356500D01*
X892000Y324000D02*
X898750Y330750D01*
X860250Y324000D02*
X892000D01*
X1027750Y454750D02*
Y457000D01*
X1019750Y455589D02*
X1026831Y462669D01*
X1027750Y457000D02*
X1028273Y457523D01*
X976548Y492596D02*
Y492774D01*
X982548Y498952D02*
Y502775D01*
Y498952D02*
X987250Y494250D01*
Y485500D02*
Y494250D01*
X967048Y509195D02*
X990353Y532500D01*
X967048Y508372D02*
Y509195D01*
X964700Y506024D02*
X967048Y508372D01*
X975726Y491774D02*
X976548Y492596D01*
X975726Y491774D02*
X982000Y485500D01*
X955066Y506024D02*
X964700D01*
X968500Y483659D02*
Y485000D01*
Y483659D02*
X976250Y475909D01*
X961797Y482451D02*
Y489774D01*
X959870Y480523D02*
X961797Y482451D01*
X959846Y480500D02*
X959870Y480523D01*
X959846Y480500D02*
X971750Y468596D01*
X946816Y497774D02*
X955066Y506024D01*
X784100Y497774D02*
X946816D01*
X1018500Y438250D02*
Y439589D01*
X1009000Y442725D02*
X1012250Y439475D01*
Y435661D02*
Y439475D01*
Y435661D02*
X1015500Y432411D01*
X1020050Y448022D02*
Y455289D01*
X1052000Y453500D02*
X1054000Y455500D01*
X1097000Y381000D02*
Y389000D01*
X1095500Y390500D02*
X1097000Y389000D01*
X1087000Y374500D02*
Y385750D01*
X1077000Y375661D02*
X1091911Y360750D01*
X1077000Y375661D02*
Y390750D01*
X1091911Y360750D02*
X1092250D01*
X988250Y429250D02*
X994000D01*
X979750Y420750D02*
X988250Y429250D01*
X1041500Y453750D02*
X1043411D01*
X1025000Y407750D02*
X1030250Y413000D01*
X1020500Y412089D02*
X1028500Y420089D01*
X1022250Y421000D02*
Y426589D01*
X1002250Y401000D02*
X1022250Y421000D01*
X997250Y405250D02*
X1011250Y419250D01*
X1022250Y426589D02*
X1028050Y432389D01*
Y435021D01*
X1028500Y420089D02*
Y424000D01*
X1015500Y428250D02*
Y432411D01*
X979000Y636750D02*
X980250Y635500D01*
X990353Y532500D02*
X1002096D01*
X979000Y636750D02*
Y660500D01*
X1015550Y463773D02*
Y471700D01*
X1007500Y468161D02*
X1009300Y466361D01*
Y457112D02*
Y466361D01*
X1002250Y465839D02*
X1004800Y463289D01*
Y455248D02*
Y463289D01*
X1000300Y450200D02*
Y461425D01*
X997500Y464225D02*
X1000300Y461425D01*
X994000Y458500D02*
Y461361D01*
X1015550Y471700D02*
X1016050Y472200D01*
X1009300Y457112D02*
X1013500Y452911D01*
X1004800Y455248D02*
X1009000Y451047D01*
X1000300Y450200D02*
X1001978Y448522D01*
X1023800Y468523D02*
Y471354D01*
X1030500Y471453D02*
X1037250Y478203D01*
X1030500Y465884D02*
Y471453D01*
X1035000Y469589D02*
X1038661Y473250D01*
X1035000Y464020D02*
Y469589D01*
X1002750Y425250D02*
Y425500D01*
X1013500Y444589D02*
X1018500Y439589D01*
X1001978Y448522D02*
X1002049D01*
X1013750Y392000D02*
X1014000Y391750D01*
X976000Y397250D02*
X985250D01*
X1034250Y432750D02*
X1056500Y410500D01*
X1034250Y432750D02*
Y450953D01*
X1056500Y383846D02*
Y410500D01*
X1023800Y471354D02*
X1024050Y471604D01*
X976500Y410750D02*
X980750Y406500D01*
X971750Y401500D02*
X976000Y397250D01*
X1007250Y396000D02*
X1013750Y402500D01*
X1105750Y543404D02*
Y643750D01*
X1110250Y528040D02*
Y645614D01*
X1114750Y526176D02*
Y647478D01*
X1001500Y748000D02*
X1105750Y643750D01*
X1003364Y752500D02*
X1110250Y645614D01*
X1005228Y757000D02*
X1114750Y647478D01*
X988250Y438500D02*
X1004250D01*
X1035250Y456339D02*
X1038911Y460000D01*
X1035250Y451953D02*
Y456339D01*
X1034250Y450953D02*
X1035250Y451953D01*
X1041250Y467000D02*
X1047250Y473000D01*
X1042250Y474364D02*
Y485500D01*
X1041136Y473250D02*
X1042250Y474364D01*
X1038661Y473250D02*
X1041136D01*
X941500Y290250D02*
X955250D01*
X931000Y291000D02*
Y297500D01*
X926500Y289136D02*
Y293161D01*
X924750Y294911D02*
X926500Y293161D01*
X924750Y294911D02*
Y300089D01*
X927500Y302839D01*
Y307000D01*
X920250Y285096D02*
Y298000D01*
X915500Y302750D02*
X920250Y298000D01*
X940000Y276750D02*
X947250D01*
X941546Y301265D02*
X942081Y301800D01*
X941546Y316515D02*
X954985D01*
X1020500Y386864D02*
Y412089D01*
X1025000Y385000D02*
Y407750D01*
X1002250Y371000D02*
Y401000D01*
X997250Y371000D02*
Y405250D01*
X1007250Y371000D02*
Y396000D01*
X1012250Y385250D02*
X1014000Y387000D01*
X1012250Y371000D02*
Y385250D01*
X1017250Y383614D02*
X1020500Y386864D01*
X1017250Y371000D02*
Y383614D01*
X992250Y371000D02*
Y415000D01*
X985000Y386500D02*
X985250Y386250D01*
X1022250Y382250D02*
X1025000Y385000D01*
X1022250Y371000D02*
Y382250D01*
X965000Y309750D02*
X997500Y342250D01*
X991500Y326864D02*
X1012886Y348250D01*
X996000Y325000D02*
X1014750Y343750D01*
X942081Y301800D02*
X953800D01*
X954985Y316515D02*
X955250Y316250D01*
X931000Y291000D02*
X938250Y283750D01*
X926500Y289136D02*
X927500Y288136D01*
X955250Y316250D02*
X955250Y316250D01*
X938250Y283750D02*
X955250D01*
X955250Y290250D02*
X955250Y290250D01*
X925295Y313515D02*
X926575D01*
X909750Y380750D02*
X917500Y388500D01*
X900500Y320750D02*
Y322596D01*
X699250Y285500D02*
Y294250D01*
Y276750D02*
Y285500D01*
X692654D02*
X699250D01*
X683750Y294404D02*
X692654Y285500D01*
X683750Y294404D02*
Y297000D01*
X675750Y305000D02*
X683750Y297000D01*
X1224450Y385200D02*
Y393150D01*
X1218750Y379500D02*
X1224450Y385200D01*
X1193750Y379500D02*
X1218750D01*
X1188308Y384942D02*
Y388269D01*
Y384942D02*
X1193750Y379500D01*
X1224450Y453150D02*
X1239800Y468500D01*
X1241250D01*
X1224450Y474500D02*
Y483150D01*
X1145000Y276750D02*
X1151000D01*
X1159500Y285250D01*
X1151000Y293750D02*
X1159500Y285250D01*
X1145000Y293750D02*
X1151000D01*
X1213250Y470500D02*
X1217318D01*
X1238500Y697000D02*
X1242250Y700750D01*
X1238533Y656532D02*
X1239061D01*
X1240061Y657532D01*
X1231282Y663782D02*
X1238533Y656532D01*
X1201532Y648282D02*
X1232310D01*
X1200032Y649782D02*
X1201532Y648282D01*
X1230750Y663250D02*
X1231282Y663782D01*
X1133500Y535500D02*
X1145500Y547500D01*
Y552460D01*
X1147000Y553960D01*
Y570250D01*
X1139250Y515000D02*
X1147000Y522750D01*
X1133500Y527500D02*
Y535500D01*
X1157741Y558509D02*
Y564741D01*
X1151500Y552268D02*
X1157741Y558509D01*
X1151500Y552096D02*
Y552268D01*
X1150250Y550846D02*
X1151500Y552096D01*
X1150250Y530750D02*
Y550846D01*
X1159250Y553654D02*
X1167500Y561904D01*
X1159250Y548000D02*
Y553654D01*
X1158500Y547250D02*
X1159250Y548000D01*
X1158500Y523500D02*
Y547250D01*
X1167500Y561904D02*
Y570596D01*
X1147000Y527500D02*
X1150250Y530750D01*
X1166750Y581114D02*
X1168750Y583114D01*
X1166750Y571346D02*
Y581114D01*
X1171250Y579250D02*
X1182750Y590750D01*
X1171250Y573210D02*
Y579250D01*
Y573210D02*
X1172000Y572460D01*
X1166750Y571346D02*
X1167500Y570596D01*
X1172000Y540500D02*
Y572460D01*
X1168750Y583114D02*
Y608161D01*
X1170500Y539000D02*
X1172000Y540500D01*
X1157741Y564741D02*
X1159250Y566250D01*
X1167500Y609411D02*
X1168750Y608161D01*
X1124750Y489750D02*
X1158500Y523500D01*
X980750Y455750D02*
X983750Y458750D01*
X993000Y462361D02*
X994000Y461361D01*
X975500Y425750D02*
X988250Y438500D01*
X1013500Y444589D02*
Y452911D01*
X992250Y415000D02*
X1002750Y425500D01*
X1086250Y436250D02*
X1090000Y440000D01*
X1091089D01*
X1091715Y430771D02*
X1092553D01*
X1009000Y442725D02*
Y451047D01*
X1019750Y455589D02*
X1020050Y455289D01*
X1048797Y465500D02*
X1076750D01*
X1043297Y460000D02*
X1048797Y465500D01*
X1050161Y460500D02*
X1076750D01*
X1043411Y453750D02*
X1050161Y460500D01*
X1038911Y460000D02*
X1043297D01*
X1028503Y457523D02*
X1035000Y464020D01*
X1026639Y462023D02*
X1030500Y465884D01*
X1037250Y478203D02*
Y485500D01*
X1007500Y468161D02*
Y485250D01*
X1002250Y465839D02*
Y485500D01*
X997500Y464225D02*
Y485250D01*
X1028273Y457523D02*
X1028503D01*
X1137000Y580250D02*
X1147000Y570250D01*
X1137000Y580250D02*
Y586250D01*
X944000Y459426D02*
X952676Y450750D01*
X944000Y459426D02*
Y459847D01*
X943960Y466251D02*
X948750Y461461D01*
X889249Y466251D02*
X943960D01*
X878226Y461751D02*
X942096D01*
X937046Y472523D02*
X946365D01*
X949546Y469342D01*
X859500Y481000D02*
X874500D01*
X942096Y461751D02*
X944000Y459847D01*
X949546Y469342D02*
X949977Y469773D01*
X784000Y410661D02*
X811661Y383000D01*
X784000Y410661D02*
Y424750D01*
X811661Y383000D02*
X871339D01*
X794289Y415020D02*
Y415289D01*
X777750Y389500D02*
Y409250D01*
X671871Y733536D02*
X675533Y729874D01*
X669195Y733536D02*
X671871D01*
X665500Y737230D02*
X669195Y733536D01*
X653553Y727286D02*
X669283D01*
X687980Y710750D02*
X747596D01*
X697500Y706250D02*
X744250D01*
X692500Y701250D02*
X697500Y706250D01*
X665500Y737230D02*
Y737657D01*
X644957Y758200D02*
X665500Y737657D01*
X675533Y723197D02*
X687980Y710750D01*
X675533Y723197D02*
Y729874D01*
X814864Y633000D02*
X907500D01*
X830000Y628500D02*
X870000D01*
X823500Y622000D02*
X830000Y628500D01*
X811614Y636250D02*
X814864Y633000D01*
X976250Y445636D02*
Y475909D01*
X784100Y497774D02*
X784100Y497774D01*
X774288Y497774D02*
X784100D01*
X945796Y481524D02*
X946612D01*
X946839Y481750D02*
X962500Y466089D01*
X948750Y461040D02*
X954040Y455750D01*
X948750Y461040D02*
Y461461D01*
X940499Y454751D02*
X948750Y446500D01*
X926750Y454751D02*
X940499D01*
X949977Y469773D02*
X950727Y469023D01*
X953250Y466500D01*
X1077000Y450750D02*
X1099000D01*
X1090533Y420750D02*
X1090803Y421020D01*
X1091302Y414000D02*
X1095552Y409750D01*
X1088985Y414000D02*
X1091302D01*
X1087234Y415750D02*
X1088985Y414000D01*
X1077000Y415750D02*
X1087234D01*
X1089438Y409500D02*
X1095438Y403500D01*
X1087121Y409500D02*
X1089438D01*
X1085871Y410750D02*
X1087121Y409500D01*
X1077000Y410750D02*
X1085871D01*
X1087574Y405000D02*
X1095250Y397324D01*
X1085257Y405000D02*
X1087574D01*
X1084757Y405500D02*
X1085257Y405000D01*
X1077250Y405500D02*
X1084757D01*
X1085710Y400500D02*
X1090750Y395460D01*
X1077250Y400500D02*
X1085710D01*
X1084346Y395500D02*
X1086250Y393596D01*
X1077250Y395500D02*
X1084346D01*
X1086694Y425750D02*
X1091715Y430771D01*
X1077000Y425750D02*
X1086694D01*
X1084346Y431000D02*
X1086250Y432904D01*
X1077250Y431000D02*
X1084346D01*
X849250Y421500D02*
X853500D01*
X1056500Y383846D02*
X1062000Y378346D01*
X1059339Y350750D02*
X1063500Y354911D01*
X1062000Y363654D02*
Y378346D01*
X1061750Y363404D02*
X1062000Y363654D01*
X1061750Y361839D02*
Y363404D01*
Y361839D02*
X1063500Y360089D01*
Y354911D02*
Y360089D01*
X1067250Y347250D02*
X1084000D01*
X1037481Y389269D02*
X1046500Y380250D01*
X1052000D01*
X1035054Y350750D02*
X1059339D01*
X1003700Y319396D02*
X1035054Y350750D01*
X1003700Y312814D02*
Y319396D01*
X1000500Y309614D02*
X1003700Y312814D01*
X1057250Y357500D02*
Y371000D01*
X1052000Y371250D02*
Y380250D01*
X1014750Y343750D02*
X1016703D01*
X1032500Y359547D01*
X1014839Y348250D02*
X1027250Y360661D01*
X1012886Y348250D02*
X1014839D01*
X1000500Y309614D02*
X1006864Y303250D01*
X1013250D01*
X996000Y307750D02*
Y325000D01*
Y307750D02*
X1007000Y296750D01*
X991500Y303000D02*
Y326864D01*
Y303000D02*
X998000Y296500D01*
Y289500D02*
Y296500D01*
X1067750Y328500D02*
Y335250D01*
X1065000Y325750D02*
X1067750Y328500D01*
X1043000Y325750D02*
X1065000D01*
X1027000Y309750D02*
X1043000Y325750D01*
X1086250Y386500D02*
X1087000Y385750D01*
X1092250Y360750D02*
X1119500D01*
X955250Y309750D02*
X965000D01*
X1035800Y389269D02*
Y390449D01*
Y389269D02*
X1037481D01*
X926575Y313515D02*
X930295Y309795D01*
X927500Y307000D02*
X930295Y309795D01*
X941500Y344750D02*
X942000Y345250D01*
X953750Y267000D02*
X958950Y272200D01*
X962896D01*
X965250Y274554D01*
Y294000D01*
X962500Y296750D02*
X965250Y294000D01*
X955250Y296750D02*
X962500D01*
X915500Y302750D02*
Y324750D01*
X938000Y353750D02*
X970000D01*
X1027250Y360661D02*
Y371000D01*
X1032500Y359547D02*
Y364500D01*
X982250Y371000D02*
Y378000D01*
X978250Y382000D02*
X982250Y378000D01*
X944911Y382000D02*
X978250D01*
X1040000Y299000D02*
X1056750D01*
X1013250Y290250D02*
X1036250D01*
X1062250Y264250D01*
X1056750Y299000D02*
X1061250Y294500D01*
X1003750Y283750D02*
X1013250D01*
X998000Y289500D02*
X1003750Y283750D01*
X919250Y274904D02*
X928904Y265250D01*
X919250Y284096D02*
X920250Y285096D01*
X919250Y274904D02*
Y284096D01*
X927500Y279500D02*
Y288136D01*
X983500Y257000D02*
X1003750Y277250D01*
X917000Y257000D02*
X983500D01*
X903500Y270500D02*
X917000Y257000D01*
X1003750Y277250D02*
X1013250D01*
X946612Y481524D02*
X946839Y481750D01*
X794289Y415289D02*
X797500Y418500D01*
X806750D02*
X841000Y452750D01*
X797500Y418500D02*
X806750D01*
X841000Y452750D02*
X849250D01*
X874500Y481000D02*
X889249Y466251D01*
X866613Y473363D02*
X878226Y461751D01*
X851750Y473500D02*
X856977D01*
X796286Y367500D02*
X813750D01*
X796018Y367768D02*
X796286Y367500D01*
X811951Y359767D02*
X817129D01*
X811934Y359750D02*
X811951Y359767D01*
X795250Y367000D02*
X796018Y367768D01*
X789404Y359750D02*
X811934D01*
X674500Y649750D02*
X675750D01*
X655718Y668532D02*
X674500Y649750D01*
X655718Y668532D02*
Y669782D01*
X616250Y687500D02*
X643375Y660375D01*
X616250Y687500D02*
Y709750D01*
X638500Y788500D02*
X967364D01*
X629250Y779250D02*
X638500Y788500D01*
X967364D02*
X989250Y766614D01*
X652250Y784000D02*
X965500D01*
X642250Y774000D02*
X652250Y784000D01*
X965500D02*
X984750Y764750D01*
X969228Y793000D02*
X993750Y768478D01*
X1227060Y529026D02*
Y534310D01*
X1229250Y536500D01*
X1210350Y539900D02*
X1215250Y535000D01*
X1189504Y539900D02*
X1210350D01*
X880750Y696250D02*
X884750D01*
X635750Y721938D02*
X638031Y724219D01*
X635750Y709750D02*
Y721938D01*
X635750Y760200D02*
X637750Y758200D01*
X635750Y760200D02*
Y767750D01*
X609750Y757636D02*
Y767750D01*
X758484Y326016D02*
X793538D01*
X796289Y323266D01*
X787540Y355250D02*
X795056D01*
X798539Y351767D01*
X741768Y551500D02*
X746250Y547018D01*
X731750Y551500D02*
X741768D01*
X769750Y550000D02*
X772000Y552250D01*
X769750Y544404D02*
Y550000D01*
X766846Y541500D02*
X769750Y544404D01*
X772000Y552250D02*
X782750D01*
X779914Y579000D02*
X780914Y580000D01*
X727750Y579000D02*
X779914D01*
X783750Y580000D02*
X789500Y585750D01*
X780914Y580000D02*
X783750D01*
X715250Y518000D02*
Y536404D01*
X783038Y333461D02*
X786288Y336712D01*
X817146Y359750D02*
X824000D01*
X817129Y359767D02*
X817146Y359750D01*
X824750Y321500D02*
X830250Y327000D01*
X825790Y307290D02*
Y308765D01*
X824000Y359750D02*
X829500Y365250D01*
X787538Y348712D02*
Y348767D01*
Y348712D02*
X787750Y348500D01*
X783038Y332766D02*
Y333461D01*
X786290Y356500D02*
X787540Y355250D01*
X775000Y356500D02*
X786290D01*
X787250Y361904D02*
X789404Y359750D01*
X787250Y361904D02*
Y362500D01*
X781250Y368500D02*
X787250Y362500D01*
X1013250Y309750D02*
X1027000D01*
X1024000Y316250D02*
X1028000Y320250D01*
X1013250Y316250D02*
X1024000D01*
X1028000Y320250D02*
Y324500D01*
X756750Y327750D02*
X758484Y326016D01*
X786288Y336712D02*
X789000Y334000D01*
X774250Y342250D02*
X790089D01*
X774000Y342500D02*
X774250Y342250D01*
X790339Y342500D02*
X848000D01*
X790089Y342250D02*
X790339Y342500D01*
X787750Y348500D02*
X788250Y349000D01*
X774000D02*
X788250D01*
X774000Y355500D02*
X775000Y356500D01*
X779500Y334000D02*
X789000D01*
X1195850Y544400D02*
X1221350D01*
X1229250Y536500D01*
X953800Y301800D02*
X955250Y303250D01*
X1035500Y390750D02*
X1035800Y390449D01*
X768500Y305750D02*
X780000D01*
X947250Y276750D02*
X947750Y277250D01*
X1197750Y647500D02*
X1200032Y649782D01*
X1196000Y649250D02*
X1197750Y647500D01*
X770250Y438500D02*
X784000Y424750D01*
X770250Y438500D02*
Y440096D01*
X869251Y454751D02*
X885750D01*
X867250Y452750D02*
X869251Y454751D01*
X849250Y452750D02*
X867250D01*
X852750Y316500D02*
X860250Y324000D01*
X852750Y308000D02*
Y316500D01*
X1167500Y688500D02*
X1176000Y697000D01*
X1167500Y609411D02*
Y688500D01*
X1112500Y378500D02*
X1125750D01*
X1133500Y386250D01*
X455650Y731350D02*
X466500Y720500D01*
X726000Y551500D02*
X731750D01*
X716000Y541500D02*
X726000Y551500D01*
X728000Y626500D02*
X733250Y631750D01*
X723386Y628250D02*
X731386Y636250D01*
X778500Y627250D02*
X780000Y625750D01*
X746250Y543404D02*
Y547018D01*
X748154Y541500D02*
X766846D01*
X746250Y543404D02*
X748154Y541500D01*
X831250Y559000D02*
X872500D01*
X827250Y555000D02*
X831250Y559000D01*
X803250Y549250D02*
X826750D01*
X898000Y563250D02*
X913250Y548000D01*
X829000Y563250D02*
X898000D01*
X913250Y548000D02*
X922000D01*
X1034750Y556500D02*
X1054846D01*
X1026250Y548000D02*
X1034750Y556500D01*
X1066839Y556500D02*
X1068339Y558000D01*
X1054846Y556500D02*
X1066839D01*
X1054846Y556500D02*
X1054846Y556500D01*
X1068339Y558000D02*
X1077250D01*
X728000Y621000D02*
Y626500D01*
Y621000D02*
X731750Y617250D01*
Y622500D02*
X736500Y627250D01*
X800250Y552250D02*
X803250Y549250D01*
X642250Y683250D02*
Y709750D01*
X629250Y685750D02*
Y709750D01*
X738500Y430500D02*
X747750Y439750D01*
X710500Y430500D02*
X738500D01*
X740250Y473750D02*
X782250D01*
X735250Y468750D02*
X740250Y473750D01*
X716000Y537154D02*
Y541500D01*
X715250Y536404D02*
X716000Y537154D01*
X1004000Y534404D02*
Y539000D01*
X1002096Y532500D02*
X1004000Y534404D01*
X716000Y396250D02*
X731000Y411250D01*
X741000Y411750D02*
X745750D01*
X728750Y399500D02*
X741000Y411750D01*
X768346Y442000D02*
X770250Y440096D01*
X749654Y442000D02*
X768346D01*
X747750Y440096D02*
X749654Y442000D01*
X747750Y439750D02*
Y440096D01*
X716000Y381500D02*
Y396250D01*
Y381500D02*
X716750Y382250D01*
X728750Y372250D02*
Y399500D01*
X764000Y378804D02*
Y411500D01*
X774000Y385750D02*
X777750Y389500D01*
X774000Y381500D02*
Y385750D01*
X1183500Y612000D02*
X1184500Y613000D01*
X1105500Y540846D02*
Y543154D01*
X1105750Y543404D01*
Y529904D02*
Y540596D01*
X1105500Y540846D02*
X1105750Y540596D01*
X1104750Y528904D02*
X1105750Y529904D01*
X1119250Y530500D02*
X1119250Y530500D01*
X1119250Y524312D02*
Y530500D01*
X1118250Y523312D02*
X1119250Y524312D01*
X1118250Y502158D02*
Y523312D01*
X1106342Y490250D02*
X1118250Y502158D01*
X1099250Y490250D02*
X1106342D01*
X1094500Y485500D02*
X1099250Y490250D01*
X1034000Y494750D02*
X1104478D01*
X1031114Y499250D02*
X1102614D01*
X1029250Y503750D02*
X1100750D01*
X1032250Y493000D02*
X1034000Y494750D01*
X1104478D02*
X1113750Y504022D01*
X1102614Y499250D02*
X1109250Y505886D01*
X1100750Y503750D02*
X1104750Y507750D01*
X1113750Y504022D02*
Y525176D01*
X1114750Y526176D01*
X1109250Y505886D02*
Y527040D01*
X1110250Y528040D01*
X1104750Y507750D02*
Y528904D01*
X1057250Y485500D02*
X1094500D01*
X1086250Y432904D02*
Y436250D01*
X897154Y657750D02*
X915846D01*
X892904Y662000D02*
X897154Y657750D01*
X630750Y793000D02*
X969228D01*
X884750Y696250D02*
Y701750D01*
X853500Y421500D02*
X870249Y404751D01*
X1012250Y476000D02*
X1016050Y472200D01*
X825750Y307250D02*
X825790Y307290D01*
X736750Y362000D02*
X742250Y356500D01*
Y337250D02*
Y356500D01*
X716000Y362000D02*
X736750D01*
X699250Y294250D02*
X742250Y337250D01*
X980750Y443772D02*
Y455750D01*
X971614Y441000D02*
X976250Y445636D01*
X970000Y445750D02*
X971750Y447500D01*
X1081250Y316250D02*
Y326750D01*
X1080500Y327500D02*
Y335250D01*
Y327500D02*
X1081250Y326750D01*
Y316250D02*
X1088000Y323000D01*
X1086750Y327290D02*
Y344500D01*
X1084000Y347250D02*
X1086750Y344500D01*
Y327290D02*
X1088000Y326040D01*
Y323000D02*
Y326040D01*
X1173557Y357807D02*
Y364768D01*
X1169750Y354000D02*
X1173557Y357807D01*
X947750Y277250D02*
X955250D01*
X1095257Y395000D02*
X1102500D01*
X962500Y415750D02*
X984500D01*
X962500Y410750D02*
X976500D01*
X971750Y401500D02*
Y403596D01*
X969846Y405500D02*
X971750Y403596D01*
X962750Y405500D02*
X969846D01*
X962500Y405750D02*
X962750Y405500D01*
X974250Y386500D02*
X985000D01*
X971750Y389000D02*
X974250Y386500D01*
X971750Y389000D02*
Y393596D01*
X969596Y395750D02*
X971750Y393596D01*
X962500Y395750D02*
X969596D01*
X940500Y386411D02*
X944911Y382000D01*
X940500Y386411D02*
Y391589D01*
X944250Y395339D01*
Y440250D01*
X900500Y322596D02*
X909154Y331250D01*
X916846D01*
X923750Y338154D01*
Y339500D01*
X938000Y353750D01*
X970000D02*
X978000Y361750D01*
X987000D01*
Y370750D01*
X987250Y371000D01*
X962500Y420750D02*
X979750D01*
X962500Y425750D02*
X975500D01*
X962500Y430750D02*
X974092D01*
X972978Y436000D02*
X980750Y443772D01*
X962750Y436000D02*
X972978D01*
X962500Y435750D02*
X962750Y436000D01*
X962500Y440750D02*
X962750Y441000D01*
X971614D01*
X962500Y445750D02*
X970000D01*
X962500Y465750D02*
Y466089D01*
X955154Y461000D02*
X962250D01*
X953250Y462904D02*
X955154Y461000D01*
X953250Y462904D02*
Y466500D01*
X952676Y450750D02*
X962500D01*
X954040Y455750D02*
X962500D01*
X948750Y407404D02*
Y446500D01*
Y407404D02*
X955404Y400750D01*
X992250Y485500D02*
X992500Y485250D01*
X997250Y485500D02*
X997500Y485250D01*
X1017250Y478404D02*
Y485500D01*
X1007250D02*
X1007500Y485250D01*
X1012250Y476000D02*
Y485500D01*
X1047250Y473000D02*
Y485500D01*
X1076750Y465500D02*
X1077000Y465750D01*
X1076750Y460500D02*
X1077000Y460750D01*
X1076750Y455500D02*
X1077000Y455750D01*
X1054000Y455500D02*
X1076750D01*
X1014000Y387000D02*
Y391750D01*
X1035500Y384750D02*
Y390750D01*
Y384750D02*
X1037250Y383000D01*
Y371000D02*
Y383000D01*
X1052000Y371250D02*
X1052250Y371000D01*
X1077000Y430750D02*
X1077250Y431000D01*
X1086250Y386500D02*
Y393596D01*
X1077000Y395750D02*
X1077250Y395500D01*
X1095552Y409750D02*
X1104000D01*
X1095438Y403500D02*
X1127250D01*
X1095250Y395007D02*
X1095257Y395000D01*
X1095250Y395007D02*
Y397324D01*
X1090750Y393143D02*
X1093393Y390500D01*
X1090750Y393143D02*
Y395460D01*
X1093393Y390500D02*
X1095500D01*
X1077000Y400750D02*
X1077250Y400500D01*
X1127250Y403500D02*
X1133500Y397250D01*
X1077000Y405750D02*
X1077250Y405500D01*
X1077000Y390750D02*
X1077000Y390750D01*
X982000Y485500D02*
X982250D01*
X1124500Y566250D02*
X1132250D01*
X1147000Y522750D02*
Y527500D01*
X1130750Y580346D02*
Y588250D01*
X1124250Y490250D02*
X1124750Y489750D01*
X942249Y442251D02*
X944250Y440250D01*
X774000Y339500D02*
X779500Y334000D01*
X774000Y339500D02*
Y342500D01*
X909750Y375750D02*
Y380750D01*
X830250Y327000D02*
X841250D01*
X885750Y404751D02*
X901251D01*
X904000Y407500D01*
Y426750D01*
X900999Y429751D02*
X904000Y426750D01*
X885750Y429751D02*
X900999D01*
X885750D02*
Y442251D01*
X926750Y393750D02*
X926750Y393750D01*
Y404751D01*
X767804Y375000D02*
X774000D01*
X764000Y378804D02*
X767804Y375000D01*
X716000Y355500D02*
X722500D01*
X716000Y368500D02*
X725000D01*
X728750Y372250D01*
X707000Y342500D02*
X716000D01*
X777750Y298250D02*
X816654D01*
X768500Y289000D02*
X777750Y298250D01*
X768500Y272250D02*
Y289000D01*
X835096Y292500D02*
X840846Y298250D01*
X816654D02*
X822404Y292500D01*
X840846Y298250D02*
X847500D01*
X822404Y292500D02*
X835096D01*
X847500Y298250D02*
X852750Y303500D01*
X1189500Y567000D02*
Y571750D01*
X1182250Y559750D02*
X1189500Y567000D01*
X1182250Y547154D02*
Y559750D01*
Y547154D02*
X1189504Y539900D01*
X1189500Y550750D02*
X1195850Y544400D01*
X1189500Y550750D02*
Y553250D01*
X1182750Y590750D02*
X1189500D01*
X823000Y557250D02*
X829000Y563250D01*
X823000Y554000D02*
Y557250D01*
Y554000D02*
X827250Y549750D01*
Y555000D01*
X876750Y548500D02*
Y554750D01*
X872500Y559000D02*
X876750Y554750D01*
X826750Y549250D02*
X827250Y549750D01*
X1097500Y549000D02*
X1097750Y548750D01*
X1086250Y549000D02*
X1097500D01*
X1077250Y558000D02*
X1086250Y549000D01*
X1019750Y548000D02*
X1026250D01*
X833750Y687250D02*
X836500Y684500D01*
X843250D01*
X807250Y701250D02*
Y704000D01*
X803000Y697000D02*
X807250Y701250D01*
X797500Y697000D02*
X803000D01*
X818500Y617250D02*
X823500D01*
X815750Y620000D02*
X818500Y617250D01*
X622750Y751000D02*
Y767750D01*
X455650Y731350D02*
Y749050D01*
X485500Y749200D02*
X485650Y749050D01*
X485500Y749200D02*
Y767000D01*
X1119500Y360750D02*
X1131500Y348750D01*
X1083364Y354250D02*
X1091250Y346364D01*
Y329154D02*
Y346364D01*
X1131500Y344500D02*
Y348750D01*
X1154250Y309500D02*
X1165750Y298000D01*
Y282661D02*
Y298000D01*
Y282661D02*
X1165750Y282661D01*
X1151839Y268750D02*
X1165750Y282661D01*
X1135250Y268750D02*
X1151839D01*
X1131500Y272500D02*
X1135250Y268750D01*
X1159500Y264250D02*
X1171000Y275750D01*
X1067750Y269750D02*
X1073250Y264250D01*
X1159500D01*
X1131500Y272500D02*
Y276750D01*
X1142250Y332500D02*
X1171000Y303750D01*
Y275750D02*
Y303750D01*
X1078000Y354250D02*
X1083364D01*
X1091250Y329154D02*
X1098750Y321654D01*
Y317250D02*
Y321654D01*
X1067250Y294500D02*
X1067750Y295000D01*
X1061250Y294500D02*
X1067250D01*
X1133750Y332500D02*
X1142250D01*
X1133500D02*
X1133750D01*
X1138750Y327500D01*
Y310500D02*
Y327500D01*
X1067500Y310000D02*
Y316000D01*
Y310000D02*
X1071750Y305750D01*
X1115250D01*
X1133500Y324000D01*
Y332500D01*
X1067750Y269750D02*
Y276000D01*
X1098500Y335250D02*
X1099250Y336000D01*
Y342750D01*
X1101000Y344500D01*
X1131500D01*
X1067500Y316000D02*
X1067750Y316250D01*
X1133500Y332500D02*
Y338000D01*
X1131500Y340000D02*
X1133500Y338000D01*
X1131500Y340000D02*
Y344500D01*
X1174500D02*
X1175000Y345000D01*
X1133500Y386250D02*
X1133500Y386250D01*
X1077000Y420750D02*
X1090533D01*
X1133500Y423250D02*
X1133500Y423250D01*
X1104000Y423250D02*
X1133500D01*
X1081250Y295000D02*
X1086250D01*
X1095750Y285500D01*
X1086250Y276000D02*
X1095750Y285500D01*
X1081250Y276000D02*
X1086250D01*
X1112000Y335250D02*
X1116750D01*
X1126250Y325750D01*
X1116750Y316250D02*
X1126250Y325750D01*
X1112250Y316250D02*
X1116750D01*
X1133500Y386250D02*
Y397250D01*
X695500Y768250D02*
Y774750D01*
X699250Y778500D01*
X745500D01*
X793750Y767500D02*
Y774500D01*
X798000Y778750D01*
X837250D01*
X841000Y775000D01*
Y768500D02*
Y775000D01*
X938500Y778750D02*
X941750Y775500D01*
Y770000D02*
Y775500D01*
X692500Y696750D02*
Y701250D01*
X731750Y617250D02*
Y622500D01*
X823500Y617250D02*
Y622000D01*
X870000Y628500D02*
X874250Y624250D01*
Y616500D02*
Y624250D01*
X922000Y548000D02*
Y554000D01*
X926750Y558750D01*
X965750D01*
X969000Y555500D01*
Y549500D02*
Y555500D01*
X782750Y552250D02*
X783000Y552500D01*
X782250Y473750D02*
X785750Y470250D01*
Y464000D02*
Y470250D01*
X795250Y381500D02*
X795250Y381500D01*
X591750Y767750D02*
X609750D01*
X609750Y767750D01*
X749500Y288750D02*
X755250Y294500D01*
Y305500D01*
X755000Y305750D02*
X755250Y305500D01*
X852750Y303500D02*
Y308000D01*
X1106000Y457750D02*
Y464500D01*
X1099000Y450750D02*
X1106000Y457750D01*
X1203000Y590750D02*
X1213000D01*
X1203000Y571750D02*
X1219500D01*
X1219000Y628000D02*
X1226750D01*
X1203000Y553250D02*
X1208000D01*
X1236250Y581500D01*
Y626500D01*
X1224000Y638750D02*
X1236250Y626500D01*
X1195250Y697000D02*
X1216500D01*
X1195000Y663250D02*
X1216250D01*
X1106000Y464500D02*
X1124750Y483250D01*
Y489750D01*
X1196000Y628000D02*
Y633500D01*
X1201250Y638750D01*
X1224000D01*
X1176000Y697000D02*
X1181750D01*
X785500Y767500D02*
X793750D01*
X1004000Y539000D02*
X1013000Y548000D01*
X1019750D01*
X735250Y462500D02*
Y468750D01*
X780000Y619500D02*
Y625750D01*
X855000Y335500D02*
X865750D01*
X865750Y335500D01*
X774000Y368500D02*
X781250D01*
X848000Y342500D02*
X855000Y335500D01*
X699250Y276750D02*
X706750D01*
X718750Y288750D01*
X749500D01*
X701250Y349000D02*
X716000D01*
X707000Y375000D02*
X716000D01*
X702000Y370000D02*
X707000Y375000D01*
X926750Y442251D02*
X942249D01*
X955404Y400750D02*
X962500D01*
X1007000Y296750D02*
X1013250D01*
X648750Y767750D02*
X695000D01*
X695500Y768250D01*
X642250Y767750D02*
Y774000D01*
X893750Y768500D02*
Y774750D01*
X897750Y778750D01*
X938500D01*
X1022250Y485500D02*
Y496750D01*
X629250Y767750D02*
Y779250D01*
X1027114Y485636D02*
Y495250D01*
Y485636D02*
X1027250Y485500D01*
X1022250Y496750D02*
X1029250Y503750D01*
X1027114Y495250D02*
X1031114Y499250D01*
X616250Y767750D02*
Y778500D01*
X630750Y793000D01*
X1032250Y485500D02*
Y493000D01*
X1130750Y588250D02*
X1135000D01*
X1137000Y586250D01*
X622750Y709750D02*
Y717750D01*
X635750Y709750D02*
X635750Y709750D01*
X1231000Y697000D02*
X1238500D01*
X1184500Y613000D02*
X1196000D01*
X1158500Y354000D02*
X1169750D01*
X1132000Y303750D02*
X1138750Y310500D01*
X1132000Y295250D02*
Y303750D01*
X1131500Y294750D02*
X1132000Y295250D01*
X342750Y340750D02*
X349750D01*
X355250Y335250D01*
X361250D01*
X825750Y307250D02*
X828750Y304250D01*
Y299000D02*
Y304250D01*
X939500Y333750D02*
Y338250D01*
X941500Y340250D01*
Y344750D01*
X745500Y778500D02*
X749500Y774500D01*
Y769750D02*
Y774500D01*
X745500Y778500D02*
X774500D01*
X785500Y767500D01*
X935875Y620375D02*
X936250Y620750D01*
X917500Y617250D02*
X923250D01*
X926375Y620375D01*
X935875D01*
X1124250Y490250D02*
Y542654D01*
X1124000Y542904D02*
X1124250Y542654D01*
X1124000Y542904D02*
Y553250D01*
X1127500Y556750D01*
X1132250D01*
X1119250Y530500D02*
Y561000D01*
X1124500Y566250D01*
X1181500Y663250D02*
X1195750Y649000D01*
X1196000Y649250D01*
X984500Y415750D02*
X985000Y416250D01*
X867749Y404751D02*
X885750D01*
X774000Y381500D02*
X795250D01*
X871339Y383000D02*
X876839Y388500D01*
X904250D01*
X946750Y389000D02*
X948500Y390750D01*
X962500D01*
X971750Y447500D02*
Y468596D01*
X1017250Y478404D02*
X1024050Y471604D01*
X993000Y462361D02*
Y477654D01*
X992500Y478154D02*
X993000Y477654D01*
X992500Y478154D02*
Y485250D01*
X1173750Y612000D02*
X1183500D01*
X991048Y447706D02*
Y448272D01*
X974092Y430750D02*
X991048Y447706D01*
X889750Y333000D02*
Y344500D01*
X756750Y327750D02*
Y353250D01*
X765500Y362000D01*
X774000D01*
X789500Y585750D02*
X802000D01*
X694411Y622000D02*
X700661Y628250D01*
X723386D01*
X642250Y683250D02*
X655718Y669782D01*
X693000Y622000D02*
X694411D01*
X370000Y277250D02*
X381500D01*
X702000Y362000D02*
Y370000D01*
X702750Y338250D02*
X707000Y342500D01*
X722500Y355500D02*
X733286Y344714D01*
Y344517D02*
Y344714D01*
X735250Y468750D02*
Y479750D01*
X747024Y491524D01*
X747536D01*
X1219000Y600839D02*
Y613000D01*
X1219500Y571750D02*
X1231750Y584000D01*
Y623000D01*
X1226750Y628000D02*
X1231750Y623000D01*
X1213000Y590750D02*
X1218000Y595750D01*
Y599839D01*
X1219000Y600839D01*
X1131500Y547250D02*
X1137500D01*
X1140500Y550250D02*
Y570596D01*
X1137500Y547250D02*
X1140500Y550250D01*
X1130750Y580346D02*
X1140500Y570596D01*
X993750Y767105D02*
Y768478D01*
Y767105D02*
X1003855Y757000D01*
X1005228D01*
X984750Y763377D02*
Y764750D01*
X989250Y765241D02*
Y766614D01*
X984750Y763377D02*
X1000127Y748000D01*
X1001500D01*
X989250Y765241D02*
X1001991Y752500D01*
X1003364D01*
X915846Y657750D02*
X924846Y666750D01*
X985161Y678250D02*
X990911Y684000D01*
X924846Y666750D02*
X992250D01*
X637750Y758200D02*
X644957D01*
X809750Y631750D02*
X815750Y625750D01*
Y620000D02*
Y625750D01*
X736500Y627250D02*
X778500D01*
X733250Y631750D02*
X809750D01*
X731386Y636250D02*
X811614D01*
X962500Y678250D02*
X985161D01*
X833750Y687250D02*
Y704750D01*
X830750Y707750D02*
X833750Y704750D01*
X931500Y696500D02*
Y703250D01*
X872500Y662000D02*
X892904D01*
X811000Y707750D02*
X830750D01*
X807250Y704000D02*
X811000Y707750D01*
X761346Y697000D02*
X797500D01*
Y703500D01*
X809500Y715500D01*
X861500D01*
X880750Y696250D01*
X744250Y706250D02*
X747750Y702750D01*
Y697250D02*
Y702750D01*
X747596Y710750D02*
X761346Y697000D01*
X884750Y701750D02*
X889000Y706000D01*
X928750D01*
X931500Y703250D01*
X395650Y749050D02*
X406700D01*
X480000Y772500D02*
X485500Y767000D01*
X423000Y772500D02*
X480000D01*
X466500Y720500D02*
X467000D01*
X428339Y310250D02*
X435500D01*
X424589Y314000D02*
X428339Y310250D01*
X415750Y310339D02*
X419411Y314000D01*
X424589D01*
X415750Y301404D02*
Y310339D01*
X409096Y294750D02*
X415750Y301404D01*
X696250Y344000D02*
X701250Y349000D01*
X594250Y344000D02*
X696250D01*
X582767Y344517D02*
X582778D01*
X578528Y328516D02*
X578766D01*
X594250Y344000D01*
X688500Y348500D02*
X702000Y362000D01*
X582750Y344500D02*
X586750Y348500D01*
X688500D01*
D33*
X586000Y729500D02*
X603000D01*
X609750Y722750D01*
X651032Y712032D02*
Y721035D01*
X648750Y709750D02*
X651032Y712032D01*
X591750Y742250D02*
Y753250D01*
X286952Y784750D02*
X331943D01*
X268500Y766298D02*
X286952Y784750D01*
X268500Y553250D02*
Y766298D01*
X315750Y490500D02*
Y506000D01*
X707000Y267750D02*
X712500Y273250D01*
X683250Y267750D02*
X707000D01*
X681250Y269750D02*
X683250Y267750D01*
X868514Y279014D02*
X870250Y280750D01*
X851292Y281542D02*
Y288542D01*
X852750Y290000D01*
X862542Y279014D02*
X868514D01*
X844000Y274250D02*
X851292Y281542D01*
X268500Y553250D02*
X315750Y506000D01*
X972298Y507020D02*
X983528Y518250D01*
X972298Y506197D02*
Y507020D01*
X966874Y500774D02*
X972298Y506197D01*
X957241Y500774D02*
X966874D01*
X983528Y518250D02*
X1045500D01*
X948991Y492524D02*
X957241Y500774D01*
X889250Y595500D02*
X893500Y599750D01*
X905250Y585000D02*
X906000Y584250D01*
X893500Y599750D02*
Y608250D01*
X1093750Y586250D02*
X1099250Y591750D01*
X331943Y784750D02*
X345443Y798250D01*
X1003971D01*
X976267Y342767D02*
X984798D01*
X1003971Y798250D02*
X1063000Y739221D01*
X542100Y392000D02*
X542200Y391900D01*
X519250Y392000D02*
X542100D01*
X542100Y422000D02*
X542200Y421900D01*
X519750Y422000D02*
X542100D01*
X1206000Y388000D02*
Y400000D01*
X1213000Y407000D01*
X1221250D02*
X1224500Y410250D01*
X1213000Y407000D02*
X1221250D01*
X1224500Y410250D02*
Y423100D01*
X1134750Y607351D02*
Y641875D01*
X1135000Y642125D01*
Y657750D01*
X1120100Y672650D02*
X1135000Y657750D01*
X1112600Y672650D02*
X1120100D01*
X1134750Y607351D02*
X1144250Y597850D01*
Y588250D02*
Y597850D01*
X1153250Y579250D02*
X1157250D01*
X1144250Y588250D02*
X1153250Y579250D01*
X897750Y739250D02*
X906250D01*
X906500Y739500D01*
X786274Y492524D02*
X948991D01*
X937774Y503024D02*
X945500Y510750D01*
X778937Y503024D02*
X937774D01*
X864500Y645000D02*
Y665314D01*
X859032Y639532D02*
X864500Y645000D01*
Y665314D02*
X868186Y669000D01*
X825319Y639532D02*
X859032D01*
X823351Y641500D02*
X825319Y639532D01*
X751714Y738536D02*
X752287D01*
X735000Y738500D02*
X736500Y737000D01*
X717282Y665283D02*
X732536D01*
X739750Y657068D02*
Y675750D01*
X847250Y727327D02*
X848541Y726035D01*
X847250Y727327D02*
Y737000D01*
X841000Y743250D02*
X847250Y737000D01*
X1087000Y713250D02*
X1090000Y716250D01*
X831500Y738500D02*
X834750Y735250D01*
X941750Y734250D02*
Y756500D01*
X972750Y339250D02*
X976267Y342767D01*
X338250Y471500D02*
Y479750D01*
X346150Y487650D01*
X362650D01*
X1096500Y523750D02*
X1097750Y525000D01*
Y535250D01*
X668500Y678500D02*
X682250Y664750D01*
X693188Y500774D02*
X703534D01*
X689964Y497550D02*
X693188Y500774D01*
X677050Y497550D02*
X689964D01*
X673950Y494450D02*
X677050Y497550D01*
X726601Y588000D02*
X755000D01*
X720750Y582150D02*
X726601Y588000D01*
X720750Y580750D02*
Y582150D01*
X718750Y578750D02*
X720750Y580750D01*
X702315Y578750D02*
X718750D01*
X695465Y571900D02*
X702315Y578750D01*
X673950Y571900D02*
X695465D01*
X704800Y572750D02*
X722936D01*
X673950Y541900D02*
X704800Y572750D01*
X1090000Y716250D02*
X1096400D01*
X1161150Y781000D01*
X1179500D01*
X1171250Y772000D02*
X1172500Y773250D01*
X1171250Y764500D02*
Y772000D01*
X991000Y783250D02*
X999000Y775250D01*
X357500Y561750D02*
X362650Y556600D01*
X337750Y561750D02*
X357500D01*
X1063000Y736750D02*
Y739221D01*
X999000Y769279D02*
Y775250D01*
X1159500Y752750D02*
X1171250Y764500D01*
X1159500Y716750D02*
Y752750D01*
X697750Y556314D02*
X706186Y564750D01*
X697750Y534750D02*
Y556314D01*
X706186Y564750D02*
X719623D01*
X672115Y619500D02*
X700115Y647500D01*
X674750Y613500D02*
X686000Y624750D01*
Y624899D01*
X799500Y601250D02*
Y608250D01*
X796779Y598529D02*
X799500Y601250D01*
X791789Y598529D02*
X796779D01*
X781491Y586750D02*
X781500D01*
X780000Y588241D02*
X781491Y586750D01*
X783089Y574750D02*
X820348D01*
X781089Y572750D02*
X783089Y574750D01*
X780000Y588241D02*
Y606000D01*
X732564Y572750D02*
X781089D01*
X820348Y574750D02*
X823098Y577500D01*
X671915Y619700D02*
X672115Y619500D01*
X873043Y590279D02*
X874029D01*
X874250Y590500D01*
X337500Y602250D02*
X342900Y607650D01*
X362650D01*
X337000Y577500D02*
X337150Y577650D01*
X362650D01*
Y547650D02*
Y556600D01*
X338000Y531750D02*
X348550D01*
X362650Y517650D01*
X539578Y454522D02*
X542200Y451900D01*
X519775Y454522D02*
X539578D01*
X743500Y306250D02*
Y312000D01*
X782250Y291000D02*
X786000D01*
X571500Y296500D02*
X576250D01*
X389000Y307750D02*
X403500D01*
X375500Y321250D02*
X389000Y307750D01*
X364929Y321250D02*
X375500D01*
X343000Y277750D02*
X356000D01*
X356500Y277250D01*
X673950Y601900D02*
X674750Y602700D01*
X903750Y667250D02*
X906500Y670000D01*
X877150Y667250D02*
X903750D01*
X875399Y669000D02*
X877150Y667250D01*
X777187Y504774D02*
X778937Y503024D01*
X721123Y563250D02*
X734377D01*
X719623Y564750D02*
X721123Y563250D01*
X734377D02*
X735877Y564750D01*
X821661D01*
X731064Y571250D02*
X732564Y572750D01*
X724436Y571250D02*
X731064D01*
X722936Y572750D02*
X724436Y571250D01*
X821661Y564750D02*
X826411Y569500D01*
X823098Y577500D02*
X837250D01*
X847000Y587250D01*
X900589Y569500D02*
X904839Y565250D01*
X826411Y569500D02*
X900589D01*
X823500Y599250D02*
X841000D01*
X673950Y511900D02*
X686900D01*
X690250Y515250D01*
Y527250D01*
X697750Y534750D01*
X904839Y565250D02*
X1020686D01*
X1021686Y566250D01*
X1028314D01*
X1031814Y562750D01*
X1059814D01*
X1061314Y564250D01*
X1067000D01*
X1077750Y575000D01*
Y586250D01*
X673950Y481900D02*
Y494450D01*
X757500Y521750D02*
X775250D01*
X673950Y451900D02*
Y454450D01*
X693000Y473500D01*
X779447Y511000D02*
X781423Y509024D01*
X745620Y498750D02*
X745870Y499000D01*
X743135Y504750D02*
X743385Y505000D01*
X771388Y504774D02*
X777187D01*
X781423Y509024D02*
X847024D01*
X849750Y511750D01*
Y519250D01*
X695500Y460142D02*
X699000Y463642D01*
X701500Y457657D02*
X704593Y460750D01*
X704900D02*
X705000Y460850D01*
X704593Y460750D02*
X704900D01*
X689500Y434000D02*
X695500Y440000D01*
X679500Y434000D02*
X689500D01*
X673950Y391900D02*
X701500Y419450D01*
X769114Y502500D02*
X771388Y504774D01*
X673950Y421900D02*
Y428450D01*
X679500Y434000D01*
X784524Y490774D02*
X786274Y492524D01*
X945500Y510750D02*
Y518500D01*
X759000Y423000D02*
Y432750D01*
X728600Y418750D02*
X754750D01*
X759000Y423000D01*
X696750Y386899D02*
X728600Y418750D01*
X696750Y367500D02*
Y386899D01*
X691150Y361900D02*
X696750Y367500D01*
X673950Y361900D02*
X691150D01*
X755750Y447250D02*
X759000Y450500D01*
X747479Y447250D02*
X755750D01*
X744729Y444500D02*
X747479Y447250D01*
X735250Y444500D02*
X744729D01*
X884750Y678250D02*
X900500D01*
X743500Y272250D02*
X755000D01*
X690250Y300750D02*
X690500Y301000D01*
X665750Y272750D02*
Y319500D01*
X662500Y269500D02*
X665750Y272750D01*
X652500Y269500D02*
X662500D01*
X582500Y295500D02*
X582750Y295250D01*
X577250Y295500D02*
X582500D01*
X739500Y302250D02*
X743500Y306250D01*
X726750Y302250D02*
X739500D01*
X790250Y274250D02*
Y286750D01*
X786000Y291000D02*
X790250Y286750D01*
X870250Y280750D02*
X880000D01*
X961500Y339250D02*
X972750D01*
X1158500Y344500D02*
X1174500D01*
X1224450Y423150D02*
X1224500Y423100D01*
X849750Y535250D02*
Y548250D01*
X846250Y531750D02*
X849750Y535250D01*
X827250Y531750D02*
X846250D01*
X898000Y539000D02*
Y549500D01*
X896000Y551500D02*
X898000Y549500D01*
X892250Y551500D02*
X896000D01*
X886250Y545500D02*
X892250Y551500D01*
X886250Y537750D02*
Y545500D01*
X883500Y535000D02*
X886250Y537750D01*
X876750Y535000D02*
X883500D01*
X849250Y518750D02*
X849750Y519250D01*
X803250Y531500D02*
Y540750D01*
X798500Y526750D02*
X803250Y531500D01*
X782750Y530500D02*
Y538750D01*
Y530500D02*
X788500Y524750D01*
Y521750D02*
Y524750D01*
X707750Y542500D02*
X708000Y542750D01*
Y551250D01*
X706000Y553250D02*
X708000Y551250D01*
X1045500Y534750D02*
Y547250D01*
X1040750Y530000D02*
X1045500Y534750D01*
X1019750Y530000D02*
X1040750D01*
X945500Y535250D02*
Y547500D01*
X940250Y530000D02*
X945500Y535250D01*
X922000Y530000D02*
X940250D01*
X860750Y678750D02*
Y687250D01*
X773250Y687750D02*
X773500Y688000D01*
X668500Y678500D02*
Y687750D01*
X905250Y601750D02*
X910750Y607250D01*
X936250D01*
X874250Y590500D02*
Y603000D01*
X707750Y599500D02*
Y608250D01*
X704250Y596000D02*
X707750Y599500D01*
X708000Y617250D02*
X731750D01*
X847000Y605250D02*
Y616250D01*
X841000Y599250D02*
X847000Y605250D01*
X755250Y607750D02*
Y617250D01*
X746750Y599250D02*
X755250Y607750D01*
X731750Y599250D02*
X746750D01*
X819750Y684000D02*
Y696500D01*
X716500Y666000D02*
X717250Y665250D01*
X716500Y685750D02*
Y695000D01*
X709500Y678750D02*
X716500Y685750D01*
X692500Y678750D02*
X709500D01*
X983250Y539000D02*
X995750D01*
X980250Y536000D02*
X983250Y539000D01*
X969000Y536000D02*
X980250D01*
X1007750Y558250D02*
X1025000D01*
X995750Y546250D02*
X1007750Y558250D01*
X995750Y539000D02*
Y546250D01*
X1077750Y586250D02*
X1093750D01*
X769750Y735000D02*
Y758500D01*
X869750Y751500D02*
Y759500D01*
X916750Y739500D02*
X917250Y740000D01*
X906500Y739500D02*
X916750D01*
X817500Y738500D02*
X831500D01*
X817500Y758500D02*
Y767500D01*
X808500Y749500D02*
X817500Y758500D01*
X793750Y749500D02*
X808500D01*
X749500Y740750D02*
Y756250D01*
X614500Y271250D02*
X615000Y271750D01*
X591750Y271250D02*
X614500D01*
X370000Y277250D02*
Y311000D01*
X352250Y311250D02*
X354929D01*
X364929Y321250D01*
X915500Y342750D02*
Y358250D01*
X925500Y368250D01*
X961500D01*
X880000Y309750D02*
X898000D01*
X903500Y304250D01*
Y288500D02*
Y304250D01*
X819250Y274250D02*
X844000D01*
X681250Y269750D02*
Y276750D01*
X712500Y273250D02*
X726750D01*
X573750Y271250D02*
Y280250D01*
X652500Y289750D02*
Y298500D01*
X851500Y356000D02*
X854000Y353500D01*
X865750D01*
X841250Y356000D02*
X851500D01*
X573750Y280250D02*
X575250Y281750D01*
X644500D01*
X652500Y289750D01*
X905250Y585000D02*
Y601750D01*
X917500Y599250D02*
X1044500D01*
X1048750Y595000D01*
Y586250D02*
Y595000D01*
X759000Y450500D02*
Y461750D01*
X711250Y453500D02*
Y468000D01*
X945000Y519000D02*
X945500Y518500D01*
X686534Y304967D02*
X690500Y301000D01*
X576250Y296500D02*
X577250Y295500D01*
X749500Y740750D02*
X751714Y738536D01*
X703250Y622000D02*
X708000Y617250D01*
X769750Y735000D02*
X779000Y725750D01*
X717250Y665250D02*
X717282Y665283D01*
X674750Y602700D02*
Y613500D01*
X686000Y624899D02*
X702600Y641500D01*
X701500Y419450D02*
Y457657D01*
X695500Y440000D02*
Y460142D01*
X523650Y331900D02*
X542200D01*
X508250Y316500D02*
X523650Y331900D01*
X403500Y278750D02*
X444750D01*
X482500Y316500D01*
X508250D01*
X519350Y361900D02*
X542200D01*
X519250Y362000D02*
X519350Y361900D01*
X686534Y304967D02*
Y325766D01*
X665750Y319500D02*
X675000Y328750D01*
X743385Y505000D02*
X752885D01*
X745870Y499000D02*
X750399D01*
X711250Y468000D02*
X734750Y491500D01*
X775250Y521750D02*
X776000Y521000D01*
X734726Y491524D02*
X734750Y491500D01*
X705000Y460850D02*
Y474888D01*
X699000Y463642D02*
Y477373D01*
X693000Y473500D02*
Y479858D01*
X724142Y511000D01*
X734601D01*
X734850Y510750D01*
X740649D01*
X740899Y511000D01*
X779447D01*
X699000Y477373D02*
X726627Y505000D01*
X732115D01*
X732365Y504750D01*
X743135D01*
X705000Y474888D02*
X729112Y499000D01*
X729630D01*
X729880Y498750D01*
X745620D01*
X731536Y491524D02*
X734726D01*
X752885Y505000D02*
X755385Y502500D01*
X769114D01*
X750399Y499000D02*
X758625Y490774D01*
X784524D01*
X337750Y427750D02*
X362550D01*
X362650Y427650D01*
X337000Y445250D02*
X359250Y445500D01*
X362500Y448750D01*
Y457500D01*
X362650Y457650D01*
X519250Y541750D02*
X542050D01*
X542200Y541900D01*
X519500Y512000D02*
X542100D01*
X542200Y511900D01*
X519500Y482000D02*
X542100D01*
X542200Y481900D01*
X1141000Y464500D02*
X1152750Y476250D01*
X1133000Y464500D02*
X1141000D01*
X1145500Y483500D02*
X1152750Y476250D01*
X1133000Y483500D02*
X1145500D01*
X1152750Y476250D02*
X1158500Y470500D01*
Y363500D02*
Y470500D01*
X1152000Y363500D02*
X1158500D01*
X1148250Y359750D02*
X1152000Y363500D01*
X1148250Y345750D02*
Y359750D01*
Y345750D02*
X1149750Y344250D01*
X1158250D01*
X1158500Y344500D01*
X999000Y769279D02*
X1006030Y762250D01*
X1012000D01*
X1051000Y723250D01*
X1093500D01*
X841000Y743250D02*
Y755000D01*
X900500Y678250D02*
X906500Y684250D01*
Y696000D01*
X739750Y675750D02*
X747750Y683750D01*
X764351Y647500D02*
X783133Y666283D01*
X721000Y738500D02*
X735000D01*
X609750Y709750D02*
Y722750D01*
X721000Y757250D02*
Y767500D01*
X773250Y681000D02*
Y687750D01*
X783133Y666283D02*
X784538D01*
X814750Y679000D02*
X819750Y684000D01*
X797500Y679000D02*
X814750D01*
X802500Y667500D02*
X819750D01*
X739750Y657068D02*
X740286Y656532D01*
X700115Y647500D02*
X764351D01*
X702600Y641500D02*
X823351D01*
X753000Y658250D02*
Y660750D01*
X714000Y750250D02*
X721000Y757250D01*
X695500Y750250D02*
X714000D01*
X893750Y750500D02*
X910000D01*
X917250Y757750D01*
Y769000D01*
X753000Y660750D02*
X773250Y681000D01*
X868186Y669000D02*
X875399D01*
X858000Y676000D02*
X860750Y678750D01*
X779000Y725750D02*
X783250D01*
X843250Y698000D02*
X858000D01*
X869750Y751500D02*
X891500Y729750D01*
X542050Y571750D02*
X542200Y571900D01*
X519250Y571750D02*
X542050D01*
X524750Y625250D02*
X611493D01*
X515500Y616000D02*
X528100D01*
X542200Y601900D01*
X362650Y380600D02*
Y397650D01*
Y380600D02*
X362750Y380500D01*
X611493Y625250D02*
X617043Y619700D01*
X671915D01*
D34*
X1143500Y673250D02*
X1159250Y689000D01*
X1223750Y351000D02*
X1250250Y377500D01*
Y459320D01*
X1250500Y459570D01*
X1248500Y477476D02*
X1250500Y475476D01*
Y459570D02*
Y475476D01*
X1248500Y477476D02*
Y652890D01*
X1159250Y689000D02*
Y693149D01*
X1182101Y716000D01*
X1235485D01*
X1247368Y682789D02*
X1249311Y680846D01*
X1248500Y652890D02*
X1249311Y653701D01*
Y680846D01*
X1247368Y697382D02*
X1248250Y698265D01*
X1235485Y716000D02*
X1248250Y703235D01*
X1247368Y682789D02*
Y697382D01*
X1248250Y698265D02*
Y703235D01*
X980373Y508024D02*
X993976D01*
X977298Y504949D02*
X980373Y508024D01*
X977298Y503052D02*
Y504949D01*
X970020Y495774D02*
X977298Y503052D01*
X993976Y508024D02*
X998000Y504000D01*
X959312Y495774D02*
X970020D01*
X951062Y487524D02*
X959312Y495774D01*
X1179000Y380000D02*
Y419425D01*
X1203825Y444250D01*
X1238393Y443800D02*
X1244500Y449907D01*
X1208625Y443800D02*
X1238393D01*
X1208175Y444250D02*
X1208625Y443800D01*
X1203825Y444250D02*
X1208175D01*
X1244500Y475819D02*
Y654547D01*
Y475819D02*
X1246500Y473819D01*
Y461227D02*
Y473819D01*
X1244500Y459227D02*
X1246500Y461227D01*
X1221950Y472000D02*
X1224450Y474500D01*
X1218819Y472000D02*
X1221950D01*
X1217318Y470500D02*
X1218819Y472000D01*
X1235250Y689250D02*
X1245311Y679190D01*
X1226007Y689250D02*
X1235250D01*
X1224250Y691007D02*
X1226007Y689250D01*
X1224250Y691007D02*
Y701993D01*
X1214243Y712000D02*
X1224250Y701993D01*
X1244500Y449907D02*
Y459227D01*
X1245311Y655358D02*
Y679190D01*
X1244500Y654547D02*
X1245311Y655358D01*
X1141806Y639031D02*
X1145531D01*
X1163250Y656750D01*
Y691493D01*
X1185500Y712000D02*
X1214243D01*
X1178250Y704750D02*
X1185500Y712000D01*
X1176507Y704750D02*
X1178250D01*
X1173750Y377500D02*
X1176500D01*
X1179000Y380000D01*
X1163250Y691493D02*
X1176507Y704750D01*
X1094014Y444500D02*
X1105750D01*
X1093263Y445250D02*
X1094014Y444500D01*
X1089515Y445250D02*
X1093263D01*
X1089015Y445750D02*
X1089515Y445250D01*
X809289Y439524D02*
X857289Y487524D01*
X797500Y433500D02*
X805753D01*
X809289Y437036D01*
Y439524D01*
X857289Y487524D02*
X951062D01*
X788250Y412422D02*
Y424250D01*
Y412422D02*
X796921Y403750D01*
X907500Y633000D02*
X917500Y623000D01*
Y617250D02*
Y623000D01*
X1077000Y445750D02*
X1089015D01*
X1049500Y430250D02*
X1060000Y440750D01*
X1077000D01*
X1105750Y444500D02*
X1111250Y450000D01*
X788250Y424250D02*
X797500Y433500D01*
X796921Y403750D02*
X807485D01*
X813485Y409750D01*
X816500D01*
X856977Y473500D02*
X866477D01*
X866613Y473363D01*
X695250Y520742D02*
X699284Y524776D01*
X695250Y509907D02*
Y520742D01*
X687893Y502550D02*
X695250Y509907D01*
X672550Y502550D02*
X687893D01*
X669250Y499250D02*
X672550Y502550D01*
X642250Y499250D02*
X669250D01*
X621500Y520000D02*
X642250Y499250D01*
X629250Y685750D02*
X651000Y664000D01*
Y657750D02*
Y664000D01*
X643375Y649875D02*
X643500Y649750D01*
X643375Y649875D02*
Y660375D01*
D35*
X755000Y588000D02*
X755250Y588250D01*
D36*
X1112600Y672650D02*
D03*
X1011000D02*
D03*
D37*
X1112600Y774250D02*
D03*
X1011000D02*
D03*
D38*
X1203250Y300250D02*
D03*
Y753250D02*
D03*
X300000Y300250D02*
D03*
X300000Y753250D02*
D03*
D39*
X586000Y729500D02*
D03*
X628250Y723250D02*
D03*
X638031Y730286D02*
D03*
X651000Y741250D02*
D03*
X651032Y721035D02*
D03*
X692784Y729536D02*
D03*
X684033Y738286D02*
D03*
X683000Y751000D02*
D03*
X591750Y742250D02*
D03*
X659032Y735286D02*
D03*
X566500Y723000D02*
D03*
X561500Y713750D02*
D03*
X862542Y279014D02*
D03*
X866542Y292264D02*
D03*
X864750Y301000D02*
D03*
X905500Y352750D02*
D03*
X823250Y587000D02*
D03*
X1123055Y632031D02*
D03*
X1143500Y673250D02*
D03*
X1223750Y351000D02*
D03*
X1027750Y454750D02*
D03*
X976548Y492774D02*
D03*
X982548Y502775D02*
D03*
X998000Y504000D02*
D03*
X968500Y485000D02*
D03*
X961797Y489774D02*
D03*
X1018500Y438250D02*
D03*
X1020050Y448022D02*
D03*
X1052000Y453500D02*
D03*
X994000Y429250D02*
D03*
X1041500Y453750D02*
D03*
X1030250Y413000D02*
D03*
X1011250Y419250D02*
D03*
X1028050Y435021D02*
D03*
X1028500Y424000D02*
D03*
X1015500Y428250D02*
D03*
X1008500Y505750D02*
D03*
X980250Y635750D02*
D03*
X979000Y660500D02*
D03*
X1075750Y634000D02*
D03*
X1015550Y463773D02*
D03*
X994000Y458500D02*
D03*
X1023800Y468523D02*
D03*
X1002750Y425250D02*
D03*
X1002049Y448522D02*
D03*
X1013750Y392000D02*
D03*
X985250Y397250D02*
D03*
X889250Y595500D02*
D03*
X906000Y584250D02*
D03*
X980750Y406500D02*
D03*
X1013750Y402500D02*
D03*
X1099000Y604500D02*
D03*
X1089053Y596279D02*
D03*
X1099250Y591750D02*
D03*
X1004250Y438500D02*
D03*
X1041250Y467000D02*
D03*
X941500Y290250D02*
D03*
X931000Y297500D02*
D03*
X940000Y276750D02*
D03*
X941546Y301265D02*
D03*
Y316515D02*
D03*
X985250Y386250D02*
D03*
X984798Y342767D02*
D03*
X997500Y342250D02*
D03*
X925295Y313515D02*
D03*
X917500Y388500D02*
D03*
X906500Y363000D02*
D03*
X1121750Y371500D02*
D03*
X1188308Y388269D02*
D03*
X1241250Y468500D02*
D03*
X1213250Y470500D02*
D03*
X1097303Y621280D02*
D03*
X1240061Y657532D02*
D03*
X1141806Y639031D02*
D03*
X1144250Y626500D02*
D03*
X1173750Y377500D02*
D03*
X983750Y458750D02*
D03*
X993500Y677750D02*
D03*
X1091089Y440000D02*
D03*
X1092553Y430771D02*
D03*
X1123305Y645531D02*
D03*
X1089500Y612000D02*
D03*
X937046Y472523D02*
D03*
X681783Y725785D02*
D03*
X694500Y739000D02*
D03*
X671783Y739786D02*
D03*
X669283Y727286D02*
D03*
X746750Y667250D02*
D03*
X806750Y650250D02*
D03*
X795250Y650500D02*
D03*
X828290Y646532D02*
D03*
X752287Y738536D02*
D03*
X736500Y737000D02*
D03*
X755787Y725035D02*
D03*
X739786Y727286D02*
D03*
X732536Y665283D02*
D03*
X848541Y726035D02*
D03*
X854250Y736750D02*
D03*
X1087000Y713250D02*
D03*
X876500Y724750D02*
D03*
X834750Y735250D02*
D03*
X863000Y725000D02*
D03*
X941750Y734250D02*
D03*
X953500Y736500D02*
D03*
X945796Y481524D02*
D03*
X1092750Y450500D02*
D03*
X1090803Y421020D02*
D03*
X849250Y421500D02*
D03*
X1111250Y450000D02*
D03*
X1049500Y430250D02*
D03*
X1035800Y389269D02*
D03*
X942000Y345250D02*
D03*
X932000Y265500D02*
D03*
X953750Y267000D02*
D03*
X1206000Y439000D02*
D03*
X682250Y664750D02*
D03*
X651000Y657750D02*
D03*
X643500Y649750D02*
D03*
X1040250Y748000D02*
D03*
X781500Y586750D02*
D03*
X873043Y590279D02*
D03*
X791789Y598529D02*
D03*
X771538Y588029D02*
D03*
X1051750Y736250D02*
D03*
X1012250Y354500D02*
D03*
X675033Y649032D02*
D03*
X864250Y587250D02*
D03*
X1063000Y736750D02*
D03*
X840750Y404750D02*
D03*
X1173557Y364768D02*
D03*
X946750Y389000D02*
D03*
X926750Y393750D02*
D03*
X1093500Y723250D02*
D03*
X1133500Y332500D02*
D03*
X1120250Y439250D02*
D03*
X1126250Y325750D02*
D03*
X985000Y416250D02*
D03*
X904250Y388500D02*
D03*
X991048Y448272D02*
D03*
X889750Y333000D02*
D03*
X802000Y585750D02*
D03*
X703250Y622000D02*
D03*
X789000Y738750D02*
D03*
X693000Y622000D02*
D03*
X1058500Y679750D02*
D03*
X1043500Y679500D02*
D03*
X992250Y666750D02*
D03*
X784538Y666283D02*
D03*
X777750Y651000D02*
D03*
X802500Y667500D02*
D03*
X817250Y653250D02*
D03*
X740286Y656532D02*
D03*
X753000Y658250D02*
D03*
X962500Y678250D02*
D03*
X714500Y725000D02*
D03*
X913500Y726500D02*
D03*
X766750Y725000D02*
D03*
X872500Y662000D02*
D03*
X858000Y698000D02*
D03*
Y676000D02*
D03*
X783250Y725750D02*
D03*
X801250Y727500D02*
D03*
X902750Y726500D02*
D03*
X727750Y724750D02*
D03*
X891500Y729750D02*
D03*
X932500Y728500D02*
D03*
X549500Y727500D02*
D03*
D40*
X315750Y490500D02*
D03*
X306265Y474523D02*
D03*
X410770Y761037D02*
D03*
X410750Y745000D02*
D03*
X297750Y480000D02*
D03*
X863250Y317000D02*
D03*
X971000Y524107D02*
D03*
X1097000Y381000D02*
D03*
X1087000Y374500D02*
D03*
X1052801Y635281D02*
D03*
X1054161Y621250D02*
D03*
X900500Y320750D02*
D03*
X857750Y389250D02*
D03*
X1206000Y388000D02*
D03*
X1159500Y285250D02*
D03*
X1231250Y377750D02*
D03*
X1242250Y700750D02*
D03*
X1232310Y648282D02*
D03*
X1157250Y579250D02*
D03*
X1139250Y515000D02*
D03*
X1157557Y604529D02*
D03*
X1145750Y606250D02*
D03*
X1159557Y592029D02*
D03*
X1170500Y539000D02*
D03*
X1164750Y527000D02*
D03*
X897750Y739250D02*
D03*
X859500Y481000D02*
D03*
X803289Y439521D02*
D03*
X786750Y437000D02*
D03*
X807250Y376250D02*
D03*
X794289Y415020D02*
D03*
X803000Y426250D02*
D03*
X777750Y409250D02*
D03*
X874000Y646000D02*
D03*
X855750Y647500D02*
D03*
X844750Y647250D02*
D03*
X895000Y646000D02*
D03*
X1057250Y357500D02*
D03*
X1067250Y347250D02*
D03*
X1092250Y360750D02*
D03*
X1040000Y299000D02*
D03*
X1062250Y264250D02*
D03*
X338250Y471500D02*
D03*
X636750Y425250D02*
D03*
X1096500Y523750D02*
D03*
X805000Y409750D02*
D03*
X851750Y473500D02*
D03*
X838041Y429521D02*
D03*
X839500Y416000D02*
D03*
X816500Y409750D02*
D03*
X827750Y423250D02*
D03*
X813750Y367500D02*
D03*
X621500Y520000D02*
D03*
X617250Y598750D02*
D03*
X612750Y609000D02*
D03*
X611750Y588750D02*
D03*
X694500Y584500D02*
D03*
X473250Y355250D02*
D03*
X472750Y332750D02*
D03*
X482500Y364250D02*
D03*
X482750Y345000D02*
D03*
X423000Y343500D02*
D03*
X405500Y348500D02*
D03*
X422750Y358250D02*
D03*
X405000Y363500D02*
D03*
X1172500Y773250D02*
D03*
X1163250Y767250D02*
D03*
X1179500Y781000D02*
D03*
X1143250Y717000D02*
D03*
X291250Y510750D02*
D03*
X306500Y500000D02*
D03*
X337750Y561750D02*
D03*
X319250Y463250D02*
D03*
X503750Y505250D02*
D03*
X509750Y467250D02*
D03*
X1227060Y529026D02*
D03*
X1215250Y535000D02*
D03*
X1208750Y526500D02*
D03*
X513250Y493250D02*
D03*
X504500Y481250D02*
D03*
X504000Y457250D02*
D03*
X615750Y574500D02*
D03*
X651250Y571750D02*
D03*
X337500Y602250D02*
D03*
X337000Y577500D02*
D03*
X610250Y547750D02*
D03*
X715250Y518000D02*
D03*
X625750Y501500D02*
D03*
X338000Y531750D02*
D03*
X644500Y535250D02*
D03*
X519775Y454522D02*
D03*
X620500Y426000D02*
D03*
X641000Y437750D02*
D03*
X814540Y353517D02*
D03*
X824750Y321500D02*
D03*
X825790Y308765D02*
D03*
X798539Y351767D02*
D03*
X787538Y348767D02*
D03*
X783038Y332766D02*
D03*
X796289Y323266D02*
D03*
X1027000Y309750D02*
D03*
X1028000Y324500D02*
D03*
X780000Y305750D02*
D03*
X743500Y312000D02*
D03*
X610750Y315500D02*
D03*
X782250Y291000D02*
D03*
X675750Y305000D02*
D03*
X604250Y300000D02*
D03*
X504250Y403000D02*
D03*
X571500Y296500D02*
D03*
X849250Y452750D02*
D03*
X1112500Y378500D02*
D03*
X541500Y269250D02*
D03*
X552250Y290250D02*
D03*
X343000Y277750D02*
D03*
X727750Y579250D02*
D03*
X1043801Y570778D02*
D03*
X1054551D02*
D03*
X891250Y620250D02*
D03*
X800250Y552250D02*
D03*
X726250Y518000D02*
D03*
X710500Y430500D02*
D03*
X774288Y497774D02*
D03*
X731000Y411250D02*
D03*
X745750Y411750D02*
D03*
X764000Y411500D02*
D03*
X543500Y680250D02*
D03*
X868750Y389250D02*
D03*
X883500Y518750D02*
D03*
X1102500Y395000D02*
D03*
X743500Y272250D02*
D03*
X560500Y271250D02*
D03*
X1237750Y504250D02*
D03*
X1156250Y661750D02*
D03*
X1159500Y716750D02*
D03*
X892250Y551500D02*
D03*
X820750Y517250D02*
D03*
X798500Y526750D02*
D03*
X788500Y521750D02*
D03*
X706000Y553250D02*
D03*
X868500Y518750D02*
D03*
X906250Y646000D02*
D03*
X704250Y596000D02*
D03*
X386500Y690250D02*
D03*
X336250Y722000D02*
D03*
X1025000Y558250D02*
D03*
X1234000Y729000D02*
D03*
X1154250Y309500D02*
D03*
X1078000Y354250D02*
D03*
X1175000Y345000D02*
D03*
X1095750Y285500D02*
D03*
X342750Y340750D02*
D03*
X925500Y577750D02*
D03*
X916545Y587529D02*
D03*
X1173750Y612000D02*
D03*
X651250Y541750D02*
D03*
X519250Y362000D02*
D03*
X702750Y338250D02*
D03*
X686534Y325766D02*
D03*
X675000Y328750D02*
D03*
X733286Y344517D02*
D03*
X739036Y519025D02*
D03*
X699284Y524776D02*
D03*
X776000Y521000D02*
D03*
X703534Y500774D02*
D03*
X731536Y491524D02*
D03*
X747536D02*
D03*
X651500Y451750D02*
D03*
X1225250Y598000D02*
D03*
X337750Y427750D02*
D03*
X337000Y445250D02*
D03*
X631750Y385000D02*
D03*
X628250Y376000D02*
D03*
X519250Y392000D02*
D03*
X519750Y422000D02*
D03*
X519500Y482000D02*
D03*
Y512000D02*
D03*
X519250Y541750D02*
D03*
X1152750Y476250D02*
D03*
X944500Y649250D02*
D03*
X423000Y772500D02*
D03*
X510500Y727250D02*
D03*
X519250Y571750D02*
D03*
X467000Y720500D02*
D03*
X501000Y739500D02*
D03*
X509750Y588750D02*
D03*
X382750Y335250D02*
D03*
X435500Y310250D02*
D03*
X422000Y307750D02*
D03*
X519250Y597750D02*
D03*
X524750Y625250D02*
D03*
X515500Y616000D02*
D03*
X510250Y373750D02*
D03*
X362750Y380500D02*
D03*
X502500Y382250D02*
D03*
X582778Y344517D02*
D03*
X578528Y328516D02*
D03*
X471500Y612000D02*
D03*
X483250D02*
D03*
X472250Y591250D02*
D03*
X483500D02*
D03*
X469750Y569750D02*
D03*
X483250D02*
D03*
X470500Y543750D02*
D03*
X484500Y543000D02*
D03*
X470000Y522000D02*
D03*
X482750D02*
D03*
X470000Y502500D02*
D03*
X483500D02*
D03*
X472000Y392000D02*
D03*
X481000Y399250D02*
D03*
X471750Y406750D02*
D03*
X481000Y414250D02*
D03*
X471750Y419000D02*
D03*
X570500Y497250D02*
D03*
X581750D02*
D03*
X593750Y497000D02*
D03*
X568750Y407000D02*
D03*
X582250Y407250D02*
D03*
X596000Y407000D02*
D03*
X568250Y377000D02*
D03*
X582250Y376750D02*
D03*
X595250Y377000D02*
D03*
D41*
X991000Y783250D02*
D03*
%TF.MD5,e302685c00968a78bd6d5f05c90e95bf*%
M02*
