G04 Layer_Color=65535*
%FSLAX44Y44*%
%MOMM*%
%TF.FileFunction,Legend,Top*%
%TF.Part,Single*%
G01*
G75*
%TA.AperFunction,NonConductor*%
%ADD47C,0.1000*%
%ADD48C,0.6000*%
%ADD49C,0.2500*%
%ADD50C,0.2000*%
%ADD51C,0.2540*%
D47*
X738250Y307250D02*
G03*
X738250Y307250I-500J0D01*
G01*
X785750Y285250D02*
G03*
X785750Y285250I-500J0D01*
G01*
X830750Y322000D02*
G03*
X830750Y322000I-500J0D01*
G01*
X642000Y264500D02*
G03*
X642000Y264500I-500J0D01*
G01*
X1035000Y513250D02*
G03*
X1035000Y513250I-500J0D01*
G01*
X748500Y427750D02*
G03*
X748500Y427750I-500J0D01*
G01*
X935000Y513500D02*
G03*
X935000Y513500I-500J0D01*
G01*
X839250Y514250D02*
G03*
X839250Y514250I-500J0D01*
G01*
X747000Y516750D02*
G03*
X747000Y516750I-500J0D01*
G01*
X1083250Y575250D02*
G03*
X1083250Y575250I-500J0D01*
G01*
X836500Y582250D02*
G03*
X836500Y582250I-500J0D01*
G01*
X744750Y583250D02*
G03*
X744750Y583250I-500J0D01*
G01*
X896000Y662000D02*
G03*
X896000Y662000I-500J0D01*
G01*
X809250Y662500D02*
G03*
X809250Y662500I-500J0D01*
G01*
X906750Y735000D02*
G03*
X906750Y735000I-500J0D01*
G01*
X807000Y733500D02*
G03*
X807000Y733500I-500J0D01*
G01*
X710500D02*
G03*
X710500Y733500I-500J0D01*
G01*
X706000Y661000D02*
G03*
X706000Y661000I-500J0D01*
G01*
X951000Y334250D02*
G03*
X951000Y334250I-500J0D01*
G01*
X1237121Y656379D02*
G03*
X1237121Y656379I-500J0D01*
G01*
X1237371Y690129D02*
G03*
X1237371Y690129I-500J0D01*
G01*
X869500Y275750D02*
G03*
X869500Y275750I-500J0D01*
G01*
X393000Y273750D02*
G03*
X393000Y273750I-500J0D01*
G01*
D48*
X616750Y730250D02*
G03*
X616750Y730250I-3000J0D01*
G01*
X1058750Y392250D02*
G03*
X1058750Y392250I-3000J0D01*
G01*
X978750Y312250D02*
G03*
X978750Y312250I-3000J0D01*
G01*
X739500Y377500D02*
G03*
X739500Y377500I-3000J0D01*
G01*
D49*
X603700Y709750D02*
G03*
X603700Y709750I-1250J0D01*
G01*
X1197250Y638000D02*
G03*
X1197250Y638000I-1250J0D01*
G01*
X1078250Y383750D02*
G03*
X1078250Y383750I-1250J0D01*
G01*
X956500Y323550D02*
G03*
X956500Y323550I-1250J0D01*
G01*
X1159750Y336000D02*
G03*
X1159750Y336000I-1250J0D01*
G01*
X1134250Y456000D02*
G03*
X1134250Y456000I-1250J0D01*
G01*
X1133500Y574750D02*
G03*
X1133500Y574750I-1250J0D01*
G01*
X717250Y388800D02*
G03*
X717250Y388800I-1250J0D01*
G01*
D50*
X567750Y280250D02*
Y290250D01*
X575500D01*
X597750Y280250D02*
Y290250D01*
X590000D02*
X597750D01*
X654750Y720250D02*
Y757250D01*
X603750Y720250D02*
Y757250D01*
X654750D01*
X603750Y720250D02*
X654750D01*
X716250Y438500D02*
X726250D01*
X716250D02*
Y446250D01*
Y468500D02*
X726250D01*
X716250Y460750D02*
Y468500D01*
X1000750Y546250D02*
Y554000D01*
X1010750D01*
X1000750Y524000D02*
Y531750D01*
Y524000D02*
X1010750D01*
X903000D02*
X913000D01*
X903000D02*
Y531750D01*
Y554000D02*
X913000D01*
X903000Y546250D02*
Y554000D01*
X808250Y548000D02*
Y555750D01*
X818250D01*
X808250Y525750D02*
Y533500D01*
Y525750D02*
X818250D01*
X712750Y527500D02*
X722750D01*
X712750D02*
Y535250D01*
Y557500D02*
X722750D01*
X712750Y549750D02*
Y557500D01*
X898500Y615500D02*
Y623250D01*
X908500D01*
X898500Y593250D02*
Y601000D01*
Y593250D02*
X908500D01*
X712750Y615500D02*
Y623250D01*
X722750D01*
X712750Y593250D02*
Y601000D01*
Y593250D02*
X722750D01*
X865750Y672250D02*
X875750D01*
X865750D02*
Y680000D01*
Y702250D02*
X875750D01*
X865750Y694500D02*
Y702250D01*
X778500Y695250D02*
Y703000D01*
X788500D01*
X778500Y673000D02*
Y680750D01*
Y673000D02*
X788500D01*
X874750Y744500D02*
X884750D01*
X874750D02*
Y752250D01*
Y774500D02*
X884750D01*
X874750Y766750D02*
Y774500D01*
X774750Y765750D02*
Y773500D01*
X784750D01*
X774750Y743500D02*
Y751250D01*
Y743500D02*
X784750D01*
X676500Y744250D02*
X686500D01*
X676500D02*
Y752000D01*
Y774250D02*
X686500D01*
X676500Y766500D02*
Y774250D01*
X673500Y695000D02*
Y702750D01*
X683500D01*
X673500Y672750D02*
Y680500D01*
Y672750D02*
X683500D01*
X697500Y295750D02*
X705250D01*
Y285750D02*
Y295750D01*
X675250D02*
X683000D01*
X675250Y285750D02*
Y295750D01*
X346250Y320250D02*
Y330250D01*
X354000D01*
X376250Y320250D02*
Y330250D01*
X368500D02*
X376250D01*
X833750Y306250D02*
Y314000D01*
X843750D01*
X833750Y284000D02*
Y291750D01*
Y284000D02*
X843750D01*
X924500Y348750D02*
X934500D01*
Y341000D02*
Y348750D01*
X924500Y318750D02*
X934500D01*
Y326500D01*
X922500Y264500D02*
Y272250D01*
X912500Y264500D02*
X922500D01*
Y286750D02*
Y294500D01*
X912500D02*
X922500D01*
X1207000Y605500D02*
X1208000D01*
X1207000Y635500D02*
X1208000D01*
X1065750Y382250D02*
Y474250D01*
X973750Y382250D02*
Y474250D01*
Y382250D02*
X1065750D01*
X973750Y474250D02*
X1065750D01*
X1116500Y378750D02*
Y430750D01*
X1150500Y378750D02*
Y430750D01*
X965750Y271250D02*
X1002750D01*
X965750Y322250D02*
X1002750D01*
Y271250D02*
Y322250D01*
X965750Y271250D02*
Y322250D01*
X1140500Y339000D02*
Y369000D01*
X1149500Y339000D02*
Y369000D01*
X1140500D02*
X1149500D01*
X1140500Y339000D02*
X1149500D01*
X1115000Y459000D02*
Y489000D01*
X1124000Y459000D02*
Y489000D01*
X1115000D02*
X1124000D01*
X1115000Y459000D02*
X1124000D01*
X866250Y395750D02*
X946250D01*
X866250Y463750D02*
X946250D01*
X866250Y442750D02*
Y463750D01*
Y395750D02*
Y416750D01*
X946250Y395750D02*
Y463750D01*
X1141250Y571750D02*
X1150250D01*
X1141250Y541750D02*
X1150250D01*
X1141250D02*
Y571750D01*
X1150250Y541750D02*
Y571750D01*
X884750Y329500D02*
Y337250D01*
X874750Y329500D02*
X884750D01*
Y351750D02*
Y359500D01*
X874750D02*
X884750D01*
X804500Y593250D02*
X814500D01*
X804500D02*
Y601000D01*
Y623250D02*
X814500D01*
X804500Y615500D02*
Y623250D01*
X726500Y336500D02*
X763500D01*
X726500Y387500D02*
X763500D01*
Y336500D02*
Y387500D01*
X726500Y336500D02*
Y387500D01*
X1214250Y548500D02*
Y558497D01*
X1219248D01*
X1220915Y556831D01*
Y553498D01*
X1219248Y551832D01*
X1214250D01*
X1217582D02*
X1220915Y548500D01*
X1224247Y558497D02*
X1230911D01*
Y556831D01*
X1224247Y550166D01*
Y548500D01*
X1234244Y556831D02*
X1235910Y558497D01*
X1239242D01*
X1240908Y556831D01*
Y550166D01*
X1239242Y548500D01*
X1235910D01*
X1234244Y550166D01*
Y556831D01*
X1213500Y566750D02*
Y576747D01*
X1218498D01*
X1220164Y575081D01*
Y571748D01*
X1218498Y570082D01*
X1213500D01*
X1216832D02*
X1220164Y566750D01*
X1230161Y576747D02*
X1226829Y575081D01*
X1223497Y571748D01*
Y568416D01*
X1225163Y566750D01*
X1228495D01*
X1230161Y568416D01*
Y570082D01*
X1228495Y571748D01*
X1223497D01*
X1233494Y568416D02*
X1235160Y566750D01*
X1238492D01*
X1240158Y568416D01*
Y575081D01*
X1238492Y576747D01*
X1235160D01*
X1233494Y575081D01*
Y573414D01*
X1235160Y571748D01*
X1240158D01*
X1214000Y582750D02*
Y592747D01*
X1218998D01*
X1220665Y591081D01*
Y587748D01*
X1218998Y586082D01*
X1214000D01*
X1217332D02*
X1220665Y582750D01*
X1230661Y592747D02*
X1227329Y591081D01*
X1223997Y587748D01*
Y584416D01*
X1225663Y582750D01*
X1228995D01*
X1230661Y584416D01*
Y586082D01*
X1228995Y587748D01*
X1223997D01*
X1233994Y591081D02*
X1235660Y592747D01*
X1238992D01*
X1240658Y591081D01*
Y589414D01*
X1238992Y587748D01*
X1240658Y586082D01*
Y584416D01*
X1238992Y582750D01*
X1235660D01*
X1233994Y584416D01*
Y586082D01*
X1235660Y587748D01*
X1233994Y589414D01*
Y591081D01*
X1235660Y587748D02*
X1238992D01*
X569250Y679995D02*
X579247D01*
X574248D01*
Y665000D01*
X584245Y679995D02*
Y665000D01*
Y672498D01*
X594242D01*
Y679995D01*
Y665000D01*
X599240Y679995D02*
Y667499D01*
X601740Y665000D01*
X606738D01*
X609237Y667499D01*
Y679995D01*
X614235Y665000D02*
Y679995D01*
X619234Y674997D01*
X624232Y679995D01*
Y665000D01*
X629231Y679995D02*
Y665000D01*
X636728D01*
X639227Y667499D01*
Y669998D01*
X636728Y672498D01*
X629231D01*
X636728D01*
X639227Y674997D01*
Y677496D01*
X636728Y679995D01*
X629231D01*
X659221Y665000D02*
X664219D01*
X661720D01*
Y679995D01*
X659221Y677496D01*
X462500Y679495D02*
X467498D01*
X464999D01*
Y664500D01*
X462500D01*
X467498D01*
X474996D02*
Y679495D01*
X484993Y664500D01*
Y679495D01*
X489991D02*
Y664500D01*
X497489D01*
X499988Y666999D01*
Y676996D01*
X497489Y679495D01*
X489991D01*
X514983D02*
X504986D01*
Y664500D01*
X514983D01*
X504986Y671998D02*
X509985D01*
X519981Y679495D02*
X529978Y664500D01*
Y679495D02*
X519981Y664500D01*
X616000Y790747D02*
Y782416D01*
X617666Y780750D01*
X620998D01*
X622664Y782416D01*
Y790747D01*
X625997Y780750D02*
X629329D01*
X627663D01*
Y790747D01*
X625997Y789081D01*
X640992Y780750D02*
X634327D01*
X640992Y787414D01*
Y789081D01*
X639326Y790747D01*
X635993D01*
X634327Y789081D01*
X538497Y765245D02*
X528500D01*
Y757747D01*
X533498D01*
X528500D01*
Y750250D01*
X543495D02*
Y760247D01*
X548493Y765245D01*
X553492Y760247D01*
Y750250D01*
Y757747D01*
X543495D01*
X558490Y750250D02*
Y765245D01*
X568487Y750250D01*
Y765245D01*
X1079250Y507750D02*
Y517747D01*
X1084248D01*
X1085915Y516081D01*
Y512748D01*
X1084248Y511082D01*
X1079250D01*
X1082582D02*
X1085915Y507750D01*
X1095911Y517747D02*
X1092579Y516081D01*
X1089247Y512748D01*
Y509416D01*
X1090913Y507750D01*
X1094245D01*
X1095911Y509416D01*
Y511082D01*
X1094245Y512748D01*
X1089247D01*
X1099243Y517747D02*
X1105908D01*
Y516081D01*
X1099243Y509416D01*
Y507750D01*
X774250Y475000D02*
Y484997D01*
X779248D01*
X780915Y483331D01*
Y479998D01*
X779248Y478332D01*
X774250D01*
X777582D02*
X780915Y475000D01*
X790911Y484997D02*
X787579Y483331D01*
X784247Y479998D01*
Y476666D01*
X785913Y475000D01*
X789245D01*
X790911Y476666D01*
Y478332D01*
X789245Y479998D01*
X784247D01*
X800908Y484997D02*
X797576Y483331D01*
X794243Y479998D01*
Y476666D01*
X795910Y475000D01*
X799242D01*
X800908Y476666D01*
Y478332D01*
X799242Y479998D01*
X794243D01*
X749750Y284000D02*
Y293997D01*
X754748D01*
X756414Y292331D01*
Y288998D01*
X754748Y287332D01*
X749750D01*
X753082D02*
X756414Y284000D01*
X759747Y292331D02*
X761413Y293997D01*
X764745D01*
X766411Y292331D01*
Y290665D01*
X764745Y288998D01*
X763079D01*
X764745D01*
X766411Y287332D01*
Y285666D01*
X764745Y284000D01*
X761413D01*
X759747Y285666D01*
X769744Y284000D02*
X773076D01*
X771410D01*
Y293997D01*
X769744Y292331D01*
X751500Y317750D02*
Y327747D01*
X756498D01*
X758165Y326081D01*
Y322748D01*
X756498Y321082D01*
X751500D01*
X754832D02*
X758165Y317750D01*
X768161D02*
X761497D01*
X768161Y324414D01*
Y326081D01*
X766495Y327747D01*
X763163D01*
X761497Y326081D01*
X771494Y319416D02*
X773160Y317750D01*
X776492D01*
X778158Y319416D01*
Y326081D01*
X776492Y327747D01*
X773160D01*
X771494Y326081D01*
Y324414D01*
X773160Y322748D01*
X778158D01*
X833750Y780250D02*
Y790247D01*
X838748D01*
X840415Y788581D01*
Y785248D01*
X838748Y783582D01*
X833750D01*
X837082D02*
X840415Y780250D01*
X850411D02*
X843747D01*
X850411Y786915D01*
Y788581D01*
X848745Y790247D01*
X845413D01*
X843747Y788581D01*
X860408Y790247D02*
X853744D01*
Y785248D01*
X857076Y786915D01*
X858742D01*
X860408Y785248D01*
Y781916D01*
X858742Y780250D01*
X855410D01*
X853744Y781916D01*
X737750Y781000D02*
Y790997D01*
X742748D01*
X744415Y789331D01*
Y785998D01*
X742748Y784332D01*
X737750D01*
X741082D02*
X744415Y781000D01*
X754411D02*
X747747D01*
X754411Y787664D01*
Y789331D01*
X752745Y790997D01*
X749413D01*
X747747Y789331D01*
X762742Y781000D02*
Y790997D01*
X757744Y785998D01*
X764408D01*
X836750Y708750D02*
Y718747D01*
X841748D01*
X843415Y717081D01*
Y713748D01*
X841748Y712082D01*
X836750D01*
X840082D02*
X843415Y708750D01*
X853411D02*
X846747D01*
X853411Y715415D01*
Y717081D01*
X851745Y718747D01*
X848413D01*
X846747Y717081D01*
X856743Y708750D02*
X860076D01*
X858410D01*
Y718747D01*
X856743Y717081D01*
X931250Y781250D02*
Y791247D01*
X936248D01*
X937915Y789581D01*
Y786248D01*
X936248Y784582D01*
X931250D01*
X934582D02*
X937915Y781250D01*
X947911D02*
X941247D01*
X947911Y787915D01*
Y789581D01*
X946245Y791247D01*
X942913D01*
X941247Y789581D01*
X951244D02*
X952910Y791247D01*
X956242D01*
X957908Y789581D01*
Y782916D01*
X956242Y781250D01*
X952910D01*
X951244Y782916D01*
Y789581D01*
X863000Y629500D02*
Y639497D01*
X867998D01*
X869665Y637831D01*
Y634498D01*
X867998Y632832D01*
X863000D01*
X866332D02*
X869665Y629500D01*
X872997D02*
X876329D01*
X874663D01*
Y639497D01*
X872997Y637831D01*
X881327Y631166D02*
X882993Y629500D01*
X886326D01*
X887992Y631166D01*
Y637831D01*
X886326Y639497D01*
X882993D01*
X881327Y637831D01*
Y636165D01*
X882993Y634498D01*
X887992D01*
X773250Y630000D02*
Y639997D01*
X778248D01*
X779914Y638331D01*
Y634998D01*
X778248Y633332D01*
X773250D01*
X776582D02*
X779914Y630000D01*
X783247D02*
X786579D01*
X784913D01*
Y639997D01*
X783247Y638331D01*
X791577D02*
X793243Y639997D01*
X796576D01*
X798242Y638331D01*
Y636665D01*
X796576Y634998D01*
X798242Y633332D01*
Y631666D01*
X796576Y630000D01*
X793243D01*
X791577Y631666D01*
Y633332D01*
X793243Y634998D01*
X791577Y636665D01*
Y638331D01*
X793243Y634998D02*
X796576D01*
X924500Y629000D02*
Y638997D01*
X929498D01*
X931164Y637331D01*
Y633998D01*
X929498Y632332D01*
X924500D01*
X927832D02*
X931164Y629000D01*
X934497D02*
X937829D01*
X936163D01*
Y638997D01*
X934497Y637331D01*
X942827Y638997D02*
X949492D01*
Y637331D01*
X942827Y630666D01*
Y629000D01*
X772500Y564000D02*
Y573997D01*
X777498D01*
X779165Y572331D01*
Y568998D01*
X777498Y567332D01*
X772500D01*
X775832D02*
X779165Y564000D01*
X782497D02*
X785829D01*
X784163D01*
Y573997D01*
X782497Y572331D01*
X797492Y573997D02*
X794160Y572331D01*
X790827Y568998D01*
Y565666D01*
X792494Y564000D01*
X795826D01*
X797492Y565666D01*
Y567332D01*
X795826Y568998D01*
X790827D01*
X962750Y560500D02*
Y570497D01*
X967748D01*
X969415Y568831D01*
Y565498D01*
X967748Y563832D01*
X962750D01*
X966082D02*
X969415Y560500D01*
X972747D02*
X976079D01*
X974413D01*
Y570497D01*
X972747Y568831D01*
X986076Y560500D02*
Y570497D01*
X981077Y565498D01*
X987742D01*
X904914Y301666D02*
Y308331D01*
X903248Y309997D01*
X899916D01*
X898250Y308331D01*
Y301666D01*
X899916Y300000D01*
X903248D01*
X901582Y303332D02*
X904914Y300000D01*
X903248D02*
X904914Y301666D01*
X914911Y309997D02*
X908247D01*
Y304998D01*
X911579Y306665D01*
X913245D01*
X914911Y304998D01*
Y301666D01*
X913245Y300000D01*
X909913D01*
X908247Y301666D01*
X923242Y300000D02*
Y309997D01*
X918244Y304998D01*
X924908D01*
X925915Y357416D02*
Y364081D01*
X924248Y365747D01*
X920916D01*
X919250Y364081D01*
Y357416D01*
X920916Y355750D01*
X924248D01*
X922582Y359082D02*
X925915Y355750D01*
X924248D02*
X925915Y357416D01*
X935911Y365747D02*
X929247D01*
Y360748D01*
X932579Y362415D01*
X934245D01*
X935911Y360748D01*
Y357416D01*
X934245Y355750D01*
X930913D01*
X929247Y357416D01*
X939243Y364081D02*
X940910Y365747D01*
X944242D01*
X945908Y364081D01*
Y362415D01*
X944242Y360748D01*
X942576D01*
X944242D01*
X945908Y359082D01*
Y357416D01*
X944242Y355750D01*
X940910D01*
X939243Y357416D01*
X579664Y308916D02*
Y315581D01*
X577998Y317247D01*
X574666D01*
X573000Y315581D01*
Y308916D01*
X574666Y307250D01*
X577998D01*
X576332Y310582D02*
X579664Y307250D01*
X577998D02*
X579664Y308916D01*
X589661Y307250D02*
X582997D01*
X589661Y313915D01*
Y315581D01*
X587995Y317247D01*
X584663D01*
X582997Y315581D01*
X592994Y307250D02*
X596326D01*
X594660D01*
Y317247D01*
X592994Y315581D01*
X853000Y269247D02*
Y259250D01*
X857998D01*
X859665Y260916D01*
Y267581D01*
X857998Y269247D01*
X853000D01*
X862997D02*
X869661D01*
Y267581D01*
X862997Y260916D01*
Y259250D01*
X872994Y267581D02*
X874660Y269247D01*
X877992D01*
X879658Y267581D01*
Y265914D01*
X877992Y264248D01*
X876326D01*
X877992D01*
X879658Y262582D01*
Y260916D01*
X877992Y259250D01*
X874660D01*
X872994Y260916D01*
X977500Y358997D02*
Y349000D01*
X982498D01*
X984165Y350666D01*
Y357331D01*
X982498Y358997D01*
X977500D01*
X987497D02*
X994161D01*
Y357331D01*
X987497Y350666D01*
Y349000D01*
X1004158D02*
X997494D01*
X1004158Y355664D01*
Y357331D01*
X1002492Y358997D01*
X999160D01*
X997494Y357331D01*
X717207Y329658D02*
Y319661D01*
X722206D01*
X723872Y321327D01*
Y327992D01*
X722206Y329658D01*
X717207D01*
X727204Y327992D02*
X728870Y329658D01*
X732202D01*
X733868Y327992D01*
Y326325D01*
X732202Y324659D01*
X730536D01*
X732202D01*
X733868Y322993D01*
Y321327D01*
X732202Y319661D01*
X728870D01*
X727204Y321327D01*
X737201Y329658D02*
X743865D01*
Y327992D01*
X737201Y321327D01*
Y319661D01*
X704750Y718747D02*
Y708750D01*
X709748D01*
X711414Y710416D01*
Y717081D01*
X709748Y718747D01*
X704750D01*
X714747Y717081D02*
X716413Y718747D01*
X719745D01*
X721411Y717081D01*
Y715415D01*
X719745Y713748D01*
X718079D01*
X719745D01*
X721411Y712082D01*
Y710416D01*
X719745Y708750D01*
X716413D01*
X714747Y710416D01*
X724744Y717081D02*
X726410Y718747D01*
X729742D01*
X731408Y717081D01*
Y715415D01*
X729742Y713748D01*
X728076D01*
X729742D01*
X731408Y712082D01*
Y710416D01*
X729742Y708750D01*
X726410D01*
X724744Y710416D01*
X704500Y791247D02*
Y781250D01*
X709498D01*
X711164Y782916D01*
Y789581D01*
X709498Y791247D01*
X704500D01*
X714497Y789581D02*
X716163Y791247D01*
X719495D01*
X721161Y789581D01*
Y787915D01*
X719495Y786248D01*
X717829D01*
X719495D01*
X721161Y784582D01*
Y782916D01*
X719495Y781250D01*
X716163D01*
X714497Y782916D01*
X731158Y781250D02*
X724493D01*
X731158Y787915D01*
Y789581D01*
X729492Y791247D01*
X726160D01*
X724493Y789581D01*
X804250Y790497D02*
Y780500D01*
X809248D01*
X810915Y782166D01*
Y788831D01*
X809248Y790497D01*
X804250D01*
X814247Y788831D02*
X815913Y790497D01*
X819245D01*
X820911Y788831D01*
Y787165D01*
X819245Y785498D01*
X817579D01*
X819245D01*
X820911Y783832D01*
Y782166D01*
X819245Y780500D01*
X815913D01*
X814247Y782166D01*
X824244Y780500D02*
X827576D01*
X825910D01*
Y790497D01*
X824244Y788831D01*
X899250Y790747D02*
Y780750D01*
X904248D01*
X905915Y782416D01*
Y789081D01*
X904248Y790747D01*
X899250D01*
X909247Y789081D02*
X910913Y790747D01*
X914245D01*
X915911Y789081D01*
Y787414D01*
X914245Y785748D01*
X912579D01*
X914245D01*
X915911Y784082D01*
Y782416D01*
X914245Y780750D01*
X910913D01*
X909247Y782416D01*
X919244Y789081D02*
X920910Y790747D01*
X924242D01*
X925908Y789081D01*
Y782416D01*
X924242Y780750D01*
X920910D01*
X919244Y782416D01*
Y789081D01*
X804500Y718747D02*
Y708750D01*
X809498D01*
X811164Y710416D01*
Y717081D01*
X809498Y718747D01*
X804500D01*
X821161Y708750D02*
X814497D01*
X821161Y715415D01*
Y717081D01*
X819495Y718747D01*
X816163D01*
X814497Y717081D01*
X824494Y710416D02*
X826160Y708750D01*
X829492D01*
X831158Y710416D01*
Y717081D01*
X829492Y718747D01*
X826160D01*
X824494Y717081D01*
Y715415D01*
X826160Y713748D01*
X831158D01*
X892250Y718997D02*
Y709000D01*
X897248D01*
X898914Y710666D01*
Y717331D01*
X897248Y718997D01*
X892250D01*
X908911Y709000D02*
X902247D01*
X908911Y715665D01*
Y717331D01*
X907245Y718997D01*
X903913D01*
X902247Y717331D01*
X912244D02*
X913910Y718997D01*
X917242D01*
X918908Y717331D01*
Y715665D01*
X917242Y713998D01*
X918908Y712332D01*
Y710666D01*
X917242Y709000D01*
X913910D01*
X912244Y710666D01*
Y712332D01*
X913910Y713998D01*
X912244Y715665D01*
Y717331D01*
X913910Y713998D02*
X917242D01*
X737750Y639997D02*
Y630000D01*
X742748D01*
X744415Y631666D01*
Y638331D01*
X742748Y639997D01*
X737750D01*
X754411Y630000D02*
X747747D01*
X754411Y636665D01*
Y638331D01*
X752745Y639997D01*
X749413D01*
X747747Y638331D01*
X757744Y639997D02*
X764408D01*
Y638331D01*
X757744Y631666D01*
Y630000D01*
X830750Y639247D02*
Y629250D01*
X835748D01*
X837414Y630916D01*
Y637581D01*
X835748Y639247D01*
X830750D01*
X847411Y629250D02*
X840747D01*
X847411Y635914D01*
Y637581D01*
X845745Y639247D01*
X842413D01*
X840747Y637581D01*
X857408Y639247D02*
X854076Y637581D01*
X850744Y634248D01*
Y630916D01*
X852410Y629250D01*
X855742D01*
X857408Y630916D01*
Y632582D01*
X855742Y634248D01*
X850744D01*
X1064000Y567747D02*
Y557750D01*
X1068998D01*
X1070665Y559416D01*
Y566081D01*
X1068998Y567747D01*
X1064000D01*
X1080661Y557750D02*
X1073997D01*
X1080661Y564414D01*
Y566081D01*
X1078995Y567747D01*
X1075663D01*
X1073997Y566081D01*
X1090658Y567747D02*
X1083994D01*
Y562748D01*
X1087326Y564414D01*
X1088992D01*
X1090658Y562748D01*
Y559416D01*
X1088992Y557750D01*
X1085660D01*
X1083994Y559416D01*
X739250Y574247D02*
Y564250D01*
X744248D01*
X745915Y565916D01*
Y572581D01*
X744248Y574247D01*
X739250D01*
X755911Y564250D02*
X749247D01*
X755911Y570914D01*
Y572581D01*
X754245Y574247D01*
X750913D01*
X749247Y572581D01*
X764242Y564250D02*
Y574247D01*
X759244Y569248D01*
X765908D01*
X831750Y571997D02*
Y562000D01*
X836748D01*
X838415Y563666D01*
Y570331D01*
X836748Y571997D01*
X831750D01*
X848411Y562000D02*
X841747D01*
X848411Y568665D01*
Y570331D01*
X846745Y571997D01*
X843413D01*
X841747Y570331D01*
X851744D02*
X853410Y571997D01*
X856742D01*
X858408Y570331D01*
Y568665D01*
X856742Y566998D01*
X855076D01*
X856742D01*
X858408Y565332D01*
Y563666D01*
X856742Y562000D01*
X853410D01*
X851744Y563666D01*
X931000Y570497D02*
Y560500D01*
X935998D01*
X937664Y562166D01*
Y568831D01*
X935998Y570497D01*
X931000D01*
X947661Y560500D02*
X940997D01*
X947661Y567164D01*
Y568831D01*
X945995Y570497D01*
X942663D01*
X940997Y568831D01*
X957658Y560500D02*
X950994D01*
X957658Y567164D01*
Y568831D01*
X955992Y570497D01*
X952660D01*
X950994Y568831D01*
X1063750Y540497D02*
Y530500D01*
X1068748D01*
X1070415Y532166D01*
Y538831D01*
X1068748Y540497D01*
X1063750D01*
X1080411Y530500D02*
X1073747D01*
X1080411Y537164D01*
Y538831D01*
X1078745Y540497D01*
X1075413D01*
X1073747Y538831D01*
X1083744Y530500D02*
X1087076D01*
X1085410D01*
Y540497D01*
X1083744Y538831D01*
X741250Y484747D02*
Y474750D01*
X746248D01*
X747915Y476416D01*
Y483081D01*
X746248Y484747D01*
X741250D01*
X757911Y474750D02*
X751247D01*
X757911Y481414D01*
Y483081D01*
X756245Y484747D01*
X752913D01*
X751247Y483081D01*
X761244D02*
X762910Y484747D01*
X766242D01*
X767908Y483081D01*
Y476416D01*
X766242Y474750D01*
X762910D01*
X761244Y476416D01*
Y483081D01*
X1129500Y446247D02*
Y444581D01*
X1132832Y441248D01*
X1136164Y444581D01*
Y446247D01*
X1132832Y441248D02*
Y436250D01*
X1139497D02*
X1142829D01*
X1141163D01*
Y446247D01*
X1139497Y444581D01*
X734500Y404497D02*
Y396166D01*
X736166Y394500D01*
X739498D01*
X741164Y396166D01*
Y404497D01*
X744497Y394500D02*
X747829D01*
X746163D01*
Y404497D01*
X744497Y402831D01*
X752827D02*
X754494Y404497D01*
X757826D01*
X759492Y402831D01*
Y401165D01*
X757826Y399498D01*
X756160D01*
X757826D01*
X759492Y397832D01*
Y396166D01*
X757826Y394500D01*
X754494D01*
X752827Y396166D01*
X977250Y337247D02*
Y328916D01*
X978916Y327250D01*
X982248D01*
X983914Y328916D01*
Y337247D01*
X992245Y327250D02*
Y337247D01*
X987247Y332248D01*
X993911D01*
X1112250Y506497D02*
Y498166D01*
X1113916Y496500D01*
X1117248D01*
X1118914Y498166D01*
Y506497D01*
X1122247Y504831D02*
X1123913Y506497D01*
X1127245D01*
X1128911Y504831D01*
Y503164D01*
X1127245Y501498D01*
X1125579D01*
X1127245D01*
X1128911Y499832D01*
Y498166D01*
X1127245Y496500D01*
X1123913D01*
X1122247Y498166D01*
X1140750Y330497D02*
Y322166D01*
X1142416Y320500D01*
X1145748D01*
X1147414Y322166D01*
Y330497D01*
X1157411Y320500D02*
X1150747D01*
X1157411Y327164D01*
Y328831D01*
X1155745Y330497D01*
X1152413D01*
X1150747Y328831D01*
X1079250Y488497D02*
Y480166D01*
X1080916Y478500D01*
X1084248D01*
X1085915Y480166D01*
Y488497D01*
X1089247Y478500D02*
X1092579D01*
X1090913D01*
Y488497D01*
X1089247Y486831D01*
X738000Y707250D02*
Y717247D01*
X742998D01*
X744665Y715581D01*
Y712248D01*
X742998Y710582D01*
X738000D01*
X741332D02*
X744665Y707250D01*
X754661D02*
X747997D01*
X754661Y713914D01*
Y715581D01*
X752995Y717247D01*
X749663D01*
X747997Y715581D01*
X757994D02*
X759660Y717247D01*
X762992D01*
X764658Y715581D01*
Y713914D01*
X762992Y712248D01*
X761326D01*
X762992D01*
X764658Y710582D01*
Y708916D01*
X762992Y707250D01*
X759660D01*
X757994Y708916D01*
X927750Y708750D02*
Y718747D01*
X932748D01*
X934415Y717081D01*
Y713748D01*
X932748Y712082D01*
X927750D01*
X931082D02*
X934415Y708750D01*
X944411D02*
X937747D01*
X944411Y715415D01*
Y717081D01*
X942745Y718747D01*
X939413D01*
X937747Y717081D01*
X954408Y708750D02*
X947744D01*
X954408Y715415D01*
Y717081D01*
X952742Y718747D01*
X949410D01*
X947744Y717081D01*
X920750Y371000D02*
Y380997D01*
X925748D01*
X927414Y379331D01*
Y375998D01*
X925748Y374332D01*
X920750D01*
X924082D02*
X927414Y371000D01*
X930747Y379331D02*
X932413Y380997D01*
X935745D01*
X937411Y379331D01*
Y377664D01*
X935745Y375998D01*
X934079D01*
X935745D01*
X937411Y374332D01*
Y372666D01*
X935745Y371000D01*
X932413D01*
X930747Y372666D01*
X940744Y379331D02*
X942410Y380997D01*
X945742D01*
X947408Y379331D01*
Y377664D01*
X945742Y375998D01*
X944076D01*
X945742D01*
X947408Y374332D01*
Y372666D01*
X945742Y371000D01*
X942410D01*
X940744Y372666D01*
X608500Y284500D02*
Y294497D01*
X613498D01*
X615164Y292831D01*
Y289498D01*
X613498Y287832D01*
X608500D01*
X611832D02*
X615164Y284500D01*
X618497Y292831D02*
X620163Y294497D01*
X623495D01*
X625161Y292831D01*
Y291164D01*
X623495Y289498D01*
X621829D01*
X623495D01*
X625161Y287832D01*
Y286166D01*
X623495Y284500D01*
X620163D01*
X618497Y286166D01*
X635158Y284500D02*
X628494D01*
X635158Y291164D01*
Y292831D01*
X633492Y294497D01*
X630160D01*
X628494Y292831D01*
X867500Y560500D02*
Y570497D01*
X872498D01*
X874165Y568831D01*
Y565498D01*
X872498Y563832D01*
X867500D01*
X870832D02*
X874165Y560500D01*
X877497D02*
X880829D01*
X879163D01*
Y570497D01*
X877497Y568831D01*
X892492Y570497D02*
X885827D01*
Y565498D01*
X889160Y567164D01*
X890826D01*
X892492Y565498D01*
Y562166D01*
X890826Y560500D01*
X887494D01*
X885827Y562166D01*
X350250Y289250D02*
Y299247D01*
X355248D01*
X356914Y297581D01*
Y294248D01*
X355248Y292582D01*
X350250D01*
X353582D02*
X356914Y289250D01*
X360247Y297581D02*
X361913Y299247D01*
X365245D01*
X366911Y297581D01*
Y295914D01*
X365245Y294248D01*
X363579D01*
X365245D01*
X366911Y292582D01*
Y290916D01*
X365245Y289250D01*
X361913D01*
X360247Y290916D01*
X370244Y297581D02*
X371910Y299247D01*
X375242D01*
X376908Y297581D01*
Y290916D01*
X375242Y289250D01*
X371910D01*
X370244Y290916D01*
Y297581D01*
X1030750Y331250D02*
Y341247D01*
X1035748D01*
X1037414Y339581D01*
Y336248D01*
X1035748Y334582D01*
X1030750D01*
X1034082D02*
X1037414Y331250D01*
X1040747D02*
X1044079D01*
X1042413D01*
Y341247D01*
X1040747Y339581D01*
X1055742Y331250D02*
X1049077D01*
X1055742Y337915D01*
Y339581D01*
X1054076Y341247D01*
X1050743D01*
X1049077Y339581D01*
X1035000Y311500D02*
Y321497D01*
X1039998D01*
X1041665Y319831D01*
Y316498D01*
X1039998Y314832D01*
X1035000D01*
X1038332D02*
X1041665Y311500D01*
X1044997D02*
X1048329D01*
X1046663D01*
Y321497D01*
X1044997Y319831D01*
X1053327Y311500D02*
X1056660D01*
X1054994D01*
Y321497D01*
X1053327Y319831D01*
X1099500Y434000D02*
Y441997D01*
X1103499D01*
X1104832Y440664D01*
Y437999D01*
X1103499Y436666D01*
X1099500D01*
X1102166D02*
X1104832Y434000D01*
X1111496D02*
Y441997D01*
X1107497Y437999D01*
X1112829D01*
X1178500Y675000D02*
Y684997D01*
X1183498D01*
X1185164Y683331D01*
Y679998D01*
X1183498Y678332D01*
X1178500D01*
X1181832D02*
X1185164Y675000D01*
X1195161D02*
X1188497D01*
X1195161Y681665D01*
Y683331D01*
X1193495Y684997D01*
X1190163D01*
X1188497Y683331D01*
X1180750Y709000D02*
Y718997D01*
X1185748D01*
X1187414Y717331D01*
Y713998D01*
X1185748Y712332D01*
X1180750D01*
X1184082D02*
X1187414Y709000D01*
X1190747D02*
X1194079D01*
X1192413D01*
Y718997D01*
X1190747Y717331D01*
X797165Y312166D02*
Y318831D01*
X795498Y320497D01*
X792166D01*
X790500Y318831D01*
Y312166D01*
X792166Y310500D01*
X795498D01*
X793832Y313832D02*
X797165Y310500D01*
X795498D02*
X797165Y312166D01*
X807161Y310500D02*
X800497D01*
X807161Y317164D01*
Y318831D01*
X805495Y320497D01*
X802163D01*
X800497Y318831D01*
X810494D02*
X812160Y320497D01*
X815492D01*
X817158Y318831D01*
Y312166D01*
X815492Y310500D01*
X812160D01*
X810494Y312166D01*
Y318831D01*
X355415Y348916D02*
Y355581D01*
X353748Y357247D01*
X350416D01*
X348750Y355581D01*
Y348916D01*
X350416Y347250D01*
X353748D01*
X352082Y350582D02*
X355415Y347250D01*
X353748D02*
X355415Y348916D01*
X358747Y347250D02*
X362079D01*
X360413D01*
Y357247D01*
X358747Y355581D01*
X367077Y348916D02*
X368744Y347250D01*
X372076D01*
X373742Y348916D01*
Y355581D01*
X372076Y357247D01*
X368744D01*
X367077Y355581D01*
Y353914D01*
X368744Y352248D01*
X373742D01*
X692414Y310416D02*
Y317081D01*
X690748Y318747D01*
X687416D01*
X685750Y317081D01*
Y310416D01*
X687416Y308750D01*
X690748D01*
X689082Y312082D02*
X692414Y308750D01*
X690748D02*
X692414Y310416D01*
X695747Y308750D02*
X699079D01*
X697413D01*
Y318747D01*
X695747Y317081D01*
X704077D02*
X705743Y318747D01*
X709076D01*
X710742Y317081D01*
Y315415D01*
X709076Y313748D01*
X710742Y312082D01*
Y310416D01*
X709076Y308750D01*
X705743D01*
X704077Y310416D01*
Y312082D01*
X705743Y313748D01*
X704077Y315415D01*
Y317081D01*
X705743Y313748D02*
X709076D01*
X674415Y710916D02*
Y717581D01*
X672748Y719247D01*
X669416D01*
X667750Y717581D01*
Y710916D01*
X669416Y709250D01*
X672748D01*
X671082Y712582D02*
X674415Y709250D01*
X672748D02*
X674415Y710916D01*
X677747Y709250D02*
X681079D01*
X679413D01*
Y719247D01*
X677747Y717581D01*
X691076Y709250D02*
Y719247D01*
X686077Y714248D01*
X692742D01*
X674665Y782416D02*
Y789081D01*
X672998Y790747D01*
X669666D01*
X668000Y789081D01*
Y782416D01*
X669666Y780750D01*
X672998D01*
X671332Y784082D02*
X674665Y780750D01*
X672998D02*
X674665Y782416D01*
X677997Y780750D02*
X681329D01*
X679663D01*
Y790747D01*
X677997Y789081D01*
X686327D02*
X687994Y790747D01*
X691326D01*
X692992Y789081D01*
Y787414D01*
X691326Y785748D01*
X689660D01*
X691326D01*
X692992Y784082D01*
Y782416D01*
X691326Y780750D01*
X687994D01*
X686327Y782416D01*
X778165D02*
Y789081D01*
X776498Y790747D01*
X773166D01*
X771500Y789081D01*
Y782416D01*
X773166Y780750D01*
X776498D01*
X774832Y784082D02*
X778165Y780750D01*
X776498D02*
X778165Y782416D01*
X781497Y780750D02*
X784829D01*
X783163D01*
Y790747D01*
X781497Y789081D01*
X796492Y780750D02*
X789827D01*
X796492Y787414D01*
Y789081D01*
X794826Y790747D01*
X791494D01*
X789827Y789081D01*
X873914Y782166D02*
Y788831D01*
X872248Y790497D01*
X868916D01*
X867250Y788831D01*
Y782166D01*
X868916Y780500D01*
X872248D01*
X870582Y783832D02*
X873914Y780500D01*
X872248D02*
X873914Y782166D01*
X877247Y780500D02*
X880579D01*
X878913D01*
Y790497D01*
X877247Y788831D01*
X885577Y780500D02*
X888910D01*
X887244D01*
Y790497D01*
X885577Y788831D01*
X779665Y710916D02*
Y717581D01*
X777998Y719247D01*
X774666D01*
X773000Y717581D01*
Y710916D01*
X774666Y709250D01*
X777998D01*
X776332Y712582D02*
X779665Y709250D01*
X777998D02*
X779665Y710916D01*
X782997Y709250D02*
X786329D01*
X784663D01*
Y719247D01*
X782997Y717581D01*
X791327D02*
X792994Y719247D01*
X796326D01*
X797992Y717581D01*
Y710916D01*
X796326Y709250D01*
X792994D01*
X791327Y710916D01*
Y717581D01*
X874914Y710666D02*
Y717331D01*
X873248Y718997D01*
X869916D01*
X868250Y717331D01*
Y710666D01*
X869916Y709000D01*
X873248D01*
X871582Y712332D02*
X874914Y709000D01*
X873248D02*
X874914Y710666D01*
X878247D02*
X879913Y709000D01*
X883245D01*
X884911Y710666D01*
Y717331D01*
X883245Y718997D01*
X879913D01*
X878247Y717331D01*
Y715665D01*
X879913Y713998D01*
X884911D01*
X715915Y631416D02*
Y638081D01*
X714248Y639747D01*
X710916D01*
X709250Y638081D01*
Y631416D01*
X710916Y629750D01*
X714248D01*
X712582Y633082D02*
X715915Y629750D01*
X714248D02*
X715915Y631416D01*
X719247Y638081D02*
X720913Y639747D01*
X724245D01*
X725911Y638081D01*
Y636414D01*
X724245Y634748D01*
X725911Y633082D01*
Y631416D01*
X724245Y629750D01*
X720913D01*
X719247Y631416D01*
Y633082D01*
X720913Y634748D01*
X719247Y636414D01*
Y638081D01*
X720913Y634748D02*
X724245D01*
X903914Y630916D02*
Y637581D01*
X902248Y639247D01*
X898916D01*
X897250Y637581D01*
Y630916D01*
X898916Y629250D01*
X902248D01*
X900582Y632582D02*
X903914Y629250D01*
X902248D02*
X903914Y630916D01*
X913911Y639247D02*
X910579Y637581D01*
X907247Y634248D01*
Y630916D01*
X908913Y629250D01*
X912245D01*
X913911Y630916D01*
Y632582D01*
X912245Y634248D01*
X907247D01*
X715415Y565666D02*
Y572331D01*
X713748Y573997D01*
X710416D01*
X708750Y572331D01*
Y565666D01*
X710416Y564000D01*
X713748D01*
X712082Y567332D02*
X715415Y564000D01*
X713748D02*
X715415Y565666D01*
X725411Y573997D02*
X718747D01*
Y568998D01*
X722079Y570664D01*
X723745D01*
X725411Y568998D01*
Y565666D01*
X723745Y564000D01*
X720413D01*
X718747Y565666D01*
X813914Y563916D02*
Y570581D01*
X812248Y572247D01*
X808916D01*
X807250Y570581D01*
Y563916D01*
X808916Y562250D01*
X812248D01*
X810582Y565582D02*
X813914Y562250D01*
X812248D02*
X813914Y563916D01*
X822245Y562250D02*
Y572247D01*
X817247Y567248D01*
X823911D01*
X908664Y562166D02*
Y568831D01*
X906998Y570497D01*
X903666D01*
X902000Y568831D01*
Y562166D01*
X903666Y560500D01*
X906998D01*
X905332Y563832D02*
X908664Y560500D01*
X906998D02*
X908664Y562166D01*
X911997Y568831D02*
X913663Y570497D01*
X916995D01*
X918661Y568831D01*
Y567164D01*
X916995Y565498D01*
X915329D01*
X916995D01*
X918661Y563832D01*
Y562166D01*
X916995Y560500D01*
X913663D01*
X911997Y562166D01*
X1002664D02*
Y568831D01*
X1000998Y570497D01*
X997666D01*
X996000Y568831D01*
Y562166D01*
X997666Y560500D01*
X1000998D01*
X999332Y563832D02*
X1002664Y560500D01*
X1000998D02*
X1002664Y562166D01*
X1012661Y560500D02*
X1005997D01*
X1012661Y567164D01*
Y568831D01*
X1010995Y570497D01*
X1007663D01*
X1005997Y568831D01*
X723914Y476916D02*
Y483581D01*
X722248Y485247D01*
X718916D01*
X717250Y483581D01*
Y476916D01*
X718916Y475250D01*
X722248D01*
X720582Y478582D02*
X723914Y475250D01*
X722248D02*
X723914Y476916D01*
X727247Y475250D02*
X730579D01*
X728913D01*
Y485247D01*
X727247Y483581D01*
X867750Y487495D02*
Y472500D01*
X875248D01*
X877747Y474999D01*
Y484996D01*
X875248Y487495D01*
X867750D01*
X892742D02*
X882745D01*
Y472500D01*
X892742D01*
X882745Y479998D02*
X887744D01*
X897740Y487495D02*
Y472500D01*
X905238D01*
X907737Y474999D01*
Y477498D01*
X905238Y479998D01*
X897740D01*
X905238D01*
X907737Y482497D01*
Y484996D01*
X905238Y487495D01*
X897740D01*
X912735D02*
Y474999D01*
X915235Y472500D01*
X920233D01*
X922732Y474999D01*
Y487495D01*
X937727Y484996D02*
X935228Y487495D01*
X930230D01*
X927731Y484996D01*
Y474999D01*
X930230Y472500D01*
X935228D01*
X937727Y474999D01*
Y479998D01*
X932729D01*
X830000Y380997D02*
Y371000D01*
X834998D01*
X836665Y372666D01*
Y379331D01*
X834998Y380997D01*
X830000D01*
X844995Y371000D02*
Y380997D01*
X839997Y375998D01*
X846661D01*
X849994Y371000D02*
X853326D01*
X851660D01*
Y380997D01*
X849994Y379331D01*
X643500Y322497D02*
Y312500D01*
X648498D01*
X650164Y314166D01*
Y320831D01*
X648498Y322497D01*
X643500D01*
X658495Y312500D02*
Y322497D01*
X653497Y317498D01*
X660161D01*
X663493Y320831D02*
X665160Y322497D01*
X668492D01*
X670158Y320831D01*
Y314166D01*
X668492Y312500D01*
X665160D01*
X663493Y314166D01*
Y320831D01*
X790000Y301497D02*
Y291500D01*
X794998D01*
X796665Y293166D01*
Y299831D01*
X794998Y301497D01*
X790000D01*
X799997Y299831D02*
X801663Y301497D01*
X804995D01*
X806661Y299831D01*
Y298165D01*
X804995Y296498D01*
X803329D01*
X804995D01*
X806661Y294832D01*
Y293166D01*
X804995Y291500D01*
X801663D01*
X799997Y293166D01*
X809994D02*
X811660Y291500D01*
X814992D01*
X816658Y293166D01*
Y299831D01*
X814992Y301497D01*
X811660D01*
X809994Y299831D01*
Y298165D01*
X811660Y296498D01*
X816658D01*
X392250Y332497D02*
Y322500D01*
X397248D01*
X398914Y324166D01*
Y330831D01*
X397248Y332497D01*
X392250D01*
X402247Y330831D02*
X403913Y332497D01*
X407245D01*
X408911Y330831D01*
Y329165D01*
X407245Y327498D01*
X405579D01*
X407245D01*
X408911Y325832D01*
Y324166D01*
X407245Y322500D01*
X403913D01*
X402247Y324166D01*
X412243Y330831D02*
X413910Y332497D01*
X417242D01*
X418908Y330831D01*
Y329165D01*
X417242Y327498D01*
X418908Y325832D01*
Y324166D01*
X417242Y322500D01*
X413910D01*
X412243Y324166D01*
Y325832D01*
X413910Y327498D01*
X412243Y329165D01*
Y330831D01*
X413910Y327498D02*
X417242D01*
X1201250Y651747D02*
Y641750D01*
X1206248D01*
X1207915Y643416D01*
Y650081D01*
X1206248Y651747D01*
X1201250D01*
X1217911D02*
X1211247D01*
Y646748D01*
X1214579Y648415D01*
X1216245D01*
X1217911Y646748D01*
Y643416D01*
X1216245Y641750D01*
X1212913D01*
X1211247Y643416D01*
X1201500Y683331D02*
X1203166Y684997D01*
X1206498D01*
X1208165Y683331D01*
Y681665D01*
X1206498Y679998D01*
X1204832D01*
X1206498D01*
X1208165Y678332D01*
Y676666D01*
X1206498Y675000D01*
X1203166D01*
X1201500Y676666D01*
X1211497Y675000D02*
Y676666D01*
X1213163D01*
Y675000D01*
X1211497D01*
X1219827Y683331D02*
X1221494Y684997D01*
X1224826D01*
X1226492Y683331D01*
Y681665D01*
X1224826Y679998D01*
X1223160D01*
X1224826D01*
X1226492Y678332D01*
Y676666D01*
X1224826Y675000D01*
X1221494D01*
X1219827Y676666D01*
X1229824Y684997D02*
Y678332D01*
X1233157Y675000D01*
X1236489Y678332D01*
Y684997D01*
X1239821D02*
Y675000D01*
X1244819D01*
X1246486Y676666D01*
Y683331D01*
X1244819Y684997D01*
X1239821D01*
X1201750Y717081D02*
X1203416Y718747D01*
X1206748D01*
X1208415Y717081D01*
Y715415D01*
X1206748Y713748D01*
X1205082D01*
X1206748D01*
X1208415Y712082D01*
Y710416D01*
X1206748Y708750D01*
X1203416D01*
X1201750Y710416D01*
X1211747Y708750D02*
Y710416D01*
X1213413D01*
Y708750D01*
X1211747D01*
X1220077Y717081D02*
X1221744Y718747D01*
X1225076D01*
X1226742Y717081D01*
Y715415D01*
X1225076Y713748D01*
X1223410D01*
X1225076D01*
X1226742Y712082D01*
Y710416D01*
X1225076Y708750D01*
X1221744D01*
X1220077Y710416D01*
X1230074Y718747D02*
Y712082D01*
X1233406Y708750D01*
X1236739Y712082D01*
Y718747D01*
X1240071Y708750D02*
Y715415D01*
X1243403Y718747D01*
X1246736Y715415D01*
Y708750D01*
Y713748D01*
X1240071D01*
X788664Y401581D02*
X786998Y403247D01*
X783666D01*
X782000Y401581D01*
Y394916D01*
X783666Y393250D01*
X786998D01*
X788664Y394916D01*
X798661Y393250D02*
X791997D01*
X798661Y399915D01*
Y401581D01*
X796995Y403247D01*
X793663D01*
X791997Y401581D01*
X808658Y393250D02*
X801994D01*
X808658Y399915D01*
Y401581D01*
X806992Y403247D01*
X803660D01*
X801994Y401581D01*
X584915Y788831D02*
X583248Y790497D01*
X579916D01*
X578250Y788831D01*
Y782166D01*
X579916Y780500D01*
X583248D01*
X584915Y782166D01*
X588247Y780500D02*
X591579D01*
X589913D01*
Y790497D01*
X588247Y788831D01*
X596577Y782166D02*
X598244Y780500D01*
X601576D01*
X603242Y782166D01*
Y788831D01*
X601576Y790497D01*
X598244D01*
X596577Y788831D01*
Y787165D01*
X598244Y785498D01*
X603242D01*
X1122750Y305500D02*
Y315497D01*
X1127748D01*
X1129415Y313831D01*
Y310498D01*
X1127748Y308832D01*
X1122750D01*
X1126082D02*
X1129415Y305500D01*
X1132747D02*
X1136079D01*
X1134413D01*
Y315497D01*
X1132747Y313831D01*
X1141077D02*
X1142744Y315497D01*
X1146076D01*
X1147742Y313831D01*
Y307166D01*
X1146076Y305500D01*
X1142744D01*
X1141077Y307166D01*
Y313831D01*
X1097250Y346750D02*
Y356747D01*
X1102248D01*
X1103914Y355081D01*
Y351748D01*
X1102248Y350082D01*
X1097250D01*
X1100582D02*
X1103914Y346750D01*
X1107247Y348416D02*
X1108913Y346750D01*
X1112245D01*
X1113911Y348416D01*
Y355081D01*
X1112245Y356747D01*
X1108913D01*
X1107247Y355081D01*
Y353414D01*
X1108913Y351748D01*
X1113911D01*
X1092500Y293000D02*
Y302997D01*
X1097498D01*
X1099165Y301331D01*
Y297998D01*
X1097498Y296332D01*
X1092500D01*
X1095832D02*
X1099165Y293000D01*
X1102497Y301331D02*
X1104163Y302997D01*
X1107495D01*
X1109161Y301331D01*
Y299664D01*
X1107495Y297998D01*
X1109161Y296332D01*
Y294666D01*
X1107495Y293000D01*
X1104163D01*
X1102497Y294666D01*
Y296332D01*
X1104163Y297998D01*
X1102497Y299664D01*
Y301331D01*
X1104163Y297998D02*
X1107495D01*
X1092500Y267250D02*
Y277247D01*
X1097498D01*
X1099165Y275581D01*
Y272248D01*
X1097498Y270582D01*
X1092500D01*
X1095832D02*
X1099165Y267250D01*
X1102497Y277247D02*
X1109161D01*
Y275581D01*
X1102497Y268916D01*
Y267250D01*
X1156000Y267750D02*
Y277747D01*
X1160998D01*
X1162665Y276081D01*
Y272748D01*
X1160998Y271082D01*
X1156000D01*
X1159332D02*
X1162665Y267750D01*
X1172661Y277747D02*
X1169329Y276081D01*
X1165997Y272748D01*
Y269416D01*
X1167663Y267750D01*
X1170995D01*
X1172661Y269416D01*
Y271082D01*
X1170995Y272748D01*
X1165997D01*
X1156000Y291750D02*
Y301747D01*
X1160998D01*
X1162665Y300081D01*
Y296748D01*
X1160998Y295082D01*
X1156000D01*
X1159332D02*
X1162665Y291750D01*
X1172661Y301747D02*
X1165997D01*
Y296748D01*
X1169329Y298414D01*
X1170995D01*
X1172661Y296748D01*
Y293416D01*
X1170995Y291750D01*
X1167663D01*
X1165997Y293416D01*
X960000Y580500D02*
Y595495D01*
X967498D01*
X969997Y592996D01*
Y587998D01*
X967498Y585498D01*
X960000D01*
X982493Y595495D02*
X977494D01*
X974995Y592996D01*
Y582999D01*
X977494Y580500D01*
X982493D01*
X984992Y582999D01*
Y592996D01*
X982493Y595495D01*
X989990D02*
Y580500D01*
X994989Y585498D01*
X999987Y580500D01*
Y595495D01*
X1014982D02*
X1004985D01*
Y580500D01*
X1014982D01*
X1004985Y587998D02*
X1009984D01*
X1019981Y580500D02*
Y595495D01*
X1027478D01*
X1029977Y592996D01*
Y587998D01*
X1027478Y585498D01*
X1019981D01*
X1024979D02*
X1029977Y580500D01*
X326000Y664750D02*
Y679745D01*
X330998Y674747D01*
X335997Y679745D01*
Y664750D01*
X340995Y679745D02*
X345993D01*
X343494D01*
Y664750D01*
X340995D01*
X345993D01*
X353491Y679745D02*
Y664750D01*
X360989D01*
X363488Y667249D01*
Y677246D01*
X360989Y679745D01*
X353491D01*
X368486D02*
Y664750D01*
X375984D01*
X378483Y667249D01*
Y677246D01*
X375984Y679745D01*
X368486D01*
X383481D02*
Y664750D01*
X393478D01*
X408473Y679745D02*
X398476D01*
Y664750D01*
X408473D01*
X398476Y672248D02*
X403475D01*
X1094750Y573250D02*
Y583247D01*
X1099748D01*
X1101414Y581581D01*
Y578248D01*
X1099748Y576582D01*
X1094750D01*
X1098082D02*
X1101414Y573250D01*
X1104747Y583247D02*
X1111411D01*
Y581581D01*
X1104747Y574916D01*
Y573250D01*
X1114744D02*
X1118076D01*
X1116410D01*
Y583247D01*
X1114744Y581581D01*
X1151750Y505000D02*
Y514997D01*
X1156748D01*
X1158415Y513331D01*
Y509998D01*
X1156748Y508332D01*
X1151750D01*
X1155082D02*
X1158415Y505000D01*
X1161747Y514997D02*
X1168411D01*
Y513331D01*
X1161747Y506666D01*
Y505000D01*
X1178408D02*
X1171743D01*
X1178408Y511665D01*
Y513331D01*
X1176742Y514997D01*
X1173410D01*
X1171743Y513331D01*
X1166750Y585497D02*
Y577166D01*
X1168416Y575500D01*
X1171748D01*
X1173415Y577166D01*
Y585497D01*
X1183411D02*
X1176747D01*
Y580498D01*
X1180079Y582164D01*
X1181745D01*
X1183411Y580498D01*
Y577166D01*
X1181745Y575500D01*
X1178413D01*
X1176747Y577166D01*
X866887Y373403D02*
Y380067D01*
X865221Y381734D01*
X861889D01*
X860223Y380067D01*
Y373403D01*
X861889Y371737D01*
X865221D01*
X863555Y375069D02*
X866887Y371737D01*
X865221D02*
X866887Y373403D01*
X876884Y371737D02*
X870219D01*
X876884Y378401D01*
Y380067D01*
X875218Y381734D01*
X871886D01*
X870219Y380067D01*
X886881Y371737D02*
X880216D01*
X886881Y378401D01*
Y380067D01*
X885215Y381734D01*
X881882D01*
X880216Y380067D01*
X812915Y631666D02*
Y638331D01*
X811248Y639997D01*
X807916D01*
X806250Y638331D01*
Y631666D01*
X807916Y630000D01*
X811248D01*
X809582Y633332D02*
X812915Y630000D01*
X811248D02*
X812915Y631666D01*
X816247Y639997D02*
X822911D01*
Y638331D01*
X816247Y631666D01*
Y630000D01*
D51*
X1160265Y387500D02*
X1175500D01*
Y395117D01*
X1172961Y397657D01*
X1170422D01*
X1167883Y395117D01*
Y387500D01*
Y395117D01*
X1165343Y397657D01*
X1162804D01*
X1160265Y395117D01*
Y387500D01*
Y402735D02*
X1172961D01*
X1175500Y405274D01*
Y410353D01*
X1172961Y412892D01*
X1160265D01*
Y417970D02*
Y428127D01*
Y423049D01*
X1175500D01*
X1160265Y433205D02*
Y443362D01*
Y438284D01*
X1175500D01*
X1160265Y456058D02*
Y450979D01*
X1162804Y448440D01*
X1172961D01*
X1175500Y450979D01*
Y456058D01*
X1172961Y458597D01*
X1162804D01*
X1160265Y456058D01*
X1175500Y463675D02*
X1160265D01*
X1175500Y473832D01*
X1160265D01*
X1162804Y489067D02*
X1160265Y486528D01*
Y481450D01*
X1162804Y478910D01*
X1165343D01*
X1167883Y481450D01*
Y486528D01*
X1170422Y489067D01*
X1172961D01*
X1175500Y486528D01*
Y481450D01*
X1172961Y478910D01*
%TF.MD5,6da32ae052d7c6af7d6b02cbb40833c0*%
M02*
