G04 Layer_Color=8421504*
%FSLAX44Y44*%
%MOMM*%
G71*
G01*
G75*
%ADD10R,1.6500X3.4300*%
%ADD11R,2.5400X1.2700*%
%ADD12R,0.9500X0.7500*%
%ADD13R,1.2600X0.3600*%
%ADD14R,1.6000X1.2000*%
%ADD15R,1.0000X0.6500*%
%ADD16R,0.8000X0.9500*%
%ADD17R,1.0000X0.6000*%
%ADD18R,2.8000X0.7500*%
%ADD19R,1.6500X3.4300*%
%ADD20R,1.2700X2.5400*%
%ADD21R,3.4300X1.6500*%
%ADD22R,0.7500X0.9500*%
%ADD23R,2.1500X1.4500*%
%ADD24R,0.9500X0.8000*%
%ADD25R,0.3000X1.2000*%
%ADD26R,1.2000X0.3000*%
%ADD27O,1.4000X0.9000*%
%ADD28R,0.6500X1.0000*%
%ADD29R,0.3600X1.2600*%
%ADD30R,1.2000X1.6000*%
%ADD31R,2.9200X1.2700*%
D10*
X495200Y292950D02*
D03*
Y640850D02*
D03*
X626950Y322950D02*
D03*
Y640850D02*
D03*
X307850Y646600D02*
D03*
Y358700D02*
D03*
D11*
X448200Y331900D02*
D03*
Y361900D02*
D03*
Y391900D02*
D03*
Y421900D02*
D03*
Y451900D02*
D03*
Y481900D02*
D03*
Y511900D02*
D03*
Y541900D02*
D03*
Y571900D02*
D03*
Y601900D02*
D03*
X542200Y331900D02*
D03*
Y361900D02*
D03*
Y391900D02*
D03*
Y421900D02*
D03*
Y451900D02*
D03*
Y481900D02*
D03*
Y511900D02*
D03*
Y541900D02*
D03*
Y571900D02*
D03*
Y601900D02*
D03*
X1224450Y483150D02*
D03*
Y453150D02*
D03*
Y423150D02*
D03*
Y393150D02*
D03*
X579950Y361900D02*
D03*
Y391900D02*
D03*
Y421900D02*
D03*
Y451900D02*
D03*
Y481900D02*
D03*
Y511900D02*
D03*
Y541900D02*
D03*
Y571900D02*
D03*
Y601900D02*
D03*
X673950Y361900D02*
D03*
Y391900D02*
D03*
Y421900D02*
D03*
Y451900D02*
D03*
Y481900D02*
D03*
Y511900D02*
D03*
Y541900D02*
D03*
Y571900D02*
D03*
Y601900D02*
D03*
D12*
X795250Y367000D02*
D03*
Y381500D02*
D03*
X591750Y753250D02*
D03*
Y767750D02*
D03*
D13*
X716000Y381500D02*
D03*
Y375000D02*
D03*
Y368500D02*
D03*
Y362000D02*
D03*
Y355500D02*
D03*
Y349000D02*
D03*
Y342500D02*
D03*
X774000Y381500D02*
D03*
Y375000D02*
D03*
Y368500D02*
D03*
Y362000D02*
D03*
Y355500D02*
D03*
Y349000D02*
D03*
Y342500D02*
D03*
X955250Y316250D02*
D03*
Y309750D02*
D03*
Y303250D02*
D03*
Y296750D02*
D03*
Y290250D02*
D03*
Y283750D02*
D03*
Y277250D02*
D03*
X1013250Y316250D02*
D03*
Y309750D02*
D03*
Y303250D02*
D03*
Y296750D02*
D03*
Y290250D02*
D03*
Y283750D02*
D03*
Y277250D02*
D03*
D14*
X403500Y307750D02*
D03*
Y278750D02*
D03*
X880000Y309750D02*
D03*
Y280750D02*
D03*
X961500Y368250D02*
D03*
Y339250D02*
D03*
X716500Y695000D02*
D03*
Y666000D02*
D03*
X721000Y767500D02*
D03*
Y738500D02*
D03*
X817500Y767500D02*
D03*
Y738500D02*
D03*
X917250Y769000D02*
D03*
Y740000D02*
D03*
X819750Y696500D02*
D03*
Y667500D02*
D03*
X906500Y696000D02*
D03*
Y667000D02*
D03*
X755250Y617250D02*
D03*
Y588250D02*
D03*
X847000Y616250D02*
D03*
Y587250D02*
D03*
X757500Y550750D02*
D03*
Y521750D02*
D03*
X849750Y548250D02*
D03*
Y519250D02*
D03*
X945500Y547500D02*
D03*
Y518500D02*
D03*
X759000Y461750D02*
D03*
Y432750D02*
D03*
X1045500Y547250D02*
D03*
Y518250D02*
D03*
X652500Y298500D02*
D03*
Y269500D02*
D03*
X841250Y356000D02*
D03*
Y327000D02*
D03*
X726750Y273250D02*
D03*
Y302250D02*
D03*
D15*
X799500Y608250D02*
D03*
X823500Y617250D02*
D03*
Y599250D02*
D03*
X865750Y353500D02*
D03*
Y335500D02*
D03*
X889750Y344500D02*
D03*
X903500Y288500D02*
D03*
Y270500D02*
D03*
X927500Y279500D02*
D03*
X939500Y333750D02*
D03*
X915500Y324750D02*
D03*
Y342750D02*
D03*
X852750Y290000D02*
D03*
Y308000D02*
D03*
X828750Y299000D02*
D03*
X692500Y678750D02*
D03*
Y696750D02*
D03*
X668500Y687750D02*
D03*
X671500Y759250D02*
D03*
X695500Y768250D02*
D03*
Y750250D02*
D03*
X793750Y749500D02*
D03*
Y767500D02*
D03*
X769750Y758500D02*
D03*
X869750Y759500D02*
D03*
X893750Y768500D02*
D03*
Y750500D02*
D03*
X797500Y679000D02*
D03*
Y697000D02*
D03*
X773500Y688000D02*
D03*
X860750Y687250D02*
D03*
X884750Y696250D02*
D03*
Y678250D02*
D03*
X731750Y599250D02*
D03*
Y617250D02*
D03*
X707750Y608250D02*
D03*
X917500Y599250D02*
D03*
Y617250D02*
D03*
X893500Y608250D02*
D03*
X707750Y542500D02*
D03*
X731750Y551500D02*
D03*
Y533500D02*
D03*
X827250Y531750D02*
D03*
Y549750D02*
D03*
X803250Y540750D02*
D03*
X898000Y539000D02*
D03*
X922000Y548000D02*
D03*
Y530000D02*
D03*
X1019750D02*
D03*
Y548000D02*
D03*
X995750Y539000D02*
D03*
X711250Y453500D02*
D03*
X735250Y462500D02*
D03*
Y444500D02*
D03*
D16*
X1144250Y588250D02*
D03*
X1130750D02*
D03*
X1133500Y527500D02*
D03*
X1147000D02*
D03*
X1145000Y294750D02*
D03*
X1131500D02*
D03*
X1145000Y276750D02*
D03*
X1131500D02*
D03*
X1081250Y276000D02*
D03*
X1067750D02*
D03*
X1081250Y295000D02*
D03*
X1067750D02*
D03*
X1112000Y335250D02*
D03*
X1098500D02*
D03*
X1112250Y317250D02*
D03*
X1098750D02*
D03*
X1081250Y316250D02*
D03*
X1067750D02*
D03*
X1080500Y335250D02*
D03*
X1067000D02*
D03*
X1181750Y697000D02*
D03*
X1195250D02*
D03*
X1181500Y663250D02*
D03*
X1195000D02*
D03*
X1203000Y571750D02*
D03*
X1189500D02*
D03*
X1203000Y590750D02*
D03*
X1189500D02*
D03*
Y553250D02*
D03*
X1203000D02*
D03*
X615000Y271750D02*
D03*
X628500D02*
D03*
X896250Y375750D02*
D03*
X909750D02*
D03*
X755000Y305750D02*
D03*
X768500D02*
D03*
Y272250D02*
D03*
X755000D02*
D03*
X370000Y277250D02*
D03*
X356500D02*
D03*
D17*
X1159250Y566250D02*
D03*
Y547250D02*
D03*
X1132250D02*
D03*
Y556750D02*
D03*
Y566250D02*
D03*
X1133000Y464500D02*
D03*
Y474000D02*
D03*
Y483500D02*
D03*
X1106000D02*
D03*
Y464500D02*
D03*
X1158500Y344500D02*
D03*
Y354000D02*
D03*
Y363500D02*
D03*
X1131500D02*
D03*
Y344500D02*
D03*
D18*
X885750Y454751D02*
D03*
Y442251D02*
D03*
Y429751D02*
D03*
Y417251D02*
D03*
Y404751D02*
D03*
X926750Y454751D02*
D03*
Y442251D02*
D03*
Y429751D02*
D03*
Y417251D02*
D03*
Y404751D02*
D03*
D19*
X1192450Y356800D02*
D03*
Y519500D02*
D03*
D20*
X485650Y749050D02*
D03*
X455650D02*
D03*
X425650D02*
D03*
X395650D02*
D03*
D21*
X359300Y781050D02*
D03*
X522000D02*
D03*
D22*
X1216500Y697000D02*
D03*
X1231000D02*
D03*
X1216250Y663250D02*
D03*
X1230750D02*
D03*
D23*
X1133500Y386250D02*
D03*
Y423250D02*
D03*
D24*
X1104000Y410750D02*
D03*
Y424250D02*
D03*
X747750Y697250D02*
D03*
Y683750D02*
D03*
X749500Y769750D02*
D03*
Y756250D02*
D03*
X841000Y768500D02*
D03*
Y755000D02*
D03*
X941750Y770000D02*
D03*
Y756500D02*
D03*
X843250Y684500D02*
D03*
Y698000D02*
D03*
X931500Y696500D02*
D03*
Y683000D02*
D03*
X780000Y619500D02*
D03*
Y606000D02*
D03*
X874250Y616500D02*
D03*
Y603000D02*
D03*
X936250Y620750D02*
D03*
Y607250D02*
D03*
X782750Y552250D02*
D03*
Y538750D02*
D03*
X876750Y548500D02*
D03*
Y535000D02*
D03*
X969000Y549500D02*
D03*
Y536000D02*
D03*
X785750Y464000D02*
D03*
Y450500D02*
D03*
X1097750Y548750D02*
D03*
Y535250D02*
D03*
D25*
X1057250Y371000D02*
D03*
X1052250D02*
D03*
X1047250D02*
D03*
X1042250D02*
D03*
X1037250D02*
D03*
X1032250D02*
D03*
X1027250D02*
D03*
X1022250D02*
D03*
X1017250D02*
D03*
X1012250D02*
D03*
X1007250D02*
D03*
X1002250D02*
D03*
X997250D02*
D03*
X992250D02*
D03*
X987250D02*
D03*
X982250D02*
D03*
Y485500D02*
D03*
X987250D02*
D03*
X992250D02*
D03*
X997250D02*
D03*
X1002250D02*
D03*
X1007250D02*
D03*
X1012250D02*
D03*
X1017250D02*
D03*
X1022250D02*
D03*
X1027250D02*
D03*
X1032250D02*
D03*
X1037250D02*
D03*
X1042250D02*
D03*
X1047250D02*
D03*
X1052250D02*
D03*
X1057250D02*
D03*
D26*
X962500Y390750D02*
D03*
Y395750D02*
D03*
Y400750D02*
D03*
Y405750D02*
D03*
Y410750D02*
D03*
Y415750D02*
D03*
Y420750D02*
D03*
Y425750D02*
D03*
Y430750D02*
D03*
Y435750D02*
D03*
Y440750D02*
D03*
Y445750D02*
D03*
Y450750D02*
D03*
Y455750D02*
D03*
Y460750D02*
D03*
Y465750D02*
D03*
X1077000D02*
D03*
Y460750D02*
D03*
Y455750D02*
D03*
Y450750D02*
D03*
Y445750D02*
D03*
Y440750D02*
D03*
Y435750D02*
D03*
Y430750D02*
D03*
Y425750D02*
D03*
Y420750D02*
D03*
Y415750D02*
D03*
Y410750D02*
D03*
Y405750D02*
D03*
Y400750D02*
D03*
Y395750D02*
D03*
Y390750D02*
D03*
D27*
X1196000Y628000D02*
D03*
Y613000D02*
D03*
X1219000Y628000D02*
D03*
Y613000D02*
D03*
D28*
X361250Y335250D02*
D03*
X370250Y311250D02*
D03*
X352250D02*
D03*
X681250Y276750D02*
D03*
X699250D02*
D03*
X690250Y300750D02*
D03*
X582750Y295250D02*
D03*
X591750Y271250D02*
D03*
X573750D02*
D03*
D29*
X609750Y709750D02*
D03*
X616250D02*
D03*
X622750D02*
D03*
X629250D02*
D03*
X635750D02*
D03*
X642250D02*
D03*
X648750D02*
D03*
X609750Y767750D02*
D03*
X616250D02*
D03*
X622750D02*
D03*
X629250D02*
D03*
X635750D02*
D03*
X642250D02*
D03*
X648750D02*
D03*
D30*
X1048750Y586250D02*
D03*
X1077750D02*
D03*
X819250Y274250D02*
D03*
X790250D02*
D03*
D31*
X408850Y607650D02*
D03*
Y577650D02*
D03*
Y547650D02*
D03*
Y517650D02*
D03*
Y487650D02*
D03*
Y457650D02*
D03*
Y427650D02*
D03*
Y397650D02*
D03*
X362650Y607650D02*
D03*
Y577650D02*
D03*
Y547650D02*
D03*
Y517650D02*
D03*
Y487650D02*
D03*
Y457650D02*
D03*
Y427650D02*
D03*
Y397650D02*
D03*
M02*
