G04 Layer_Color=16711935*
%FSLAX44Y44*%
%MOMM*%
G71*
G01*
G75*
%ADD49R,1.8500X3.6300*%
%ADD50R,2.7400X1.4700*%
%ADD51R,1.1500X0.9500*%
%ADD52R,1.4600X0.5600*%
%ADD53R,1.8000X1.4000*%
%ADD54R,1.2000X0.8500*%
%ADD55R,1.0000X1.1500*%
%ADD61R,0.9500X1.1500*%
%ADD63R,1.1500X1.0000*%
%ADD67R,0.8500X1.2000*%
%ADD68R,0.5600X1.4600*%
%ADD69R,1.4000X1.8000*%
%ADD70R,3.1200X1.4700*%
%ADD71C,5.7000*%
%ADD72C,1.8000*%
%ADD73C,2.2000*%
%ADD74R,1.0400X1.2000*%
%ADD75R,0.6000X0.5250*%
%ADD76R,0.5250X0.6000*%
%ADD77C,0.6500*%
%ADD78C,1.1000*%
%ADD79C,0.8000*%
%ADD80C,0.7400*%
D49*
X495300Y292900D02*
D03*
Y640800D02*
D03*
X626950Y322900D02*
D03*
Y640800D02*
D03*
X307850Y646550D02*
D03*
Y358650D02*
D03*
D50*
X542300Y331850D02*
D03*
Y361850D02*
D03*
Y391850D02*
D03*
Y421850D02*
D03*
Y451850D02*
D03*
Y481850D02*
D03*
Y511850D02*
D03*
Y541850D02*
D03*
Y571850D02*
D03*
Y601850D02*
D03*
X448300Y331850D02*
D03*
Y361850D02*
D03*
Y391850D02*
D03*
Y421850D02*
D03*
Y451850D02*
D03*
Y481850D02*
D03*
Y511850D02*
D03*
Y541850D02*
D03*
Y571850D02*
D03*
Y601850D02*
D03*
X673950Y361850D02*
D03*
Y391850D02*
D03*
Y421850D02*
D03*
Y451850D02*
D03*
Y481850D02*
D03*
Y511850D02*
D03*
Y541850D02*
D03*
Y571850D02*
D03*
Y601850D02*
D03*
X579950Y361850D02*
D03*
Y391850D02*
D03*
Y421850D02*
D03*
Y451850D02*
D03*
Y481850D02*
D03*
Y511850D02*
D03*
Y541850D02*
D03*
Y571850D02*
D03*
Y601850D02*
D03*
D51*
X1066750Y385750D02*
D03*
Y371250D02*
D03*
X1047750Y385750D02*
D03*
Y371250D02*
D03*
X1013500Y312750D02*
D03*
Y327250D02*
D03*
X1105000Y488500D02*
D03*
Y474000D02*
D03*
X1130750Y359000D02*
D03*
Y344500D02*
D03*
X989250Y471500D02*
D03*
Y486000D02*
D03*
X1139250Y659000D02*
D03*
Y673500D02*
D03*
D52*
X829250Y352000D02*
D03*
Y358500D02*
D03*
Y365000D02*
D03*
Y371500D02*
D03*
Y378000D02*
D03*
Y384500D02*
D03*
Y391000D02*
D03*
X887250Y352000D02*
D03*
Y358500D02*
D03*
Y365000D02*
D03*
Y371500D02*
D03*
Y378000D02*
D03*
Y384500D02*
D03*
Y391000D02*
D03*
X1069250Y580750D02*
D03*
Y587250D02*
D03*
Y593750D02*
D03*
Y600250D02*
D03*
Y606750D02*
D03*
Y613250D02*
D03*
Y619750D02*
D03*
X1127250Y580750D02*
D03*
Y587250D02*
D03*
Y593750D02*
D03*
Y600250D02*
D03*
Y606750D02*
D03*
Y613250D02*
D03*
Y619750D02*
D03*
X838000Y657500D02*
D03*
Y664000D02*
D03*
Y670500D02*
D03*
Y677000D02*
D03*
Y683500D02*
D03*
Y690000D02*
D03*
Y696500D02*
D03*
X896000Y657500D02*
D03*
Y664000D02*
D03*
Y670500D02*
D03*
Y677000D02*
D03*
Y683500D02*
D03*
Y690000D02*
D03*
Y696500D02*
D03*
D53*
X760000Y378750D02*
D03*
Y349750D02*
D03*
X867750Y461000D02*
D03*
Y432000D02*
D03*
X759000Y461750D02*
D03*
Y432750D02*
D03*
X1079500Y528500D02*
D03*
Y499500D02*
D03*
X849750Y548250D02*
D03*
Y519250D02*
D03*
X757500Y550750D02*
D03*
Y521750D02*
D03*
X1188250Y406250D02*
D03*
Y435250D02*
D03*
X1189250Y471250D02*
D03*
Y500250D02*
D03*
X1188750Y536500D02*
D03*
Y565500D02*
D03*
X1188500Y601500D02*
D03*
Y630500D02*
D03*
X1036000Y618250D02*
D03*
Y647250D02*
D03*
X942750Y616250D02*
D03*
Y587250D02*
D03*
X846750Y616500D02*
D03*
Y587500D02*
D03*
X755250Y617000D02*
D03*
Y588000D02*
D03*
X768750Y696000D02*
D03*
Y667000D02*
D03*
X1112250Y706500D02*
D03*
Y735500D02*
D03*
X1186750Y666500D02*
D03*
Y695500D02*
D03*
X1081000Y768000D02*
D03*
Y739000D02*
D03*
X873000Y767750D02*
D03*
Y738750D02*
D03*
X770000Y767750D02*
D03*
Y738750D02*
D03*
X971500Y767000D02*
D03*
Y738000D02*
D03*
X403500Y278750D02*
D03*
Y307750D02*
D03*
X1048250Y313250D02*
D03*
Y342250D02*
D03*
X442000Y685000D02*
D03*
Y656000D02*
D03*
X475500Y768000D02*
D03*
Y739000D02*
D03*
X567000Y768250D02*
D03*
Y739250D02*
D03*
X726500Y269500D02*
D03*
Y298500D02*
D03*
X652500Y269500D02*
D03*
Y298500D02*
D03*
D54*
X836500Y462000D02*
D03*
Y444000D02*
D03*
X812500Y453000D02*
D03*
X711250Y453250D02*
D03*
X735250Y444250D02*
D03*
Y462250D02*
D03*
X1052750Y530250D02*
D03*
Y512250D02*
D03*
X1028750Y521250D02*
D03*
X961000Y521500D02*
D03*
X985000Y512500D02*
D03*
Y530500D02*
D03*
X922000Y548000D02*
D03*
Y530000D02*
D03*
X898000Y539000D02*
D03*
X803250Y540750D02*
D03*
X827250Y531750D02*
D03*
Y549750D02*
D03*
X731750Y551500D02*
D03*
Y533500D02*
D03*
X707750Y542500D02*
D03*
X1211750Y426750D02*
D03*
X1235750Y417750D02*
D03*
Y435750D02*
D03*
X1211750Y482250D02*
D03*
Y500250D02*
D03*
X1235750Y491250D02*
D03*
X1236250Y557000D02*
D03*
X1212250Y566000D02*
D03*
Y548000D02*
D03*
X1213250Y612750D02*
D03*
Y630750D02*
D03*
X1237250Y621750D02*
D03*
X988500Y623250D02*
D03*
X1012500Y614250D02*
D03*
Y632250D02*
D03*
X917500Y617250D02*
D03*
Y599250D02*
D03*
X893500Y608250D02*
D03*
X799250D02*
D03*
X823250Y599250D02*
D03*
Y617250D02*
D03*
X732000Y617500D02*
D03*
Y599500D02*
D03*
X708000Y608500D02*
D03*
X745750Y696500D02*
D03*
Y678500D02*
D03*
X721750Y687500D02*
D03*
X1073750Y701500D02*
D03*
Y683500D02*
D03*
X1049750Y692500D02*
D03*
X1236000Y687250D02*
D03*
X1212000Y696250D02*
D03*
Y678250D02*
D03*
X924000Y687250D02*
D03*
X948000Y678250D02*
D03*
Y696250D02*
D03*
X1030750Y759000D02*
D03*
X1054750Y750000D02*
D03*
Y768000D02*
D03*
X822750Y758750D02*
D03*
X846750Y749750D02*
D03*
Y767750D02*
D03*
X746500D02*
D03*
Y749750D02*
D03*
X722500Y758750D02*
D03*
X948000Y767750D02*
D03*
Y749750D02*
D03*
X924000Y758750D02*
D03*
X391250Y703000D02*
D03*
X415250Y694000D02*
D03*
Y712000D02*
D03*
X348750Y694250D02*
D03*
Y712250D02*
D03*
X372750Y703250D02*
D03*
X711500Y370250D02*
D03*
X735500Y361250D02*
D03*
Y379250D02*
D03*
X451750Y768000D02*
D03*
Y750000D02*
D03*
X427750Y759000D02*
D03*
X518750Y759250D02*
D03*
X542750Y750250D02*
D03*
Y768250D02*
D03*
X639250Y768000D02*
D03*
Y750000D02*
D03*
X615250Y759000D02*
D03*
X523000Y702750D02*
D03*
X547000Y693750D02*
D03*
Y711750D02*
D03*
D55*
X615000Y271750D02*
D03*
X628500D02*
D03*
X1063250Y649250D02*
D03*
X1076750D02*
D03*
X1150000Y732250D02*
D03*
X1136500D02*
D03*
X993500Y750250D02*
D03*
X1007000D02*
D03*
X436250Y709500D02*
D03*
X449750D02*
D03*
X316500Y681500D02*
D03*
X303000D02*
D03*
X356500Y277250D02*
D03*
X370000D02*
D03*
X903250Y270750D02*
D03*
X916750D02*
D03*
X915500Y324750D02*
D03*
X929000D02*
D03*
X1136500Y765750D02*
D03*
X1150000D02*
D03*
X755000Y268250D02*
D03*
X768500D02*
D03*
D61*
X869500Y332750D02*
D03*
X855000D02*
D03*
X1115500Y559500D02*
D03*
X1130000D02*
D03*
X930500Y657500D02*
D03*
X916000D02*
D03*
X1078000Y420750D02*
D03*
X1063500D02*
D03*
X1063500Y460250D02*
D03*
X1078000D02*
D03*
X1063500Y441250D02*
D03*
X1078000D02*
D03*
X967750Y303250D02*
D03*
X953250D02*
D03*
X967500Y320250D02*
D03*
X953000D02*
D03*
X1012500Y295000D02*
D03*
X1027000D02*
D03*
X967750Y286250D02*
D03*
X953250D02*
D03*
X1149250Y354250D02*
D03*
X1163750D02*
D03*
X1123500Y483250D02*
D03*
X1138000D02*
D03*
X673750Y691000D02*
D03*
X659250D02*
D03*
D63*
X968500Y616000D02*
D03*
Y629500D02*
D03*
X900250Y462750D02*
D03*
Y449250D02*
D03*
X790250Y463750D02*
D03*
Y450250D02*
D03*
X1110250Y529250D02*
D03*
Y515750D02*
D03*
X1005000Y518500D02*
D03*
Y532000D02*
D03*
X967000Y565750D02*
D03*
Y579250D02*
D03*
X876750Y535000D02*
D03*
Y548500D02*
D03*
X782750Y552250D02*
D03*
Y538750D02*
D03*
X1163500Y433250D02*
D03*
Y446750D02*
D03*
X1166000Y488750D02*
D03*
Y502250D02*
D03*
X1165750Y554000D02*
D03*
Y567500D02*
D03*
X1159250Y619000D02*
D03*
Y632500D02*
D03*
X874250Y616500D02*
D03*
Y603000D02*
D03*
X780000Y618250D02*
D03*
Y604750D02*
D03*
X792750Y695000D02*
D03*
Y681500D02*
D03*
X1028750Y702750D02*
D03*
Y689250D02*
D03*
X1156000Y687750D02*
D03*
Y674250D02*
D03*
X900250Y769250D02*
D03*
Y755750D02*
D03*
X799250Y769250D02*
D03*
Y755750D02*
D03*
X784000Y367250D02*
D03*
Y380750D02*
D03*
X499500Y756000D02*
D03*
Y769500D02*
D03*
X593000D02*
D03*
Y756000D02*
D03*
X620500Y705250D02*
D03*
Y691750D02*
D03*
X552250Y649000D02*
D03*
Y635500D02*
D03*
D67*
X690000Y293750D02*
D03*
X681000Y269750D02*
D03*
X699000D02*
D03*
X361250Y335250D02*
D03*
X352250Y311250D02*
D03*
X370250D02*
D03*
X591750Y271250D02*
D03*
X573750D02*
D03*
X582750Y295250D02*
D03*
D68*
X659750Y767000D02*
D03*
X666250D02*
D03*
X672750D02*
D03*
X679250D02*
D03*
X685750D02*
D03*
X692250D02*
D03*
X698750D02*
D03*
X659750Y709000D02*
D03*
X666250D02*
D03*
X672750D02*
D03*
X679250D02*
D03*
X685750D02*
D03*
X692250D02*
D03*
X698750D02*
D03*
D69*
X1000750Y574000D02*
D03*
X1029750D02*
D03*
X909250Y506250D02*
D03*
X938250D02*
D03*
X971000Y695750D02*
D03*
X1000000D02*
D03*
X328250Y704750D02*
D03*
X299250D02*
D03*
X366750Y749500D02*
D03*
X395750D02*
D03*
X377250Y777250D02*
D03*
X406250D02*
D03*
X1083000Y325750D02*
D03*
X1112000D02*
D03*
X1052250Y285500D02*
D03*
X1081250D02*
D03*
X1116000Y285250D02*
D03*
X1145000D02*
D03*
X600000Y696000D02*
D03*
X571000D02*
D03*
X475000Y698250D02*
D03*
X504000D02*
D03*
D70*
X362650Y607600D02*
D03*
Y577600D02*
D03*
Y547600D02*
D03*
Y517600D02*
D03*
Y487600D02*
D03*
Y457600D02*
D03*
Y427600D02*
D03*
Y397600D02*
D03*
X408850Y607600D02*
D03*
Y577600D02*
D03*
Y547600D02*
D03*
Y517600D02*
D03*
Y487600D02*
D03*
Y457600D02*
D03*
Y427600D02*
D03*
Y397600D02*
D03*
D71*
X300000Y753250D02*
D03*
X300000Y300250D02*
D03*
X1203250Y753250D02*
D03*
Y300250D02*
D03*
D72*
X1011000Y774250D02*
D03*
X1112600D02*
D03*
D73*
X1011000Y672650D02*
D03*
X1112600D02*
D03*
D74*
X1126550Y386250D02*
D03*
X1139950D02*
D03*
X1133450Y423250D02*
D03*
X1120050D02*
D03*
D75*
X1087500Y672625D02*
D03*
Y663875D02*
D03*
D76*
X1130875Y466500D02*
D03*
X1139625D02*
D03*
X1157125Y338000D02*
D03*
X1165875D02*
D03*
D77*
X888500Y729500D02*
D03*
X871793Y662032D02*
D03*
X848541Y726035D02*
D03*
X854250Y736750D02*
D03*
X754250Y662500D02*
D03*
X758287Y653782D02*
D03*
X792250Y580000D02*
D03*
X906000Y584250D02*
D03*
X981750Y611750D02*
D03*
X979048Y660032D02*
D03*
X992298Y665533D02*
D03*
X986750Y677500D02*
D03*
X1173557Y364768D02*
D03*
X549500Y727500D02*
D03*
X932500Y728500D02*
D03*
X783250Y725750D02*
D03*
X858000Y676000D02*
D03*
Y698000D02*
D03*
X913500Y726500D02*
D03*
X962500Y678250D02*
D03*
X740286Y656532D02*
D03*
X802500Y667500D02*
D03*
X784538Y666283D02*
D03*
X1043500Y679500D02*
D03*
X1058500Y679750D02*
D03*
X693000Y622000D02*
D03*
X703250D02*
D03*
X802000Y585750D02*
D03*
X889750Y333000D02*
D03*
X991048Y448272D02*
D03*
X904250Y388500D02*
D03*
X985000Y416250D02*
D03*
X1126250Y325750D02*
D03*
X1120250Y439250D02*
D03*
X1133500Y332500D02*
D03*
X1093500Y723250D02*
D03*
X926750Y393750D02*
D03*
X840750Y404750D02*
D03*
X1063000Y736750D02*
D03*
X864250Y587250D02*
D03*
X675033Y649032D02*
D03*
X1012250Y354500D02*
D03*
X1051750Y736250D02*
D03*
X771538Y588029D02*
D03*
X791789Y598529D02*
D03*
X873043Y590279D02*
D03*
X781500Y586750D02*
D03*
X1040250Y748000D02*
D03*
X643500Y649750D02*
D03*
X651000Y657750D02*
D03*
X682250Y664750D02*
D03*
X1206000Y439000D02*
D03*
X953750Y267000D02*
D03*
X942000Y345250D02*
D03*
X1035800Y389269D02*
D03*
X1049500Y430250D02*
D03*
X1111250Y450000D02*
D03*
X849250Y421500D02*
D03*
X1090803Y421020D02*
D03*
X1092750Y450500D02*
D03*
X945796Y481524D02*
D03*
X953500Y736500D02*
D03*
X941750Y734250D02*
D03*
X834750Y735250D02*
D03*
X876500Y724750D02*
D03*
X1087000Y713250D02*
D03*
X732536Y665283D02*
D03*
X795250Y650500D02*
D03*
X746750Y667250D02*
D03*
X671783Y739786D02*
D03*
X1089500Y612000D02*
D03*
X1092553Y430771D02*
D03*
X1091089Y440000D02*
D03*
X983750Y458750D02*
D03*
X1144250Y626500D02*
D03*
X1141806Y639031D02*
D03*
X1240061Y657532D02*
D03*
X1097303Y621280D02*
D03*
X1213250Y470500D02*
D03*
X1241250Y468500D02*
D03*
X1188308Y388269D02*
D03*
X1121750Y371500D02*
D03*
X906500Y363000D02*
D03*
X917500Y388500D02*
D03*
X925295Y313515D02*
D03*
X997500Y342250D02*
D03*
X984798Y342767D02*
D03*
X985250Y386250D02*
D03*
X941546Y301265D02*
D03*
X1041250Y467000D02*
D03*
X1004250Y438500D02*
D03*
X1089053Y596279D02*
D03*
X1099000Y604500D02*
D03*
X1013750Y402500D02*
D03*
X980750Y406500D02*
D03*
X889250Y595500D02*
D03*
X985250Y397250D02*
D03*
X1013750Y392000D02*
D03*
X1002049Y448522D02*
D03*
X1002750Y425250D02*
D03*
X1023800Y468523D02*
D03*
X994000Y458500D02*
D03*
X1015550Y463773D02*
D03*
X980250Y635750D02*
D03*
X1008500Y505750D02*
D03*
X1015500Y428250D02*
D03*
X1028500Y424000D02*
D03*
X1028050Y435021D02*
D03*
X1011250Y419250D02*
D03*
X1030250Y413000D02*
D03*
X1041500Y453750D02*
D03*
X994000Y429250D02*
D03*
X1052000Y453500D02*
D03*
X1020050Y448022D02*
D03*
X1018500Y438250D02*
D03*
X961797Y489774D02*
D03*
X968500Y485000D02*
D03*
X998000Y504000D02*
D03*
X982548Y502775D02*
D03*
X976548Y492774D02*
D03*
X1027750Y454750D02*
D03*
X823250Y587000D02*
D03*
X905500Y352750D02*
D03*
X864750Y301000D02*
D03*
X866542Y292264D02*
D03*
X862542Y279014D02*
D03*
X561500Y713750D02*
D03*
X566500Y723000D02*
D03*
X591750Y742250D02*
D03*
X683000Y751000D02*
D03*
X651032Y721035D02*
D03*
X651000Y741250D02*
D03*
X638031Y730286D02*
D03*
X628250Y723250D02*
D03*
X586000Y729500D02*
D03*
X766750Y725000D02*
D03*
X817250Y653250D02*
D03*
X809000Y485500D02*
D03*
X951500Y726250D02*
D03*
X1075750Y634000D02*
D03*
X1123305Y645531D02*
D03*
X1123055Y632031D02*
D03*
X1237750Y764250D02*
D03*
X937046Y472523D02*
D03*
X684033Y738286D02*
D03*
X681783Y725785D02*
D03*
X692784Y729536D02*
D03*
X714500Y725000D02*
D03*
X727750Y724750D02*
D03*
X736500Y737000D02*
D03*
X702034Y731536D02*
D03*
X801250Y727500D02*
D03*
X753250Y732750D02*
D03*
X747287Y738536D02*
D03*
X737500Y727750D02*
D03*
X659032Y735286D02*
D03*
X669283Y727286D02*
D03*
X890750Y266000D02*
D03*
X941500Y290250D02*
D03*
X932000Y265500D02*
D03*
X940000Y276750D02*
D03*
X931000Y297500D02*
D03*
D78*
X874000Y647500D02*
D03*
X806750Y650250D02*
D03*
X518500Y302500D02*
D03*
X793250Y737750D02*
D03*
X1175000Y379250D02*
D03*
X777750Y651000D02*
D03*
X828290Y646532D02*
D03*
X1164750Y764250D02*
D03*
X901794Y727286D02*
D03*
D79*
X910250Y646000D02*
D03*
X1173807Y778538D02*
D03*
X1181558Y786288D02*
D03*
X423000Y772500D02*
D03*
X925500Y577750D02*
D03*
X916545Y587529D02*
D03*
X1096500Y523750D02*
D03*
X595250Y377000D02*
D03*
X582250Y376750D02*
D03*
X568250Y377000D02*
D03*
X596000Y407000D02*
D03*
X582250Y407250D02*
D03*
X568750Y407000D02*
D03*
X593750Y497000D02*
D03*
X581750Y497250D02*
D03*
X570500D02*
D03*
X471750Y419000D02*
D03*
X481000Y414250D02*
D03*
X471750Y406750D02*
D03*
X481000Y399250D02*
D03*
X472000Y392000D02*
D03*
X483500Y502500D02*
D03*
X470000D02*
D03*
X482750Y522000D02*
D03*
X470000D02*
D03*
X484500Y543000D02*
D03*
X470500Y543750D02*
D03*
X483250Y569750D02*
D03*
X469750D02*
D03*
X483500Y591250D02*
D03*
X472250D02*
D03*
X483250Y612000D02*
D03*
X471500D02*
D03*
X578528Y328516D02*
D03*
X582778Y344517D02*
D03*
X502500Y382250D02*
D03*
X362750Y380500D02*
D03*
X510250Y373750D02*
D03*
X515500Y616000D02*
D03*
X524750Y625250D02*
D03*
X519250Y597750D02*
D03*
X422000Y307750D02*
D03*
X435500Y310250D02*
D03*
X382750Y335250D02*
D03*
X509750Y588750D02*
D03*
X501000Y739500D02*
D03*
X467000Y720500D02*
D03*
X519250Y571750D02*
D03*
X510500Y727250D02*
D03*
X944500Y649250D02*
D03*
X1152750Y476250D02*
D03*
X519250Y541750D02*
D03*
X519500Y512000D02*
D03*
Y482000D02*
D03*
X519750Y422000D02*
D03*
X519250Y392000D02*
D03*
X628250Y376000D02*
D03*
X631750Y385000D02*
D03*
X337000Y445250D02*
D03*
X337750Y427750D02*
D03*
X1225250Y598000D02*
D03*
X651500Y451750D02*
D03*
X747536Y491524D02*
D03*
X731536D02*
D03*
X703534Y500774D02*
D03*
X776000Y521000D02*
D03*
X699284Y524776D02*
D03*
X739036Y519025D02*
D03*
X733286Y344517D02*
D03*
X675000Y328750D02*
D03*
X686534Y325766D02*
D03*
X702750Y338250D02*
D03*
X519250Y362000D02*
D03*
X651250Y541750D02*
D03*
X1173750Y612000D02*
D03*
X342750Y340750D02*
D03*
X1095750Y285500D02*
D03*
X1175000Y345000D02*
D03*
X1078000Y354250D02*
D03*
X1154250Y309500D02*
D03*
X1234000Y729000D02*
D03*
X1025000Y558250D02*
D03*
X336250Y722000D02*
D03*
X386500Y690250D02*
D03*
X704250Y596000D02*
D03*
X868500Y518750D02*
D03*
X706000Y553250D02*
D03*
X788500Y521750D02*
D03*
X798500Y526750D02*
D03*
X820750Y517250D02*
D03*
X892250Y551500D02*
D03*
X1159500Y716750D02*
D03*
X1156250Y661750D02*
D03*
X1237750Y504250D02*
D03*
X560500Y271250D02*
D03*
X1102500Y395000D02*
D03*
X883500Y518750D02*
D03*
X868750Y389250D02*
D03*
X543500Y680250D02*
D03*
X764000Y411500D02*
D03*
X745750Y411750D02*
D03*
X731000Y411250D02*
D03*
X774288Y497774D02*
D03*
X710500Y430500D02*
D03*
X800250Y552250D02*
D03*
X891250Y620250D02*
D03*
X1054551Y570778D02*
D03*
X1043801D02*
D03*
X727750Y579250D02*
D03*
X552250Y290250D02*
D03*
X541500Y269250D02*
D03*
X1112500Y378500D02*
D03*
X849250Y452750D02*
D03*
X571500Y296500D02*
D03*
X504250Y403000D02*
D03*
X604250Y300000D02*
D03*
X675750Y305000D02*
D03*
X782250Y291000D02*
D03*
X610750Y315500D02*
D03*
X743500Y312000D02*
D03*
X780000Y305750D02*
D03*
X1028000Y324500D02*
D03*
X1027000Y309750D02*
D03*
X796289Y323266D02*
D03*
X783038Y332766D02*
D03*
X787538Y348767D02*
D03*
X798539Y351767D02*
D03*
X825790Y308765D02*
D03*
X641000Y437750D02*
D03*
X620500Y426000D02*
D03*
X519775Y454522D02*
D03*
X644500Y535250D02*
D03*
X338000Y531750D02*
D03*
X625750Y501500D02*
D03*
X610250Y547750D02*
D03*
X337000Y577500D02*
D03*
X651250Y571750D02*
D03*
X615750Y574500D02*
D03*
X504000Y457250D02*
D03*
X504500Y481250D02*
D03*
X513250Y493250D02*
D03*
X1208750Y526500D02*
D03*
X1215250Y535000D02*
D03*
X1227060Y529026D02*
D03*
X509750Y467250D02*
D03*
X503750Y505250D02*
D03*
X319250Y463250D02*
D03*
X337750Y561750D02*
D03*
X306500Y500000D02*
D03*
X291250Y510750D02*
D03*
X1143250Y717000D02*
D03*
X405000Y363500D02*
D03*
X422750Y358250D02*
D03*
X405500Y348500D02*
D03*
X423000Y343500D02*
D03*
X482750Y345000D02*
D03*
X482500Y364250D02*
D03*
X472750Y332750D02*
D03*
X473250Y355250D02*
D03*
X694500Y584500D02*
D03*
X611750Y588750D02*
D03*
X617250Y598750D02*
D03*
X621500Y520000D02*
D03*
X813750Y367500D02*
D03*
X827750Y423250D02*
D03*
X816500Y409750D02*
D03*
X839500Y416000D02*
D03*
X838041Y429521D02*
D03*
X851750Y473500D02*
D03*
X805000Y409750D02*
D03*
X636750Y425250D02*
D03*
X338250Y471500D02*
D03*
X1062250Y264250D02*
D03*
X1040000Y299000D02*
D03*
X1092250Y360750D02*
D03*
X1067250Y347250D02*
D03*
X1057250Y357500D02*
D03*
X895000Y646000D02*
D03*
X777750Y409250D02*
D03*
X803000Y426250D02*
D03*
X794289Y415020D02*
D03*
X807250Y376250D02*
D03*
X786750Y437000D02*
D03*
X803289Y439521D02*
D03*
X859500Y481000D02*
D03*
X1164750Y527000D02*
D03*
X1170500Y539000D02*
D03*
X1159557Y592029D02*
D03*
X1145750Y606250D02*
D03*
X1157557Y604529D02*
D03*
X1139250Y515000D02*
D03*
X1157250Y579250D02*
D03*
X1232310Y648282D02*
D03*
X1242250Y700750D02*
D03*
X1231250Y377750D02*
D03*
X1159500Y285250D02*
D03*
X1206000Y388000D02*
D03*
X857750Y389250D02*
D03*
X900500Y320750D02*
D03*
X941546Y316515D02*
D03*
X1087000Y374500D02*
D03*
X1097000Y381000D02*
D03*
X971000Y524107D02*
D03*
X863250Y317000D02*
D03*
X297750Y480000D02*
D03*
X410750Y745000D02*
D03*
X410770Y761037D02*
D03*
X306265Y474523D02*
D03*
X315750Y490500D02*
D03*
X715250Y518000D02*
D03*
X726250D02*
D03*
X536250Y304250D02*
D03*
X946750Y389000D02*
D03*
X648000Y331750D02*
D03*
X1145000Y452000D02*
D03*
X1054161Y621250D02*
D03*
X824750Y321500D02*
D03*
X814540Y353517D02*
D03*
X898044Y739536D02*
D03*
X757250Y723750D02*
D03*
X571000Y652500D02*
D03*
X343000Y277750D02*
D03*
D80*
X991000Y783250D02*
D03*
M02*
