G04 Layer_Color=16711935*
%FSLAX44Y44*%
%MOMM*%
%TF.FileFunction,Soldermask,Bot*%
%TF.Part,Single*%
G01*
G75*
%TA.AperFunction,SMDPad,CuDef*%
%ADD51R,1.8500X3.6300*%
%ADD52R,3.1200X1.4700*%
%ADD53R,2.7400X1.4700*%
%ADD54R,1.0000X1.1500*%
%ADD55R,1.8000X1.4000*%
%ADD56R,1.4000X1.8000*%
%ADD57R,0.8500X1.2000*%
%ADD58R,1.1500X1.0000*%
%ADD59R,0.5600X1.4600*%
%ADD60R,1.2000X0.8500*%
%ADD65R,0.9500X1.1500*%
%ADD68R,1.4600X0.5600*%
%ADD72R,1.1500X0.9500*%
%TA.AperFunction,ComponentPad*%
%ADD73C,2.2000*%
%ADD74C,1.8000*%
%TA.AperFunction,ViaPad*%
%ADD75C,5.7000*%
%TA.AperFunction,SMDPad,CuDef*%
%ADD76R,0.5250X0.6000*%
%ADD77R,0.6000X0.5250*%
%ADD78R,1.0400X1.2000*%
%TA.AperFunction,ViaPad*%
%ADD79C,0.6500*%
%ADD80C,0.8000*%
%ADD81C,0.7400*%
D51*
X307850Y358650D02*
D03*
Y646550D02*
D03*
X626950Y640800D02*
D03*
Y322900D02*
D03*
X495300Y640800D02*
D03*
Y292900D02*
D03*
D52*
X408850Y397600D02*
D03*
Y427600D02*
D03*
Y457600D02*
D03*
Y487600D02*
D03*
Y517600D02*
D03*
Y547600D02*
D03*
Y577600D02*
D03*
Y607600D02*
D03*
X362650Y397600D02*
D03*
Y427600D02*
D03*
Y457600D02*
D03*
Y487600D02*
D03*
Y517600D02*
D03*
Y547600D02*
D03*
Y577600D02*
D03*
Y607600D02*
D03*
D53*
X579950Y601850D02*
D03*
Y571850D02*
D03*
Y541850D02*
D03*
Y511850D02*
D03*
Y481850D02*
D03*
Y451850D02*
D03*
Y421850D02*
D03*
Y391850D02*
D03*
Y361850D02*
D03*
X673950Y601850D02*
D03*
Y571850D02*
D03*
Y541850D02*
D03*
Y511850D02*
D03*
Y481850D02*
D03*
Y451850D02*
D03*
Y421850D02*
D03*
Y391850D02*
D03*
Y361850D02*
D03*
X448300Y601850D02*
D03*
Y571850D02*
D03*
Y541850D02*
D03*
Y511850D02*
D03*
Y481850D02*
D03*
Y451850D02*
D03*
Y421850D02*
D03*
Y391850D02*
D03*
Y361850D02*
D03*
Y331850D02*
D03*
X542300Y601850D02*
D03*
Y571850D02*
D03*
Y541850D02*
D03*
Y511850D02*
D03*
Y481850D02*
D03*
Y451850D02*
D03*
Y421850D02*
D03*
Y391850D02*
D03*
Y361850D02*
D03*
Y331850D02*
D03*
D54*
X768500Y268250D02*
D03*
X755000D02*
D03*
X1150000Y765750D02*
D03*
X1136500D02*
D03*
X929000Y324750D02*
D03*
X915500D02*
D03*
X916750Y270750D02*
D03*
X903250D02*
D03*
X370000Y277250D02*
D03*
X356500D02*
D03*
X303000Y681500D02*
D03*
X316500D02*
D03*
X449750Y709500D02*
D03*
X436250D02*
D03*
X1007000Y750250D02*
D03*
X993500D02*
D03*
X1136500Y732250D02*
D03*
X1150000D02*
D03*
X1076750Y649250D02*
D03*
X1063250D02*
D03*
X628500Y271750D02*
D03*
X615000D02*
D03*
D55*
X567000Y739250D02*
D03*
Y768250D02*
D03*
X475500Y739000D02*
D03*
Y768000D02*
D03*
X442000Y656000D02*
D03*
Y685000D02*
D03*
X652500Y298500D02*
D03*
Y269500D02*
D03*
X726500Y298500D02*
D03*
Y269500D02*
D03*
X1048250Y342250D02*
D03*
Y313250D02*
D03*
X403500Y307750D02*
D03*
Y278750D02*
D03*
X971500Y738000D02*
D03*
Y767000D02*
D03*
X770000Y738750D02*
D03*
Y767750D02*
D03*
X873000Y738750D02*
D03*
Y767750D02*
D03*
X1081000Y739000D02*
D03*
Y768000D02*
D03*
X1186750Y695500D02*
D03*
Y666500D02*
D03*
X1112250Y735500D02*
D03*
Y706500D02*
D03*
X768750Y667000D02*
D03*
Y696000D02*
D03*
X755250Y588000D02*
D03*
Y617000D02*
D03*
X846750Y587500D02*
D03*
Y616500D02*
D03*
X942750Y587250D02*
D03*
Y616250D02*
D03*
X1036000Y647250D02*
D03*
Y618250D02*
D03*
X1188500Y630500D02*
D03*
Y601500D02*
D03*
X1188750Y565500D02*
D03*
Y536500D02*
D03*
X1189250Y500250D02*
D03*
Y471250D02*
D03*
X1188250Y435250D02*
D03*
Y406250D02*
D03*
X757500Y521750D02*
D03*
Y550750D02*
D03*
X849750Y519250D02*
D03*
Y548250D02*
D03*
X1079500Y499500D02*
D03*
Y528500D02*
D03*
X759000Y432750D02*
D03*
Y461750D02*
D03*
X867750Y432000D02*
D03*
Y461000D02*
D03*
X760000Y349750D02*
D03*
Y378750D02*
D03*
D56*
X504000Y698250D02*
D03*
X475000D02*
D03*
X571000Y696000D02*
D03*
X600000D02*
D03*
X1145000Y285250D02*
D03*
X1116000D02*
D03*
X1081250Y285500D02*
D03*
X1052250D02*
D03*
X1112000Y325750D02*
D03*
X1083000D02*
D03*
X406250Y777250D02*
D03*
X377250D02*
D03*
X395750Y749500D02*
D03*
X366750D02*
D03*
X299250Y704750D02*
D03*
X328250D02*
D03*
X1000000Y695750D02*
D03*
X971000D02*
D03*
X938250Y506250D02*
D03*
X909250D02*
D03*
X1029750Y574000D02*
D03*
X1000750D02*
D03*
D57*
X582750Y295250D02*
D03*
X573750Y271250D02*
D03*
X591750D02*
D03*
X370250Y311250D02*
D03*
X352250D02*
D03*
X361250Y335250D02*
D03*
X699000Y269750D02*
D03*
X681000D02*
D03*
X690000Y293750D02*
D03*
D58*
X552250Y635500D02*
D03*
Y649000D02*
D03*
X620500Y691750D02*
D03*
Y705250D02*
D03*
X593000Y756000D02*
D03*
Y769500D02*
D03*
X499500D02*
D03*
Y756000D02*
D03*
X784000Y380750D02*
D03*
Y367250D02*
D03*
X799250Y755750D02*
D03*
Y769250D02*
D03*
X900250Y755750D02*
D03*
Y769250D02*
D03*
X1156000Y674250D02*
D03*
Y687750D02*
D03*
X1028750Y689250D02*
D03*
Y702750D02*
D03*
X792750Y681500D02*
D03*
Y695000D02*
D03*
X780000Y604750D02*
D03*
Y618250D02*
D03*
X874250Y603000D02*
D03*
Y616500D02*
D03*
X1159250Y632500D02*
D03*
Y619000D02*
D03*
X1165750Y567500D02*
D03*
Y554000D02*
D03*
X1166000Y502250D02*
D03*
Y488750D02*
D03*
X1163500Y446750D02*
D03*
Y433250D02*
D03*
X782750Y538750D02*
D03*
Y552250D02*
D03*
X876750Y548500D02*
D03*
Y535000D02*
D03*
X967000Y579250D02*
D03*
Y565750D02*
D03*
X1005000Y532000D02*
D03*
Y518500D02*
D03*
X1110250Y515750D02*
D03*
Y529250D02*
D03*
X790250Y450250D02*
D03*
Y463750D02*
D03*
X900250Y449250D02*
D03*
Y462750D02*
D03*
X968500Y629500D02*
D03*
Y616000D02*
D03*
D59*
X698750Y709000D02*
D03*
X692250D02*
D03*
X685750D02*
D03*
X679250D02*
D03*
X672750D02*
D03*
X666250D02*
D03*
X659750D02*
D03*
X698750Y767000D02*
D03*
X692250D02*
D03*
X685750D02*
D03*
X679250D02*
D03*
X672750D02*
D03*
X666250D02*
D03*
X659750D02*
D03*
D60*
X547000Y711750D02*
D03*
Y693750D02*
D03*
X523000Y702750D02*
D03*
X615250Y759000D02*
D03*
X639250Y750000D02*
D03*
Y768000D02*
D03*
X542750Y768250D02*
D03*
Y750250D02*
D03*
X518750Y759250D02*
D03*
X427750Y759000D02*
D03*
X451750Y750000D02*
D03*
Y768000D02*
D03*
X735500Y379250D02*
D03*
Y361250D02*
D03*
X711500Y370250D02*
D03*
X372750Y703250D02*
D03*
X348750Y712250D02*
D03*
Y694250D02*
D03*
X415250Y712000D02*
D03*
Y694000D02*
D03*
X391250Y703000D02*
D03*
X924000Y758750D02*
D03*
X948000Y749750D02*
D03*
Y767750D02*
D03*
X722500Y758750D02*
D03*
X746500Y749750D02*
D03*
Y767750D02*
D03*
X846750D02*
D03*
Y749750D02*
D03*
X822750Y758750D02*
D03*
X1054750Y768000D02*
D03*
Y750000D02*
D03*
X1030750Y759000D02*
D03*
X948000Y696250D02*
D03*
Y678250D02*
D03*
X924000Y687250D02*
D03*
X1212000Y678250D02*
D03*
Y696250D02*
D03*
X1236000Y687250D02*
D03*
X1049750Y692500D02*
D03*
X1073750Y683500D02*
D03*
Y701500D02*
D03*
X721750Y687500D02*
D03*
X745750Y678500D02*
D03*
Y696500D02*
D03*
X708000Y608500D02*
D03*
X732000Y599500D02*
D03*
Y617500D02*
D03*
X823250Y617250D02*
D03*
Y599250D02*
D03*
X799250Y608250D02*
D03*
X893500D02*
D03*
X917500Y599250D02*
D03*
Y617250D02*
D03*
X1012500Y632250D02*
D03*
Y614250D02*
D03*
X988500Y623250D02*
D03*
X1237250Y621750D02*
D03*
X1213250Y630750D02*
D03*
Y612750D02*
D03*
X1212250Y548000D02*
D03*
Y566000D02*
D03*
X1236250Y557000D02*
D03*
X1235750Y491250D02*
D03*
X1211750Y500250D02*
D03*
Y482250D02*
D03*
X1235750Y435750D02*
D03*
Y417750D02*
D03*
X1211750Y426750D02*
D03*
X707750Y542500D02*
D03*
X731750Y533500D02*
D03*
Y551500D02*
D03*
X827250Y549750D02*
D03*
Y531750D02*
D03*
X803250Y540750D02*
D03*
X898000Y539000D02*
D03*
X922000Y530000D02*
D03*
Y548000D02*
D03*
X985000Y530500D02*
D03*
Y512500D02*
D03*
X961000Y521500D02*
D03*
X1028750Y521250D02*
D03*
X1052750Y512250D02*
D03*
Y530250D02*
D03*
X735250Y462250D02*
D03*
Y444250D02*
D03*
X711250Y453250D02*
D03*
X812500Y453000D02*
D03*
X836500Y444000D02*
D03*
Y462000D02*
D03*
D65*
X659250Y691000D02*
D03*
X673750D02*
D03*
X1138000Y483250D02*
D03*
X1123500D02*
D03*
X1163750Y354250D02*
D03*
X1149250D02*
D03*
X953250Y286250D02*
D03*
X967750D02*
D03*
X1027000Y295000D02*
D03*
X1012500D02*
D03*
X953000Y320250D02*
D03*
X967500D02*
D03*
X953250Y303250D02*
D03*
X967750D02*
D03*
X1078000Y441250D02*
D03*
X1063500D02*
D03*
X1078000Y460250D02*
D03*
X1063500D02*
D03*
X1063500Y420750D02*
D03*
X1078000D02*
D03*
X916000Y657500D02*
D03*
X930500D02*
D03*
X1130000Y559500D02*
D03*
X1115500D02*
D03*
X855000Y332750D02*
D03*
X869500D02*
D03*
D68*
X896000Y696500D02*
D03*
Y690000D02*
D03*
Y683500D02*
D03*
Y677000D02*
D03*
Y670500D02*
D03*
Y664000D02*
D03*
Y657500D02*
D03*
X838000Y696500D02*
D03*
Y690000D02*
D03*
Y683500D02*
D03*
Y677000D02*
D03*
Y670500D02*
D03*
Y664000D02*
D03*
Y657500D02*
D03*
X1127250Y619750D02*
D03*
Y613250D02*
D03*
Y606750D02*
D03*
Y600250D02*
D03*
Y593750D02*
D03*
Y587250D02*
D03*
Y580750D02*
D03*
X1069250Y619750D02*
D03*
Y613250D02*
D03*
Y606750D02*
D03*
Y600250D02*
D03*
Y593750D02*
D03*
Y587250D02*
D03*
Y580750D02*
D03*
X887250Y391000D02*
D03*
Y384500D02*
D03*
Y378000D02*
D03*
Y371500D02*
D03*
Y365000D02*
D03*
Y358500D02*
D03*
Y352000D02*
D03*
X829250Y391000D02*
D03*
Y384500D02*
D03*
Y378000D02*
D03*
Y371500D02*
D03*
Y365000D02*
D03*
Y358500D02*
D03*
Y352000D02*
D03*
D72*
X1131750Y673500D02*
D03*
Y659000D02*
D03*
X983250Y486250D02*
D03*
Y471750D02*
D03*
X1130750Y344500D02*
D03*
Y359000D02*
D03*
X1105000Y474000D02*
D03*
Y488500D02*
D03*
X1013500Y327250D02*
D03*
Y312750D02*
D03*
X1047750Y371250D02*
D03*
Y385750D02*
D03*
X1066750Y371250D02*
D03*
Y385750D02*
D03*
D73*
X1112600Y672650D02*
D03*
X1011000D02*
D03*
D74*
X1112600Y774250D02*
D03*
X1011000D02*
D03*
D75*
X1203250Y300250D02*
D03*
Y753250D02*
D03*
X300000Y300250D02*
D03*
X300000Y753250D02*
D03*
D76*
X1165875Y338000D02*
D03*
X1157125D02*
D03*
X1139625Y466500D02*
D03*
X1130875D02*
D03*
D77*
X1095000Y663875D02*
D03*
Y672625D02*
D03*
D78*
X1120050Y423250D02*
D03*
X1133450D02*
D03*
X1139950Y386250D02*
D03*
X1126550D02*
D03*
D79*
X586000Y729500D02*
D03*
X628250Y723250D02*
D03*
X638031Y730286D02*
D03*
X651000Y741250D02*
D03*
X651032Y721035D02*
D03*
X692784Y729536D02*
D03*
X684033Y738286D02*
D03*
X683000Y751000D02*
D03*
X591750Y742250D02*
D03*
X659032Y735286D02*
D03*
X566500Y723000D02*
D03*
X561500Y713750D02*
D03*
X862542Y279014D02*
D03*
X866542Y292264D02*
D03*
X864750Y301000D02*
D03*
X905500Y352750D02*
D03*
X823250Y587000D02*
D03*
X1123055Y632031D02*
D03*
X1143500Y673250D02*
D03*
X1223750Y351000D02*
D03*
X1027750Y454750D02*
D03*
X976548Y492774D02*
D03*
X982548Y502775D02*
D03*
X998000Y504000D02*
D03*
X968500Y485000D02*
D03*
X961797Y489774D02*
D03*
X1018500Y438250D02*
D03*
X1020050Y448022D02*
D03*
X1052000Y453500D02*
D03*
X994000Y429250D02*
D03*
X1041500Y453750D02*
D03*
X1030250Y413000D02*
D03*
X1011250Y419250D02*
D03*
X1028050Y435021D02*
D03*
X1028500Y424000D02*
D03*
X1015500Y428250D02*
D03*
X1008500Y505750D02*
D03*
X980250Y635750D02*
D03*
X979000Y660500D02*
D03*
X1075750Y634000D02*
D03*
X1015550Y463773D02*
D03*
X994000Y458500D02*
D03*
X1023800Y468523D02*
D03*
X1002750Y425250D02*
D03*
X1002049Y448522D02*
D03*
X1013750Y392000D02*
D03*
X985250Y397250D02*
D03*
X889250Y595500D02*
D03*
X906000Y584250D02*
D03*
X980750Y406500D02*
D03*
X1013750Y402500D02*
D03*
X1099000Y604500D02*
D03*
X1089053Y596279D02*
D03*
X1099250Y591750D02*
D03*
X1004250Y438500D02*
D03*
X1041250Y467000D02*
D03*
X941500Y290250D02*
D03*
X931000Y297500D02*
D03*
X940000Y276750D02*
D03*
X941546Y301265D02*
D03*
X985250Y386250D02*
D03*
X984798Y342767D02*
D03*
X997500Y342250D02*
D03*
X925295Y313515D02*
D03*
X917500Y388500D02*
D03*
X906500Y363000D02*
D03*
X1121750Y371500D02*
D03*
X1188308Y388269D02*
D03*
X1241250Y468500D02*
D03*
X1213250Y470500D02*
D03*
X1097303Y621280D02*
D03*
X1240061Y657532D02*
D03*
X1141806Y639031D02*
D03*
X1144250Y626500D02*
D03*
X1173750Y377500D02*
D03*
X983750Y458750D02*
D03*
X993500Y677750D02*
D03*
X1091089Y440000D02*
D03*
X1092553Y430771D02*
D03*
X1123305Y645531D02*
D03*
X1089500Y612000D02*
D03*
X937046Y472523D02*
D03*
X681783Y725785D02*
D03*
X694500Y739000D02*
D03*
X671783Y739786D02*
D03*
X669283Y727286D02*
D03*
X746750Y667250D02*
D03*
X806750Y650250D02*
D03*
X795250Y650500D02*
D03*
X828290Y646532D02*
D03*
X752287Y738536D02*
D03*
X736500Y737000D02*
D03*
X755787Y725035D02*
D03*
X739786Y727286D02*
D03*
X732536Y665283D02*
D03*
X848541Y726035D02*
D03*
X854250Y736750D02*
D03*
X1087000Y713250D02*
D03*
X876500Y724750D02*
D03*
X834750Y735250D02*
D03*
X863000Y725000D02*
D03*
X941750Y734250D02*
D03*
X953500Y736500D02*
D03*
X945796Y481524D02*
D03*
X1092750Y450500D02*
D03*
X1090803Y421020D02*
D03*
X849250Y421500D02*
D03*
X1111250Y450000D02*
D03*
X1049500Y430250D02*
D03*
X1035800Y389269D02*
D03*
X942000Y345250D02*
D03*
X932000Y265500D02*
D03*
X953750Y267000D02*
D03*
X1206000Y439000D02*
D03*
X682250Y664750D02*
D03*
X651000Y657750D02*
D03*
X643500Y649750D02*
D03*
X1040250Y748000D02*
D03*
X781500Y586750D02*
D03*
X873043Y590279D02*
D03*
X791789Y598529D02*
D03*
X771538Y588029D02*
D03*
X1051750Y736250D02*
D03*
X1012250Y354500D02*
D03*
X675033Y649032D02*
D03*
X864250Y587250D02*
D03*
X1063000Y736750D02*
D03*
X840750Y404750D02*
D03*
X1173557Y364768D02*
D03*
X946750Y389000D02*
D03*
X926750Y393750D02*
D03*
X1093500Y723250D02*
D03*
X1133500Y332500D02*
D03*
X1120250Y439250D02*
D03*
X1126250Y325750D02*
D03*
X985000Y416250D02*
D03*
X904250Y388500D02*
D03*
X991048Y448272D02*
D03*
X889750Y333000D02*
D03*
X802000Y585750D02*
D03*
X703250Y622000D02*
D03*
X789000Y738750D02*
D03*
X693000Y622000D02*
D03*
X1058500Y679750D02*
D03*
X1043500Y679500D02*
D03*
X992250Y666750D02*
D03*
X784538Y666283D02*
D03*
X777750Y651000D02*
D03*
X802500Y667500D02*
D03*
X817250Y653250D02*
D03*
X740286Y656532D02*
D03*
X753000Y658250D02*
D03*
X962500Y678250D02*
D03*
X714500Y725000D02*
D03*
X913500Y726500D02*
D03*
X766750Y725000D02*
D03*
X872500Y662000D02*
D03*
X858000Y698000D02*
D03*
Y676000D02*
D03*
X783250Y725750D02*
D03*
X801250Y727500D02*
D03*
X902750Y726500D02*
D03*
X727750Y724750D02*
D03*
X891500Y729750D02*
D03*
X932500Y728500D02*
D03*
X549500Y727500D02*
D03*
D80*
X315750Y490500D02*
D03*
X306265Y474523D02*
D03*
X410770Y761037D02*
D03*
X410750Y745000D02*
D03*
X297750Y480000D02*
D03*
X863250Y317000D02*
D03*
X971000Y524107D02*
D03*
X1097000Y381000D02*
D03*
X1087000Y374500D02*
D03*
X1052801Y635281D02*
D03*
X1054161Y621250D02*
D03*
X941546Y316515D02*
D03*
X900500Y320750D02*
D03*
X857750Y389250D02*
D03*
X1206000Y388000D02*
D03*
X1159500Y285250D02*
D03*
X1231250Y377750D02*
D03*
X1242250Y700750D02*
D03*
X1232310Y648282D02*
D03*
X1157250Y579250D02*
D03*
X1139250Y515000D02*
D03*
X1157557Y604529D02*
D03*
X1145750Y606250D02*
D03*
X1159557Y592029D02*
D03*
X1170500Y539000D02*
D03*
X1164750Y527000D02*
D03*
X897750Y739250D02*
D03*
X859500Y481000D02*
D03*
X803289Y439521D02*
D03*
X786750Y437000D02*
D03*
X807250Y376250D02*
D03*
X794289Y415020D02*
D03*
X803000Y426250D02*
D03*
X777750Y409250D02*
D03*
X874000Y646000D02*
D03*
X855750Y647500D02*
D03*
X844750Y647250D02*
D03*
X895000Y646000D02*
D03*
X1057250Y357500D02*
D03*
X1067250Y347250D02*
D03*
X1092250Y360750D02*
D03*
X1040000Y299000D02*
D03*
X1062250Y264250D02*
D03*
X338250Y471500D02*
D03*
X636750Y425250D02*
D03*
X1096500Y523750D02*
D03*
X805000Y409750D02*
D03*
X851750Y473500D02*
D03*
X838041Y429521D02*
D03*
X839500Y416000D02*
D03*
X816500Y409750D02*
D03*
X827750Y423250D02*
D03*
X813750Y367500D02*
D03*
X621500Y520000D02*
D03*
X617250Y598750D02*
D03*
X612750Y609000D02*
D03*
X611750Y588750D02*
D03*
X694500Y584500D02*
D03*
X473250Y355250D02*
D03*
X472750Y332750D02*
D03*
X482500Y364250D02*
D03*
X482750Y345000D02*
D03*
X423000Y343500D02*
D03*
X405500Y348500D02*
D03*
X422750Y358250D02*
D03*
X405000Y363500D02*
D03*
X1172500Y773250D02*
D03*
X1163250Y767250D02*
D03*
X1179500Y781000D02*
D03*
X1143250Y717000D02*
D03*
X291250Y510750D02*
D03*
X306500Y500000D02*
D03*
X337750Y561750D02*
D03*
X319250Y463250D02*
D03*
X503750Y505250D02*
D03*
X509750Y467250D02*
D03*
X1227060Y529026D02*
D03*
X1215250Y535000D02*
D03*
X1208750Y526500D02*
D03*
X513250Y493250D02*
D03*
X504500Y481250D02*
D03*
X504000Y457250D02*
D03*
X615750Y574500D02*
D03*
X651250Y571750D02*
D03*
X337500Y602250D02*
D03*
X337000Y577500D02*
D03*
X610250Y547750D02*
D03*
X715250Y518000D02*
D03*
X625750Y501500D02*
D03*
X338000Y531750D02*
D03*
X644500Y535250D02*
D03*
X519775Y454522D02*
D03*
X620500Y426000D02*
D03*
X641000Y437750D02*
D03*
X814540Y353517D02*
D03*
X824750Y321500D02*
D03*
X825790Y308765D02*
D03*
X798539Y351767D02*
D03*
X787538Y348767D02*
D03*
X783038Y332766D02*
D03*
X796289Y323266D02*
D03*
X1027000Y309750D02*
D03*
X1028000Y324500D02*
D03*
X780000Y305750D02*
D03*
X743500Y312000D02*
D03*
X610750Y315500D02*
D03*
X782250Y291000D02*
D03*
X675750Y305000D02*
D03*
X604250Y300000D02*
D03*
X504250Y403000D02*
D03*
X571500Y296500D02*
D03*
X849250Y452750D02*
D03*
X1112500Y378500D02*
D03*
X541500Y269250D02*
D03*
X552250Y290250D02*
D03*
X343000Y277750D02*
D03*
X727750Y579250D02*
D03*
X1043801Y570778D02*
D03*
X1054551D02*
D03*
X891250Y620250D02*
D03*
X800250Y552250D02*
D03*
X726250Y518000D02*
D03*
X710500Y430500D02*
D03*
X774288Y497774D02*
D03*
X731000Y411250D02*
D03*
X745750Y411750D02*
D03*
X764000Y411500D02*
D03*
X543500Y680250D02*
D03*
X868750Y389250D02*
D03*
X883500Y518750D02*
D03*
X1102500Y395000D02*
D03*
X743500Y272250D02*
D03*
X560500Y271250D02*
D03*
X1237750Y504250D02*
D03*
X1156250Y661750D02*
D03*
X1159500Y716750D02*
D03*
X892250Y551500D02*
D03*
X820750Y517250D02*
D03*
X798500Y526750D02*
D03*
X788500Y521750D02*
D03*
X706000Y553250D02*
D03*
X868500Y518750D02*
D03*
X906250Y646000D02*
D03*
X704250Y596000D02*
D03*
X386500Y690250D02*
D03*
X336250Y722000D02*
D03*
X1025000Y558250D02*
D03*
X1234000Y729000D02*
D03*
X1154250Y309500D02*
D03*
X1078000Y354250D02*
D03*
X1175000Y345000D02*
D03*
X1095750Y285500D02*
D03*
X342750Y340750D02*
D03*
X925500Y577750D02*
D03*
X916545Y587529D02*
D03*
X1173750Y612000D02*
D03*
X651250Y541750D02*
D03*
X519250Y362000D02*
D03*
X702750Y338250D02*
D03*
X686534Y325766D02*
D03*
X675000Y328750D02*
D03*
X733286Y344517D02*
D03*
X739036Y519025D02*
D03*
X699284Y524776D02*
D03*
X776000Y521000D02*
D03*
X703534Y500774D02*
D03*
X731536Y491524D02*
D03*
X747536D02*
D03*
X651500Y451750D02*
D03*
X1225250Y598000D02*
D03*
X337750Y427750D02*
D03*
X337000Y445250D02*
D03*
X631750Y385000D02*
D03*
X628250Y376000D02*
D03*
X519250Y392000D02*
D03*
X519750Y422000D02*
D03*
X519500Y482000D02*
D03*
Y512000D02*
D03*
X519250Y541750D02*
D03*
X1152750Y476250D02*
D03*
X944500Y649250D02*
D03*
X423000Y772500D02*
D03*
X510500Y727250D02*
D03*
X519250Y571750D02*
D03*
X467000Y720500D02*
D03*
X501000Y739500D02*
D03*
X509750Y588750D02*
D03*
X382750Y335250D02*
D03*
X435500Y310250D02*
D03*
X422000Y307750D02*
D03*
X519250Y597750D02*
D03*
X524750Y625250D02*
D03*
X515500Y616000D02*
D03*
X510250Y373750D02*
D03*
X362750Y380500D02*
D03*
X502500Y382250D02*
D03*
X582778Y344517D02*
D03*
X578528Y328516D02*
D03*
X471500Y612000D02*
D03*
X483250D02*
D03*
X472250Y591250D02*
D03*
X483500D02*
D03*
X469750Y569750D02*
D03*
X483250D02*
D03*
X470500Y543750D02*
D03*
X484500Y543000D02*
D03*
X470000Y522000D02*
D03*
X482750D02*
D03*
X470000Y502500D02*
D03*
X483500D02*
D03*
X472000Y392000D02*
D03*
X481000Y399250D02*
D03*
X471750Y406750D02*
D03*
X481000Y414250D02*
D03*
X471750Y419000D02*
D03*
X570500Y497250D02*
D03*
X581750D02*
D03*
X593750Y497000D02*
D03*
X568750Y407000D02*
D03*
X582250Y407250D02*
D03*
X596000Y407000D02*
D03*
X568250Y377000D02*
D03*
X582250Y376750D02*
D03*
X595250Y377000D02*
D03*
D81*
X991000Y783250D02*
D03*
%TF.MD5,b2e458a695cb573f7b5c621dfc41770f*%
M02*
