G04 Layer_Physical_Order=1*
G04 Layer_Color=255*
%FSLAX44Y44*%
%MOMM*%
G71*
G01*
G75*
%ADD10R,1.6500X3.4300*%
%ADD11R,2.5400X1.2700*%
%ADD12R,0.9500X0.7500*%
%ADD13R,1.2600X0.3600*%
%ADD14R,1.6000X1.2000*%
%ADD15R,1.0000X0.6500*%
%ADD16R,0.8000X0.9500*%
%ADD17R,1.0000X0.6000*%
%ADD18R,2.8000X0.7500*%
%ADD19R,1.6500X3.4300*%
%ADD20R,1.2700X2.5400*%
%ADD21R,3.4300X1.6500*%
%ADD22R,0.7500X0.9500*%
%ADD23R,2.1500X1.4500*%
%ADD24R,0.9500X0.8000*%
%ADD25R,0.3000X1.2000*%
%ADD26R,1.2000X0.3000*%
%ADD27O,1.4000X0.9000*%
%ADD28R,0.6500X1.0000*%
%ADD29R,0.3600X1.2600*%
%ADD30R,1.2000X1.6000*%
%ADD31R,2.9200X1.2700*%
%ADD32C,0.4000*%
%ADD33C,0.2500*%
%ADD34C,0.2000*%
%ADD35C,5.5000*%
%ADD36C,1.6000*%
%ADD37C,2.0000*%
%ADD38C,0.4500*%
%ADD39C,0.9000*%
%ADD40C,0.6000*%
%ADD41C,0.5400*%
G36*
X492750Y322500D02*
X391500D01*
X391251Y618585D01*
X392665Y620000D01*
X492750D01*
Y322500D01*
D02*
G37*
G36*
X603152Y613152D02*
X602500Y612500D01*
Y353000D01*
X562500D01*
Y614750D01*
X562750Y615000D01*
X602387D01*
X603152Y613152D01*
D02*
G37*
D10*
X495200Y292950D02*
D03*
Y640850D02*
D03*
X626950Y322950D02*
D03*
Y640850D02*
D03*
X307850Y646600D02*
D03*
Y358700D02*
D03*
D11*
X448200Y331900D02*
D03*
Y361900D02*
D03*
Y391900D02*
D03*
Y421900D02*
D03*
Y451900D02*
D03*
Y481900D02*
D03*
Y511900D02*
D03*
Y541900D02*
D03*
Y571900D02*
D03*
Y601900D02*
D03*
X542200Y331900D02*
D03*
Y361900D02*
D03*
Y391900D02*
D03*
Y421900D02*
D03*
Y451900D02*
D03*
Y481900D02*
D03*
Y511900D02*
D03*
Y541900D02*
D03*
Y571900D02*
D03*
Y601900D02*
D03*
X1224450Y483150D02*
D03*
Y453150D02*
D03*
Y423150D02*
D03*
Y393150D02*
D03*
X579950Y361900D02*
D03*
Y391900D02*
D03*
Y421900D02*
D03*
Y451900D02*
D03*
Y481900D02*
D03*
Y511900D02*
D03*
Y541900D02*
D03*
Y571900D02*
D03*
Y601900D02*
D03*
X673950Y361900D02*
D03*
Y391900D02*
D03*
Y421900D02*
D03*
Y451900D02*
D03*
Y481900D02*
D03*
Y511900D02*
D03*
Y541900D02*
D03*
Y571900D02*
D03*
Y601900D02*
D03*
D12*
X795250Y367000D02*
D03*
Y381500D02*
D03*
X591750Y753250D02*
D03*
Y767750D02*
D03*
D13*
X716000Y381500D02*
D03*
Y375000D02*
D03*
Y368500D02*
D03*
Y362000D02*
D03*
Y355500D02*
D03*
Y349000D02*
D03*
Y342500D02*
D03*
X774000Y381500D02*
D03*
Y375000D02*
D03*
Y368500D02*
D03*
Y362000D02*
D03*
Y355500D02*
D03*
Y349000D02*
D03*
Y342500D02*
D03*
X955250Y316250D02*
D03*
Y309750D02*
D03*
Y303250D02*
D03*
Y296750D02*
D03*
Y290250D02*
D03*
Y283750D02*
D03*
Y277250D02*
D03*
X1013250Y316250D02*
D03*
Y309750D02*
D03*
Y303250D02*
D03*
Y296750D02*
D03*
Y290250D02*
D03*
Y283750D02*
D03*
Y277250D02*
D03*
D14*
X403500Y307750D02*
D03*
Y278750D02*
D03*
X880000Y309750D02*
D03*
Y280750D02*
D03*
X961500Y368250D02*
D03*
Y339250D02*
D03*
X716500Y695000D02*
D03*
Y666000D02*
D03*
X721000Y767500D02*
D03*
Y738500D02*
D03*
X817500Y767500D02*
D03*
Y738500D02*
D03*
X917250Y769000D02*
D03*
Y740000D02*
D03*
X819750Y696500D02*
D03*
Y667500D02*
D03*
X906500Y696000D02*
D03*
Y667000D02*
D03*
X755250Y617250D02*
D03*
Y588250D02*
D03*
X847000Y616250D02*
D03*
Y587250D02*
D03*
X757500Y550750D02*
D03*
Y521750D02*
D03*
X849750Y548250D02*
D03*
Y519250D02*
D03*
X945500Y547500D02*
D03*
Y518500D02*
D03*
X759000Y461750D02*
D03*
Y432750D02*
D03*
X1045500Y547250D02*
D03*
Y518250D02*
D03*
X652500Y298500D02*
D03*
Y269500D02*
D03*
X841250Y356000D02*
D03*
Y327000D02*
D03*
X726750Y273250D02*
D03*
Y302250D02*
D03*
D15*
X799500Y608250D02*
D03*
X823500Y617250D02*
D03*
Y599250D02*
D03*
X865750Y353500D02*
D03*
Y335500D02*
D03*
X889750Y344500D02*
D03*
X903500Y288500D02*
D03*
Y270500D02*
D03*
X927500Y279500D02*
D03*
X939500Y333750D02*
D03*
X915500Y324750D02*
D03*
Y342750D02*
D03*
X852750Y290000D02*
D03*
Y308000D02*
D03*
X828750Y299000D02*
D03*
X692500Y678750D02*
D03*
Y696750D02*
D03*
X668500Y687750D02*
D03*
X671500Y759250D02*
D03*
X695500Y768250D02*
D03*
Y750250D02*
D03*
X793750Y749500D02*
D03*
Y767500D02*
D03*
X769750Y758500D02*
D03*
X869750Y759500D02*
D03*
X893750Y768500D02*
D03*
Y750500D02*
D03*
X797500Y679000D02*
D03*
Y697000D02*
D03*
X773500Y688000D02*
D03*
X860750Y687250D02*
D03*
X884750Y696250D02*
D03*
Y678250D02*
D03*
X731750Y599250D02*
D03*
Y617250D02*
D03*
X707750Y608250D02*
D03*
X917500Y599250D02*
D03*
Y617250D02*
D03*
X893500Y608250D02*
D03*
X707750Y542500D02*
D03*
X731750Y551500D02*
D03*
Y533500D02*
D03*
X827250Y531750D02*
D03*
Y549750D02*
D03*
X803250Y540750D02*
D03*
X898000Y539000D02*
D03*
X922000Y548000D02*
D03*
Y530000D02*
D03*
X1019750D02*
D03*
Y548000D02*
D03*
X995750Y539000D02*
D03*
X711250Y453500D02*
D03*
X735250Y462500D02*
D03*
Y444500D02*
D03*
D16*
X1144250Y588250D02*
D03*
X1130750D02*
D03*
X1133500Y527500D02*
D03*
X1147000D02*
D03*
X1145000Y294750D02*
D03*
X1131500D02*
D03*
X1145000Y276750D02*
D03*
X1131500D02*
D03*
X1081250Y276000D02*
D03*
X1067750D02*
D03*
X1081250Y295000D02*
D03*
X1067750D02*
D03*
X1112000Y335250D02*
D03*
X1098500D02*
D03*
X1112250Y317250D02*
D03*
X1098750D02*
D03*
X1081250Y316250D02*
D03*
X1067750D02*
D03*
X1080500Y335250D02*
D03*
X1067000D02*
D03*
X1181750Y697000D02*
D03*
X1195250D02*
D03*
X1181500Y663250D02*
D03*
X1195000D02*
D03*
X1203000Y571750D02*
D03*
X1189500D02*
D03*
X1203000Y590750D02*
D03*
X1189500D02*
D03*
Y553250D02*
D03*
X1203000D02*
D03*
X615000Y271750D02*
D03*
X628500D02*
D03*
X896250Y375750D02*
D03*
X909750D02*
D03*
X755000Y305750D02*
D03*
X768500D02*
D03*
Y272250D02*
D03*
X755000D02*
D03*
X370000Y277250D02*
D03*
X356500D02*
D03*
D17*
X1159250Y566250D02*
D03*
Y547250D02*
D03*
X1132250D02*
D03*
Y556750D02*
D03*
Y566250D02*
D03*
X1133000Y464500D02*
D03*
Y474000D02*
D03*
Y483500D02*
D03*
X1106000D02*
D03*
Y464500D02*
D03*
X1158500Y344500D02*
D03*
Y354000D02*
D03*
Y363500D02*
D03*
X1131500D02*
D03*
Y344500D02*
D03*
D18*
X885750Y454751D02*
D03*
Y442251D02*
D03*
Y429751D02*
D03*
Y417251D02*
D03*
Y404751D02*
D03*
X926750Y454751D02*
D03*
Y442251D02*
D03*
Y429751D02*
D03*
Y417251D02*
D03*
Y404751D02*
D03*
D19*
X1192450Y356800D02*
D03*
Y519500D02*
D03*
D20*
X485650Y749050D02*
D03*
X455650D02*
D03*
X425650D02*
D03*
X395650D02*
D03*
D21*
X359300Y781050D02*
D03*
X522000D02*
D03*
D22*
X1216500Y697000D02*
D03*
X1231000D02*
D03*
X1216250Y663250D02*
D03*
X1230750D02*
D03*
D23*
X1133500Y386250D02*
D03*
Y423250D02*
D03*
D24*
X1104000Y410750D02*
D03*
Y424250D02*
D03*
X747750Y697250D02*
D03*
Y683750D02*
D03*
X749500Y769750D02*
D03*
Y756250D02*
D03*
X841000Y768500D02*
D03*
Y755000D02*
D03*
X941750Y770000D02*
D03*
Y756500D02*
D03*
X843250Y684500D02*
D03*
Y698000D02*
D03*
X931500Y696500D02*
D03*
Y683000D02*
D03*
X780000Y619500D02*
D03*
Y606000D02*
D03*
X874250Y616500D02*
D03*
Y603000D02*
D03*
X936250Y620750D02*
D03*
Y607250D02*
D03*
X782750Y552250D02*
D03*
Y538750D02*
D03*
X876750Y548500D02*
D03*
Y535000D02*
D03*
X969000Y549500D02*
D03*
Y536000D02*
D03*
X785750Y464000D02*
D03*
Y450500D02*
D03*
X1097750Y548750D02*
D03*
Y535250D02*
D03*
D25*
X1057250Y371000D02*
D03*
X1052250D02*
D03*
X1047250D02*
D03*
X1042250D02*
D03*
X1037250D02*
D03*
X1032250D02*
D03*
X1027250D02*
D03*
X1022250D02*
D03*
X1017250D02*
D03*
X1012250D02*
D03*
X1007250D02*
D03*
X1002250D02*
D03*
X997250D02*
D03*
X992250D02*
D03*
X987250D02*
D03*
X982250D02*
D03*
Y485500D02*
D03*
X987250D02*
D03*
X992250D02*
D03*
X997250D02*
D03*
X1002250D02*
D03*
X1007250D02*
D03*
X1012250D02*
D03*
X1017250D02*
D03*
X1022250D02*
D03*
X1027250D02*
D03*
X1032250D02*
D03*
X1037250D02*
D03*
X1042250D02*
D03*
X1047250D02*
D03*
X1052250D02*
D03*
X1057250D02*
D03*
D26*
X962500Y390750D02*
D03*
Y395750D02*
D03*
Y400750D02*
D03*
Y405750D02*
D03*
Y410750D02*
D03*
Y415750D02*
D03*
Y420750D02*
D03*
Y425750D02*
D03*
Y430750D02*
D03*
Y435750D02*
D03*
Y440750D02*
D03*
Y445750D02*
D03*
Y450750D02*
D03*
Y455750D02*
D03*
Y460750D02*
D03*
Y465750D02*
D03*
X1077000D02*
D03*
Y460750D02*
D03*
Y455750D02*
D03*
Y450750D02*
D03*
Y445750D02*
D03*
Y440750D02*
D03*
Y435750D02*
D03*
Y430750D02*
D03*
Y425750D02*
D03*
Y420750D02*
D03*
Y415750D02*
D03*
Y410750D02*
D03*
Y405750D02*
D03*
Y400750D02*
D03*
Y395750D02*
D03*
Y390750D02*
D03*
D27*
X1196000Y628000D02*
D03*
Y613000D02*
D03*
X1219000Y628000D02*
D03*
Y613000D02*
D03*
D28*
X361250Y335250D02*
D03*
X370250Y311250D02*
D03*
X352250D02*
D03*
X681250Y276750D02*
D03*
X699250D02*
D03*
X690250Y300750D02*
D03*
X582750Y295250D02*
D03*
X591750Y271250D02*
D03*
X573750D02*
D03*
D29*
X609750Y709750D02*
D03*
X616250D02*
D03*
X622750D02*
D03*
X629250D02*
D03*
X635750D02*
D03*
X642250D02*
D03*
X648750D02*
D03*
X609750Y767750D02*
D03*
X616250D02*
D03*
X622750D02*
D03*
X629250D02*
D03*
X635750D02*
D03*
X642250D02*
D03*
X648750D02*
D03*
D30*
X1048750Y586250D02*
D03*
X1077750D02*
D03*
X819250Y274250D02*
D03*
X790250D02*
D03*
D31*
X408850Y607650D02*
D03*
Y577650D02*
D03*
Y547650D02*
D03*
Y517650D02*
D03*
Y487650D02*
D03*
Y457650D02*
D03*
Y427650D02*
D03*
Y397650D02*
D03*
X362650Y607650D02*
D03*
Y577650D02*
D03*
Y547650D02*
D03*
Y517650D02*
D03*
Y487650D02*
D03*
Y457650D02*
D03*
Y427650D02*
D03*
Y397650D02*
D03*
D32*
X780033Y666283D02*
X784538D01*
X761250Y647500D02*
X780033Y666283D01*
X700115Y647500D02*
X761250D01*
X868186Y669000D02*
X893328D01*
X895078Y667250D01*
X903750D01*
X702600Y641500D02*
X813789D01*
X817257Y638032D01*
X857532D01*
X864500Y645000D01*
X686000Y624899D02*
X702600Y641500D01*
X991000Y783250D02*
X999000Y775250D01*
X847250Y727327D02*
X848541Y726035D01*
X847250Y727327D02*
Y737000D01*
X841000Y743250D02*
X847250Y737000D01*
X841000Y743250D02*
Y755000D01*
X773250Y670500D02*
Y687750D01*
X758250Y655500D02*
X773250Y670500D01*
X758287Y653782D02*
Y655463D01*
X758250Y655500D02*
X758287Y655463D01*
X769750Y735000D02*
Y758500D01*
X749500Y740750D02*
Y756250D01*
X731064Y571250D02*
X733064Y569250D01*
X811848Y566250D02*
X823098Y577500D01*
X817161Y560250D02*
X826411Y569500D01*
X706186Y564750D02*
X719623D01*
X697750Y556314D02*
X706186Y564750D01*
X719623D02*
X721123Y563250D01*
X905250Y585000D02*
X906000Y584250D01*
X905250Y585000D02*
Y601750D01*
X1096500Y523750D02*
X1097750Y525000D01*
X617043Y619700D02*
X671915D01*
X611493Y625250D02*
X617043Y619700D01*
X362650Y380600D02*
X362750Y380500D01*
X362650Y380600D02*
Y397650D01*
X528100Y616000D02*
X542200Y601900D01*
X515500Y616000D02*
X528100D01*
X524750Y625250D02*
X611493D01*
X519250Y571750D02*
X542050D01*
X542200Y571900D01*
X843250Y698000D02*
X858000D01*
X779000Y725750D02*
X783250D01*
X858000Y676000D02*
X860750Y678750D01*
X917250Y757750D02*
Y769000D01*
X910000Y750500D02*
X917250Y757750D01*
X893750Y750500D02*
X910000D01*
X739750Y657068D02*
X740286Y656532D01*
X802500Y667500D02*
X819750D01*
X797500Y679000D02*
X814750D01*
X819750Y684000D01*
X721000Y757250D02*
Y767500D01*
X609750Y709750D02*
Y722750D01*
X721000Y738500D02*
X735000D01*
X739750Y675750D02*
X747750Y683750D01*
X906500Y684250D02*
Y696000D01*
X900500Y678250D02*
X906500Y684250D01*
X1051000Y723250D02*
X1093500D01*
X1012000Y762250D02*
X1051000Y723250D01*
X1006030Y762250D02*
X1012000D01*
X999000Y769279D02*
X1006030Y762250D01*
X1158250Y344250D02*
X1158500Y344500D01*
X1149750Y344250D02*
X1158250D01*
X1148250Y345750D02*
X1149750Y344250D01*
X1148250Y345750D02*
Y359750D01*
X1152000Y363500D01*
X1158500D01*
Y470500D01*
X1152750Y476250D02*
X1158500Y470500D01*
X1133000Y483500D02*
X1145500D01*
X1152750Y476250D01*
X1133000Y464500D02*
X1141000D01*
X1152750Y476250D01*
X542100Y482000D02*
X542200Y481900D01*
X519500Y482000D02*
X542100D01*
X542100Y512000D02*
X542200Y511900D01*
X519500Y512000D02*
X542100D01*
X542050Y541750D02*
X542200Y541900D01*
X519250Y541750D02*
X542050D01*
X362500Y457500D02*
X362650Y457650D01*
X362500Y448750D02*
Y457500D01*
X359250Y445500D02*
X362500Y448750D01*
X337000Y445250D02*
X359250Y445500D01*
X362550Y427750D02*
X362650Y427650D01*
X337750Y427750D02*
X362550D01*
X758625Y490774D02*
X784524D01*
X750399Y499000D02*
X758625Y490774D01*
X755385Y502500D02*
X769114D01*
X752885Y505000D02*
X755385Y502500D01*
X731536Y491524D02*
X734726D01*
X729880Y498750D02*
X745620D01*
X729630Y499000D02*
X729880Y498750D01*
X729112Y499000D02*
X729630D01*
X705000Y474888D02*
X729112Y499000D01*
X732365Y504750D02*
X743135D01*
X732115Y505000D02*
X732365Y504750D01*
X726627Y505000D02*
X732115D01*
X699000Y477373D02*
X726627Y505000D01*
X740899Y511000D02*
X779447D01*
X740649Y510750D02*
X740899Y511000D01*
X734850Y510750D02*
X740649D01*
X734601Y511000D02*
X734850Y510750D01*
X724142Y511000D02*
X734601D01*
X693000Y479858D02*
X724142Y511000D01*
X693000Y473500D02*
Y479858D01*
X699000Y463642D02*
Y477373D01*
X705000Y460850D02*
Y474888D01*
X734726Y491524D02*
X734750Y491500D01*
X775250Y521750D02*
X776000Y521000D01*
X711250Y468000D02*
X734750Y491500D01*
X745870Y499000D02*
X750399D01*
X743385Y505000D02*
X752885D01*
X686534Y304967D02*
Y325766D01*
X519250Y362000D02*
X519350Y361900D01*
X542200D01*
X482500Y316500D02*
X508250D01*
X444750Y278750D02*
X482500Y316500D01*
X403500Y278750D02*
X444750D01*
X508250Y316500D02*
X523650Y331900D01*
X542200D01*
X695500Y440000D02*
Y460142D01*
X701500Y419450D02*
Y457657D01*
X674750Y602700D02*
Y613500D01*
X717250Y665250D02*
X717282Y665283D01*
X769750Y735000D02*
X779000Y725750D01*
X703250Y622000D02*
X708000Y617250D01*
X576250Y296500D02*
X577250Y295500D01*
X686534Y304967D02*
X690500Y301000D01*
X945000Y519000D02*
X945500Y518500D01*
X711250Y453500D02*
Y468000D01*
X759000Y450500D02*
Y461750D01*
X1048750Y586250D02*
Y595000D01*
X1044500Y599250D02*
X1048750Y595000D01*
X917500Y599250D02*
X1044500D01*
X841250Y356000D02*
X851500D01*
X854000Y353500D02*
X865750D01*
X851500Y356000D02*
X854000Y353500D01*
X652500Y289750D02*
Y298500D01*
X573750Y271250D02*
Y280250D01*
X712500Y273250D02*
X726750D01*
X681250Y269750D02*
Y276750D01*
X819250Y274250D02*
X844000D01*
X903500Y288500D02*
Y304250D01*
X898000Y309750D02*
X903500Y304250D01*
X880000Y309750D02*
X898000D01*
X925500Y368250D02*
X961500D01*
X915500Y358250D02*
X925500Y368250D01*
X915500Y342750D02*
Y358250D01*
X354929Y311250D02*
X364929Y321250D01*
X352250Y311250D02*
X354929D01*
X370000Y277250D02*
Y311000D01*
X591750Y271250D02*
X614500D01*
X615000Y271750D01*
X793750Y749500D02*
X808500D01*
X817500Y758500D01*
Y767500D01*
Y738500D02*
X831500D01*
X906500Y739500D02*
X916750D01*
X917250Y740000D01*
X995750Y539000D02*
Y546250D01*
X1007750Y558250D01*
X1025000D01*
X969000Y536000D02*
X980250D01*
X983250Y539000D01*
X995750D01*
X692500Y678750D02*
X709500D01*
X716500Y685750D01*
Y695000D01*
Y666000D02*
X717250Y665250D01*
X819750Y684000D02*
Y696500D01*
X731750Y599250D02*
X746750D01*
X755250Y607750D01*
Y617250D01*
X841000Y599250D02*
X847000Y605250D01*
Y616250D01*
X708000Y617250D02*
X731750D01*
X704250Y596000D02*
X707750Y599500D01*
Y608250D01*
X874250Y590500D02*
Y603000D01*
X910750Y607250D02*
X936250D01*
X905250Y601750D02*
X910750Y607250D01*
X668500Y678500D02*
Y687750D01*
X773250Y687750D02*
X773500Y688000D01*
X860750Y678750D02*
Y687250D01*
X922000Y530000D02*
X940250D01*
X945500Y535250D01*
Y547500D01*
X1019750Y530000D02*
X1040750D01*
X1045500Y534750D01*
Y547250D01*
X706000Y553250D02*
X708000Y551250D01*
Y542750D02*
Y551250D01*
X707750Y542500D02*
X708000Y542750D01*
X788500Y521750D02*
Y524750D01*
X782750Y530500D02*
X788500Y524750D01*
X782750Y530500D02*
Y538750D01*
X798500Y526750D02*
X803250Y531500D01*
Y540750D01*
X849250Y518750D02*
X849750Y519250D01*
X876750Y535000D02*
X883500D01*
X886250Y537750D01*
Y545500D01*
X892250Y551500D01*
X896000D01*
X898000Y549500D01*
Y539000D02*
Y549500D01*
X827250Y531750D02*
X846250D01*
X849750Y535250D01*
Y548250D01*
X1224450Y423150D02*
X1224500Y423100D01*
X1158500Y344500D02*
X1174500D01*
X961500Y339250D02*
X972750D01*
X870250Y280750D02*
X880000D01*
X786000Y291000D02*
X790250Y286750D01*
Y274250D02*
Y286750D01*
X726750Y302250D02*
X739500D01*
X743500Y306250D01*
X577250Y295500D02*
X582500D01*
X582750Y295250D01*
X652500Y269500D02*
X662500D01*
X690250Y300750D02*
X690500Y301000D01*
X743500Y272250D02*
X755000D01*
X884750Y678250D02*
X900500D01*
X735250Y444500D02*
X744729D01*
X747479Y447250D01*
X755750D01*
X759000Y450500D01*
X673950Y361900D02*
X691150D01*
X696750Y367500D01*
Y386899D01*
X728600Y418750D01*
X754750D02*
X759000Y423000D01*
X728600Y418750D02*
X754750D01*
X759000Y423000D02*
Y432750D01*
X945500Y510750D02*
Y518500D01*
X784524Y490774D02*
X786274Y492524D01*
X673950Y428450D02*
X679500Y434000D01*
X673950Y421900D02*
Y428450D01*
X769114Y502500D02*
X771388Y504774D01*
X673950Y391900D02*
X701500Y419450D01*
X679500Y434000D02*
X689500D01*
X695500Y440000D01*
X704593Y460750D02*
X704900D01*
X705000Y460850D01*
X701500Y457657D02*
X704593Y460750D01*
X695500Y460142D02*
X699000Y463642D01*
X849750Y511750D02*
Y519250D01*
X847024Y509024D02*
X849750Y511750D01*
X781423Y509024D02*
X847024D01*
X771388Y504774D02*
X777187D01*
X743135Y504750D02*
X743385Y505000D01*
X745620Y498750D02*
X745870Y499000D01*
X779447Y511000D02*
X781423Y509024D01*
X673950Y454450D02*
X693000Y473500D01*
X673950Y451900D02*
Y454450D01*
X757500Y521750D02*
X775250D01*
X673950Y481900D02*
Y494450D01*
X1077750Y575000D02*
Y586250D01*
X1067000Y564250D02*
X1077750Y575000D01*
X1061314Y564250D02*
X1067000D01*
X1059814Y562750D02*
X1061314Y564250D01*
X1031814Y562750D02*
X1059814D01*
X1028314Y566250D02*
X1031814Y562750D01*
X1021686Y566250D02*
X1028314D01*
X1020686Y565250D02*
X1021686Y566250D01*
X904839Y565250D02*
X1020686D01*
X690250Y527250D02*
X697750Y534750D01*
X690250Y515250D02*
Y527250D01*
X686900Y511900D02*
X690250Y515250D01*
X673950Y511900D02*
X686900D01*
X823500Y599250D02*
X841000D01*
X826411Y569500D02*
X900589D01*
X904839Y565250D01*
X837250Y577500D02*
X847000Y587250D01*
X823098Y577500D02*
X837250D01*
X722936Y572750D02*
X724436Y571250D01*
X731064D01*
X777187Y504774D02*
X778937Y503024D01*
X903750Y667250D02*
X906500Y670000D01*
X673950Y601900D02*
X674750Y602700D01*
X364929Y321250D02*
X375500D01*
X389000Y307750D01*
X403500D01*
X571500Y296500D02*
X576250D01*
X782250Y291000D02*
X786000D01*
X743500Y306250D02*
Y312000D01*
X519775Y454522D02*
X539578D01*
X542200Y451900D01*
X348550Y531750D02*
X362650Y517650D01*
X338000Y531750D02*
X348550D01*
X362650Y547650D02*
Y556600D01*
X337150Y577650D02*
X362650D01*
X337000Y577500D02*
X337150Y577650D01*
X874029Y590279D02*
X874250Y590500D01*
X873043Y590279D02*
X874029D01*
X671915Y619700D02*
X672115Y619500D01*
X780000Y588241D02*
Y606000D01*
Y588241D02*
X781491Y586750D01*
X781500D01*
X791789Y598529D02*
X796779D01*
X799500Y601250D01*
Y608250D01*
X686000Y624750D02*
Y624899D01*
X674750Y613500D02*
X686000Y624750D01*
X672115Y619500D02*
X700115Y647500D01*
X697750Y534750D02*
Y556314D01*
X999000Y769279D02*
Y775250D01*
X1063000Y736750D02*
Y739221D01*
X337750Y561750D02*
X357500D01*
X362650Y556600D01*
X1090000Y716250D02*
X1096400D01*
X673950Y541900D02*
X704800Y572750D01*
X722936D01*
X673950Y571900D02*
X695465D01*
X702315Y578750D01*
X718750D01*
X720750Y580750D01*
Y582150D01*
X726601Y588000D01*
X755000D01*
X673950Y494450D02*
X677050Y497550D01*
X689964D01*
X693188Y500774D01*
X703534D01*
X668500Y678500D02*
X682250Y664750D01*
X1097750Y525000D02*
Y535250D01*
X346150Y487650D02*
X362650D01*
X338250Y479750D02*
X346150Y487650D01*
X338250Y471500D02*
Y479750D01*
X972750Y339250D02*
X976267Y342767D01*
X941750Y734250D02*
Y756500D01*
X831500Y738500D02*
X834750Y735250D01*
X1087000Y713250D02*
X1090000Y716250D01*
X739750Y657068D02*
Y675750D01*
X717282Y665283D02*
X732536D01*
X864500Y665314D02*
X868186Y669000D01*
X864500Y645000D02*
Y665314D01*
X778937Y503024D02*
X937774D01*
X945500Y510750D01*
X786274Y492524D02*
X948991D01*
X906250Y739250D02*
X906500Y739500D01*
X1144250Y588250D02*
X1153250Y579250D01*
X1157250D01*
X1144250Y588250D02*
Y597850D01*
X1134750Y607351D02*
X1144250Y597850D01*
X1112600Y672650D02*
X1120100D01*
X1134750Y641875D02*
X1135000Y642125D01*
X1134750Y607351D02*
Y641875D01*
X1224500Y410250D02*
Y423100D01*
X1213000Y407000D02*
X1221250D01*
X1224500Y410250D01*
X1206000Y400000D02*
X1213000Y407000D01*
X1206000Y388000D02*
Y400000D01*
X519750Y422000D02*
X542100D01*
X542200Y421900D01*
X519250Y392000D02*
X542100D01*
X542200Y391900D01*
X1003971Y798250D02*
X1063000Y739221D01*
X976267Y342767D02*
X984798D01*
X345443Y798250D02*
X1003971D01*
X331943Y784750D02*
X345443Y798250D01*
X893500Y599750D02*
Y608250D01*
X889250Y595500D02*
X893500Y599750D01*
X948991Y492524D02*
X957241Y500774D01*
X983528Y518250D02*
X1045500D01*
X957241Y500774D02*
X966874D01*
X268500Y553250D02*
X315750Y506000D01*
X844000Y274250D02*
X851292Y281542D01*
X862542Y279014D02*
X868514D01*
X851292Y288542D02*
X852750Y290000D01*
X851292Y281542D02*
Y288542D01*
X868514Y279014D02*
X870250Y280750D01*
X681250Y269750D02*
X683250Y267750D01*
X707000D01*
X712500Y273250D01*
X315750Y490500D02*
Y506000D01*
X268500Y553250D02*
Y766298D01*
X286952Y784750D01*
X331943D01*
X591750Y742250D02*
Y753250D01*
X648750Y709750D02*
X651032Y712032D01*
Y721035D01*
X603000Y729500D02*
X609750Y722750D01*
X586000Y729500D02*
X603000D01*
X745979Y565250D02*
X769021D01*
X743494Y571250D02*
X771506D01*
X776506Y566250D01*
X811848D01*
X741494Y569250D02*
X743494Y571250D01*
X774021Y560250D02*
X817161D01*
X769021Y565250D02*
X774021Y560250D01*
X733064Y569250D02*
X741494D01*
X721123Y563250D02*
X743979D01*
X745979Y565250D01*
X754578Y541078D02*
X757500Y544000D01*
Y550750D01*
X731750Y533500D02*
X740000D01*
X747578Y541078D01*
X754578D01*
X662500Y269500D02*
X668750Y275750D01*
Y322500D01*
X675000Y328750D01*
X646250Y283500D02*
X652500Y289750D01*
X577000Y283500D02*
X646250D01*
X573750Y280250D02*
X577000Y283500D01*
X695500Y750250D02*
X707436D01*
X709686Y752500D01*
X716250D01*
X721000Y757250D01*
X1135000Y642125D02*
Y657750D01*
X1120100Y672650D02*
X1135000Y657750D01*
X1166438Y786288D02*
X1181558D01*
X1156250Y767771D02*
X1161229Y772750D01*
X1168271D01*
X1096400Y716250D02*
X1150250Y770100D01*
Y770256D01*
X1158744Y778750D01*
X1158900D01*
X1166438Y786288D01*
X1156250Y750798D02*
Y767771D01*
Y750798D02*
X1159500Y747548D01*
Y716750D02*
Y747548D01*
X1168271Y772750D02*
X1173807Y778287D01*
Y778538D01*
X869750Y751500D02*
Y759500D01*
Y751500D02*
X888500Y732750D01*
Y729500D02*
Y732750D01*
X905964Y739536D02*
X906250Y739250D01*
X898044Y739536D02*
X905964D01*
X735000Y738500D02*
X736500Y737000D01*
X747287Y738536D02*
X749500Y740750D01*
X966874Y500774D02*
X972298Y506197D01*
Y507020D01*
X983528Y518250D01*
X356000Y277750D02*
X356500Y277250D01*
X343000Y277750D02*
X356000D01*
D33*
X892871Y662032D02*
X897154Y657750D01*
X871793Y662032D02*
X892871D01*
X826886Y631750D02*
X908750D01*
X909750Y630750D01*
X825886D02*
X826886Y631750D01*
X817114Y630750D02*
X825886D01*
X811614Y636250D02*
X817114Y630750D01*
X871250Y627250D02*
X874250Y624250D01*
X828750Y627250D02*
X871250D01*
X823500Y622000D02*
X828750Y627250D01*
X423000Y772500D02*
X480000D01*
X754250Y662500D02*
X755750Y664000D01*
Y689096D01*
X747750Y697096D02*
X755750Y689096D01*
X747750Y697096D02*
Y697250D01*
X767000Y778500D02*
X774500D01*
X745500D02*
X767000D01*
Y770500D02*
Y778500D01*
X761500Y765000D02*
X767000Y770500D01*
X761500Y741000D02*
Y765000D01*
X644957Y758200D02*
X665500Y737657D01*
X637750Y758200D02*
X644957D01*
X635750Y760200D02*
X637750Y758200D01*
X979048Y636798D02*
Y660032D01*
X979000Y636750D02*
X979048Y636798D01*
X926064Y665533D02*
X992298D01*
X924846Y666750D02*
X926064Y665533D01*
X985472Y684000D02*
X1003612D01*
X979722Y678250D02*
X985472Y684000D01*
X962500Y678250D02*
X979722D01*
X1173557Y357807D02*
Y364768D01*
X586750Y348500D02*
X688500D01*
X582750Y344500D02*
X586750Y348500D01*
X688500D02*
X702000Y362000D01*
X578766Y328516D02*
X594250Y344000D01*
X578528Y328516D02*
X578766D01*
X582767Y344517D02*
X582778D01*
X594250Y344000D02*
X696250D01*
X701250Y349000D01*
X409096Y294750D02*
X415750Y301404D01*
Y310339D01*
X419411Y314000D02*
X424589D01*
X415750Y310339D02*
X419411Y314000D01*
X424589D02*
X428339Y310250D01*
X435500D01*
X466500Y720500D02*
X467000D01*
X480000Y772500D02*
X485500Y767000D01*
X395650Y749050D02*
X406700D01*
X928750Y706000D02*
X931500Y703250D01*
X889000Y706000D02*
X928750D01*
X884750Y701750D02*
X889000Y706000D01*
X747596Y710750D02*
X761346Y697000D01*
X747750Y697250D02*
Y702750D01*
X744250Y706250D02*
X747750Y702750D01*
X861500Y715500D02*
X880750Y696250D01*
X809500Y715500D02*
X861500D01*
X797500Y703500D02*
X809500Y715500D01*
X797500Y697000D02*
Y703500D01*
X761346Y697000D02*
X797500D01*
X807250Y704000D02*
X811000Y707750D01*
X830750D01*
X931500Y696500D02*
Y703250D01*
X830750Y707750D02*
X833750Y704750D01*
Y687250D02*
Y704750D01*
X731386Y636250D02*
X811614D01*
X733250Y631750D02*
X809750D01*
X736500Y627250D02*
X778500D01*
X815750Y620000D02*
Y625750D01*
X809750Y631750D02*
X815750Y625750D01*
X915846Y657750D02*
X924846Y666750D01*
X989250Y765241D02*
X1110250Y644241D01*
X989250Y765241D02*
Y766614D01*
X984750Y763377D02*
Y764750D01*
X993750Y767105D02*
X1114750Y646105D01*
X993750Y767105D02*
Y768478D01*
X1130750Y580346D02*
X1140500Y570596D01*
X1137500Y547250D02*
X1140500Y550250D01*
Y570596D01*
X1131500Y547250D02*
X1137500D01*
X1218000Y599839D02*
X1219000Y600839D01*
X1218000Y595750D02*
Y599839D01*
X1213000Y590750D02*
X1218000Y595750D01*
X1226750Y628000D02*
X1231750Y623000D01*
Y584000D02*
Y623000D01*
X1219500Y571750D02*
X1231750Y584000D01*
X1219000Y600839D02*
Y613000D01*
X747024Y491524D02*
X747536D01*
X735250Y479750D02*
X747024Y491524D01*
X735250Y468750D02*
Y479750D01*
X733286Y344517D02*
Y344714D01*
X722500Y355500D02*
X733286Y344714D01*
X702750Y338250D02*
X707000Y342500D01*
X702000Y362000D02*
Y370000D01*
X370000Y277250D02*
X381500D01*
X693000Y622000D02*
X694411D01*
X642250Y683250D02*
X655718Y669782D01*
X700661Y628250D02*
X723386D01*
X694411Y622000D02*
X700661Y628250D01*
X789500Y585750D02*
X802000D01*
X765500Y362000D02*
X774000D01*
X756750Y353250D02*
X765500Y362000D01*
X756750Y327750D02*
Y353250D01*
X889750Y333000D02*
Y344500D01*
X974092Y430750D02*
X991048Y447706D01*
Y448272D01*
X1173750Y612000D02*
X1183500D01*
X992500Y478154D02*
Y485250D01*
Y478154D02*
X993000Y477654D01*
Y462361D02*
Y477654D01*
X1017250Y478404D02*
X1024050Y471604D01*
X971750Y447500D02*
Y468596D01*
X876839Y388500D02*
X904250D01*
X871339Y383000D02*
X876839Y388500D01*
X774000Y381500D02*
X795250D01*
X867749Y404751D02*
X885750D01*
X984500Y415750D02*
X985000Y416250D01*
X1195750Y649000D02*
X1196000Y649250D01*
X1181500Y663250D02*
X1195750Y649000D01*
X1119250Y561000D02*
X1124500Y566250D01*
X1119250Y530500D02*
Y561000D01*
X1127500Y556750D02*
X1132250D01*
X1124000Y553250D02*
X1127500Y556750D01*
X1124000Y542904D02*
Y553250D01*
Y542904D02*
X1124250Y542654D01*
Y490250D02*
Y542654D01*
X926375Y620375D02*
X935875D01*
X923250Y617250D02*
X926375Y620375D01*
X917500Y617250D02*
X923250D01*
X935875Y620375D02*
X936250Y620750D01*
X774500Y778500D02*
X785500Y767500D01*
X749500Y769750D02*
Y774500D01*
X745500Y778500D02*
X749500Y774500D01*
X941500Y340250D02*
Y344750D01*
X939500Y338250D02*
X941500Y340250D01*
X939500Y333750D02*
Y338250D01*
X828750Y299000D02*
Y304250D01*
X825750Y307250D02*
X828750Y304250D01*
X355250Y335250D02*
X361250D01*
X349750Y340750D02*
X355250Y335250D01*
X342750Y340750D02*
X349750D01*
X1131500Y294750D02*
X1132000Y295250D01*
Y303750D01*
X1138750Y310500D01*
X1158500Y354000D02*
X1169750D01*
X1184500Y613000D02*
X1196000D01*
X1231000Y697000D02*
X1238500D01*
X635750Y709750D02*
X635750Y709750D01*
X622750Y709750D02*
Y717750D01*
X1135000Y588250D02*
X1137000Y586250D01*
X1130750Y588250D02*
X1135000D01*
X1032250Y485500D02*
Y493000D01*
X616250Y778500D02*
X630750Y793000D01*
X616250Y767750D02*
Y778500D01*
X1027114Y495250D02*
X1031114Y499250D01*
X1022250Y496750D02*
X1029250Y503750D01*
X1027114Y485636D02*
X1027250Y485500D01*
X1027114Y485636D02*
Y495250D01*
X629250Y767750D02*
Y779250D01*
X1022250Y485500D02*
Y496750D01*
X897750Y778750D02*
X938500D01*
X893750Y774750D02*
X897750Y778750D01*
X893750Y768500D02*
Y774750D01*
X642250Y767750D02*
Y774000D01*
X695000Y767750D02*
X695500Y768250D01*
X648750Y767750D02*
X695000D01*
X1007000Y296750D02*
X1013250D01*
X955404Y400750D02*
X962500D01*
X926750Y442251D02*
X942249D01*
X702000Y370000D02*
X707000Y375000D01*
X716000D01*
X701250Y349000D02*
X716000D01*
X718750Y288750D02*
X749500D01*
X706750Y276750D02*
X718750Y288750D01*
X699250Y276750D02*
X706750D01*
X848000Y342500D02*
X855000Y335500D01*
X774000Y368500D02*
X781250D01*
X865750Y335500D02*
X865750Y335500D01*
X855000Y335500D02*
X865750D01*
X780000Y619500D02*
Y625750D01*
X735250Y462500D02*
Y468750D01*
X1013000Y548000D02*
X1019750D01*
X1004000Y539000D02*
X1013000Y548000D01*
X785500Y767500D02*
X793750D01*
X1176000Y697000D02*
X1181750D01*
X1201250Y638750D02*
X1224000D01*
X1196000Y633500D02*
X1201250Y638750D01*
X1196000Y628000D02*
Y633500D01*
X1124750Y483250D02*
Y489750D01*
X1106000Y464500D02*
X1124750Y483250D01*
X1195000Y663250D02*
X1216250D01*
X1195250Y697000D02*
X1216500D01*
X1224000Y638750D02*
X1236250Y626500D01*
Y581500D02*
Y626500D01*
X1208000Y553250D02*
X1236250Y581500D01*
X1203000Y553250D02*
X1208000D01*
X1219000Y628000D02*
X1226750D01*
X1203000Y571750D02*
X1219500D01*
X1203000Y590750D02*
X1213000D01*
X1099000Y450750D02*
X1106000Y457750D01*
Y464500D01*
X852750Y303500D02*
Y308000D01*
X755000Y305750D02*
X755250Y305500D01*
Y294500D02*
Y305500D01*
X749500Y288750D02*
X755250Y294500D01*
X609750Y767750D02*
X609750Y767750D01*
X591750Y767750D02*
X609750D01*
X795250Y381500D02*
X795250Y381500D01*
X785750Y464000D02*
Y470250D01*
X782250Y473750D02*
X785750Y470250D01*
X782750Y552250D02*
X783000Y552500D01*
X969000Y549500D02*
Y555500D01*
X965750Y558750D02*
X969000Y555500D01*
X926750Y558750D02*
X965750D01*
X922000Y554000D02*
X926750Y558750D01*
X922000Y548000D02*
Y554000D01*
X874250Y616500D02*
Y624250D01*
X823500Y617250D02*
Y622000D01*
X731750Y617250D02*
Y622500D01*
X692500Y696750D02*
Y701250D01*
X941750Y770000D02*
Y775500D01*
X938500Y778750D02*
X941750Y775500D01*
X841000Y768500D02*
Y775000D01*
X837250Y778750D02*
X841000Y775000D01*
X798000Y778750D02*
X837250D01*
X793750Y774500D02*
X798000Y778750D01*
X793750Y767500D02*
Y774500D01*
X699250Y778500D02*
X745500D01*
X695500Y774750D02*
X699250Y778500D01*
X695500Y768250D02*
Y774750D01*
X1133500Y386250D02*
Y397250D01*
X1112250Y316250D02*
X1116750D01*
X1126250Y325750D01*
X1116750Y335250D02*
X1126250Y325750D01*
X1112000Y335250D02*
X1116750D01*
X1081250Y276000D02*
X1086250D01*
X1095750Y285500D01*
X1086250Y295000D02*
X1095750Y285500D01*
X1081250Y295000D02*
X1086250D01*
X1104000Y423250D02*
X1133500D01*
X1133500Y423250D01*
X1077000Y420750D02*
X1090533D01*
X1133500Y386250D02*
X1133500Y386250D01*
X1174500Y344500D02*
X1175000Y345000D01*
X1131500Y340000D02*
Y344500D01*
Y340000D02*
X1133500Y338000D01*
Y332500D02*
Y338000D01*
X1067500Y316000D02*
X1067750Y316250D01*
X1101000Y344500D02*
X1131500D01*
X1099250Y342750D02*
X1101000Y344500D01*
X1099250Y336000D02*
Y342750D01*
X1098500Y335250D02*
X1099250Y336000D01*
X1067750Y269750D02*
Y276000D01*
X1133500Y324000D02*
Y332500D01*
X1115250Y305750D02*
X1133500Y324000D01*
X1071750Y305750D02*
X1115250D01*
X1067500Y310000D02*
X1071750Y305750D01*
X1067500Y310000D02*
Y316000D01*
X1138750Y310500D02*
Y327500D01*
X1133750Y332500D02*
X1138750Y327500D01*
X1133500Y332500D02*
X1133750D01*
X1142250D01*
X1061250Y294500D02*
X1067250D01*
X1067750Y295000D01*
X1098750Y317250D02*
Y321654D01*
X1091250Y329154D02*
X1098750Y321654D01*
X1078000Y354250D02*
X1083364D01*
X1171000Y275750D02*
Y303750D01*
X1142250Y332500D02*
X1171000Y303750D01*
X1131500Y272500D02*
Y276750D01*
X1073250Y264250D02*
X1159500D01*
X1067750Y269750D02*
X1073250Y264250D01*
X1159500D02*
X1171000Y275750D01*
X1131500Y272500D02*
X1135250Y268750D01*
X1151839D01*
X1165750Y282661D01*
X1165750Y282661D02*
X1165750Y282661D01*
X1165750Y282661D02*
Y298000D01*
X1154250Y309500D02*
X1165750Y298000D01*
X1131500Y344500D02*
Y348750D01*
X1091250Y329154D02*
Y346364D01*
X1083364Y354250D02*
X1091250Y346364D01*
X1119500Y360750D02*
X1131500Y348750D01*
X485500Y749200D02*
Y767000D01*
Y749200D02*
X485650Y749050D01*
X455650Y731350D02*
Y749050D01*
X622750Y751000D02*
Y767750D01*
X815750Y620000D02*
X818500Y617250D01*
X823500D01*
X797500Y697000D02*
X803000D01*
X807250Y701250D01*
Y704000D01*
X836500Y684500D02*
X843250D01*
X833750Y687250D02*
X836500Y684500D01*
X1019750Y548000D02*
X1026250D01*
X1077250Y558000D02*
X1086250Y549000D01*
X1097500D01*
X1097750Y548750D01*
X826750Y549250D02*
X827250Y549750D01*
X872500Y559000D02*
X876750Y554750D01*
Y548500D02*
Y554750D01*
X827250Y549750D02*
Y555000D01*
X823000Y554000D02*
X827250Y549750D01*
X823000Y554000D02*
Y557250D01*
X829000Y563250D01*
X1182750Y590750D02*
X1189500D01*
Y550750D02*
Y553250D01*
Y550750D02*
X1195850Y544400D01*
X1182250Y547154D02*
X1189504Y539900D01*
X1182250Y547154D02*
Y559750D01*
X1189500Y567000D01*
Y571750D01*
X847500Y298250D02*
X852750Y303500D01*
X822404Y292500D02*
X835096D01*
X840846Y298250D02*
X847500D01*
X816654D02*
X822404Y292500D01*
X835096D02*
X840846Y298250D01*
X768500Y272250D02*
Y289000D01*
X777750Y298250D01*
X816654D01*
X707000Y342500D02*
X716000D01*
X725000Y368500D02*
X728750Y372250D01*
X716000Y368500D02*
X725000D01*
X716000Y355500D02*
X722500D01*
X764000Y378804D02*
X767804Y375000D01*
X774000D01*
X926750Y393750D02*
Y404751D01*
X926750Y393750D02*
X926750Y393750D01*
X885750Y429751D02*
Y442251D01*
Y429751D02*
X900999D01*
X904000Y426750D01*
Y407500D02*
Y426750D01*
X901251Y404751D02*
X904000Y407500D01*
X885750Y404751D02*
X901251D01*
X830250Y327000D02*
X841250D01*
X909750Y375750D02*
Y380750D01*
X774000Y339500D02*
Y342500D01*
Y339500D02*
X779500Y334000D01*
X942249Y442251D02*
X944250Y440250D01*
X1124250Y490250D02*
X1124750Y489750D01*
X1130750Y580346D02*
Y588250D01*
X1147000Y522750D02*
Y527500D01*
X1124500Y566250D02*
X1132250D01*
X1077000Y405750D02*
X1077250Y405500D01*
X1127250Y403500D02*
X1133500Y397250D01*
X1077000Y400750D02*
X1077250Y400500D01*
X1095438Y403500D02*
X1127250D01*
X1095552Y409750D02*
X1104000D01*
X1077000Y395750D02*
X1077250Y395500D01*
X1077000Y430750D02*
X1077250Y431000D01*
X1052000Y371250D02*
X1052250Y371000D01*
X1037250D02*
Y383000D01*
X1035500Y384750D02*
X1037250Y383000D01*
X1035500Y384750D02*
Y390750D01*
X1014000Y387000D02*
Y391750D01*
X1054000Y455500D02*
X1076750D01*
X1077000Y455750D01*
X1076750Y460500D02*
X1077000Y460750D01*
X1076750Y465500D02*
X1077000Y465750D01*
X1047250Y473000D02*
Y485500D01*
X1012250Y476000D02*
Y485500D01*
X1007250D02*
X1007500Y485250D01*
X1017250Y478404D02*
Y485500D01*
X997250D02*
X997500Y485250D01*
X992250Y485500D02*
X992500Y485250D01*
X948750Y407404D02*
X955404Y400750D01*
X948750Y407404D02*
Y446500D01*
X954040Y455750D02*
X962500D01*
X952676Y450750D02*
X962500D01*
X953250Y462904D02*
Y466500D01*
Y462904D02*
X955154Y461000D01*
X962250D01*
X962500Y465750D02*
Y466089D01*
Y445750D02*
X970000D01*
X962750Y441000D02*
X971614D01*
X962500Y440750D02*
X962750Y441000D01*
X962500Y435750D02*
X962750Y436000D01*
X972978D01*
X980750Y443772D01*
X962500Y430750D02*
X974092D01*
X962500Y425750D02*
X975500D01*
X962500Y420750D02*
X979750D01*
X987000Y370750D02*
X987250Y371000D01*
X987000Y361750D02*
Y370750D01*
X978000Y361750D02*
X987000D01*
X970000Y353750D02*
X978000Y361750D01*
X923750Y339500D02*
X938000Y353750D01*
X923750Y338154D02*
Y339500D01*
X916846Y331250D02*
X923750Y338154D01*
X909154Y331250D02*
X916846D01*
X900500Y322596D02*
X909154Y331250D01*
X962500Y395750D02*
X969596D01*
X971750Y393596D01*
Y389000D02*
Y393596D01*
Y389000D02*
X974250Y386500D01*
X985000D01*
X962500Y405750D02*
X962750Y405500D01*
X969846D01*
X971750Y403596D01*
Y401500D02*
Y403596D01*
X962500Y410750D02*
X976500D01*
X962500Y415750D02*
X984500D01*
X947750Y277250D02*
X955250D01*
X1169750Y354000D02*
X1173557Y357807D01*
X1088000Y323000D02*
Y326040D01*
X1086750Y327290D02*
X1088000Y326040D01*
X1084000Y347250D02*
X1086750Y344500D01*
Y327290D02*
Y344500D01*
X1081250Y316250D02*
X1088000Y323000D01*
X1080500Y327500D02*
X1081250Y326750D01*
X1080500Y327500D02*
Y335250D01*
X1081250Y316250D02*
Y326750D01*
X970000Y445750D02*
X971750Y447500D01*
X971614Y441000D02*
X976250Y445636D01*
X980750Y443772D02*
Y455750D01*
X699250Y294250D02*
X742250Y337250D01*
X716000Y362000D02*
X736750D01*
X742250Y337250D02*
Y356500D01*
X736750Y362000D02*
X742250Y356500D01*
X825750Y307250D02*
X825790Y307290D01*
X1012250Y476000D02*
X1016050Y472200D01*
X853500Y421500D02*
X870249Y404751D01*
X884750Y696250D02*
Y701750D01*
X630750Y793000D02*
X969228D01*
X897154Y657750D02*
X915846D01*
X1086250Y432904D02*
Y436250D01*
X1057250Y485500D02*
X1094500D01*
X1104750Y507750D02*
Y528904D01*
X1109250Y527040D02*
X1110250Y528040D01*
X1109250Y505886D02*
Y527040D01*
X1113750Y525176D02*
X1114750Y526176D01*
X1113750Y504022D02*
Y525176D01*
X1100750Y503750D02*
X1104750Y507750D01*
X1102614Y499250D02*
X1109250Y505886D01*
X1104478Y494750D02*
X1113750Y504022D01*
X1032250Y493000D02*
X1034000Y494750D01*
X1029250Y503750D02*
X1100750D01*
X1031114Y499250D02*
X1102614D01*
X1034000Y494750D02*
X1104478D01*
X1094500Y485500D02*
X1099250Y490250D01*
X1106342D01*
X1118250Y502158D01*
Y523312D01*
X1119250Y524312D01*
Y530500D01*
X1119250Y530500D01*
X1104750Y528904D02*
X1105750Y529904D01*
X1105500Y540846D02*
X1105750Y540596D01*
Y529904D02*
Y540596D01*
X1105500Y543154D02*
X1105750Y543404D01*
X1105500Y540846D02*
Y543154D01*
X1183500Y612000D02*
X1184500Y613000D01*
X774000Y381500D02*
Y385750D01*
X777750Y389500D01*
X764000Y378804D02*
Y411500D01*
X728750Y372250D02*
Y399500D01*
X716000Y381500D02*
X716750Y382250D01*
X716000Y381500D02*
Y396250D01*
X747750Y439750D02*
Y440096D01*
X749654Y442000D01*
X768346D01*
X770250Y440096D01*
X728750Y399500D02*
X741000Y411750D01*
X745750D01*
X716000Y396250D02*
X731000Y411250D01*
X1002096Y532500D02*
X1004000Y534404D01*
Y539000D01*
X716000Y537154D02*
Y541500D01*
X735250Y468750D02*
X740250Y473750D01*
X782250D01*
X710500Y430500D02*
X738500D01*
X747750Y439750D01*
X629250Y685750D02*
Y709750D01*
X642250Y683250D02*
Y709750D01*
X800250Y552250D02*
X803250Y549250D01*
X731750Y622500D02*
X736500Y627250D01*
X728000Y621000D02*
X731750Y617250D01*
X728000Y621000D02*
Y626500D01*
X1068339Y558000D02*
X1077250D01*
X1054846Y556500D02*
X1054846Y556500D01*
X1066839D01*
X1068339Y558000D01*
X1026250Y548000D02*
X1034750Y556500D01*
X1054846D01*
X913250Y548000D02*
X922000D01*
X829000Y563250D02*
X898000D01*
X913250Y548000D01*
X803250Y549250D02*
X826750D01*
X827250Y555000D02*
X831250Y559000D01*
X872500D01*
X778500Y627250D02*
X780000Y625750D01*
X723386Y628250D02*
X731386Y636250D01*
X728000Y626500D02*
X733250Y631750D01*
X716000Y541500D02*
X726000Y551500D01*
X731750D01*
X455650Y731350D02*
X466500Y720500D01*
X1125750Y378500D02*
X1133500Y386250D01*
X1112500Y378500D02*
X1125750D01*
X1167500Y609411D02*
Y688500D01*
X1176000Y697000D01*
X852750Y308000D02*
Y316500D01*
X860250Y324000D01*
X849250Y452750D02*
X867250D01*
X869251Y454751D01*
X885750D01*
X770250Y438500D02*
Y440096D01*
Y438500D02*
X784000Y424750D01*
X1196000Y649250D02*
X1197750Y647500D01*
X1200032Y649782D01*
X947250Y276750D02*
X947750Y277250D01*
X768500Y305750D02*
X780000D01*
X1035500Y390750D02*
X1035800Y390449D01*
X953800Y301800D02*
X955250Y303250D01*
X1221350Y544400D02*
X1229250Y536500D01*
X1195850Y544400D02*
X1221350D01*
X779500Y334000D02*
X789000D01*
X774000Y355500D02*
X775000Y356500D01*
X774000Y349000D02*
X788250D01*
X787750Y348500D02*
X788250Y349000D01*
X790089Y342250D02*
X790339Y342500D01*
X848000D01*
X774000D02*
X774250Y342250D01*
X790089D01*
X786288Y336712D02*
X789000Y334000D01*
X756750Y327750D02*
X758484Y326016D01*
X1028000Y320250D02*
Y324500D01*
X1013250Y316250D02*
X1024000D01*
X1028000Y320250D01*
X1013250Y309750D02*
X1027000D01*
X781250Y368500D02*
X787250Y362500D01*
Y361904D02*
Y362500D01*
Y361904D02*
X789404Y359750D01*
X775000Y356500D02*
X786290D01*
X787540Y355250D01*
X783038Y332766D02*
Y333461D01*
X787538Y348712D02*
X787750Y348500D01*
X787538Y348712D02*
Y348767D01*
X824000Y359750D02*
X829500Y365250D01*
X825790Y307290D02*
Y308765D01*
X817129Y359767D02*
X817146Y359750D01*
X824000D01*
X783038Y333461D02*
X786288Y336712D01*
X780914Y580000D02*
X783750D01*
X789500Y585750D01*
X727750Y579000D02*
X779914D01*
X780914Y580000D01*
X772000Y552250D02*
X782750D01*
X731750Y551500D02*
X741768D01*
X795056Y355250D02*
X798539Y351767D01*
X787540Y355250D02*
X795056D01*
X793538Y326016D02*
X796289Y323266D01*
X758484Y326016D02*
X793538D01*
X609750Y757636D02*
Y767750D01*
X635750Y760200D02*
Y767750D01*
X635750Y709750D02*
Y721938D01*
X638031Y724219D01*
X880750Y696250D02*
X884750D01*
X1189504Y539900D02*
X1210350D01*
X1215250Y535000D01*
X1227060Y534310D02*
X1229250Y536500D01*
X1227060Y529026D02*
Y534310D01*
X969228Y793000D02*
X993750Y768478D01*
X965500Y784000D02*
X984750Y764750D01*
X642250Y774000D02*
X652250Y784000D01*
X965500D01*
X967364Y788500D02*
X989250Y766614D01*
X629250Y779250D02*
X638500Y788500D01*
X967364D01*
X616250Y687500D02*
Y709750D01*
Y687500D02*
X643375Y660375D01*
X655718Y668532D02*
Y669782D01*
Y668532D02*
X674500Y649750D01*
X675750D01*
X789404Y359750D02*
X811934D01*
X795250Y367000D02*
X796018Y367768D01*
X811934Y359750D02*
X811951Y359767D01*
X817129D01*
X796018Y367768D02*
X796286Y367500D01*
X813750D01*
X851750Y473500D02*
X856977D01*
X866613Y473363D02*
X878226Y461751D01*
X874500Y481000D02*
X889249Y466251D01*
X841000Y452750D02*
X849250D01*
X797500Y418500D02*
X806750D01*
X841000Y452750D01*
X794289Y415289D02*
X797500Y418500D01*
X946612Y481524D02*
X946839Y481750D01*
X1003750Y277250D02*
X1013250D01*
X983500Y257000D02*
X1003750Y277250D01*
X927500Y279500D02*
Y288136D01*
X919250Y274904D02*
Y284096D01*
X920250Y285096D01*
X919250Y274904D02*
X928904Y265250D01*
X998000Y289500D02*
X1003750Y283750D01*
X1013250D01*
X1056750Y299000D02*
X1061250Y294500D01*
X1036250Y290250D02*
X1062250Y264250D01*
X1013250Y290250D02*
X1036250D01*
X1040000Y299000D02*
X1056750D01*
X982250Y371000D02*
Y378000D01*
X1032500Y359547D02*
Y364500D01*
X1027250Y360661D02*
Y371000D01*
X938000Y353750D02*
X970000D01*
X955250Y296750D02*
X962500D01*
X965250Y294000D01*
Y274554D02*
Y294000D01*
X962896Y272200D02*
X965250Y274554D01*
X958950Y272200D02*
X962896D01*
X953750Y267000D02*
X958950Y272200D01*
X941500Y344750D02*
X942000Y345250D01*
X1035800Y389269D02*
X1037481D01*
X1035800D02*
Y390449D01*
X955250Y309750D02*
X965000D01*
X1092250Y360750D02*
X1119500D01*
X1086250Y386500D02*
X1087000Y385750D01*
X1027000Y309750D02*
X1043000Y325750D01*
X1065000D01*
X1067750Y328500D01*
Y335250D01*
X998000Y289500D02*
Y296500D01*
X991500Y303000D02*
X998000Y296500D01*
X991500Y303000D02*
Y326864D01*
X996000Y307750D02*
X1007000Y296750D01*
X996000Y307750D02*
Y325000D01*
X1006864Y303250D02*
X1013250D01*
X1000500Y309614D02*
X1006864Y303250D01*
X1012886Y348250D02*
X1014839D01*
X1027250Y360661D01*
X1016703Y343750D02*
X1032500Y359547D01*
X1014750Y343750D02*
X1016703D01*
X1052000Y371250D02*
Y380250D01*
X1057250Y357500D02*
Y371000D01*
X1000500Y309614D02*
X1003700Y312814D01*
Y319396D01*
X1035054Y350750D01*
X1059339D01*
X1046500Y380250D02*
X1052000D01*
X1037481Y389269D02*
X1046500Y380250D01*
X1067250Y347250D02*
X1084000D01*
X1063500Y354911D02*
Y360089D01*
X1061750Y361839D02*
X1063500Y360089D01*
X1061750Y361839D02*
Y363404D01*
X1062000Y363654D01*
Y378346D01*
X1059339Y350750D02*
X1063500Y354911D01*
X1056500Y383846D02*
X1062000Y378346D01*
X849250Y421500D02*
X853500D01*
X1077250Y431000D02*
X1084346D01*
X1086250Y432904D01*
X1077000Y425750D02*
X1086694D01*
X1091715Y430771D01*
X1077250Y405500D02*
X1084757D01*
X1085257Y405000D01*
X1077000Y410750D02*
X1085871D01*
X1087121Y409500D01*
X1089438D01*
X1095438Y403500D01*
X1077000Y415750D02*
X1087234D01*
X1088985Y414000D01*
X1091302D01*
X1095552Y409750D01*
X1090533Y420750D02*
X1090803Y421020D01*
X1077000Y450750D02*
X1099000D01*
X949977Y469773D02*
X953250Y466500D01*
X926750Y454751D02*
X940499D01*
X948750Y446500D01*
X948750Y461040D02*
Y461461D01*
Y461040D02*
X954040Y455750D01*
X946839Y481750D02*
X962500Y466089D01*
X945796Y481524D02*
X946612D01*
X774288Y497774D02*
X784100D01*
X784100Y497774D01*
X976250Y445636D02*
Y475909D01*
X665500Y737230D02*
Y737657D01*
X692500Y701250D02*
X697500Y706250D01*
X744250D01*
X665500Y737230D02*
X669195Y733536D01*
X671871D01*
X777750Y389500D02*
Y409250D01*
X794289Y415020D02*
Y415289D01*
X811661Y383000D02*
X871339D01*
X784000Y410661D02*
Y424750D01*
Y410661D02*
X811661Y383000D01*
X949546Y469342D02*
X949977Y469773D01*
X942096Y461751D02*
X944000Y459847D01*
X859500Y481000D02*
X874500D01*
X946365Y472523D02*
X949546Y469342D01*
X878226Y461751D02*
X942096D01*
X889249Y466251D02*
X943960D01*
X948750Y461461D01*
X944000Y459426D02*
Y459847D01*
Y459426D02*
X952676Y450750D01*
X1137000Y580250D02*
Y586250D01*
Y580250D02*
X1147000Y570250D01*
X1028273Y457523D02*
X1028503D01*
X997500Y464225D02*
Y485250D01*
X1002250Y465839D02*
Y485500D01*
X1007500Y468161D02*
Y485250D01*
X1037250Y478203D02*
Y485500D01*
X1026639Y462023D02*
X1030500Y465884D01*
X1028503Y457523D02*
X1035000Y464020D01*
X1038911Y460000D02*
X1043297D01*
X1043411Y453750D02*
X1050161Y460500D01*
X1076750D01*
X1043297Y460000D02*
X1048797Y465500D01*
X1076750D01*
X1019750Y455589D02*
X1020050Y455289D01*
X1009000Y442725D02*
Y451047D01*
X1091715Y430771D02*
X1092553D01*
X1090000Y440000D02*
X1091089D01*
X1086250Y436250D02*
X1090000Y440000D01*
X992250Y415000D02*
X1002750Y425500D01*
X1013500Y444589D02*
Y452911D01*
X975500Y425750D02*
X988250Y438500D01*
X993000Y462361D02*
X994000Y461361D01*
X980750Y455750D02*
X983750Y458750D01*
X1124750Y489750D02*
X1158500Y523500D01*
X1167500Y609411D02*
X1168750Y608161D01*
X1157741Y564741D02*
X1159250Y566250D01*
X1170500Y539000D02*
X1172000Y540500D01*
X1168750Y583114D02*
Y608161D01*
X1172000Y540500D02*
Y572460D01*
X1166750Y571346D02*
X1167500Y570596D01*
X1171250Y573210D02*
X1172000Y572460D01*
X1171250Y573210D02*
Y579250D01*
X1182750Y590750D01*
X1166750Y571346D02*
Y581114D01*
X1168750Y583114D01*
X1147000Y527500D02*
X1150250Y530750D01*
X1167500Y561904D02*
Y570596D01*
X1158500Y523500D02*
Y547250D01*
X1159250Y548000D01*
Y553654D01*
X1167500Y561904D01*
X1150250Y530750D02*
Y550846D01*
X1151500Y552096D01*
Y552268D01*
X1157741Y558509D01*
Y564741D01*
X1133500Y527500D02*
Y535500D01*
X1139250Y515000D02*
X1147000Y522750D01*
Y553960D02*
Y570250D01*
X1145500Y552460D02*
X1147000Y553960D01*
X1145500Y547500D02*
Y552460D01*
X1133500Y535500D02*
X1145500Y547500D01*
X1230750Y663250D02*
X1231282Y663782D01*
X1200032Y649782D02*
X1201532Y648282D01*
X1232310D01*
X1231282Y663782D02*
X1238533Y656532D01*
X1239061D02*
X1240061Y657532D01*
X1238533Y656532D02*
X1239061D01*
X1238500Y697000D02*
X1242250Y700750D01*
X1213250Y470500D02*
X1217318D01*
X1145000Y293750D02*
X1151000D01*
X1159500Y285250D01*
X1151000Y276750D02*
X1159500Y285250D01*
X1145000Y276750D02*
X1151000D01*
X1224450Y474500D02*
Y483150D01*
X1239800Y468500D02*
X1241250D01*
X1224450Y453150D02*
X1239800Y468500D01*
X1188308Y384942D02*
X1193750Y379500D01*
X1188308Y384942D02*
Y388269D01*
X1193750Y379500D02*
X1218750D01*
X1224450Y385200D01*
Y393150D01*
X675750Y305000D02*
X683750Y297000D01*
Y294404D02*
Y297000D01*
Y294404D02*
X692654Y285500D01*
X699250D01*
Y276750D02*
Y285500D01*
Y294250D01*
X900500Y320750D02*
Y322596D01*
X909750Y380750D02*
X917500Y388500D01*
X955250Y290250D02*
X955250Y290250D01*
X938250Y283750D02*
X955250D01*
X955250Y316250D02*
X955250Y316250D01*
X954985Y316515D02*
X955250Y316250D01*
X942081Y301800D02*
X953800D01*
X996000Y325000D02*
X1014750Y343750D01*
X991500Y326864D02*
X1012886Y348250D01*
X965000Y309750D02*
X997500Y342250D01*
X1022250Y371000D02*
Y382250D01*
X1025000Y385000D01*
X985000Y386500D02*
X985250Y386250D01*
X992250Y371000D02*
Y415000D01*
X1017250Y371000D02*
Y383614D01*
X1020500Y386864D01*
X1012250Y371000D02*
Y385250D01*
X1014000Y387000D01*
X1007250Y371000D02*
Y396000D01*
X997250Y371000D02*
Y405250D01*
X1002250Y371000D02*
Y401000D01*
X1025000Y385000D02*
Y407750D01*
X1020500Y386864D02*
Y412089D01*
X941546Y316515D02*
X954985D01*
X941546Y301265D02*
X942081Y301800D01*
X915500Y302750D02*
X920250Y298000D01*
Y285096D02*
Y298000D01*
X1038661Y473250D02*
X1041136D01*
X1042250Y474364D01*
Y485500D01*
X1041250Y467000D02*
X1047250Y473000D01*
X1034250Y450953D02*
X1035250Y451953D01*
Y456339D01*
X1038911Y460000D01*
X988250Y438500D02*
X1004250D01*
X1007250Y396000D02*
X1013750Y402500D01*
X971750Y401500D02*
X976000Y397250D01*
X976500Y410750D02*
X980750Y406500D01*
X1023800Y471354D02*
X1024050Y471604D01*
X1056500Y383846D02*
Y410500D01*
X1034250Y432750D02*
Y450953D01*
Y432750D02*
X1056500Y410500D01*
X976000Y397250D02*
X985250D01*
X1013750Y392000D02*
X1014000Y391750D01*
X1001978Y448522D02*
X1002049D01*
X1013500Y444589D02*
X1018500Y439589D01*
X1002750Y425250D02*
Y425500D01*
X1035000Y464020D02*
Y469589D01*
X1038661Y473250D01*
X1030500Y465884D02*
Y471453D01*
X1037250Y478203D01*
X1023800Y468523D02*
Y471354D01*
X1000300Y450200D02*
X1001978Y448522D01*
X1004800Y455248D02*
X1009000Y451047D01*
X1009300Y457112D02*
X1013500Y452911D01*
X1015550Y471700D02*
X1016050Y472200D01*
X994000Y458500D02*
Y461361D01*
X997500Y464225D02*
X1000300Y461425D01*
Y450200D02*
Y461425D01*
X1004800Y455248D02*
Y463289D01*
X1002250Y465839D02*
X1004800Y463289D01*
X1009300Y457112D02*
Y466361D01*
X1007500Y468161D02*
X1009300Y466361D01*
X1015550Y463773D02*
Y471700D01*
X990353Y532500D02*
X1002096D01*
X979000Y636750D02*
X980250Y635500D01*
X1015500Y428250D02*
Y432411D01*
X1028500Y420089D02*
Y424000D01*
X1028050Y432389D02*
Y435021D01*
X1022250Y426589D02*
X1028050Y432389D01*
X997250Y405250D02*
X1011250Y419250D01*
X1002250Y401000D02*
X1022250Y421000D01*
Y426589D01*
X1020500Y412089D02*
X1028500Y420089D01*
X1025000Y407750D02*
X1030250Y413000D01*
X1041500Y453750D02*
X1043411D01*
X979750Y420750D02*
X988250Y429250D01*
X994000D01*
X1091911Y360750D02*
X1092250D01*
X1077000Y375661D02*
Y390750D01*
Y375661D02*
X1091911Y360750D01*
X1087000Y374500D02*
Y385750D01*
X1095500Y390500D02*
X1097000Y389000D01*
Y381000D02*
Y389000D01*
X1052000Y453500D02*
X1054000Y455500D01*
X1020050Y448022D02*
Y455289D01*
X1012250Y435661D02*
X1015500Y432411D01*
X1012250Y435661D02*
Y439475D01*
X1009000Y442725D02*
X1012250Y439475D01*
X1018500Y438250D02*
Y439589D01*
X784100Y497774D02*
X946816D01*
X959846Y480500D02*
X971750Y468596D01*
X959846Y480500D02*
X959870Y480523D01*
X961797Y482451D01*
Y489774D01*
X968500Y483659D02*
X976250Y475909D01*
X968500Y483659D02*
Y485000D01*
X1027750Y457000D02*
X1028273Y457523D01*
X1019750Y455589D02*
X1026831Y462669D01*
X1027750Y454750D02*
Y457000D01*
X860250Y324000D02*
X892000D01*
X898750Y330750D01*
Y356500D01*
X890000Y365250D02*
X898750Y356500D01*
X829500Y365250D02*
X890000D01*
X896250Y368750D02*
Y375750D01*
Y368750D02*
X902000Y363000D01*
X906500D01*
X399000Y294750D02*
X409096D01*
X381500Y277250D02*
X399000Y294750D01*
X269000Y323750D02*
X269250Y323500D01*
X419700Y749050D02*
X425650D01*
X406700D02*
X410750Y745000D01*
X410770Y757980D02*
Y761037D01*
Y757980D02*
X419700Y749050D01*
X274250Y555250D02*
Y677250D01*
X314250Y476500D02*
X324750Y487000D01*
Y504750D01*
X274250Y555250D02*
X324750Y504750D01*
X889346Y290000D02*
X891250Y288096D01*
X861000Y297250D02*
X864750Y301000D01*
X861000Y285404D02*
X861000Y285404D01*
X861000Y285250D02*
Y285404D01*
X552250Y268250D02*
Y290250D01*
X861000Y285404D02*
Y297250D01*
X866542Y290958D02*
Y292264D01*
Y290958D02*
X867500Y290000D01*
X889346D01*
X859250Y283500D02*
X861000Y285250D01*
X858250Y283500D02*
X859250D01*
X856542Y281792D02*
X858250Y283500D01*
X856542Y279367D02*
Y281792D01*
X839925Y262750D02*
X856542Y279367D01*
X709425Y262750D02*
X839925D01*
X615000Y267250D02*
Y271750D01*
X264750Y285649D02*
Y314851D01*
X269250Y319351D02*
Y323500D01*
X264750Y314851D02*
X269250Y319351D01*
X582596Y267250D02*
X615000D01*
X314250Y473453D02*
Y476500D01*
X269000Y428203D02*
X314250Y473453D01*
X269000Y323750D02*
Y428203D01*
X269250Y287513D02*
Y312987D01*
X273750Y317487D01*
Y426589D01*
X329250Y482089D01*
Y506614D01*
X280500Y555364D02*
X329250Y506614D01*
X280500Y555364D02*
Y677136D01*
X334000Y730636D01*
X335250Y731886D02*
X382804D01*
X274250Y677250D02*
X333386Y736386D01*
X384668D01*
X387954Y733100D01*
X451150D01*
X471453Y709750D02*
X475453Y713750D01*
X561500D01*
X404940Y709750D02*
X471453D01*
X382804Y731886D02*
X404940Y709750D01*
X451150Y727511D02*
Y733100D01*
Y727511D02*
X464411Y714250D01*
X469589D01*
X473589Y718250D01*
X558222D01*
X559222Y719250D01*
X562750D01*
X566500Y723000D01*
X644089Y736750D02*
X653553Y727286D01*
X622750Y751000D02*
X632500Y741250D01*
X651000D01*
X609750Y757636D02*
X630636Y736750D01*
X644089D01*
X638031Y724219D02*
Y730286D01*
X622750Y717750D02*
X628250Y723250D01*
X1003612Y684000D02*
X1006112Y686500D01*
X1017000D01*
X1024000Y679500D01*
X1043500D01*
X715250Y536404D02*
X716000Y537154D01*
X715250Y518000D02*
Y536404D01*
X741768Y551500D02*
X746250Y555982D01*
Y558096D01*
X748154Y560000D01*
X766846D01*
X768750Y558096D01*
Y555500D02*
Y558096D01*
Y555500D02*
X772000Y552250D01*
X984750Y763377D02*
X1105750Y642377D01*
Y543404D02*
Y642377D01*
X1110250Y528040D02*
Y644241D01*
X1114750Y526176D02*
Y646105D01*
X944250Y399000D02*
Y440250D01*
X979500Y380750D02*
X982250Y378000D01*
X943500Y380750D02*
X979500D01*
X939500Y384750D02*
X943500Y380750D01*
X939500Y394250D02*
X944250Y399000D01*
X948500Y390750D02*
X962500D01*
X939500Y384750D02*
Y394250D01*
X946750Y389000D02*
X948500Y390750D01*
X1133500Y423250D02*
Y433000D01*
X1127250Y439250D02*
X1133500Y433000D01*
X1120250Y439250D02*
X1127250D01*
X264750Y285649D02*
X296399Y254000D01*
X707039D01*
X711289Y258250D01*
X269250Y287513D02*
X298263Y258500D01*
X705175D01*
X709425Y262750D01*
X563089Y265000D02*
X563589Y265500D01*
X555500Y265000D02*
X563089D01*
X563589Y265500D02*
X566654D01*
X552250Y268250D02*
X555500Y265000D01*
X569154Y263000D02*
X578346D01*
X566654Y265500D02*
X569154Y263000D01*
X578346D02*
X582596Y267250D01*
X903500Y263250D02*
Y270500D01*
Y263250D02*
X909750Y257000D01*
X983500D01*
X928904Y265250D02*
X931750D01*
X937046Y472523D02*
X946365D01*
X824750Y321500D02*
X830250Y327000D01*
X1084346Y395500D02*
X1086250Y393596D01*
X1090750Y391886D02*
Y395460D01*
X1077250Y395500D02*
X1084346D01*
X1086250Y386500D02*
Y393596D01*
X1085257Y405000D02*
X1087574D01*
X1077250Y400500D02*
X1085710D01*
X1090750Y395460D01*
Y391886D02*
X1092136Y390500D01*
X1095500D01*
X1087574Y405000D02*
X1097574Y395000D01*
X1102500D01*
X885500Y760250D02*
X893750Y768500D01*
X885500Y743175D02*
Y760250D01*
Y743175D02*
X894000Y734675D01*
Y727222D02*
Y734675D01*
X889000Y722222D02*
X894000Y727222D01*
X889000Y706000D02*
Y722222D01*
X753250Y732750D02*
X761500Y741000D01*
X543500Y680250D02*
X571000Y652750D01*
Y652500D02*
Y652750D01*
X687980Y710750D02*
X747596D01*
X653553Y727286D02*
X669283D01*
X671871Y733536D02*
X675533Y729874D01*
Y723197D02*
Y729874D01*
Y723197D02*
X687980Y710750D01*
X711289Y258250D02*
X873000D01*
X886250Y271500D01*
X889346D01*
X891250Y273404D01*
Y288096D01*
X890750Y266000D02*
X899000D01*
X903500Y270500D01*
X941500Y290250D02*
X955250D01*
X931750Y265250D02*
X932000Y265500D01*
X940000Y276750D02*
X947250D01*
X926500Y289136D02*
X927500Y288136D01*
X931000Y291000D02*
X938250Y283750D01*
X926500Y289136D02*
Y293161D01*
X925500Y294161D02*
X926500Y293161D01*
X925500Y294161D02*
Y313515D01*
X931000Y291000D02*
Y297500D01*
X915500Y302750D02*
Y324750D01*
X946816Y497774D02*
X955066Y506024D01*
X964700D01*
X967048Y508372D01*
Y509195D01*
X990353Y532500D01*
X987250Y485500D02*
Y494250D01*
X982548Y498952D02*
X987250Y494250D01*
X982548Y498952D02*
Y502775D01*
X982250Y485500D02*
Y491000D01*
X980500Y492750D02*
X982250Y491000D01*
X976572Y492750D02*
X980500D01*
X976548Y492774D02*
X976572Y492750D01*
D34*
X909750Y630750D02*
X917500Y623000D01*
X1175000Y415425D02*
X1203825Y444250D01*
X1175000Y379000D02*
Y415425D01*
Y379000D02*
X1176500Y377500D01*
X1175000Y379000D02*
Y379250D01*
X643375Y649875D02*
Y660375D01*
Y649875D02*
X643500Y649750D01*
X651000Y657750D02*
Y664000D01*
X629250Y685750D02*
X651000Y664000D01*
X621500Y520000D02*
X642250Y499250D01*
X669250D01*
X672550Y502550D01*
X687893D01*
X695250Y509907D01*
Y520742D01*
X699284Y524776D01*
X866477Y473500D02*
X866613Y473363D01*
X856977Y473500D02*
X866477D01*
X813485Y409750D02*
X816500D01*
X807485Y403750D02*
X813485Y409750D01*
X796921Y403750D02*
X807485D01*
X788250Y424250D02*
X797500Y433500D01*
X1105750Y444500D02*
X1111250Y450000D01*
X1060000Y440750D02*
X1077000D01*
X1049500Y430250D02*
X1060000Y440750D01*
X1077000Y445750D02*
X1089015D01*
X917500Y617250D02*
Y623000D01*
X788250Y412422D02*
X796921Y403750D01*
X788250Y412422D02*
Y424250D01*
X857289Y487524D02*
X951062D01*
X809289Y437036D02*
Y439524D01*
X805753Y433500D02*
X809289Y437036D01*
X797500Y433500D02*
X805753D01*
X809289Y439524D02*
X857289Y487524D01*
X1089015Y445750D02*
X1089515Y445250D01*
X1093263D01*
X1094014Y444500D01*
X1105750D01*
X1163250Y691493D02*
X1176507Y704750D01*
X1178250D01*
X1185500Y712000D01*
X1214243D01*
X1163250Y656750D02*
Y691493D01*
X1145531Y639031D02*
X1163250Y656750D01*
X1141806Y639031D02*
X1145531D01*
X1244500Y654547D02*
X1245311Y655358D01*
Y679190D01*
X1244500Y449907D02*
Y459227D01*
X1214243Y712000D02*
X1224250Y701993D01*
Y691007D02*
Y701993D01*
Y691007D02*
X1226007Y689250D01*
X1235250D01*
X1245311Y679190D01*
X1217318Y470500D02*
X1218819Y472000D01*
X1221950D01*
X1224450Y474500D01*
X1244500Y459227D02*
X1246500Y461227D01*
Y473819D01*
X1244500Y475819D02*
X1246500Y473819D01*
X1244500Y475819D02*
Y654547D01*
X1203825Y444250D02*
X1208175D01*
X1208625Y443800D01*
X1238393D01*
X1244500Y449907D01*
X951062Y487524D02*
X959312Y495774D01*
X970020D01*
X993976Y508024D02*
X998000Y504000D01*
X980373Y508024D02*
X993976D01*
X628500Y271750D02*
X635250Y278500D01*
X650743D01*
X663750Y291507D01*
Y307250D01*
X648000Y323000D02*
X663750Y307250D01*
X648000Y323000D02*
Y331750D01*
X785750Y450500D02*
X795250D01*
X809000Y464250D01*
Y485500D01*
X1129500Y470500D02*
X1133000Y474000D01*
X1126757Y470500D02*
X1129500D01*
X1125000Y468743D02*
X1126757Y470500D01*
X1125000Y458500D02*
Y468743D01*
Y458500D02*
X1127500Y456000D01*
X1133000D01*
X1137000Y452000D02*
X1145000D01*
X1133000Y456000D02*
X1137000Y452000D01*
X931500Y683000D02*
X951500Y703000D01*
Y726250D01*
X671500Y759250D02*
X677750Y753000D01*
Y748825D02*
Y753000D01*
X708257Y744000D02*
X711757Y747500D01*
X733425D01*
X742389Y738536D01*
X677750Y748825D02*
X682575Y744000D01*
X708257D01*
X742389Y738536D02*
X747287D01*
X970020Y495774D02*
X977298Y503052D01*
Y504949D01*
X980373Y508024D01*
D35*
X300000Y753250D02*
D03*
X300000Y300250D02*
D03*
X1203250Y753250D02*
D03*
Y300250D02*
D03*
D36*
X1011000Y774250D02*
D03*
X1112600D02*
D03*
D37*
X1011000Y672650D02*
D03*
X1112600D02*
D03*
D38*
X888500Y729500D02*
D03*
X871793Y662032D02*
D03*
X848541Y726035D02*
D03*
X854250Y736750D02*
D03*
X754250Y662500D02*
D03*
X758287Y653782D02*
D03*
X792250Y580000D02*
D03*
X906000Y584250D02*
D03*
X981750Y611750D02*
D03*
X979048Y660032D02*
D03*
X992298Y665533D02*
D03*
X986750Y677500D02*
D03*
X1173557Y364768D02*
D03*
X549500Y727500D02*
D03*
X932500Y728500D02*
D03*
X783250Y725750D02*
D03*
X858000Y676000D02*
D03*
Y698000D02*
D03*
X913500Y726500D02*
D03*
X962500Y678250D02*
D03*
X740286Y656532D02*
D03*
X802500Y667500D02*
D03*
X784538Y666283D02*
D03*
X1043500Y679500D02*
D03*
X1058500Y679750D02*
D03*
X693000Y622000D02*
D03*
X703250D02*
D03*
X802000Y585750D02*
D03*
X889750Y333000D02*
D03*
X991048Y448272D02*
D03*
X904250Y388500D02*
D03*
X985000Y416250D02*
D03*
X1126250Y325750D02*
D03*
X1120250Y439250D02*
D03*
X1133500Y332500D02*
D03*
X1093500Y723250D02*
D03*
X926750Y393750D02*
D03*
X840750Y404750D02*
D03*
X1063000Y736750D02*
D03*
X864250Y587250D02*
D03*
X675033Y649032D02*
D03*
X1012250Y354500D02*
D03*
X1051750Y736250D02*
D03*
X771538Y588029D02*
D03*
X791789Y598529D02*
D03*
X873043Y590279D02*
D03*
X781500Y586750D02*
D03*
X1040250Y748000D02*
D03*
X643500Y649750D02*
D03*
X651000Y657750D02*
D03*
X682250Y664750D02*
D03*
X1206000Y439000D02*
D03*
X953750Y267000D02*
D03*
X942000Y345250D02*
D03*
X1035800Y389269D02*
D03*
X1049500Y430250D02*
D03*
X1111250Y450000D02*
D03*
X849250Y421500D02*
D03*
X1090803Y421020D02*
D03*
X1092750Y450500D02*
D03*
X945796Y481524D02*
D03*
X953500Y736500D02*
D03*
X941750Y734250D02*
D03*
X834750Y735250D02*
D03*
X876500Y724750D02*
D03*
X1087000Y713250D02*
D03*
X732536Y665283D02*
D03*
X795250Y650500D02*
D03*
X746750Y667250D02*
D03*
X671783Y739786D02*
D03*
X1089500Y612000D02*
D03*
X1092553Y430771D02*
D03*
X1091089Y440000D02*
D03*
X983750Y458750D02*
D03*
X1144250Y626500D02*
D03*
X1141806Y639031D02*
D03*
X1240061Y657532D02*
D03*
X1097303Y621280D02*
D03*
X1213250Y470500D02*
D03*
X1241250Y468500D02*
D03*
X1188308Y388269D02*
D03*
X1121750Y371500D02*
D03*
X906500Y363000D02*
D03*
X917500Y388500D02*
D03*
X925295Y313515D02*
D03*
X997500Y342250D02*
D03*
X984798Y342767D02*
D03*
X985250Y386250D02*
D03*
X941546Y316515D02*
D03*
Y301265D02*
D03*
X1041250Y467000D02*
D03*
X1004250Y438500D02*
D03*
X1089053Y596279D02*
D03*
X1099000Y604500D02*
D03*
X1013750Y402500D02*
D03*
X980750Y406500D02*
D03*
X889250Y595500D02*
D03*
X985250Y397250D02*
D03*
X1013750Y392000D02*
D03*
X1002049Y448522D02*
D03*
X1002750Y425250D02*
D03*
X1023800Y468523D02*
D03*
X994000Y458500D02*
D03*
X1015550Y463773D02*
D03*
X980250Y635750D02*
D03*
X1008500Y505750D02*
D03*
X1015500Y428250D02*
D03*
X1028500Y424000D02*
D03*
X1028050Y435021D02*
D03*
X1011250Y419250D02*
D03*
X1030250Y413000D02*
D03*
X1041500Y453750D02*
D03*
X994000Y429250D02*
D03*
X1052000Y453500D02*
D03*
X1020050Y448022D02*
D03*
X1018500Y438250D02*
D03*
X961797Y489774D02*
D03*
X968500Y485000D02*
D03*
X998000Y504000D02*
D03*
X982548Y502775D02*
D03*
X976548Y492774D02*
D03*
X1027750Y454750D02*
D03*
X823250Y587000D02*
D03*
X905500Y352750D02*
D03*
X864750Y301000D02*
D03*
X866542Y292264D02*
D03*
X862542Y279014D02*
D03*
X561500Y713750D02*
D03*
X566500Y723000D02*
D03*
X591750Y742250D02*
D03*
X683000Y751000D02*
D03*
X651032Y721035D02*
D03*
X651000Y741250D02*
D03*
X638031Y730286D02*
D03*
X628250Y723250D02*
D03*
X586000Y729500D02*
D03*
X766750Y725000D02*
D03*
X817250Y653250D02*
D03*
X809000Y485500D02*
D03*
X951500Y726250D02*
D03*
X1075750Y634000D02*
D03*
X1123305Y645531D02*
D03*
X1123055Y632031D02*
D03*
X1237750Y764250D02*
D03*
X937046Y472523D02*
D03*
X684033Y738286D02*
D03*
X681783Y725785D02*
D03*
X692784Y729536D02*
D03*
X714500Y725000D02*
D03*
X727750Y724750D02*
D03*
X736500Y737000D02*
D03*
X702034Y731536D02*
D03*
X801250Y727500D02*
D03*
X753250Y732750D02*
D03*
X747287Y738536D02*
D03*
X737500Y727750D02*
D03*
X659032Y735286D02*
D03*
X669283Y727286D02*
D03*
X890750Y266000D02*
D03*
X941500Y290250D02*
D03*
X932000Y265500D02*
D03*
X940000Y276750D02*
D03*
X931000Y297500D02*
D03*
D39*
X874000Y647500D02*
D03*
X806750Y650250D02*
D03*
X518500Y302500D02*
D03*
X793250Y737750D02*
D03*
X1175000Y379250D02*
D03*
X777750Y651000D02*
D03*
X828290Y646532D02*
D03*
X1164750Y764250D02*
D03*
X901794Y727286D02*
D03*
D40*
X910250Y646000D02*
D03*
X1173807Y778538D02*
D03*
X1181558Y786288D02*
D03*
X423000Y772500D02*
D03*
X925500Y577750D02*
D03*
X916545Y587529D02*
D03*
X1096500Y523750D02*
D03*
X595250Y377000D02*
D03*
X582250Y376750D02*
D03*
X568250Y377000D02*
D03*
X596000Y407000D02*
D03*
X582250Y407250D02*
D03*
X568750Y407000D02*
D03*
X593750Y497000D02*
D03*
X581750Y497250D02*
D03*
X570500D02*
D03*
X471750Y419000D02*
D03*
X481000Y414250D02*
D03*
X471750Y406750D02*
D03*
X481000Y399250D02*
D03*
X472000Y392000D02*
D03*
X483500Y502500D02*
D03*
X470000D02*
D03*
X482750Y522000D02*
D03*
X470000D02*
D03*
X484500Y543000D02*
D03*
X470500Y543750D02*
D03*
X483250Y569750D02*
D03*
X469750D02*
D03*
X483500Y591250D02*
D03*
X472250D02*
D03*
X483250Y612000D02*
D03*
X471500D02*
D03*
X578528Y328516D02*
D03*
X582778Y344517D02*
D03*
X502500Y382250D02*
D03*
X362750Y380500D02*
D03*
X510250Y373750D02*
D03*
X515500Y616000D02*
D03*
X524750Y625250D02*
D03*
X519250Y597750D02*
D03*
X422000Y307750D02*
D03*
X435500Y310250D02*
D03*
X382750Y335250D02*
D03*
X509750Y588750D02*
D03*
X501000Y739500D02*
D03*
X467000Y720500D02*
D03*
X519250Y571750D02*
D03*
X510500Y727250D02*
D03*
X944500Y649250D02*
D03*
X1152750Y476250D02*
D03*
X519250Y541750D02*
D03*
X519500Y512000D02*
D03*
Y482000D02*
D03*
X519750Y422000D02*
D03*
X519250Y392000D02*
D03*
X628250Y376000D02*
D03*
X631750Y385000D02*
D03*
X337000Y445250D02*
D03*
X337750Y427750D02*
D03*
X1225250Y598000D02*
D03*
X651500Y451750D02*
D03*
X747536Y491524D02*
D03*
X731536D02*
D03*
X703534Y500774D02*
D03*
X776000Y521000D02*
D03*
X699284Y524776D02*
D03*
X739036Y519025D02*
D03*
X733286Y344517D02*
D03*
X675000Y328750D02*
D03*
X686534Y325766D02*
D03*
X702750Y338250D02*
D03*
X519250Y362000D02*
D03*
X651250Y541750D02*
D03*
X1173750Y612000D02*
D03*
X342750Y340750D02*
D03*
X1095750Y285500D02*
D03*
X1175000Y345000D02*
D03*
X1078000Y354250D02*
D03*
X1154250Y309500D02*
D03*
X1234000Y729000D02*
D03*
X1025000Y558250D02*
D03*
X336250Y722000D02*
D03*
X386500Y690250D02*
D03*
X704250Y596000D02*
D03*
X868500Y518750D02*
D03*
X706000Y553250D02*
D03*
X788500Y521750D02*
D03*
X798500Y526750D02*
D03*
X820750Y517250D02*
D03*
X892250Y551500D02*
D03*
X1159500Y716750D02*
D03*
X1156250Y661750D02*
D03*
X1237750Y504250D02*
D03*
X560500Y271250D02*
D03*
X743500Y272250D02*
D03*
X1102500Y395000D02*
D03*
X883500Y518750D02*
D03*
X868750Y389250D02*
D03*
X543500Y680250D02*
D03*
X764000Y411500D02*
D03*
X745750Y411750D02*
D03*
X731000Y411250D02*
D03*
X774288Y497774D02*
D03*
X710500Y430500D02*
D03*
X800250Y552250D02*
D03*
X891250Y620250D02*
D03*
X1054551Y570778D02*
D03*
X1043801D02*
D03*
X727750Y579250D02*
D03*
X552250Y290250D02*
D03*
X541500Y269250D02*
D03*
X1112500Y378500D02*
D03*
X849250Y452750D02*
D03*
X571500Y296500D02*
D03*
X504250Y403000D02*
D03*
X604250Y300000D02*
D03*
X675750Y305000D02*
D03*
X782250Y291000D02*
D03*
X610750Y315500D02*
D03*
X743500Y312000D02*
D03*
X780000Y305750D02*
D03*
X1028000Y324500D02*
D03*
X1027000Y309750D02*
D03*
X796289Y323266D02*
D03*
X783038Y332766D02*
D03*
X787538Y348767D02*
D03*
X798539Y351767D02*
D03*
X825790Y308765D02*
D03*
X641000Y437750D02*
D03*
X620500Y426000D02*
D03*
X519775Y454522D02*
D03*
X644500Y535250D02*
D03*
X338000Y531750D02*
D03*
X625750Y501500D02*
D03*
X610250Y547750D02*
D03*
X337000Y577500D02*
D03*
X651250Y571750D02*
D03*
X615750Y574500D02*
D03*
X504000Y457250D02*
D03*
X504500Y481250D02*
D03*
X513250Y493250D02*
D03*
X1208750Y526500D02*
D03*
X1215250Y535000D02*
D03*
X1227060Y529026D02*
D03*
X509750Y467250D02*
D03*
X503750Y505250D02*
D03*
X319250Y463250D02*
D03*
X337750Y561750D02*
D03*
X306500Y500000D02*
D03*
X291250Y510750D02*
D03*
X1143250Y717000D02*
D03*
X405000Y363500D02*
D03*
X422750Y358250D02*
D03*
X405500Y348500D02*
D03*
X423000Y343500D02*
D03*
X482750Y345000D02*
D03*
X482500Y364250D02*
D03*
X472750Y332750D02*
D03*
X473250Y355250D02*
D03*
X694500Y584500D02*
D03*
X611750Y588750D02*
D03*
X617250Y598750D02*
D03*
X621500Y520000D02*
D03*
X813750Y367500D02*
D03*
X827750Y423250D02*
D03*
X816500Y409750D02*
D03*
X839500Y416000D02*
D03*
X838041Y429521D02*
D03*
X851750Y473500D02*
D03*
X805000Y409750D02*
D03*
X636750Y425250D02*
D03*
X338250Y471500D02*
D03*
X1062250Y264250D02*
D03*
X1040000Y299000D02*
D03*
X1092250Y360750D02*
D03*
X1067250Y347250D02*
D03*
X1057250Y357500D02*
D03*
X895000Y646000D02*
D03*
X777750Y409250D02*
D03*
X803000Y426250D02*
D03*
X794289Y415020D02*
D03*
X807250Y376250D02*
D03*
X786750Y437000D02*
D03*
X803289Y439521D02*
D03*
X859500Y481000D02*
D03*
X1164750Y527000D02*
D03*
X1170500Y539000D02*
D03*
X1159557Y592029D02*
D03*
X1145750Y606250D02*
D03*
X1157557Y604529D02*
D03*
X1139250Y515000D02*
D03*
X1157250Y579250D02*
D03*
X1232310Y648282D02*
D03*
X1242250Y700750D02*
D03*
X1231250Y377750D02*
D03*
X1159500Y285250D02*
D03*
X1206000Y388000D02*
D03*
X857750Y389250D02*
D03*
X900500Y320750D02*
D03*
X1087000Y374500D02*
D03*
X1097000Y381000D02*
D03*
X971000Y524107D02*
D03*
X863250Y317000D02*
D03*
X297750Y480000D02*
D03*
X410750Y745000D02*
D03*
X410770Y761037D02*
D03*
X306265Y474523D02*
D03*
X315750Y490500D02*
D03*
X715250Y518000D02*
D03*
X726250D02*
D03*
X536250Y304250D02*
D03*
X946750Y389000D02*
D03*
X648000Y331750D02*
D03*
X1145000Y452000D02*
D03*
X1054161Y621250D02*
D03*
X824750Y321500D02*
D03*
X814540Y353517D02*
D03*
X898044Y739536D02*
D03*
X757250Y723750D02*
D03*
X571000Y652500D02*
D03*
X343000Y277750D02*
D03*
D41*
X991000Y783250D02*
D03*
M02*
